<svg width="32" height="32" viewBox="0 0 32 32" fill="none" xmlns="http://www.w3.org/2000/svg">
<path d="M16 1.9375C8.2455 1.9375 1.9375 8.2455 1.9375 16C1.9375 23.7545 8.2455 30.0625 16 30.0625C23.7545 30.0625 30.0625 23.7545 30.0625 16C30.0625 8.2455 23.7545 1.9375 16 1.9375ZM16 22.5625C12.3818 22.5625 9.4375 19.6182 9.4375 16C9.4375 12.3818 12.3818 9.4375 16 9.4375C19.6182 9.4375 22.5625 12.3818 22.5625 16C22.5625 19.6182 19.6182 22.5625 16 22.5625Z" fill="url(#paint0_linear)"/>
<path d="M31.0625 14.125H21.625C21.1073 14.125 20.6875 14.5448 20.6875 15.0625V16.9375C20.6875 17.4552 21.1073 17.875 21.625 17.875H31.0625C31.5802 17.875 32 17.4552 32 16.9375V15.0625C32 14.5448 31.5802 14.125 31.0625 14.125ZM10.375 14.125H0.9375C0.41975 14.125 0 14.5448 0 15.0625V16.9375C0 17.4552 0.41975 17.875 0.9375 17.875H10.375C10.8927 17.875 11.3125 17.4552 11.3125 16.9375V15.0625C11.3125 14.5448 10.8927 14.125 10.375 14.125ZM16.9375 0H15.0625C14.5448 0 14.125 0.41975 14.125 0.9375V10.375C14.125 10.8927 14.5448 11.3125 15.0625 11.3125H16.9375C17.4552 11.3125 17.875 10.8927 17.875 10.375V0.9375C17.875 0.41975 17.4552 0 16.9375 0ZM16.9375 20.6875H15.0625C14.5448 20.6875 14.125 21.1073 14.125 21.625V31.0625C14.125 31.5802 14.5448 32 15.0625 32H16.9375C17.4552 32 17.875 31.5802 17.875 31.0625V21.625C17.875 21.1073 17.4552 20.6875 16.9375 20.6875Z" fill="#FFD2A5"/>
<defs>
<linearGradient id="paint0_linear" x1="-2.00485" y1="1.9375" x2="19.4767" y2="21.0262" gradientUnits="userSpaceOnUse">
<stop stop-color="#E95228"/>
<stop offset="1" stop-color="#EE9338"/>
</linearGradient>
</defs>
</svg>
