<svg width="30" height="30" viewBox="0 0 30 30" fill="none" xmlns="http://www.w3.org/2000/svg">
<path d="M26.25 0H3.75C1.68223 0 0 1.68223 0 3.75V13.125C0 15.1928 1.68223 16.875 3.75 16.875H26.25C28.3178 16.875 30 15.1928 30 13.125V3.75C30 1.68223 28.3178 0 26.25 0ZM6.09375 15V13.125H23.9062V15H6.09375ZM28.125 13.125C28.125 14.1589 27.2839 15 26.25 15H25.7812V12.1875C25.7812 11.6698 25.3615 11.25 24.8438 11.25H5.15625C4.63846 11.25 4.21875 11.6698 4.21875 12.1875V15H3.75C2.71611 15 1.875 14.1589 1.875 13.125V9.375H26.25C26.7678 9.375 27.1875 8.95523 27.1875 8.4375C27.1875 7.91977 26.7678 7.5 26.25 7.5H1.875V3.75C1.875 2.71611 2.71611 1.875 3.75 1.875H26.25C27.2839 1.875 28.125 2.71611 28.125 3.75V13.125Z" fill="#EE9338"/>
<path d="M7.5 17.8125C6.98221 17.8125 6.5625 18.2323 6.5625 18.75V24.375C6.5625 25.4089 5.72139 26.25 4.6875 26.25C4.16971 26.25 3.75 26.6698 3.75 27.1875C3.75 27.7052 4.16971 28.125 4.6875 28.125C6.75527 28.125 8.4375 26.4428 8.4375 24.375V18.75C8.4375 18.2323 8.01779 17.8125 7.5 17.8125Z" fill="#EE9338"/>
<path d="M25.7812 28.125C24.7474 28.125 23.9062 27.2839 23.9062 26.25V20.1562C23.9062 19.6385 23.4865 19.2188 22.9688 19.2188C22.451 19.2188 22.0312 19.6385 22.0312 20.1562V26.25C22.0312 28.3178 23.7135 30 25.7812 30C26.299 30 26.7188 29.5802 26.7188 29.0625C26.7188 28.5448 26.299 28.125 25.7812 28.125Z" fill="#EE9338"/>
<path d="M17.8125 28.125C16.7786 28.125 15.9375 27.2839 15.9375 26.25V21.0938C15.9375 20.576 15.5178 20.1562 15 20.1562C14.4822 20.1562 14.0625 20.576 14.0625 21.0938V26.25C14.0625 28.3178 15.7447 30 17.8125 30C18.3303 30 18.75 29.5802 18.75 29.0625C18.75 28.5448 18.3303 28.125 17.8125 28.125Z" fill="#EE9338"/>
<path d="M11.25 19.2188C10.7322 19.2188 10.3125 19.6385 10.3125 20.1562V27.1875C10.3125 27.7052 10.7322 28.125 11.25 28.125C11.7678 28.125 12.1875 27.7052 12.1875 27.1875V20.1562C12.1875 19.6385 11.7678 19.2188 11.25 19.2188Z" fill="#EE9338"/>
<path d="M18.75 17.8125C18.2322 17.8125 17.8125 18.2323 17.8125 18.75V23.9062C17.8125 24.424 18.2322 24.8438 18.75 24.8438C19.2678 24.8438 19.6875 24.424 19.6875 23.9062V18.75C19.6875 18.2323 19.2678 17.8125 18.75 17.8125Z" fill="#EE9338"/>
<path d="M25.3125 5.15625C25.8303 5.15625 26.25 4.73652 26.25 4.21875C26.25 3.70098 25.8303 3.28125 25.3125 3.28125C24.7947 3.28125 24.375 3.70098 24.375 4.21875C24.375 4.73652 24.7947 5.15625 25.3125 5.15625Z" fill="#EE9338"/>
<path d="M21.5625 5.15625C22.0803 5.15625 22.5 4.73652 22.5 4.21875C22.5 3.70098 22.0803 3.28125 21.5625 3.28125C21.0447 3.28125 20.625 3.70098 20.625 4.21875C20.625 4.73652 21.0447 5.15625 21.5625 5.15625Z" fill="#EE9338"/>
</svg>
