<svg width="18" height="19" viewBox="0 0 18 19" fill="none" xmlns="http://www.w3.org/2000/svg">
<path fill-rule="evenodd" clip-rule="evenodd" d="M2.11282 5.56144H7.14902V6.30205H2.11282C1.90773 6.30205 1.74441 6.13494 1.74441 5.93364C1.74062 5.72855 1.90773 5.56144 2.11282 5.56144ZM7.14902 17.2556H2.56099V7.04267H7.14902V17.2556ZM11.4218 17.2556H10.1153V13.3702H11.4218V17.2556ZM13.4727 17.2556H12.1662V13.3702H13.4727V17.2556ZM15.9301 17.2556H14.2134V13.0018C14.2134 12.7967 14.0462 12.6296 13.8412 12.6296H9.74687C9.54178 12.6296 9.37466 12.7967 9.37466 13.0018V17.2556H7.88963V3.16108H10.4343C10.6394 3.16108 10.8065 2.99397 10.8065 2.78887C10.8065 2.58378 10.6394 2.41667 10.4343 2.41667H7.03887C6.85657 2.41667 6.70085 2.26095 6.70085 2.07864C6.70085 1.89254 6.85277 1.74062 7.03887 1.74062H16.7846C16.9707 1.74062 17.1227 1.89254 17.1227 2.07864C17.1227 2.26095 16.9669 2.41667 16.7846 2.41667H13.3892C13.1841 2.41667 13.017 2.58378 13.017 2.78887C13.017 2.99397 13.1841 3.16108 13.3892 3.16108H15.9339V17.2556H15.9301ZM16.6745 17.2556V3.16108H16.7846C17.3809 3.16108 17.8633 2.67493 17.8633 2.07864C17.8633 1.48235 17.3771 1 16.7846 1H7.03887C6.44258 1 5.96023 1.48615 5.96023 2.07864C5.96023 2.67113 6.44638 3.16108 7.03887 3.16108H7.14902V4.82082H2.11282C1.49754 4.82082 1 5.31836 1 5.92985C1 6.43878 1.34562 6.87176 1.81658 7.00089V17.2556H1.64946C1.44437 17.2556 1.27726 17.4227 1.27726 17.6278C1.27726 17.8329 1.44437 18 1.64946 18H16.9214C17.1264 18 17.2936 17.8329 17.2936 17.6278C17.2936 17.4303 17.1378 17.267 16.9441 17.2594L16.6745 17.2556ZM9.49245 7.2365H11.0876C11.2927 7.2365 11.4598 7.06938 11.4598 6.86429V5.34128C11.4598 5.13618 11.2927 4.96907 11.0876 4.96907H9.49245C9.28735 4.96907 9.12024 5.13618 9.12024 5.34128V6.86429C9.12404 7.06938 9.28735 7.2365 9.49245 7.2365ZM9.86465 5.71348H10.7154V6.49588H9.86465V5.71348ZM5.52727 10.6775H4.01186C3.80676 10.6775 3.64345 10.5104 3.63965 10.3053V8.85821C3.63965 8.65312 3.80676 8.48601 4.01186 8.48601H5.52727C5.73236 8.48601 5.89948 8.65312 5.89948 8.85821V10.3053C5.89948 10.5104 5.73236 10.6775 5.52727 10.6775ZM5.15886 9.23042H4.38406V9.93686H5.15886V9.23042ZM5.52727 13.6019H4.01186C3.80676 13.6019 3.64345 13.4348 3.63965 13.2297V11.7827C3.63965 11.5776 3.80676 11.4105 4.01186 11.4105H5.52727C5.73236 11.4105 5.89948 11.5776 5.89948 11.7827V13.2297C5.89948 13.4348 5.73236 13.6019 5.52727 13.6019ZM5.15886 12.1549H4.38406V12.8613H5.15886V12.1549ZM14.3882 7.2365H12.793C12.588 7.2365 12.4208 7.06938 12.4208 6.86429V5.34128C12.4208 5.13618 12.588 4.96907 12.793 4.96907H14.3882C14.5933 4.96907 14.7604 5.13618 14.7604 5.34128V6.86429C14.7604 7.06938 14.5933 7.2365 14.3882 7.2365ZM14.016 5.71348H13.1653V6.49588H14.016V5.71348ZM11.1255 8.18588H9.53032C9.32522 8.18588 9.15811 8.353 9.15811 8.55809V10.0811C9.15811 10.2862 9.32522 10.4533 9.53032 10.4533H11.1255C11.3306 10.4533 11.4977 10.2862 11.4977 10.0811V8.55809C11.4977 8.353 11.3306 8.18588 11.1255 8.18588ZM10.7571 9.70889H9.90632V8.9265H10.7571V9.70889ZM12.8309 8.18588H14.4261C14.6312 8.18588 14.7983 8.353 14.7983 8.55809V10.0811C14.7983 10.2862 14.6312 10.4533 14.4261 10.4533H12.8309C12.6258 10.4533 12.4587 10.2862 12.4587 10.0811V8.55809C12.4587 8.353 12.6258 8.18588 12.8309 8.18588ZM13.2031 9.70889H14.0539V8.9265H13.2031V9.70889ZM11.908 2.42047H11.9156C12.1207 2.42047 12.2878 2.58758 12.2878 2.79268C12.2878 2.99777 12.1207 3.16489 11.9156 3.16489H11.908C11.7029 3.16489 11.5358 2.99777 11.5358 2.79268C11.5358 2.58758 11.7029 2.42047 11.908 2.42047Z" fill="#EE9338"/>
<path d="M7.14902 5.56144H7.19902V5.51144H7.14902V5.56144ZM7.14902 6.30205V6.35205H7.19902V6.30205H7.14902ZM1.74441 5.93364H1.79442L1.79441 5.93272L1.74441 5.93364ZM2.56099 17.2556H2.51099V17.3056H2.56099V17.2556ZM7.14902 17.2556V17.3056H7.19902V17.2556H7.14902ZM2.56099 7.04267V6.99267H2.51099V7.04267H2.56099ZM7.14902 7.04267H7.19902V6.99267H7.14902V7.04267ZM10.1153 17.2556H10.0653V17.3056H10.1153V17.2556ZM11.4218 17.2556V17.3056H11.4718V17.2556H11.4218ZM10.1153 13.3702V13.3202H10.0653V13.3702H10.1153ZM11.4218 13.3702H11.4718V13.3202H11.4218V13.3702ZM12.1662 17.2556H12.1162V17.3056H12.1662V17.2556ZM13.4727 17.2556V17.3056H13.5227V17.2556H13.4727ZM12.1662 13.3702V13.3202H12.1162V13.3702H12.1662ZM13.4727 13.3702H13.5227V13.3202H13.4727V13.3702ZM14.2134 17.2556H14.1634V17.3056H14.2134V17.2556ZM9.37466 17.2556V17.3056H9.42466V17.2556H9.37466ZM7.88963 17.2556H7.83963V17.3056H7.88963V17.2556ZM7.88963 3.16108V3.11108H7.83963V3.16108H7.88963ZM15.9339 3.16108H15.9839V3.11108H15.9339V3.16108ZM15.9339 17.2556V17.3056H15.9839V17.2556H15.9339ZM16.6745 3.16108V3.11108H16.6245V3.16108H16.6745ZM16.6745 17.2556H16.6245V17.3049L16.6738 17.3056L16.6745 17.2556ZM7.14902 3.16108H7.19902V3.11108H7.14902V3.16108ZM7.14902 4.82082V4.87082H7.19902V4.82082H7.14902ZM1.81658 7.00089H1.86658V6.96276L1.8298 6.95267L1.81658 7.00089ZM1.81658 17.2556V17.3056H1.86658V17.2556H1.81658ZM16.9441 17.2594L16.9461 17.2094L16.9448 17.2094L16.9441 17.2594ZM9.12024 6.86429H9.07023L9.07025 6.86521L9.12024 6.86429ZM10.7154 5.71348H10.7654V5.66348H10.7154V5.71348ZM9.86465 5.71348V5.66348H9.81465V5.71348H9.86465ZM10.7154 6.49588V6.54588H10.7654V6.49588H10.7154ZM9.86465 6.49588H9.81465V6.54588H9.86465V6.49588ZM3.63965 10.3053H3.58964L3.58966 10.3062L3.63965 10.3053ZM4.38406 9.23042V9.18042H4.33406V9.23042H4.38406ZM5.15886 9.23042H5.20886V9.18042H5.15886V9.23042ZM4.38406 9.93686H4.33406V9.98686H4.38406V9.93686ZM5.15886 9.93686V9.98686H5.20886V9.93686H5.15886ZM3.63965 13.2297H3.58964L3.58966 13.2307L3.63965 13.2297ZM4.38406 12.1549V12.1049H4.33406V12.1549H4.38406ZM5.15886 12.1549H5.20886V12.1049H5.15886V12.1549ZM4.38406 12.8613H4.33406V12.9113H4.38406V12.8613ZM5.15886 12.8613V12.9113H5.20886V12.8613H5.15886ZM13.1653 5.71348V5.66348H13.1153V5.71348H13.1653ZM14.016 5.71348H14.066V5.66348H14.016V5.71348ZM13.1653 6.49588H13.1153V6.54588H13.1653V6.49588ZM14.016 6.49588V6.54588H14.066V6.49588H14.016ZM9.90632 9.70889H9.85632V9.75889H9.90632V9.70889ZM10.7571 9.70889V9.75889H10.8071V9.70889H10.7571ZM9.90632 8.9265V8.8765H9.85632V8.9265H9.90632ZM10.7571 8.9265H10.8071V8.8765H10.7571V8.9265ZM14.0539 9.70889V9.75889H14.1039V9.70889H14.0539ZM13.2031 9.70889H13.1531V9.75889H13.2031V9.70889ZM14.0539 8.9265H14.1039V8.8765H14.0539V8.9265ZM13.2031 8.9265V8.8765H13.1531V8.9265H13.2031ZM7.14902 5.51144H2.11282V5.61144H7.14902V5.51144ZM7.19902 6.30205V5.56144H7.09902V6.30205H7.19902ZM2.11282 6.35205H7.14902V6.25205H2.11282V6.35205ZM1.69441 5.93364C1.69441 6.16222 1.87978 6.35205 2.11282 6.35205V6.25205C1.93568 6.25205 1.79441 6.10766 1.79441 5.93364H1.69441ZM2.11282 5.51144C1.8803 5.51144 1.6901 5.70096 1.69442 5.93457L1.79441 5.93272C1.79114 5.75614 1.93516 5.61144 2.11282 5.61144V5.51144ZM2.56099 17.3056H7.14902V17.2056H2.56099V17.3056ZM2.51099 7.04267V17.2556H2.61099V7.04267H2.51099ZM7.14902 6.99267H2.56099V7.09267H7.14902V6.99267ZM7.19902 17.2556V7.04267H7.09902V17.2556H7.19902ZM10.1153 17.3056H11.4218V17.2056H10.1153V17.3056ZM10.0653 13.3702V17.2556H10.1653V13.3702H10.0653ZM11.4218 13.3202H10.1153V13.4202H11.4218V13.3202ZM11.4718 17.2556V13.3702H11.3718V17.2556H11.4718ZM12.1662 17.3056H13.4727V17.2056H12.1662V17.3056ZM12.1162 13.3702V17.2556H12.2162V13.3702H12.1162ZM13.4727 13.3202H12.1662V13.4202H13.4727V13.3202ZM13.5227 17.2556V13.3702H13.4227V17.2556H13.5227ZM14.2134 17.3056H15.9301V17.2056H14.2134V17.3056ZM14.1634 13.0018V17.2556H14.2634V13.0018H14.1634ZM13.8412 12.6796C14.0186 12.6796 14.1634 12.8243 14.1634 13.0018H14.2634C14.2634 12.7691 14.0739 12.5796 13.8412 12.5796V12.6796ZM9.74687 12.6796H13.8412V12.5796H9.74687V12.6796ZM9.42466 13.0018C9.42466 12.8243 9.56939 12.6796 9.74687 12.6796V12.5796C9.51416 12.5796 9.32466 12.7691 9.32466 13.0018H9.42466ZM9.42466 17.2556V13.0018H9.32466V17.2556H9.42466ZM7.88963 17.3056H9.37466V17.2056H7.88963V17.3056ZM7.83963 3.16108V17.2556H7.93963V3.16108H7.83963ZM10.4343 3.11108H7.88963V3.21108H10.4343V3.11108ZM10.7565 2.78887C10.7565 2.96635 10.6118 3.11108 10.4343 3.11108V3.21108C10.667 3.21108 10.8565 3.02158 10.8565 2.78887H10.7565ZM10.4343 2.46667C10.6118 2.46667 10.7565 2.61139 10.7565 2.78887H10.8565C10.8565 2.55617 10.667 2.36667 10.4343 2.36667V2.46667ZM7.03887 2.46667H10.4343V2.36667H7.03887V2.46667ZM6.65085 2.07864C6.65085 2.28856 6.82895 2.46667 7.03887 2.46667V2.36667C6.88418 2.36667 6.75085 2.23333 6.75085 2.07864H6.65085ZM7.03887 1.69062C6.82516 1.69062 6.65085 1.86492 6.65085 2.07864H6.75085C6.75085 1.92015 6.88038 1.79062 7.03887 1.79062V1.69062ZM16.7846 1.69062H7.03887V1.79062H16.7846V1.69062ZM17.1727 2.07864C17.1727 1.86492 16.9983 1.69062 16.7846 1.69062V1.79062C16.9431 1.79062 17.0727 1.92015 17.0727 2.07864H17.1727ZM16.7846 2.46667C16.9945 2.46667 17.1727 2.28856 17.1727 2.07864H17.0727C17.0727 2.23333 16.9393 2.36667 16.7846 2.36667V2.46667ZM13.3892 2.46667H16.7846V2.36667H13.3892V2.46667ZM13.067 2.78887C13.067 2.61139 13.2117 2.46667 13.3892 2.46667V2.36667C13.1565 2.36667 12.967 2.55617 12.967 2.78887H13.067ZM13.3892 3.11108C13.2117 3.11108 13.067 2.96635 13.067 2.78887H12.967C12.967 3.02158 13.1565 3.21108 13.3892 3.21108V3.11108ZM15.9339 3.11108H13.3892V3.21108H15.9339V3.11108ZM15.9839 17.2556V3.16108H15.8839V17.2556H15.9839ZM15.9301 17.3056H15.9339V17.2056H15.9301V17.3056ZM16.6245 3.16108V17.2556H16.7245V3.16108H16.6245ZM16.7846 3.11108H16.6745V3.21108H16.7846V3.11108ZM17.8133 2.07864C17.8133 2.64755 17.3531 3.11108 16.7846 3.11108V3.21108C17.4088 3.21108 17.9133 2.70232 17.9133 2.07864H17.8133ZM16.7846 1.05C17.3496 1.05 17.8133 1.51008 17.8133 2.07864H17.9133C17.9133 1.45462 17.4046 0.95 16.7846 0.95V1.05ZM7.03887 1.05H16.7846V0.95H7.03887V1.05ZM6.01023 2.07864C6.01023 1.51365 6.47031 1.05 7.03887 1.05V0.95C6.41485 0.95 5.91023 1.45865 5.91023 2.07864H6.01023ZM7.03887 3.11108C6.47422 3.11108 6.01023 2.64375 6.01023 2.07864H5.91023C5.91023 2.69852 6.41854 3.21108 7.03887 3.21108V3.11108ZM7.14902 3.11108H7.03887V3.21108H7.14902V3.11108ZM7.19902 4.82082V3.16108H7.09902V4.82082H7.19902ZM2.11282 4.87082H7.14902V4.77082H2.11282V4.87082ZM1.05 5.92985C1.05 5.34609 1.52505 4.87082 2.11282 4.87082V4.77082C1.47004 4.77082 0.95 5.29064 0.95 5.92985H1.05ZM1.8298 6.95267C1.38005 6.82935 1.05 6.41574 1.05 5.92985H0.95C0.95 6.46183 1.31119 6.91416 1.80336 7.04911L1.8298 6.95267ZM1.86658 17.2556V7.00089H1.76658V17.2556H1.86658ZM1.64946 17.3056H1.81658V17.2056H1.64946V17.3056ZM1.32726 17.6278C1.32726 17.4503 1.47198 17.3056 1.64946 17.3056V17.2056C1.41676 17.2056 1.22726 17.3951 1.22726 17.6278H1.32726ZM1.64946 17.95C1.47198 17.95 1.32726 17.8053 1.32726 17.6278H1.22726C1.22726 17.8605 1.41676 18.05 1.64946 18.05V17.95ZM16.9214 17.95H1.64946V18.05H16.9214V17.95ZM17.2436 17.6278C17.2436 17.8053 17.0988 17.95 16.9214 17.95V18.05C17.1541 18.05 17.3436 17.8605 17.3436 17.6278H17.2436ZM16.9422 17.3093C17.1085 17.3159 17.2436 17.4566 17.2436 17.6278H17.3436C17.3436 17.404 17.1672 17.2181 16.9461 17.2094L16.9422 17.3093ZM16.6738 17.3056L16.9434 17.3094L16.9448 17.2094L16.6752 17.2056L16.6738 17.3056ZM11.0876 7.1865H9.49245V7.2865H11.0876V7.1865ZM11.4098 6.86429C11.4098 7.04177 11.2651 7.1865 11.0876 7.1865V7.2865C11.3203 7.2865 11.5098 7.097 11.5098 6.86429H11.4098ZM11.4098 5.34128V6.86429H11.5098V5.34128H11.4098ZM11.0876 5.01907C11.2651 5.01907 11.4098 5.1638 11.4098 5.34128H11.5098C11.5098 5.10857 11.3203 4.91907 11.0876 4.91907V5.01907ZM9.49245 5.01907H11.0876V4.91907H9.49245V5.01907ZM9.17024 5.34128C9.17024 5.1638 9.31497 5.01907 9.49245 5.01907V4.91907C9.25974 4.91907 9.07024 5.10857 9.07024 5.34128H9.17024ZM9.17024 6.86429V5.34128H9.07024V6.86429H9.17024ZM9.49245 7.1865C9.31579 7.1865 9.17355 7.04241 9.17023 6.86336L9.07025 6.86521C9.07453 7.09635 9.25891 7.2865 9.49245 7.2865V7.1865ZM10.7154 5.66348H9.86465V5.76348H10.7154V5.66348ZM10.7654 6.49588V5.71348H10.6654V6.49588H10.7654ZM9.86465 6.54588H10.7154V6.44588H9.86465V6.54588ZM9.81465 5.71348V6.49588H9.91465V5.71348H9.81465ZM4.01186 10.7275H5.52727V10.6275H4.01186V10.7275ZM3.58966 10.3062C3.59394 10.5373 3.77832 10.7275 4.01186 10.7275V10.6275C3.8352 10.6275 3.69296 10.4834 3.68964 10.3043L3.58966 10.3062ZM3.58965 8.85821V10.3053H3.68965V8.85821H3.58965ZM4.01186 8.43601C3.77915 8.43601 3.58965 8.62551 3.58965 8.85821H3.68965C3.68965 8.68074 3.83438 8.53601 4.01186 8.53601V8.43601ZM5.52727 8.43601H4.01186V8.53601H5.52727V8.43601ZM5.94948 8.85821C5.94948 8.62551 5.75998 8.43601 5.52727 8.43601V8.53601C5.70475 8.53601 5.84948 8.68073 5.84948 8.85821H5.94948ZM5.94948 10.3053V8.85821H5.84948V10.3053H5.94948ZM5.52727 10.7275C5.75998 10.7275 5.94948 10.538 5.94948 10.3053H5.84948C5.84948 10.4827 5.70475 10.6275 5.52727 10.6275V10.7275ZM4.38406 9.28042H5.15886V9.18042H4.38406V9.28042ZM4.43406 9.93686V9.23042H4.33406V9.93686H4.43406ZM5.15886 9.88686H4.38406V9.98686H5.15886V9.88686ZM5.10886 9.23042V9.93686H5.20886V9.23042H5.10886ZM4.01186 13.6519H5.52727V13.5519H4.01186V13.6519ZM3.58966 13.2307C3.59394 13.4618 3.77832 13.6519 4.01186 13.6519V13.5519C3.8352 13.5519 3.69296 13.4079 3.68964 13.2288L3.58966 13.2307ZM3.58965 11.7827V13.2297H3.68965V11.7827H3.58965ZM4.01186 11.3605C3.77915 11.3605 3.58965 11.55 3.58965 11.7827H3.68965C3.68965 11.6052 3.83438 11.4605 4.01186 11.4605V11.3605ZM5.52727 11.3605H4.01186V11.4605H5.52727V11.3605ZM5.94948 11.7827C5.94948 11.55 5.75998 11.3605 5.52727 11.3605V11.4605C5.70475 11.4605 5.84948 11.6052 5.84948 11.7827H5.94948ZM5.94948 13.2297V11.7827H5.84948V13.2297H5.94948ZM5.52727 13.6519C5.75998 13.6519 5.94948 13.4624 5.94948 13.2297H5.84948C5.84948 13.4072 5.70475 13.5519 5.52727 13.5519V13.6519ZM4.38406 12.2049H5.15886V12.1049H4.38406V12.2049ZM4.43406 12.8613V12.1549H4.33406V12.8613H4.43406ZM5.15886 12.8113H4.38406V12.9113H5.15886V12.8113ZM5.10886 12.1549V12.8613H5.20886V12.1549H5.10886ZM12.793 7.2865H14.3882V7.1865H12.793V7.2865ZM12.3708 6.86429C12.3708 7.097 12.5603 7.2865 12.793 7.2865V7.1865C12.6156 7.1865 12.4708 7.04177 12.4708 6.86429H12.3708ZM12.3708 5.34128V6.86429H12.4708V5.34128H12.3708ZM12.793 4.91907C12.5603 4.91907 12.3708 5.10857 12.3708 5.34128H12.4708C12.4708 5.1638 12.6156 5.01907 12.793 5.01907V4.91907ZM14.3882 4.91907H12.793V5.01907H14.3882V4.91907ZM14.8104 5.34128C14.8104 5.10857 14.6209 4.91907 14.3882 4.91907V5.01907C14.5657 5.01907 14.7104 5.1638 14.7104 5.34128H14.8104ZM14.8104 6.86429V5.34128H14.7104V6.86429H14.8104ZM14.3882 7.2865C14.6209 7.2865 14.8104 7.097 14.8104 6.86429H14.7104C14.7104 7.04177 14.5657 7.1865 14.3882 7.1865V7.2865ZM13.1653 5.76348H14.016V5.66348H13.1653V5.76348ZM13.2153 6.49588V5.71348H13.1153V6.49588H13.2153ZM14.016 6.44588H13.1653V6.54588H14.016V6.44588ZM13.966 5.71348V6.49588H14.066V5.71348H13.966ZM9.53032 8.23588H11.1255V8.13588H9.53032V8.23588ZM9.20811 8.55809C9.20811 8.38061 9.35284 8.23588 9.53032 8.23588V8.13588C9.29761 8.13588 9.10811 8.32538 9.10811 8.55809H9.20811ZM9.20811 10.0811V8.55809H9.10811V10.0811H9.20811ZM9.53032 10.4033C9.35284 10.4033 9.20811 10.2586 9.20811 10.0811H9.10811C9.10811 10.3138 9.29761 10.5033 9.53032 10.5033V10.4033ZM11.1255 10.4033H9.53032V10.5033H11.1255V10.4033ZM11.4477 10.0811C11.4477 10.2586 11.303 10.4033 11.1255 10.4033V10.5033C11.3582 10.5033 11.5477 10.3138 11.5477 10.0811H11.4477ZM11.4477 8.55809V10.0811H11.5477V8.55809H11.4477ZM11.1255 8.23588C11.303 8.23588 11.4477 8.38061 11.4477 8.55809H11.5477C11.5477 8.32538 11.3582 8.13588 11.1255 8.13588V8.23588ZM9.90632 9.75889H10.7571V9.65889H9.90632V9.75889ZM9.85632 8.9265V9.70889H9.95632V8.9265H9.85632ZM10.7571 8.8765H9.90632V8.9765H10.7571V8.8765ZM10.8071 9.70889V8.9265H10.7071V9.70889H10.8071ZM14.4261 8.13588H12.8309V8.23588H14.4261V8.13588ZM14.8483 8.55809C14.8483 8.32538 14.6588 8.13588 14.4261 8.13588V8.23588C14.6036 8.23588 14.7483 8.38061 14.7483 8.55809H14.8483ZM14.8483 10.0811V8.55809H14.7483V10.0811H14.8483ZM14.4261 10.5033C14.6588 10.5033 14.8483 10.3138 14.8483 10.0811H14.7483C14.7483 10.2586 14.6036 10.4033 14.4261 10.4033V10.5033ZM12.8309 10.5033H14.4261V10.4033H12.8309V10.5033ZM12.4087 10.0811C12.4087 10.3138 12.5982 10.5033 12.8309 10.5033V10.4033C12.6534 10.4033 12.5087 10.2586 12.5087 10.0811H12.4087ZM12.4087 8.55809V10.0811H12.5087V8.55809H12.4087ZM12.8309 8.13588C12.5982 8.13588 12.4087 8.32538 12.4087 8.55809H12.5087C12.5087 8.38061 12.6534 8.23588 12.8309 8.23588V8.13588ZM14.0539 9.65889H13.2031V9.75889H14.0539V9.65889ZM14.0039 8.9265V9.70889H14.1039V8.9265H14.0039ZM13.2031 8.9765H14.0539V8.8765H13.2031V8.9765ZM13.2531 9.70889V8.9265H13.1531V9.70889H13.2531ZM11.9156 2.37047H11.908V2.47047H11.9156V2.37047ZM12.3378 2.79268C12.3378 2.55997 12.1483 2.37047 11.9156 2.37047V2.47047C12.093 2.47047 12.2378 2.6152 12.2378 2.79268H12.3378ZM11.9156 3.21489C12.1483 3.21489 12.3378 3.02539 12.3378 2.79268H12.2378C12.2378 2.97016 12.093 3.11489 11.9156 3.11489V3.21489ZM11.908 3.21489H11.9156V3.11489H11.908V3.21489ZM11.4858 2.79268C11.4858 3.02539 11.6753 3.21489 11.908 3.21489V3.11489C11.7305 3.11489 11.5858 2.97016 11.5858 2.79268H11.4858ZM11.908 2.37047C11.6753 2.37047 11.4858 2.55997 11.4858 2.79268H11.5858C11.5858 2.6152 11.7305 2.47047 11.908 2.47047V2.37047Z" fill="#EE9338"/>
</svg>
