<svg width="22" height="22" viewBox="0 0 22 22" fill="none" xmlns="http://www.w3.org/2000/svg">
<path fill-rule="evenodd" clip-rule="evenodd" d="M1.49591 5.93297H7.97523V6.8858H1.49591C1.23205 6.8858 1.02193 6.67081 1.02193 6.41183C1.01705 6.14797 1.23205 5.93297 1.49591 5.93297ZM7.97523 20.9781H2.0725V7.83865H7.97523V20.9781ZM13.4724 20.9781H11.7915V15.9793H13.4724V20.9781ZM16.111 20.9781H14.4301V15.9793H16.111V20.9781ZM19.2725 20.9781H17.0639V15.5054C17.0639 15.2415 16.8488 15.0265 16.5851 15.0265H11.3175C11.0536 15.0265 10.8386 15.2415 10.8386 15.5054V20.9781H8.92806V2.84479H12.2019C12.4658 2.84479 12.6808 2.6298 12.6808 2.36592C12.6808 2.10207 12.4658 1.88707 12.2019 1.88707H7.83352C7.59898 1.88707 7.39864 1.68673 7.39864 1.45218C7.39864 1.21275 7.59409 1.0173 7.83352 1.0173H20.3719C20.6113 1.0173 20.8069 1.21275 20.8069 1.45218C20.8069 1.68673 20.6064 1.88707 20.3719 1.88707H16.0035C15.7397 1.88707 15.5247 2.10207 15.5247 2.36592C15.5247 2.6298 15.7397 2.84479 16.0035 2.84479H19.2774V20.9781H19.2725ZM20.2302 20.9781V2.84479H20.3719C21.1391 2.84479 21.7597 2.21933 21.7597 1.45218C21.7597 0.68502 21.1342 0.0644531 20.3719 0.0644531H7.83352C7.06636 0.0644531 6.44579 0.689909 6.44579 1.45218C6.44579 2.21445 7.07125 2.84479 7.83352 2.84479H7.97523V4.98013H1.49591C0.704319 4.98013 0.064209 5.62024 0.064209 6.40695C0.064209 7.06171 0.508866 7.61876 1.11478 7.7849V20.9781H0.899772C0.635913 20.9781 0.420918 21.1931 0.420918 21.4569C0.420918 21.7208 0.635913 21.9358 0.899772 21.9358H20.5479C20.8116 21.9358 21.0267 21.7208 21.0267 21.4569C21.0267 21.2029 20.8263 20.9928 20.5771 20.983L20.2302 20.9781ZM10.9902 8.08802H13.0424C13.3063 8.08802 13.5213 7.87301 13.5213 7.60915V5.64973C13.5213 5.38585 13.3063 5.17086 13.0424 5.17086H10.9902C10.7263 5.17086 10.5113 5.38585 10.5113 5.64973V7.60915C10.5162 7.87301 10.7263 8.08802 10.9902 8.08802ZM11.469 6.12858H12.5636V7.13518H11.469V6.12858ZM5.88877 12.515H3.93912C3.67525 12.515 3.46514 12.3001 3.46025 12.0362V10.1744C3.46025 9.91057 3.67525 9.69558 3.93912 9.69558H5.88877C6.15263 9.69558 6.36763 9.91057 6.36763 10.1744V12.0362C6.36763 12.3001 6.15263 12.515 5.88877 12.515ZM5.41479 10.6533H4.41797V11.5622H5.41479V10.6533ZM5.88877 16.2774H3.93912C3.67525 16.2774 3.46514 16.0624 3.46025 15.7986V13.9369C3.46025 13.6731 3.67525 13.4581 3.93912 13.4581H5.88877C6.15263 13.4581 6.36763 13.6731 6.36763 13.9369V15.7986C6.36763 16.0624 6.15263 16.2774 5.88877 16.2774ZM5.41479 14.4158H4.41797V15.3246H5.41479V14.4158ZM17.2888 8.08802H15.2365C14.9727 8.08802 14.7576 7.87301 14.7576 7.60915V5.64973C14.7576 5.38585 14.9727 5.17086 15.2365 5.17086H17.2888C17.5527 5.17086 17.7676 5.38585 17.7676 5.64973V7.60915C17.7676 7.87301 17.5527 8.08802 17.2888 8.08802ZM16.8099 6.12858H15.7155V7.13518H16.8099V6.12858ZM13.0912 9.30945H11.0389C10.775 9.30945 10.56 9.52445 10.56 9.78831V11.7477C10.56 12.0116 10.775 12.2266 11.0389 12.2266H13.0912C13.355 12.2266 13.57 12.0116 13.57 11.7477V9.78831C13.57 9.52445 13.355 9.30945 13.0912 9.30945ZM12.6172 11.2689H11.5226V10.2623H12.6172V11.2689ZM15.2853 9.30945H17.3376C17.6014 9.30945 17.8164 9.52445 17.8164 9.78831V11.7477C17.8164 12.0116 17.6014 12.2266 17.3376 12.2266H15.2853C15.0214 12.2266 14.8064 12.0116 14.8064 11.7477V9.78831C14.8064 9.52445 15.0214 9.30945 15.2853 9.30945ZM15.7641 11.2689H16.8587V10.2623H15.7641V11.2689ZM14.0979 1.89196H14.1077C14.3715 1.89196 14.5865 2.10695 14.5865 2.37083C14.5865 2.63468 14.3715 2.84969 14.1077 2.84969H14.0979C13.834 2.84969 13.619 2.63468 13.619 2.37083C13.619 2.10695 13.834 1.89196 14.0979 1.89196Z" fill="#2D5286"/>
<path d="M7.97535 5.93285H8.03968V5.86852H7.97535V5.93285ZM7.97535 6.88568V6.95001H8.03968V6.88568H7.97535ZM1.02205 6.4117H1.08639L1.08638 6.41052L1.02205 6.4117ZM2.07262 20.978H2.00829V21.0423H2.07262V20.978ZM7.97535 20.978V21.0423H8.03968V20.978H7.97535ZM2.07262 7.83852V7.7742H2.00829V7.83852H2.07262ZM7.97535 7.83852H8.03968V7.7742H7.97535V7.83852ZM11.7916 20.978H11.7273V21.0423H11.7916V20.978ZM13.4725 20.978V21.0423H13.5368V20.978H13.4725ZM11.7916 15.9792V15.9149H11.7273V15.9792H11.7916ZM13.4725 15.9792H13.5368V15.9149H13.4725V15.9792ZM14.4302 20.978H14.3659V21.0423H14.4302V20.978ZM16.1111 20.978V21.0423H16.1754V20.978H16.1111ZM14.4302 15.9792V15.9149H14.3659V15.9792H14.4302ZM16.1111 15.9792H16.1754V15.9149H16.1111V15.9792ZM17.064 20.978H16.9997V21.0423H17.064V20.978ZM10.8387 20.978V21.0423H10.9031V20.978H10.8387ZM8.92818 20.978H8.86385V21.0423H8.92818V20.978ZM8.92818 2.84466V2.78034H8.86385V2.84466H8.92818ZM19.2775 2.84466H19.3419V2.78034H19.2775V2.84466ZM19.2775 20.978V21.0423H19.3419V20.978H19.2775ZM20.2304 2.84466V2.78034H20.166V2.84466H20.2304ZM20.2304 20.978H20.166V21.0414L20.2295 21.0423L20.2304 20.978ZM7.97535 2.84466H8.03968V2.78034H7.97535V2.84466ZM7.97535 4.98V5.04433H8.03968V4.98H7.97535ZM1.1149 7.78477H1.17923V7.73572L1.13191 7.72273L1.1149 7.78477ZM1.1149 20.978V21.0423H1.17923V20.978H1.1149ZM20.5772 20.9829L20.5798 20.9185H20.5781L20.5772 20.9829ZM10.5114 7.60903H10.4471L10.4471 7.61021L10.5114 7.60903ZM12.5637 6.12845H12.628V6.06413H12.5637V6.12845ZM11.4691 6.12845V6.06413H11.4048V6.12845H11.4691ZM12.5637 7.13505V7.19938H12.628V7.13505H12.5637ZM11.4691 7.13505H11.4048V7.19938H11.4691V7.13505ZM3.46037 12.0361H3.39603L3.39605 12.0372L3.46037 12.0361ZM4.41809 10.6532V10.5888H4.35376V10.6532H4.41809ZM5.41491 10.6532H5.47924V10.5888H5.41491V10.6532ZM4.41809 11.562H4.35376V11.6264H4.41809V11.562ZM5.41491 11.562V11.6264H5.47924V11.562H5.41491ZM3.46037 15.7984H3.39603L3.39605 15.7997L3.46037 15.7984ZM4.41809 14.4157V14.3513H4.35376V14.4157H4.41809ZM5.41491 14.4157H5.47924V14.3513H5.41491V14.4157ZM4.41809 15.3245H4.35376V15.3888H4.41809V15.3245ZM5.41491 15.3245V15.3888H5.47924V15.3245H5.41491ZM15.7156 6.12845V6.06413H15.6513V6.12845H15.7156ZM16.8101 6.12845H16.8744V6.06413H16.8101V6.12845ZM15.7156 7.13505H15.6513V7.19938H15.7156V7.13505ZM16.8101 7.13505V7.19938H16.8744V7.13505H16.8101ZM11.5228 11.2687H11.4584V11.3331H11.5228V11.2687ZM12.6173 11.2687V11.3331H12.6817V11.2687H12.6173ZM11.5228 10.2622V10.1978H11.4584V10.2622H11.5228ZM12.6173 10.2622H12.6817V10.1978H12.6173V10.2622ZM16.8588 11.2687V11.3331H16.9231V11.2687H16.8588ZM15.7642 11.2687H15.6999V11.3331H15.7642V11.2687ZM16.8588 10.2622H16.9231V10.1978H16.8588V10.2622ZM15.7642 10.2622V10.1978H15.6999V10.2622H15.7642ZM7.97535 5.86852H1.49603V5.99718H7.97535V5.86852ZM8.03968 6.88568V5.93285H7.91102V6.88568H8.03968ZM1.49603 6.95001H7.97535V6.82135H1.49603V6.95001ZM0.957721 6.4117C0.957721 6.70578 1.19621 6.95001 1.49603 6.95001V6.82135C1.26813 6.82135 1.08638 6.63559 1.08638 6.4117H0.957721ZM1.49603 5.86852C1.19688 5.86852 0.952175 6.11235 0.957733 6.4129L1.08638 6.41052C1.08217 6.18334 1.26746 5.99718 1.49603 5.99718V5.86852ZM2.07262 21.0423H7.97535V20.9136H2.07262V21.0423ZM2.00829 7.83852V20.978H2.13695V7.83852H2.00829ZM7.97535 7.7742H2.07262V7.90285H7.97535V7.7742ZM8.03968 20.978V7.83852H7.91102V20.978H8.03968ZM11.7916 21.0423H13.4725V20.9136H11.7916V21.0423ZM11.7273 15.9792V20.978H11.8559V15.9792H11.7273ZM13.4725 15.9149H11.7916V16.0435H13.4725V15.9149ZM13.5368 20.978V15.9792H13.4082V20.978H13.5368ZM14.4302 21.0423H16.1111V20.9136H14.4302V21.0423ZM14.3659 15.9792V20.978H14.4945V15.9792H14.3659ZM16.1111 15.9149H14.4302V16.0435H16.1111V15.9149ZM16.1754 20.978V15.9792H16.0467V20.978H16.1754ZM17.064 21.0423H19.2726V20.9136H17.064V21.0423ZM16.9997 15.5052V20.978H17.1284V15.5052H16.9997ZM16.5852 15.0907C16.8134 15.0907 16.9997 15.2769 16.9997 15.5052H17.1284C17.1284 15.2059 16.8846 14.9621 16.5852 14.9621V15.0907ZM11.3176 15.0907H16.5852V14.9621H11.3176V15.0907ZM10.9031 15.5052C10.9031 15.2769 11.0893 15.0907 11.3176 15.0907V14.9621C11.0182 14.9621 10.7744 15.2059 10.7744 15.5052H10.9031ZM10.9031 20.978V15.5052H10.7744V20.978H10.9031ZM8.92818 21.0423H10.8387V20.9136H8.92818V21.0423ZM8.86385 2.84466V20.978H8.99251V2.84466H8.86385ZM12.202 2.78034H8.92818V2.90899H12.202V2.78034ZM12.6166 2.3658C12.6166 2.59413 12.4304 2.78034 12.202 2.78034V2.90899C12.5014 2.90899 12.7452 2.66519 12.7452 2.3658H12.6166ZM12.202 1.95127C12.4304 1.95127 12.6166 2.13746 12.6166 2.3658H12.7452C12.7452 2.06642 12.5014 1.82262 12.202 1.82262V1.95127ZM7.83363 1.95127H12.202V1.82262H7.83363V1.95127ZM7.33443 1.45205C7.33443 1.72212 7.56356 1.95127 7.83363 1.95127V1.82262C7.63462 1.82262 7.46308 1.65107 7.46308 1.45205H7.33443ZM7.83363 0.952844C7.55869 0.952844 7.33443 1.17709 7.33443 1.45205H7.46308C7.46308 1.24815 7.62973 1.0815 7.83363 1.0815V0.952844ZM20.372 0.952844H7.83363V1.0815H20.372V0.952844ZM20.8713 1.45205C20.8713 1.17709 20.6469 0.952844 20.372 0.952844V1.0815C20.5759 1.0815 20.7427 1.24815 20.7427 1.45205H20.8713ZM20.372 1.95127C20.642 1.95127 20.8713 1.72212 20.8713 1.45205H20.7427C20.7427 1.65107 20.571 1.82262 20.372 1.82262V1.95127ZM16.0037 1.95127H20.372V1.82262H16.0037V1.95127ZM15.5891 2.3658C15.5891 2.13746 15.7753 1.95127 16.0037 1.95127V1.82262C15.7043 1.82262 15.4605 2.06642 15.4605 2.3658H15.5891ZM16.0037 2.78034C15.7753 2.78034 15.5891 2.59413 15.5891 2.3658H15.4605C15.4605 2.66519 15.7043 2.90899 16.0037 2.90899V2.78034ZM19.2775 2.78034H16.0037V2.90899H19.2775V2.78034ZM19.3419 20.978V2.84466H19.2132V20.978H19.3419ZM19.2726 21.0423H19.2775V20.9136H19.2726V21.0423ZM20.166 2.84466V20.978H20.2947V2.84466H20.166ZM20.372 2.78034H20.2304V2.90899H20.372V2.78034ZM21.6955 1.45205C21.6955 2.18398 21.1034 2.78034 20.372 2.78034V2.90899C21.1751 2.90899 21.8241 2.25445 21.8241 1.45205H21.6955ZM20.372 0.128655C21.0989 0.128655 21.6955 0.720571 21.6955 1.45205H21.8241C21.8241 0.649219 21.1697 0 20.372 0V0.128655ZM7.83363 0.128655H20.372V0H7.83363V0.128655ZM6.51024 1.45205C6.51024 0.725164 7.10215 0.128655 7.83363 0.128655V0C7.0308 0 6.38158 0.654404 6.38158 1.45205H6.51024ZM7.83363 2.78034C7.10718 2.78034 6.51024 2.17909 6.51024 1.45205H6.38158C6.38158 2.24956 7.03555 2.90899 7.83363 2.90899V2.78034ZM7.97535 2.78034H7.83363V2.90899H7.97535V2.78034ZM8.03968 4.98V2.84466H7.91102V4.98H8.03968ZM1.49603 5.04433H7.97535V4.91568H1.49603V5.04433ZM0.128655 6.40683C0.128655 5.65579 0.73983 5.04433 1.49603 5.04433V4.91568C0.669057 4.91568 0 5.58445 0 6.40683H0.128655ZM1.13191 7.72273C0.553281 7.56408 0.128655 7.03195 0.128655 6.40683H0C0 7.09124 0.464689 7.67319 1.09789 7.84681L1.13191 7.72273ZM1.17923 20.978V7.78477H1.05057V20.978H1.17923ZM0.89989 21.0423H1.1149V20.9136H0.89989V21.0423ZM0.485364 21.4568C0.485364 21.2285 0.671553 21.0423 0.89989 21.0423V20.9136C0.60051 20.9136 0.356709 21.1574 0.356709 21.4568H0.485364ZM0.89989 21.8713C0.671553 21.8713 0.485364 21.6852 0.485364 21.4568H0.356709C0.356709 21.7562 0.60051 22 0.89989 22V21.8713ZM20.548 21.8713H0.89989V22H20.548V21.8713ZM20.9625 21.4568C20.9625 21.6852 20.7762 21.8713 20.548 21.8713V22C20.8474 22 21.0912 21.7562 21.0912 21.4568H20.9625ZM20.5748 21.0471C20.7887 21.0555 20.9625 21.2366 20.9625 21.4568H21.0912C21.0912 21.1689 20.8642 20.9297 20.5798 20.9185L20.5748 21.0471ZM20.2295 21.0423L20.5763 21.0472L20.5781 20.9185L20.2313 20.9136L20.2295 21.0423ZM13.0425 8.02357H10.9903V8.15222H13.0425V8.02357ZM13.4571 7.60903C13.4571 7.83737 13.2709 8.02357 13.0425 8.02357V8.15222C13.3419 8.15222 13.5857 7.90842 13.5857 7.60903H13.4571ZM13.4571 5.6496V7.60903H13.5857V5.6496H13.4571ZM13.0425 5.23506C13.2709 5.23506 13.4571 5.42126 13.4571 5.6496H13.5857C13.5857 5.35021 13.3419 5.10641 13.0425 5.10641V5.23506ZM10.9903 5.23506H13.0425V5.10641H10.9903V5.23506ZM10.5757 5.6496C10.5757 5.42126 10.762 5.23506 10.9903 5.23506V5.10641C10.6909 5.10641 10.4471 5.35021 10.4471 5.6496H10.5757ZM10.5757 7.60903V5.6496H10.4471V7.60903H10.5757ZM10.9903 8.02357C10.763 8.02357 10.58 7.83819 10.5757 7.60783L10.4471 7.61021C10.4526 7.90759 10.6898 8.15222 10.9903 8.15222V8.02357ZM12.5637 6.06413H11.4691V6.19278H12.5637V6.06413ZM12.628 7.13505V6.12845H12.4993V7.13505H12.628ZM11.4691 7.19938H12.5637V7.07072H11.4691V7.19938ZM11.4048 6.12845V7.13505H11.5335V6.12845H11.4048ZM3.93924 12.5792H5.88889V12.4506H3.93924V12.5792ZM3.39605 12.0372C3.40156 12.3345 3.63877 12.5792 3.93924 12.5792V12.4506C3.71195 12.4506 3.52895 12.2652 3.52468 12.0348L3.39605 12.0372ZM3.39604 10.1743V12.0361H3.5247V10.1743H3.39604ZM3.93924 9.63113C3.63984 9.63113 3.39604 9.87493 3.39604 10.1743H3.5247C3.5247 9.94598 3.7109 9.75978 3.93924 9.75978V9.63113ZM5.88889 9.63113H3.93924V9.75978H5.88889V9.63113ZM6.43208 10.1743C6.43208 9.87493 6.18828 9.63113 5.88889 9.63113V9.75978C6.11722 9.75978 6.30343 9.94597 6.30343 10.1743H6.43208ZM6.43208 12.0361V10.1743H6.30343V12.0361H6.43208ZM5.88889 12.5792C6.18828 12.5792 6.43208 12.3354 6.43208 12.0361H6.30343C6.30343 12.2643 6.11722 12.4506 5.88889 12.4506V12.5792ZM4.41809 10.7175H5.41491V10.5888H4.41809V10.7175ZM4.48242 11.562V10.6532H4.35376V11.562H4.48242ZM5.41491 11.4977H4.41809V11.6264H5.41491V11.4977ZM5.35058 10.6532V11.562H5.47924V10.6532H5.35058ZM3.93924 16.3416H5.88889V16.213H3.93924V16.3416ZM3.39605 15.7997C3.40156 16.0971 3.63877 16.3416 3.93924 16.3416V16.213C3.71195 16.213 3.52895 16.0277 3.52468 15.7973L3.39605 15.7997ZM3.39604 13.9368V15.7984H3.5247V13.9368H3.39604ZM3.93924 13.3936C3.63984 13.3936 3.39604 13.6374 3.39604 13.9368H3.5247C3.5247 13.7084 3.7109 13.5223 3.93924 13.5223V13.3936ZM5.88889 13.3936H3.93924V13.5223H5.88889V13.3936ZM6.43208 13.9368C6.43208 13.6374 6.18828 13.3936 5.88889 13.3936V13.5223C6.11722 13.5223 6.30343 13.7084 6.30343 13.9368H6.43208ZM6.43208 15.7984V13.9368H6.30343V15.7984H6.43208ZM5.88889 16.3416C6.18828 16.3416 6.43208 16.0978 6.43208 15.7984H6.30343C6.30343 16.0268 6.11722 16.213 5.88889 16.213V16.3416ZM4.41809 14.48H5.41491V14.3513H4.41809V14.48ZM4.48242 15.3245V14.4157H4.35376V15.3245H4.48242ZM5.41491 15.2602H4.41809V15.3888H5.41491V15.2602ZM5.35058 14.4157V15.3245H5.47924V14.4157H5.35058ZM15.2366 8.15222H17.2889V8.02357H15.2366V8.15222ZM14.6934 7.60903C14.6934 7.90842 14.9372 8.15222 15.2366 8.15222V8.02357C15.0084 8.02357 14.8221 7.83737 14.8221 7.60903H14.6934ZM14.6934 5.6496V7.60903H14.8221V5.6496H14.6934ZM15.2366 5.10641C14.9372 5.10641 14.6934 5.35021 14.6934 5.6496H14.8221C14.8221 5.42126 15.0084 5.23506 15.2366 5.23506V5.10641ZM17.2889 5.10641H15.2366V5.23506H17.2889V5.10641ZM17.8321 5.6496C17.8321 5.35021 17.5883 5.10641 17.2889 5.10641V5.23506C17.5173 5.23506 17.7034 5.42126 17.7034 5.6496H17.8321ZM17.8321 7.60903V5.6496H17.7034V7.60903H17.8321ZM17.2889 8.15222C17.5883 8.15222 17.8321 7.90842 17.8321 7.60903H17.7034C17.7034 7.83737 17.5173 8.02357 17.2889 8.02357V8.15222ZM15.7156 6.19278H16.8101V6.06413H15.7156V6.19278ZM15.7799 7.13505V6.12845H15.6513V7.13505H15.7799ZM16.8101 7.07072H15.7156V7.19938H16.8101V7.07072ZM16.7457 6.12845V7.13505H16.8744V6.12845H16.7457ZM11.039 9.37365H13.0913V9.24499H11.039V9.37365ZM10.6245 9.78819C10.6245 9.55985 10.8107 9.37365 11.039 9.37365V9.24499C10.7396 9.24499 10.4958 9.48879 10.4958 9.78819H10.6245ZM10.6245 11.7476V9.78819H10.4958V11.7476H10.6245ZM11.039 12.1621C10.8107 12.1621 10.6245 11.976 10.6245 11.7476H10.4958C10.4958 12.047 10.7396 12.2908 11.039 12.2908V12.1621ZM13.0913 12.1621H11.039V12.2908H13.0913V12.1621ZM13.5058 11.7476C13.5058 11.976 13.3196 12.1621 13.0913 12.1621V12.2908C13.3907 12.2908 13.6345 12.047 13.6345 11.7476H13.5058ZM13.5058 9.78819V11.7476H13.6345V9.78819H13.5058ZM13.0913 9.37365C13.3196 9.37365 13.5058 9.55985 13.5058 9.78819H13.6345C13.6345 9.48879 13.3907 9.24499 13.0913 9.24499V9.37365ZM11.5228 11.3331H12.6173V11.2044H11.5228V11.3331ZM11.4584 10.2622V11.2687H11.5871V10.2622H11.4584ZM12.6173 10.1978H11.5228V10.3265H12.6173V10.1978ZM12.6817 11.2687V10.2622H12.553V11.2687H12.6817ZM17.3377 9.24499H15.2854V9.37365H17.3377V9.24499ZM17.8809 9.78819C17.8809 9.48879 17.6371 9.24499 17.3377 9.24499V9.37365C17.566 9.37365 17.7522 9.55985 17.7522 9.78819H17.8809ZM17.8809 11.7476V9.78819H17.7522V11.7476H17.8809ZM17.3377 12.2908C17.6371 12.2908 17.8809 12.047 17.8809 11.7476H17.7522C17.7522 11.976 17.566 12.1621 17.3377 12.1621V12.2908ZM15.2854 12.2908H17.3377V12.1621H15.2854V12.2908ZM14.7422 11.7476C14.7422 12.047 14.986 12.2908 15.2854 12.2908V12.1621C15.057 12.1621 14.8708 11.976 14.8708 11.7476H14.7422ZM14.7422 9.78819V11.7476H14.8708V9.78819H14.7422ZM15.2854 9.24499C14.986 9.24499 14.7422 9.48879 14.7422 9.78819H14.8708C14.8708 9.55985 15.057 9.37365 15.2854 9.37365V9.24499ZM16.8588 11.2044H15.7642V11.3331H16.8588V11.2044ZM16.7945 10.2622V11.2687H16.9231V10.2622H16.7945ZM15.7642 10.3265H16.8588V10.1978H15.7642V10.3265ZM15.8286 11.2687V10.2622H15.6999V11.2687H15.8286ZM14.1078 1.82751H14.098V1.95616H14.1078V1.82751ZM14.651 2.3707C14.651 2.07131 14.4072 1.82751 14.1078 1.82751V1.95616C14.336 1.95616 14.5223 2.14236 14.5223 2.3707H14.651ZM14.1078 2.91389C14.4072 2.91389 14.651 2.67009 14.651 2.3707H14.5223C14.5223 2.59904 14.3362 2.78524 14.1078 2.78524V2.91389ZM14.098 2.91389H14.1078V2.78524H14.098V2.91389ZM13.5548 2.3707C13.5548 2.67009 13.7986 2.91389 14.098 2.91389V2.78524C13.8697 2.78524 13.6835 2.59904 13.6835 2.3707H13.5548ZM14.098 1.82751C13.7986 1.82751 13.5548 2.07131 13.5548 2.3707H13.6835C13.6835 2.14236 13.8697 1.95616 14.098 1.95616V1.82751Z" fill="#2D5286"/>
</svg>
