<svg width="36" height="36" viewBox="0 0 36 36" fill="none" xmlns="http://www.w3.org/2000/svg">
<path fill-rule="evenodd" clip-rule="evenodd" d="M2.35657 9.65952H13.0214V11.2279H2.35657C1.92225 11.2279 1.57641 10.874 1.57641 10.4477C1.56836 10.0134 1.92225 9.65952 2.35657 9.65952ZM13.0214 34.4236H3.30563V12.7962H13.0214V34.4236ZM22.0697 34.4236H19.3029V26.1957H22.0697V34.4236ZM26.4129 34.4236H23.6461V26.1957H26.4129V34.4236ZM31.6166 34.4236H27.9812V25.4155C27.9812 24.9812 27.6273 24.6273 27.193 24.6273H18.5228C18.0885 24.6273 17.7346 24.9812 17.7346 25.4155V34.4236H14.5898V4.57641H19.9785C20.4129 4.57641 20.7668 4.22252 20.7668 3.7882C20.7668 3.35389 20.4129 3 19.9785 3H12.7882C12.4021 3 12.0724 2.67024 12.0724 2.28418C12.0724 1.89008 12.3941 1.56836 12.7882 1.56836H33.4263C33.8204 1.56836 34.1421 1.89008 34.1421 2.28418C34.1421 2.67024 33.8123 3 33.4263 3H26.2359C25.8016 3 25.4477 3.35389 25.4477 3.7882C25.4477 4.22252 25.8016 4.57641 26.2359 4.57641H31.6247V34.4236H31.6166ZM33.193 34.4236V4.57641H33.4263C34.689 4.57641 35.7104 3.54692 35.7104 2.28418C35.7104 1.02145 34.681 0 33.4263 0H12.7882C11.5255 0 10.504 1.02949 10.504 2.28418C10.504 3.53887 11.5335 4.57641 12.7882 4.57641H13.0214V8.09115H2.35657C1.05362 8.09115 0 9.14477 0 10.4397C0 11.5174 0.731903 12.4343 1.72922 12.7078V34.4236H1.37533C0.941019 34.4236 0.587131 34.7775 0.587131 35.2118C0.587131 35.6461 0.941019 36 1.37533 36H33.7158C34.1501 36 34.504 35.6461 34.504 35.2118C34.504 34.7936 34.1743 34.4477 33.7641 34.4316L33.193 34.4236ZM17.9839 13.2065H21.3619C21.7962 13.2065 22.1501 12.8526 22.1501 12.4183V9.19309C22.1501 8.75877 21.7962 8.40489 21.3619 8.40489H17.9839C17.5495 8.40489 17.1956 8.75877 17.1956 9.19309V12.4183C17.2037 12.8526 17.5495 13.2065 17.9839 13.2065ZM18.7721 9.98129H20.5737V11.6381H18.7721V9.98129ZM9.58714 20.4933H6.37802C5.94371 20.4933 5.59786 20.1394 5.58982 19.7051V16.6408C5.58982 16.2064 5.94371 15.8526 6.37802 15.8526H9.58714C10.0215 15.8526 10.3753 16.2064 10.3753 16.6408V19.7051C10.3753 20.1394 10.0215 20.4933 9.58714 20.4933ZM8.80698 17.429H7.16622V18.9249H8.80698V17.429ZM9.58714 26.6862H6.37802C5.94371 26.6862 5.59786 26.3324 5.58982 25.898V22.8337C5.58982 22.3994 5.94371 22.0455 6.37802 22.0455H9.58714C10.0215 22.0455 10.3753 22.3994 10.3753 22.8337V25.898C10.3753 26.3324 10.0215 26.6862 9.58714 26.6862ZM8.80698 23.6219H7.16622V25.1179H8.80698V23.6219ZM28.3517 13.2065H24.9736C24.5393 13.2065 24.1854 12.8526 24.1854 12.4183V9.19309C24.1854 8.75877 24.5393 8.40489 24.9736 8.40489H28.3517C28.786 8.40489 29.1399 8.75877 29.1399 9.19309V12.4183C29.1399 12.8526 28.786 13.2065 28.3517 13.2065ZM27.5634 9.98129H25.7618V11.6381H27.5634V9.98129ZM21.4423 15.2172H18.0643C17.63 15.2172 17.2761 15.5711 17.2761 16.0054V19.2306C17.2761 19.6649 17.63 20.0188 18.0643 20.0188H21.4423C21.8767 20.0188 22.2305 19.6649 22.2305 19.2306V16.0054C22.2305 15.5711 21.8767 15.2172 21.4423 15.2172ZM20.6622 18.4424H18.8606V16.7856H20.6622V18.4424ZM25.0534 15.2172H28.4315C28.8658 15.2172 29.2197 15.5711 29.2197 16.0054V19.2306C29.2197 19.6649 28.8658 20.0188 28.4315 20.0188H25.0534C24.6191 20.0188 24.2652 19.6649 24.2652 19.2306V16.0054C24.2652 15.5711 24.6191 15.2172 25.0534 15.2172ZM25.8416 18.4424H27.6433V16.7856H25.8416V18.4424ZM23.0992 3.00822H23.1153C23.5496 3.00822 23.9035 3.3621 23.9035 3.79642C23.9035 4.23074 23.5496 4.58462 23.1153 4.58462H23.0992C22.6649 4.58462 22.311 4.23074 22.311 3.79642C22.311 3.3621 22.6649 3.00822 23.0992 3.00822Z" fill="#2D5286"/>
</svg>
