<svg width="22" height="27" viewBox="0 0 22 27" fill="none" xmlns="http://www.w3.org/2000/svg">
<path d="M1.09399 10.5956C-1.09903 14.4012 0.295115 20.1764 2.72024 23.678C3.93076 25.4287 5.15633 27.0002 6.83497 27.0002C6.86661 27.0002 6.89833 26.9996 6.93082 26.9983C7.71949 26.9669 8.28942 26.724 8.84046 26.4894C9.45911 26.2257 10.0989 25.9531 11.1025 25.9531C12.0573 25.9531 12.6666 26.2169 13.2558 26.4719C13.8366 26.7231 14.4347 26.983 15.3186 26.9664C17.2094 26.9312 18.3703 25.2355 19.3946 23.7395C20.4634 22.1776 20.9996 20.6611 21.1805 20.0815L21.1878 20.0585C21.2222 19.9555 21.1736 19.843 21.0749 19.7977C21.0721 19.7964 21.0621 19.7923 21.0593 19.7911C20.7263 19.6549 17.8055 18.3592 17.7748 14.8275C17.7463 11.9583 19.966 10.4389 20.4111 10.1635L20.4319 10.1505C20.4801 10.1195 20.5137 10.0703 20.5251 10.014C20.5365 9.95773 20.5246 9.89922 20.4923 9.85193C18.9602 7.60983 16.6119 7.27193 15.6665 7.23128C15.5293 7.21758 15.3877 7.21069 15.2455 7.21069C14.1351 7.21069 13.0714 7.63008 12.2168 7.96705C11.6269 8.19966 11.1173 8.40055 10.7659 8.40055C10.371 8.40055 9.85859 8.19719 9.2652 7.96177C8.47168 7.64683 7.57227 7.28996 6.62013 7.28996C6.59743 7.28996 6.57506 7.29022 6.55303 7.29064C4.33917 7.32322 2.24727 8.58978 1.09399 10.5956Z" fill="#1D3557"/>
<path d="M15.6682 0.000163419C14.3276 0.0547657 12.7194 0.880009 11.7581 2.0059C10.9412 2.95226 10.1432 4.53011 10.3534 6.12055C10.3666 6.22006 10.4476 6.29686 10.5477 6.3046C10.6382 6.31166 10.7305 6.31523 10.8226 6.31532C12.1335 6.31532 13.5476 5.5901 14.5133 4.42235C15.5298 3.18929 16.0437 1.60685 15.8883 0.1894C15.876 0.0783246 15.7783 -0.00417415 15.6682 0.000163419Z" fill="#1D3557"/>
</svg>
