<svg width="30" height="30" viewBox="0 0 30 30" fill="none" xmlns="http://www.w3.org/2000/svg">
<path d="M28.8655 17.2689H25.084V4.53782C25.084 2.01681 23.0672 0 20.5462 0H9.20168C6.68067 0 4.66387 2.01681 4.66387 4.53782V17.2689H0.882353C0.504202 17.2689 0 17.6471 0 18.2773C0 18.9076 0.504202 19.2857 1.0084 19.2857H2.39496V28.9916C2.39496 29.4958 2.89916 30 3.40336 30H26.4706C26.9748 30 27.479 29.4958 27.479 28.9916V24.2017C27.479 23.6975 26.9748 23.1933 26.4706 23.1933C25.9664 23.1933 25.4622 23.6975 25.4622 24.2017V27.9832H22.8151V19.2857H28.7395C29.2437 19.2857 29.7479 18.7815 29.7479 18.2773C29.7479 17.7731 29.3697 17.2689 28.8655 17.2689ZM6.68067 4.53782C6.68067 3.15126 7.81513 2.01681 9.20168 2.01681H13.8655V8.69748H10.4622C9.95798 8.69748 9.45378 9.20168 9.45378 9.70588C9.45378 10.2101 9.95798 10.7143 10.4622 10.7143H13.9916V17.2689H6.68067V4.53782ZM7.05882 27.8571H4.41176V19.1597H7.18487V27.8571H7.05882ZM11.7227 27.8571H9.07563V19.1597H11.7227V27.8571ZM16.2605 27.8571H13.6134V19.1597H16.2605V27.8571ZM20.9244 27.8571H18.2773V19.1597H20.9244V27.8571ZM23.1933 17.2689H16.0084V10.7143H23.1933V17.2689ZM23.1933 8.69748H16.0084V2.01681H20.6723C22.0588 2.01681 23.1933 3.15126 23.1933 4.53782V8.69748Z" fill="#2D5286"/>
</svg>
