<svg width="14" height="14" viewBox="0 0 14 14" fill="none" xmlns="http://www.w3.org/2000/svg">
<path fill-rule="evenodd" clip-rule="evenodd" d="M13.8734 5.67863L7.00037 5.70097L7.01005 8.30871L11.2299 8.29903L10.9179 8.94016C10.6171 9.56268 10.1495 10.1152 9.56715 10.5374C8.82102 11.084 7.93266 11.3729 7.00037 11.3729C5.0993 11.3729 3.37695 10.0981 2.81102 8.27147C2.68815 7.8515 2.62635 7.42482 2.62635 6.99963C2.62635 6.57444 2.68815 6.14627 2.81102 5.72778C3.37769 3.90043 5.0993 2.62635 7.00037 2.62635C7.11877 2.62635 7.23642 2.63082 7.35408 2.63975C8.17318 2.70603 8.95729 3.00314 9.62374 3.50056L11.4675 1.64789C10.6528 0.965055 9.67959 0.466145 8.65273 0.20701C8.45689 0.157119 8.25882 0.116909 8.05925 0.0848891C7.95947 0.068507 7.85969 0.0551035 7.75916 0.0439338C7.50598 0.0148928 7.25057 0 7.00037 0C4.56018 0 2.25924 1.32546 0.997075 3.45811C0.344769 4.55348 0 5.77767 0 6.99963C0 8.22233 0.344769 9.44726 0.997075 10.5419C2.25924 12.6753 4.56018 14 7.00037 14L7.15898 13.9978C7.42109 13.9911 7.68544 13.9695 7.94607 13.933C8.10021 13.9114 8.2536 13.8846 8.40551 13.8526C8.70411 13.7885 9.00197 13.7029 9.29238 13.6001L9.43758 13.5458C9.85607 13.3864 10.2664 13.1816 10.6551 12.9396L10.7817 12.8592C10.8651 12.8034 10.9485 12.7475 11.0304 12.6894C11.192 12.574 11.3498 12.4511 11.5017 12.3231C11.5956 12.2419 11.6879 12.16 11.7787 12.0751C13.1906 10.7474 14 8.89697 14 6.99963C14 6.5588 13.9583 6.12021 13.8764 5.69725L13.8734 5.67863Z" fill="#EA4335"/>
</svg>
