<svg width="20" height="20" viewBox="0 0 20 20" fill="none" xmlns="http://www.w3.org/2000/svg">
<path opacity="0.5" d="M16.6797 2.40625H13.9015V1.5625C13.9015 1.25186 13.6496 1 13.339 1C13.0283 1 12.7765 1.25186 12.7765 1.5625V2.40625H7.19918V1.5625C7.19918 1.25186 6.94736 1 6.63668 1C6.32601 1 6.07418 1.25186 6.07418 1.5625V2.40625H3.32031C2.04087 2.40625 1 3.44712 1 4.72656V16.6797C1 17.9591 2.04087 19 3.32031 19H16.6797C17.9591 19 19 17.9591 19 16.6797V4.72656C19 3.44712 17.9591 2.40625 16.6797 2.40625ZM3.32031 3.53125H6.07418V5.49126C6.07418 5.8019 6.32601 6.05376 6.63668 6.05376C6.94736 6.05376 7.19918 5.8019 7.19918 5.49126V3.53125H12.7765V5.49126C12.7765 5.8019 13.0283 6.05376 13.339 6.05376C13.6496 6.05376 13.9015 5.8019 13.9015 5.49126V3.53125H16.6797C17.3388 3.53125 17.875 4.06745 17.875 4.72656V7.91629H2.125V4.72656C2.125 4.06745 2.6612 3.53125 3.32031 3.53125ZM16.6797 17.875H3.32031C2.6612 17.875 2.125 17.3388 2.125 16.6797V9.04129H17.875V16.6797C17.875 17.3388 17.3388 17.875 16.6797 17.875Z" fill="#203A60" stroke="#203A60" stroke-width="0.4"/>
</svg>
