<svg width="28" height="28" viewBox="0 0 28 28" fill="none" xmlns="http://www.w3.org/2000/svg">
<path d="M23.6484 3.03125H21.3125V1.8125C21.3125 1.3638 20.9488 1 20.5 1C20.0512 1 19.6875 1.3638 19.6875 1.8125V3.03125H8.3125V1.8125C8.3125 1.3638 7.94875 1 7.5 1C7.05125 1 6.6875 1.3638 6.6875 1.8125V3.03125H4.35156C2.50348 3.03125 1 4.53473 1 6.38281V23.6484C1 25.4965 2.50348 27 4.35156 27H23.6484C25.4965 27 27 25.4965 27 23.6484V6.38281C27 4.53473 25.4965 3.03125 23.6484 3.03125ZM4.35156 4.65625H6.6875V5.46875C6.6875 5.91745 7.05125 6.28125 7.5 6.28125C7.94875 6.28125 8.3125 5.91745 8.3125 5.46875V4.65625H19.6875V5.46875C19.6875 5.91745 20.0512 6.28125 20.5 6.28125C20.9488 6.28125 21.3125 5.91745 21.3125 5.46875V4.65625H23.6484C24.6005 4.65625 25.375 5.43077 25.375 6.38281V8.3125H2.625V6.38281C2.625 5.43077 3.39952 4.65625 4.35156 4.65625ZM23.6484 25.375H4.35156C3.39952 25.375 2.625 24.6005 2.625 23.6484V9.9375H25.375V23.6484C25.375 24.6005 24.6005 25.375 23.6484 25.375Z" fill="#2D5286" stroke="#2D5286" stroke-width="0.1"/>
</svg>
