<svg width="24" height="21" viewBox="0 0 24 21" fill="none" xmlns="http://www.w3.org/2000/svg">
<path fill-rule="evenodd" clip-rule="evenodd" d="M17.6432 3.2H21.0784C22.69 3.20176 23.9965 4.50683 24 6.1184V17.8784C23.9982 19.49 22.6932 20.7965 21.0816 20.8H2.9216C1.31002 20.7982 0.00352547 19.4932 0 17.8816V6.1216C0.00176361 4.50878 1.30878 3.20177 2.9216 3.2H6.3568L6.7576 2C7.15316 0.805321 8.27034 -0.000959368 9.5288 2.25006e-06H14.4712C15.73 -0.00155456 16.8478 0.804886 17.2432 2L17.6432 3.2ZM21.0784 19.2C21.8079 19.1991 22.3991 18.6079 22.4 17.8784V6.1216C22.3991 5.39207 21.8079 4.80088 21.0784 4.8H17.0664C16.7222 4.79974 16.4168 4.57936 16.308 4.2528L15.7248 2.504C15.5457 1.96381 15.0403 1.59938 14.4712 1.6H9.5288C8.95998 1.59951 8.45481 1.96348 8.2752 2.5032L7.692 4.2528C7.58324 4.57936 7.27779 4.79974 6.9336 4.8H2.9216C2.19331 4.80088 1.60264 5.39012 1.6 6.1184V17.8784C1.60088 18.6079 2.19207 19.1991 2.9216 19.2H21.0784ZM6 11.6C6 8.28629 8.68629 5.6 12 5.6C15.3122 5.60353 17.9965 8.28776 18 11.6C18 14.9137 15.3137 17.6 12 17.6C8.68629 17.6 6 14.9137 6 11.6ZM7.6 11.6C7.6 14.0301 9.56995 16 12 16C14.429 15.9974 16.3974 14.029 16.4 11.6C16.4 9.16995 14.4301 7.2 12 7.2C9.56995 7.2 7.6 9.16995 7.6 11.6ZM20 8C20.4418 8 20.8 7.64183 20.8 7.2C20.8 6.75817 20.4418 6.4 20 6.4C19.5582 6.4 19.2 6.75817 19.2 7.2C19.2 7.64183 19.5582 8 20 8Z" fill="#2D5286"/>
</svg>
