<svg width="28" height="27" viewBox="0 0 28 27" fill="none" xmlns="http://www.w3.org/2000/svg">
<path fill-rule="evenodd" clip-rule="evenodd" d="M5.9882 22.3114C5.38439 22.5237 4.72143 22.2064 4.50855 21.6015L0.0656321 8.97387C-0.146057 8.36947 0.171178 7.70711 0.774978 7.49422L21.8118 0.0932056C22.4161 -0.119082 23.0779 0.198751 23.2908 0.80315L27.7338 13.4314C27.946 14.0352 27.6288 14.6975 27.0244 14.9098L5.9882 22.3114Z" fill="#132339"/>
<path opacity="0.25" fill-rule="evenodd" clip-rule="evenodd" d="M24.8704 5.2959L1.67228 13.4581L0.517248 10.1754L23.7153 2.01315L24.8704 5.2959Z" fill="white"/>
<path fill-rule="evenodd" clip-rule="evenodd" d="M24.2931 26.0321H1.99425C1.35331 26.0321 0.834229 25.5124 0.834229 24.8721V11.4852C0.834229 10.8443 1.35336 10.3252 1.99425 10.3252H24.2931C24.934 10.3252 25.4531 10.8443 25.4531 11.4852V24.8721C25.4531 25.5124 24.934 26.0321 24.2931 26.0321Z" fill="white"/>
<rect x="2.08875" y="22.3223" width="3.9302" height="1.47791" fill="#CDD6E0"/>
<rect x="8.14587" y="22.3223" width="3.9302" height="1.47791" fill="#ACB3BA"/>
<rect x="14.2083" y="22.3223" width="3.9302" height="1.47791" fill="#CDD6E0"/>
<rect x="20.2677" y="22.3223" width="3.93079" height="1.47791" fill="#ACB3BA"/>
<rect x="2.08875" y="17.4395" width="10.9566" height="1.47791" fill="#EE9338"/>
<rect x="2.08875" y="12.6895" width="7.86159" height="1.47845" fill="#E95228"/>
<path fill-rule="evenodd" clip-rule="evenodd" d="M21.5739 15.2679C21.5739 16.5103 20.5676 17.5172 19.3252 17.5172C18.0828 17.5172 17.0764 16.5103 17.0764 15.2679C17.0764 14.0255 18.0828 13.0186 19.3252 13.0186C20.5676 13.0186 21.5739 14.026 21.5739 15.2679Z" fill="#E95228"/>
<path fill-rule="evenodd" clip-rule="evenodd" d="M24.1985 15.2679C24.1985 16.5103 23.1921 17.5172 21.9492 17.5172C20.7074 17.5172 19.7004 16.5103 19.7004 15.2679C19.7004 14.0255 20.7073 13.0186 21.9492 13.0186C23.1921 13.0186 24.1985 14.026 24.1985 15.2679Z" fill="#EE9338"/>
</svg>
