<svg width="30" height="28" viewBox="0 0 30 28" fill="none" xmlns="http://www.w3.org/2000/svg">
<path fill-rule="evenodd" clip-rule="evenodd" d="M12.1349 0C5.44402 0 0.00151823 4.6025 0.00151823 10.2667C0.00151823 12.5883 0.917352 14.8108 2.59735 16.6192L0.275685 18.9408C0.00735157 19.2092 -0.0743151 19.6117 0.0715182 19.9558C0.217352 20.3058 0.555685 20.5333 0.934852 20.5333H12.1349C18.8257 20.5333 24.2682 15.9308 24.2682 10.2667C24.2682 4.6025 18.8257 0 12.1349 0ZM27.2725 24.0857C28.9525 22.2832 29.8683 20.0548 29.8683 17.7332C29.8683 14.8282 28.4333 12.1973 26.135 10.3307C26.0825 16.9865 19.8233 22.3998 12.135 22.3998H6.93163C8.94413 25.719 13.0333 27.9998 17.735 27.9998H28.935C29.3141 27.9998 29.6525 27.7723 29.7983 27.4223C29.9441 27.0723 29.8625 26.6698 29.5941 26.4073L27.2725 24.0857ZM17.7342 7.46642H6.53417C6.02083 7.46642 5.60083 7.88642 5.60083 8.39975C5.60083 8.91309 6.02083 9.33309 6.53417 9.33309H17.7342C18.2475 9.33309 18.6675 8.91309 18.6675 8.39975C18.6675 7.88642 18.2475 7.46642 17.7342 7.46642ZM13.9998 11.2H6.53316C6.01983 11.2 5.59983 11.62 5.59983 12.1333C5.59983 12.6467 6.01983 13.0667 6.53316 13.0667H13.9998C14.5132 13.0667 14.9332 12.6467 14.9332 12.1333C14.9332 11.62 14.5132 11.2 13.9998 11.2Z" fill="url(#paint0_linear)"/>
<defs>
<linearGradient id="paint0_linear" x1="-4.18692" y1="1.83026e-07" x2="27.9391" y2="30.0998" gradientUnits="userSpaceOnUse">
<stop stop-color="#E95228"/>
<stop offset="1" stop-color="#EE9338"/>
</linearGradient>
</defs>
</svg>
