<svg width="35" height="30" viewBox="0 0 35 30" fill="none" xmlns="http://www.w3.org/2000/svg">
<path d="M30.7775 13.2164V3.56076C30.7775 1.59735 29.1801 0 27.2167 0H7.50968C5.54628 0 3.94906 1.59735 3.94906 3.56076V13.2164C1.68668 13.7606 0 15.7999 0 18.2269V25.4288C0 26.0001 0.463179 26.4633 1.03454 26.4633H3.94899V28.9655C3.94899 29.5368 4.41217 30 4.98353 30C5.55489 30 6.01807 29.5368 6.01807 28.9655V26.4633H28.7083V28.9655C28.7083 29.5368 29.1715 30 29.7429 30C30.3142 30 30.7774 29.5368 30.7774 28.9655V26.4633H33.6919C34.2632 26.4633 34.7264 26.0001 34.7264 25.4288V18.2269C34.7265 15.7999 33.0399 13.7606 30.7775 13.2164ZM6.01814 3.56076C6.01814 2.73831 6.6873 2.06915 7.50968 2.06915H27.2168C28.0392 2.06915 28.7084 2.73831 28.7084 3.56076V13.0727H25.2897V11.4406C25.2897 8.73637 23.0896 6.53639 20.3855 6.53639H14.3412C11.637 6.53639 9.437 8.73644 9.437 11.4406V13.0726H6.01814V3.56076ZM23.2206 11.4406V13.0726H11.5059V11.4406C11.5059 9.87726 12.7777 8.60547 14.341 8.60547H20.3854C21.9487 8.6054 23.2206 9.87733 23.2206 11.4406ZM2.06908 24.3942V18.2269C2.06908 16.5258 3.45305 15.1418 5.15418 15.1418H29.5722C31.2734 15.1418 32.6573 16.5258 32.6573 18.2269V24.3942H2.06908Z" fill="#2D5286"/>
</svg>
