<svg width="30" height="26" viewBox="0 0 30 26" fill="none" xmlns="http://www.w3.org/2000/svg">
<path d="M26.0885 11.4176V11.8115L26.4716 11.9037C28.2072 12.3212 29.5001 13.8865 29.5 15.7461V21.9678C29.5 22.1853 29.3237 22.3616 29.1063 22.3616H26.5885H26.0885V22.8616V25.0231C26.0885 25.2406 25.9122 25.4169 25.6947 25.4169C25.4773 25.4169 25.301 25.2406 25.301 25.0231V22.8616V22.3616H24.801H5.19899H4.69899V22.8616V25.0231C4.69899 25.2406 4.5227 25.4169 4.30525 25.4169C4.0878 25.4169 3.91152 25.2406 3.91152 25.0231V22.8616V22.3616H3.41152H0.893734C0.676279 22.3616 0.5 22.1853 0.5 21.9678V15.7461C0.5 13.8865 1.79292 12.3212 3.52852 11.9037L3.91158 11.8115V11.4176V3.07613C3.91158 1.65606 5.06757 0.5 6.48758 0.5H23.5124C24.9325 0.5 26.0885 1.65609 26.0885 3.07613V11.4176ZM24.8011 11.7935H25.3011V11.2935V3.07613C25.3011 2.08947 24.4991 1.28753 23.5125 1.28753H6.48758C5.50097 1.28753 4.69904 2.08949 4.69904 3.07613V11.2934V11.7934H5.19904H8.15259H8.65259V11.2934V9.88346C8.65259 7.82351 10.3293 6.14676 12.3893 6.14676H17.6109C19.6709 6.14676 21.3476 7.82346 21.3476 9.88346V11.2935V11.7935H21.8476H24.8011ZM20.0602 11.7934H20.5602V11.2934V9.88346C20.5602 8.25685 19.2375 6.93416 17.6109 6.93423H12.3892C10.7625 6.93423 9.43994 8.25678 9.43994 9.88346V11.2934V11.7934H9.93994H20.0602ZM1.28747 21.0741V21.5741H1.78747H28.2125H28.7125V21.0741V15.7461C28.7125 14.0004 27.2931 12.5809 25.5473 12.5809H4.45267C2.70694 12.5809 1.28747 14.0004 1.28747 15.7461V21.0741Z" fill="#1D3557" stroke="#1D3557"/>
</svg>
