<svg width="16" height="16" viewBox="0 0 16 16" fill="none" xmlns="http://www.w3.org/2000/svg">
<path fill-rule="evenodd" clip-rule="evenodd" d="M9.18518 7.71823L15.0871 1.81629C15.4911 1.41193 15.4911 0.754028 15.0871 0.349672C14.8909 0.153128 14.6304 0.0454102 14.3533 0.0454102C14.0766 0.0454102 13.8161 0.153128 13.6198 0.349672L7.71823 6.25128L1.81695 0.349672C1.41227 -0.055016 0.754028 -0.0553474 0.349672 0.349672C0.153459 0.545552 0.0454102 0.806064 0.0454102 1.08282C0.0454102 1.3599 0.153459 1.62041 0.349672 1.81629L6.25128 7.71823L0.349672 13.6198C0.153459 13.8161 0.0454102 14.0766 0.0454102 14.3536C0.0454102 14.6304 0.153459 14.8909 0.349672 15.0871C0.545884 15.283 0.806395 15.3911 1.08348 15.3911C1.36023 15.3911 1.62074 15.283 1.81695 15.0871L7.71823 9.18518L13.6198 15.0871C13.8161 15.283 14.0766 15.3911 14.3533 15.3911C14.6304 15.3911 14.8909 15.283 15.0871 15.0871C15.4911 14.6824 15.4911 14.0245 15.0871 13.6198L9.18518 7.71823Z" fill="#2D5286"/>
</svg>
