<svg width="26" height="26" viewBox="0 0 26 26" fill="none" xmlns="http://www.w3.org/2000/svg">
<path fill-rule="evenodd" clip-rule="evenodd" d="M21.7683 4.23183C19.6799 2.14339 16.9031 1 13.9629 1C13.4846 1 13.0879 1.39669 13.0879 1.87504C13.0879 2.3534 13.4846 2.75009 13.9629 2.75009C16.4481 2.75009 18.7815 3.71847 20.5316 5.46856C22.2817 7.21865 23.2501 9.5521 23.2501 12.0372C23.2501 12.5156 23.6468 12.9123 24.1251 12.9123C24.6035 12.9123 25.0002 12.5156 25.0002 12.0372C25.0002 9.09707 23.8568 6.32027 21.7683 4.23183ZM18.1631 12.0494C18.1631 12.5277 18.5598 12.9244 19.0381 12.9244C19.5165 12.9244 19.9132 12.5277 19.9132 12.0494C19.9132 8.7592 17.2414 6.0874 13.9512 6.0874C13.4729 6.0874 13.0762 6.48409 13.0762 6.96245C13.0762 7.4408 13.4729 7.83749 13.9512 7.83749C16.2847 7.83749 18.1631 9.72758 18.1631 12.0494ZM13.9044 17.9063C14.2194 17.428 14.9078 16.4363 16.2379 16.5063C17.6379 16.5763 21.3365 19.3064 21.8032 20.6015C22.0248 21.1848 22.0248 21.7915 21.8148 22.4099C21.3481 23.81 20.5081 24.8134 19.388 25.3267C18.863 25.5717 18.303 25.6884 17.708 25.6884C17.0896 25.6884 16.4246 25.5484 15.7595 25.28C12.4344 23.9266 9.51754 22.0249 7.09075 19.6331C7.07909 19.6331 7.06742 19.6331 7.06742 19.6214C4.67563 17.1946 2.77387 14.2778 1.4088 10.941C0.883775 9.63425 0.86044 8.38586 1.36213 7.31247C1.87549 6.19241 2.87888 5.35237 4.27895 4.88568C4.89731 4.67567 5.50401 4.68734 6.08737 4.89735C7.38243 5.37571 10.1009 9.07423 10.1826 10.4743C10.2526 11.8155 9.26167 12.4922 8.78309 12.819L8.7825 12.8194C8.38582 13.0878 7.83746 12.9828 7.56911 12.5861C7.30076 12.1894 7.40577 11.641 7.80246 11.3727C8.36248 10.9877 8.45582 10.8126 8.44415 10.5676C8.35082 9.80926 6.16904 6.83411 5.48067 6.53077C5.28233 6.46076 5.08399 6.46076 4.83897 6.54243C3.90559 6.84578 3.25223 7.37081 2.94888 8.03584C2.66886 8.67754 2.6922 9.44758 3.03055 10.2876C4.30228 13.4028 6.0757 16.1329 8.30415 18.3847C10.5676 20.6131 13.2861 22.3866 16.4129 23.6583C17.2529 24.0083 18.0346 24.0316 18.6647 23.74C19.3414 23.4366 19.8547 22.7832 20.1697 21.8499C20.2514 21.6049 20.2514 21.4065 20.1814 21.2082C19.8897 20.5198 16.9029 18.338 16.1445 18.2447C15.9112 18.233 15.7362 18.3264 15.3512 18.8864C15.0828 19.2947 14.5461 19.3881 14.1378 19.1197C13.7294 18.8514 13.6361 18.303 13.9044 17.9063Z" fill="#E95228"/>
<path d="M21.7683 4.23183L21.9451 4.05505L21.7683 4.23183ZM16.2379 16.5063L16.2247 16.7559L16.2254 16.756L16.2379 16.5063ZM13.9044 17.9063L14.1115 18.0464L14.1132 18.0438L13.9044 17.9063ZM21.8032 20.6015L21.5679 20.6862L21.5695 20.6903L21.8032 20.6015ZM21.8148 22.4099L21.5781 22.3295L21.5777 22.3308L21.8148 22.4099ZM19.388 25.3267L19.2839 25.0994L19.2823 25.1002L19.388 25.3267ZM15.7595 25.28L15.6653 25.5116L15.666 25.5119L15.7595 25.28ZM7.09075 19.6331L7.26624 19.455L7.19324 19.3831H7.09075V19.6331ZM7.06742 19.6214H7.31742V19.5189L7.24547 19.4459L7.06742 19.6214ZM1.4088 10.941L1.17682 11.0342L1.17741 11.0356L1.4088 10.941ZM1.36213 7.31247L1.58862 7.41833L1.5894 7.41663L1.36213 7.31247ZM4.27895 4.88568L4.358 5.12286L4.35934 5.1224L4.27895 4.88568ZM6.08737 4.89735L6.17399 4.66283L6.17205 4.66213L6.08737 4.89735ZM10.1826 10.4743L10.4322 10.4613L10.4322 10.4597L10.1826 10.4743ZM8.78309 12.819L8.6421 12.6126L8.78309 12.819ZM8.7825 12.8194L8.92258 13.0265L8.92349 13.0259L8.7825 12.8194ZM7.80246 11.3727L7.94254 11.5798L7.94409 11.5787L7.80246 11.3727ZM8.44415 10.5676L8.69387 10.5557L8.69343 10.5464L8.69228 10.5371L8.44415 10.5676ZM5.48067 6.53077L5.58149 6.30199L5.57281 6.29817L5.56388 6.29502L5.48067 6.53077ZM4.83897 6.54243L4.91625 6.7802L4.91803 6.7796L4.83897 6.54243ZM2.94888 8.03584L2.72139 7.93208L2.71974 7.93585L2.94888 8.03584ZM3.03055 10.2876L2.79865 10.381L2.79909 10.3821L3.03055 10.2876ZM8.30415 18.3847L8.12644 18.5606L8.12875 18.5628L8.30415 18.3847ZM16.4129 23.6583L16.509 23.4275L16.5071 23.4267L16.4129 23.6583ZM18.6647 23.74L18.5624 23.5118L18.5596 23.5131L18.6647 23.74ZM20.1697 21.8499L20.4066 21.9298L20.4069 21.9289L20.1697 21.8499ZM20.1814 21.2082L20.4172 21.125L20.4146 21.1177L20.4116 21.1106L20.1814 21.2082ZM16.1445 18.2447L16.1751 17.9966L16.1661 17.9955L16.157 17.995L16.1445 18.2447ZM15.3512 18.8864L15.1451 18.7447L15.1422 18.7491L15.3512 18.8864ZM13.9629 1.25C16.837 1.25 19.5502 2.36722 21.5915 4.40861L21.9451 4.05505C19.8096 1.91956 16.9692 0.75 13.9629 0.75V1.25ZM13.3379 1.87504C13.3379 1.53476 13.6226 1.25 13.9629 1.25V0.75C13.3465 0.75 12.8379 1.25862 12.8379 1.87504H13.3379ZM13.9629 2.50009C13.6226 2.50009 13.3379 2.21533 13.3379 1.87504H12.8379C12.8379 2.49147 13.3465 3.00009 13.9629 3.00009V2.50009ZM20.7084 5.29178C18.9114 3.4948 16.5143 2.50009 13.9629 2.50009V3.00009C16.3818 3.00009 18.6516 3.94214 20.3548 5.64533L20.7084 5.29178ZM23.5001 12.0372C23.5001 9.48581 22.5054 7.08877 20.7084 5.29178L20.3548 5.64533C22.058 7.34853 23.0001 9.61838 23.0001 12.0372H23.5001ZM24.1251 12.6623C23.7848 12.6623 23.5001 12.3775 23.5001 12.0372H23.0001C23.0001 12.6536 23.5087 13.1623 24.1251 13.1623V12.6623ZM24.7502 12.0372C24.7502 12.3775 24.4654 12.6623 24.1251 12.6623V13.1623C24.7415 13.1623 25.2502 12.6536 25.2502 12.0372H24.7502ZM21.5915 4.40861C23.6329 6.44999 24.7502 9.16314 24.7502 12.0372H25.2502C25.2502 9.031 24.0806 6.19054 21.9451 4.05505L21.5915 4.40861ZM19.0381 12.6744C18.6979 12.6744 18.4131 12.3897 18.4131 12.0494H17.9131C17.9131 12.6658 18.4217 13.1744 19.0381 13.1744V12.6744ZM19.6632 12.0494C19.6632 12.3897 19.3784 12.6744 19.0381 12.6744V13.1744C19.6546 13.1744 20.1632 12.6658 20.1632 12.0494H19.6632ZM13.9512 6.3374C17.1033 6.3374 19.6632 8.89727 19.6632 12.0494H20.1632C20.1632 8.62113 17.3795 5.8374 13.9512 5.8374V6.3374ZM13.3262 6.96245C13.3262 6.62216 13.6109 6.3374 13.9512 6.3374V5.8374C13.3348 5.8374 12.8262 6.34602 12.8262 6.96245H13.3262ZM13.9512 7.58749C13.6109 7.58749 13.3262 7.30273 13.3262 6.96245H12.8262C12.8262 7.57887 13.3348 8.08749 13.9512 8.08749V7.58749ZM18.4131 12.0494C18.4131 9.58996 16.4232 7.58749 13.9512 7.58749V8.08749C16.1461 8.08749 17.9131 9.8652 17.9131 12.0494H18.4131ZM16.251 16.2566C14.769 16.1786 14.0097 17.2919 13.6956 17.7688L14.1132 18.0438C14.4292 17.564 15.0466 16.6939 16.2247 16.7559L16.251 16.2566ZM22.0384 20.5167C21.9019 20.138 21.5488 19.6917 21.1114 19.2493C20.666 18.799 20.1058 18.3257 19.5188 17.8932C18.9318 17.4607 18.3126 17.065 17.7477 16.7717C17.1923 16.4834 16.6578 16.2769 16.2504 16.2566L16.2254 16.756C16.518 16.7706 16.9708 16.9317 17.5173 17.2154C18.0542 17.4942 18.6513 17.8751 19.2222 18.2957C19.7932 18.7164 20.3326 19.1729 20.7558 19.6009C21.1869 20.0368 21.4711 20.4174 21.568 20.6862L22.0384 20.5167ZM22.0515 22.4903C22.2787 21.8213 22.2808 21.1546 22.0369 20.5127L21.5695 20.6903C21.7689 21.2151 21.7709 21.7617 21.5781 22.3295L22.0515 22.4903ZM19.4922 25.554C20.6868 25.0065 21.5678 23.9415 22.052 22.489L21.5777 22.3308C21.1285 23.6784 20.3294 24.6203 19.2839 25.0994L19.4922 25.554ZM17.708 25.9384C18.3368 25.9384 18.9332 25.8148 19.4938 25.5533L19.2823 25.1002C18.7928 25.3286 18.2692 25.4384 17.708 25.4384V25.9384ZM15.666 25.5119C16.3558 25.7902 17.0526 25.9384 17.708 25.9384V25.4384C17.1266 25.4384 16.4933 25.3065 15.8531 25.0482L15.666 25.5119ZM6.91527 19.8111C9.36653 22.2271 12.3113 24.1465 15.6653 25.5116L15.8538 25.0485C12.5574 23.7068 9.66855 21.8227 7.26624 19.455L6.91527 19.8111ZM6.81742 19.6214C6.81742 19.6676 6.82979 19.7273 6.87209 19.7817C6.91271 19.8339 6.9629 19.8579 6.99568 19.8688C7.02698 19.8792 7.05365 19.8816 7.06557 19.8824C7.07811 19.8832 7.08962 19.8831 7.09075 19.8831V19.3831C7.08605 19.3831 7.09172 19.383 7.0988 19.3835C7.10526 19.3839 7.12681 19.3855 7.15374 19.3945C7.18214 19.4039 7.22869 19.4257 7.26675 19.4747C7.3065 19.5258 7.31742 19.5811 7.31742 19.6214H6.81742ZM1.17741 11.0356C2.5541 14.4009 4.47341 17.3456 6.88936 19.7969L7.24547 19.4459C4.87786 17.0437 2.99364 14.1548 1.64019 10.8463L1.17741 11.0356ZM1.13565 7.20661C0.598498 8.35587 0.631939 9.67803 1.17683 11.0342L1.64078 10.8478C1.13561 9.59048 1.12238 8.41585 1.58862 7.41833L1.13565 7.20661ZM4.19989 4.64851C2.74729 5.13271 1.68239 6.01371 1.13487 7.20831L1.5894 7.41663C2.06859 6.37112 3.01046 5.57204 4.358 5.12285L4.19989 4.64851ZM6.17205 4.66213C5.53561 4.43301 4.87072 4.42068 4.19855 4.64896L4.35934 5.1224C4.9239 4.93066 5.4724 4.94167 6.00269 5.13257L6.17205 4.66213ZM10.4322 10.4597C10.4084 10.0534 10.201 9.51968 9.91217 8.96417C9.61843 8.39932 9.22318 7.77985 8.79148 7.19218C8.35979 6.60452 7.88772 6.04329 7.43841 5.59641C6.99691 5.1573 6.55186 4.80241 6.17399 4.66284L6.00075 5.13186C6.27041 5.23147 6.65082 5.51828 7.08582 5.95093C7.51301 6.37581 7.96849 6.91641 8.38851 7.48819C8.80853 8.05995 9.18914 8.65752 9.46856 9.19485C9.75284 9.74154 9.91587 10.1952 9.933 10.4889L10.4322 10.4597ZM8.92408 13.0255C9.39671 12.7027 10.5101 11.9541 10.4322 10.4613L9.93291 10.4873C9.99498 11.6768 9.12663 12.2817 8.6421 12.6126L8.92408 13.0255ZM8.92349 13.0259L8.92408 13.0255L8.6421 12.6126L8.64151 12.613L8.92349 13.0259ZM7.36204 12.7261C7.70799 13.2375 8.41188 13.372 8.92258 13.0265L8.64243 12.6123C8.35975 12.8036 7.96693 12.728 7.77618 12.446L7.36204 12.7261ZM7.66238 11.1656C7.15098 11.5116 7.01657 12.2154 7.36204 12.7261L7.77618 12.446C7.58496 12.1633 7.66056 11.7705 7.94253 11.5797L7.66238 11.1656ZM8.19444 10.5795C8.19796 10.6535 8.18934 10.6988 8.13769 10.7677C8.07193 10.8553 7.93794 10.9761 7.66082 11.1667L7.94409 11.5787C8.227 11.3842 8.41969 11.225 8.53769 11.0677C8.6698 10.8915 8.70202 10.7268 8.69387 10.5557L8.19444 10.5795ZM5.37986 6.75954C5.42875 6.78108 5.51425 6.83898 5.63563 6.94698C5.75249 7.05096 5.88805 7.1881 6.03592 7.35093C6.3314 7.67629 6.66606 8.09319 6.98399 8.52647C7.30191 8.95973 7.59979 9.40486 7.82277 9.78587C7.93436 9.97654 8.02535 10.148 8.09049 10.292C8.158 10.4411 8.18915 10.5423 8.19603 10.5982L8.69228 10.5371C8.67582 10.4034 8.61838 10.2457 8.54601 10.0858C8.47128 9.92068 8.37114 9.73296 8.2543 9.53332C8.02044 9.13372 7.71235 8.67391 7.38711 8.23067C7.06188 7.78744 6.71619 7.35627 6.40607 7.01478C6.25114 6.84419 6.10259 6.6932 5.968 6.57345C5.83795 6.45772 5.70469 6.35629 5.58149 6.30199L5.37986 6.75954ZM4.91803 6.7796C5.11813 6.7129 5.25883 6.71758 5.39747 6.76651L5.56388 6.29502C5.30583 6.20394 5.04985 6.20862 4.75992 6.30526L4.91803 6.7796ZM3.17633 8.13959C3.44246 7.55616 4.0282 7.06881 4.91624 6.78019L4.7617 6.30467C3.78299 6.62276 3.06199 7.18546 2.72142 7.93209L3.17633 8.13959ZM3.26245 10.1942C2.94215 9.39901 2.9315 8.70076 3.17801 8.13583L2.71974 7.93585C2.40623 8.65432 2.44224 9.49615 2.79865 10.381L3.26245 10.1942ZM8.48184 18.2088C6.27811 15.982 4.52223 13.2801 3.262 10.1931L2.79909 10.3821C4.08233 13.5254 5.8733 16.2838 8.12645 18.5605L8.48184 18.2088ZM16.5071 23.4267C13.409 22.1667 10.7185 20.4109 8.47954 18.2065L8.12875 18.5628C10.4167 20.8154 13.1632 22.6065 16.3187 23.8899L16.5071 23.4267ZM18.5596 23.5131C18.0099 23.7676 17.3037 23.7586 16.509 23.4275L16.3167 23.8891C17.2022 24.258 18.0594 24.2957 18.7697 23.9668L18.5596 23.5131ZM19.9329 21.7699C19.6318 22.662 19.1551 23.2461 18.5624 23.5118L18.7669 23.9681C19.5276 23.6271 20.0777 22.9045 20.4066 21.9298L19.9329 21.7699ZM19.9457 21.2914C19.9946 21.43 19.9993 21.5707 19.9326 21.7708L20.4069 21.9289C20.5036 21.639 20.5082 21.383 20.4172 21.125L19.9457 21.2914ZM16.114 18.4928C16.1699 18.4997 16.2714 18.5309 16.4209 18.5984C16.5651 18.6636 16.737 18.7546 16.9282 18.8662C17.3101 19.0892 17.7563 19.3871 18.1902 19.705C18.6242 20.0229 19.0414 20.3575 19.366 20.6528C19.5285 20.8006 19.665 20.936 19.768 21.0525C19.8751 21.1739 19.9312 21.2584 19.9512 21.3057L20.4116 21.1106C20.3587 20.9858 20.2576 20.8516 20.1427 20.7215C20.0235 20.5866 19.8729 20.4379 19.7025 20.2829C19.3614 19.9726 18.9297 19.6269 18.4857 19.3016C18.0417 18.9763 17.5808 18.6683 17.1803 18.4344C16.9802 18.3176 16.7921 18.2175 16.6267 18.1428C16.4665 18.0704 16.3087 18.013 16.1751 17.9966L16.114 18.4928ZM15.5572 19.028C15.7476 18.7511 15.8688 18.6164 15.9559 18.5503C16.0245 18.4982 16.0669 18.4911 16.1321 18.4944L16.157 17.995C15.9889 17.9866 15.827 18.0204 15.6536 18.152C15.4986 18.2697 15.3398 18.4617 15.1452 18.7448L15.5572 19.028ZM14.0005 19.3287C14.5165 19.6677 15.2109 19.555 15.5601 19.0237L15.1422 18.7491C14.9547 19.0345 14.5758 19.1084 14.2751 18.9108L14.0005 19.3287ZM13.6974 17.7663C13.3547 18.2729 13.4701 18.9801 14.0005 19.3287L14.2751 18.9108C13.9887 18.7226 13.9175 18.3332 14.1115 18.0464L13.6974 17.7663Z" fill="#E95228"/>
</svg>
