<svg width="32" height="31" viewBox="0 0 32 31" fill="none" xmlns="http://www.w3.org/2000/svg">
<path d="M9.60842 17.9859C10.9512 17.9687 12.2826 17.6301 13.4647 17.0047C13.4704 17.0047 13.4762 16.9989 13.4819 17.0047C14.0902 17.2916 15.2551 17.7507 16.2708 17.6187C16.5233 17.5842 16.7356 17.4178 16.8332 17.1825C16.925 16.9473 16.8848 16.6776 16.7242 16.4824C16.4946 16.2013 16.1618 15.7422 15.8691 15.1282C15.8691 15.1224 15.8691 15.1167 15.8749 15.111C17.2291 13.573 17.9809 11.5933 17.9924 9.54461C18.0038 7.58779 17.3267 5.67113 16.0872 4.14469C15.938 3.96106 15.6683 3.93237 15.4789 4.08157C15.2953 4.23077 15.2666 4.50048 15.4158 4.68985C16.529 6.05561 17.1373 7.77716 17.1258 9.53888C17.1144 11.3809 16.443 13.1599 15.2264 14.5428C14.9911 14.8125 14.9395 15.1856 15.0887 15.5069C15.3469 16.0406 15.6281 16.471 15.8634 16.7866C15.0944 16.7809 14.2164 16.4079 13.8492 16.2357C13.6024 16.1209 13.304 16.1267 13.063 16.2529C11.9899 16.821 10.8192 17.1194 9.59695 17.1366C7.58847 17.1653 5.66608 16.3849 4.19129 14.9503C2.71649 13.5157 1.89015 11.6162 1.86146 9.60774C1.83277 7.54762 2.61894 5.60801 4.0593 4.14469C5.5054 2.6699 7.43927 1.86077 9.49365 1.86077C11.1406 1.86077 12.7129 2.38298 14.0385 3.36426C14.2279 3.50772 14.4976 3.46755 14.6411 3.27818C14.7845 3.08881 14.7444 2.8191 14.555 2.67564C13.0802 1.57959 11.33 1 9.49365 1C7.20399 1 5.0578 1.8952 3.45102 3.52494C1.84424 5.15467 0.971994 7.31234 1.00069 9.602C1.02938 11.84 1.94754 13.9575 3.58875 15.5528C5.20126 17.1252 7.29581 17.9859 9.49939 17.9859C9.53382 17.9859 9.56825 17.9859 9.60842 17.9859Z" fill="#2D5286" stroke="#2D5286" stroke-width="0.3"/>
<path d="M12.2471 9.22554C12.2471 10.0253 12.8989 10.6772 13.6987 10.6772C14.4984 10.6772 15.1503 10.0253 15.1503 9.22554C15.1503 8.42578 14.4984 7.77393 13.6987 7.77393C12.8989 7.77393 12.2471 8.42578 12.2471 9.22554ZM14.3341 9.22554C14.3341 9.57064 14.0493 9.85548 13.7042 9.85548C13.3591 9.85548 13.0742 9.57064 13.0742 9.22554C13.0742 8.88044 13.3591 8.59559 13.7042 8.59559C14.0493 8.59559 14.3341 8.88044 14.3341 9.22554Z" fill="#2D5286" stroke="#2D5286" stroke-width="0.3"/>
<path d="M8.0752 9.22554C8.0752 10.0253 8.72705 10.6772 9.52681 10.6772C10.3266 10.6772 10.9784 10.0253 10.9784 9.22554C10.9784 8.42578 10.3266 7.77393 9.52681 7.77393C8.72705 7.77393 8.0752 8.42578 8.0752 9.22554ZM10.1568 9.22554C10.1568 9.57064 9.87191 9.85548 9.52681 9.85548C9.18171 9.85548 8.89686 9.57064 8.89686 9.22554C8.89686 8.88044 9.18171 8.59559 9.52681 8.59559C9.87739 8.59559 10.1568 8.88044 10.1568 9.22554Z" fill="#2D5286" stroke="#2D5286" stroke-width="0.3"/>
<path d="M3.90332 9.22554C3.90332 10.0253 4.55518 10.6772 5.35493 10.6772C6.15469 10.6772 6.80655 10.0253 6.80655 9.22554C6.80655 8.42578 6.15469 7.77393 5.35493 7.77393C4.55518 7.77393 3.90332 8.42578 3.90332 9.22554ZM5.98488 9.22554C5.98488 9.57064 5.70003 9.85548 5.35493 9.85548C5.00983 9.85548 4.72499 9.57064 4.72499 9.22554C4.72499 8.88044 5.00983 8.59559 5.35493 8.59559C5.70003 8.59559 5.98488 8.88044 5.98488 9.22554Z" fill="#2D5286" stroke="#2D5286" stroke-width="0.3"/>
<path d="M30.6034 10.641C30.3681 10.6181 30.1558 10.7902 30.1328 11.0255C30.0353 11.9436 29.8287 12.9421 29.5074 13.9923C28.2678 18.1183 26.3397 21.5843 23.7803 24.3044C23.063 25.0618 22.2711 25.7906 21.4562 26.4391C21.1693 26.6629 20.8824 26.8809 20.5897 27.0933C19.9815 27.5294 19.3502 27.9368 18.7075 28.3156C17.0433 29.2854 15.1783 29.7043 13.715 29.4403C13.474 29.3944 13.2445 29.3428 13.0264 29.2796C13.9847 28.5623 14.834 27.8335 15.7637 26.9957C16.8195 26.0374 17.7492 25.1537 18.5985 24.2871C18.5985 24.2871 18.5985 24.2871 18.6042 24.2814C18.6042 24.2814 18.6042 24.2814 18.61 24.2757L19.1092 23.742C22.2367 20.7465 24.5608 17.1427 26.0298 13.0397C26.0298 13.0397 26.2995 12.2707 26.2995 12.265C27.08 10.004 27.7973 7.61109 28.4343 5.13206C28.9679 5.68295 29.3926 6.33714 29.7025 7.08888C29.9033 7.57092 30.0468 8.1046 30.1271 8.67845C30.1615 8.91372 30.3796 9.08014 30.6149 9.04571C30.8502 9.01128 31.0166 8.79322 30.9821 8.55794C30.8903 7.90949 30.7297 7.30121 30.5001 6.75605C30.4427 6.61833 30.3796 6.48634 30.3165 6.35436C29.7369 5.16649 28.8761 4.2885 27.826 3.5138C26.793 2.75058 25.4215 2.16526 24.1533 2.71615C23.7402 2.89978 23.3901 3.18671 23.1089 3.57119C22.9368 3.80647 22.7876 4.08765 22.6785 4.39179C22.6556 4.46065 21.8063 7.14627 21.4849 8.47186C21.2382 9.50479 21.439 10.2623 22.1277 10.8476C22.3285 11.0198 22.5638 11.169 22.8507 11.3182C23.459 11.628 24.096 11.8863 24.7329 12.1445L24.9969 12.2478L25.3469 12.3798L25.215 12.7528C23.7918 16.7295 21.5366 20.2243 18.5009 23.128C18.4952 23.1337 18.4894 23.1394 18.4837 23.1452L18.2714 23.3747L17.8238 22.9329C17.7893 22.8927 16.8884 21.9229 16.4006 21.5441C15.2472 20.6375 14.2774 20.6202 13.1412 21.4753C12.1599 22.2155 10.8859 23.214 9.76694 24.3388C8.49299 25.6185 8.51021 26.9613 9.81858 28.327C10.2719 28.8033 10.7884 29.1993 11.3565 29.5149C11.5459 29.6182 11.7467 29.7158 11.9476 29.8076C11.9533 29.8133 11.9648 29.8133 11.9705 29.819C12.464 30.0314 12.9977 30.1863 13.5658 30.2896C13.9101 30.3527 14.2774 30.3814 14.6447 30.3814C16.0793 30.3814 17.6631 29.9223 19.1436 29.0616C19.8208 28.6656 20.475 28.241 21.1119 27.7876C21.4333 27.5581 21.7432 27.3171 22.0531 27.076C24.1304 25.4176 25.9265 23.3346 27.3325 21.0679C27.6251 20.5916 27.9006 20.1095 28.1645 19.616C29.0712 17.9059 29.7885 16.0983 30.3452 14.2448C30.678 13.143 30.8961 12.0871 30.9994 11.1173C31.0108 10.882 30.8387 10.6697 30.6034 10.641ZM25.301 11.4444C24.7387 11.2263 24.1992 11.0025 23.6541 10.75C23.3155 10.5894 22.9597 10.4344 22.6728 10.1877C22.2424 9.82041 22.1334 9.37854 22.3055 8.66697C22.6039 7.41598 23.4246 4.82218 23.4705 4.67872C23.5565 4.44918 23.6598 4.24833 23.7861 4.07617C23.9754 3.8122 24.2107 3.6171 24.4804 3.50233C25.588 3.01455 26.8275 3.81794 27.6768 4.46639C27.6825 4.47213 27.6883 4.47213 27.6883 4.47787C27.0685 6.93394 26.3684 9.31542 25.6052 11.5649C25.5076 11.5305 25.4043 11.4903 25.301 11.4444ZM11.7295 28.746C11.2475 28.4762 10.8171 28.1434 10.4269 27.7302C9.43984 26.6973 9.42263 25.8882 10.3637 24.9413C11.4426 23.8568 12.6304 22.9271 13.6462 22.1524C14.4553 21.5384 15.0119 21.5556 15.8497 22.2155C16.2801 22.5541 17.6574 23.9887 17.6574 23.9887C16.9056 24.7405 16.0908 25.5209 15.1726 26.3473C14.1225 27.2999 13.1756 28.1032 12.0509 28.9066C11.9476 28.8665 11.8385 28.8033 11.7295 28.746Z" fill="#2D5286" stroke="#2D5286" stroke-width="0.4"/>
</svg>
