<svg width="24" height="25" viewBox="0 0 24 25" fill="none" xmlns="http://www.w3.org/2000/svg">
<path d="M20.7683 3.23183C18.6799 1.14339 15.9031 0 12.9629 0C12.4846 0 12.0879 0.396687 12.0879 0.875044C12.0879 1.3534 12.4846 1.75009 12.9629 1.75009C15.4481 1.75009 17.7815 2.71847 19.5316 4.46856C21.2817 6.21865 22.2501 8.5521 22.2501 11.0372C22.2501 11.5156 22.6468 11.9123 23.1251 11.9123C23.6035 11.9123 24.0002 11.5156 24.0002 11.0372C24.0002 8.09707 22.8568 5.32027 20.7683 3.23183Z" fill="#2D5286"/>
<path d="M17.1631 11.0494C17.1631 11.5277 17.5598 11.9244 18.0381 11.9244C18.5165 11.9244 18.9132 11.5277 18.9132 11.0494C18.9132 7.7592 16.2414 5.0874 12.9512 5.0874C12.4729 5.0874 12.0762 5.48409 12.0762 5.96245C12.0762 6.4408 12.4729 6.83749 12.9512 6.83749C15.2847 6.83749 17.1631 8.72758 17.1631 11.0494Z" fill="#2D5286"/>
<path d="M15.2379 15.5063C13.9078 15.4363 13.2194 16.428 12.9044 16.9063C12.6361 17.303 12.7294 17.8514 13.1378 18.1197C13.5461 18.3881 14.0828 18.2947 14.3512 17.8864C14.7362 17.3264 14.9112 17.233 15.1445 17.2447C15.9029 17.338 18.8897 19.5198 19.1814 20.2082C19.2514 20.4065 19.2514 20.6049 19.1697 20.8499C18.8547 21.7832 18.3414 22.4366 17.6647 22.74C17.0346 23.0316 16.2529 23.0083 15.4129 22.6583C12.2861 21.3866 9.56759 19.6131 7.30415 17.3847C5.0757 15.1329 3.30228 12.4028 2.03055 9.28762C1.6922 8.44758 1.66886 7.67754 1.94888 7.03584C2.25223 6.37081 2.90559 5.84578 3.83897 5.54243C4.08399 5.46076 4.28233 5.46076 4.48067 5.53077C5.16904 5.83411 7.35082 8.80926 7.44415 9.56763C7.45582 9.81265 7.36248 9.98766 6.80246 10.3727C6.40577 10.641 6.30076 11.1894 6.56911 11.5861C6.83746 11.9828 7.38582 12.0878 7.7825 11.8194C8.26086 11.4927 9.25258 10.816 9.18258 9.4743C9.1009 8.07423 6.38243 4.37571 5.08737 3.89735C4.50401 3.68734 3.89731 3.67567 3.27895 3.88568C1.87888 4.35237 0.875491 5.19241 0.362132 6.31247C-0.13956 7.38586 -0.116225 8.63425 0.408801 9.94099C1.77387 13.2778 3.67563 16.1946 6.06742 18.6214C6.06742 18.6331 6.07909 18.6331 6.09075 18.6331C8.51754 21.0249 11.4344 22.9266 14.7595 24.28C15.4246 24.5484 16.0896 24.6884 16.708 24.6884C17.303 24.6884 17.863 24.5717 18.388 24.3267C19.5081 23.8134 20.3481 22.81 20.8148 21.4099C21.0248 20.7915 21.0248 20.1848 20.8032 19.6015C20.3365 18.3064 16.6379 15.5763 15.2379 15.5063Z" fill="#2D5286"/>
</svg>
