<svg width="17" height="18" viewBox="0 0 17 18" fill="none" xmlns="http://www.w3.org/2000/svg">
<path d="M15.2704 11.7602C15.6939 11.7602 16.0357 11.4184 16.0357 10.9949V0.765306C16.0357 0.341837 15.6939 0 15.2704 0H4.72959C4.30612 0 3.96429 0.341837 3.96429 0.765306C3.96429 1.18878 4.30612 1.53061 4.72959 1.53061H14.5051V10.9949C14.5051 11.4184 14.8469 11.7602 15.2704 11.7602ZM0.765306 2.92347C0.341837 2.92347 0 3.26531 0 3.68878V17.2347C0 17.6582 0.341837 18 0.765306 18H12.0714C12.4949 18 12.8367 17.6582 12.8367 17.2347V3.68878C12.8367 3.26531 12.4949 2.92347 12.0714 2.92347H0.765306ZM1.53061 4.45408H11.3061V16.4694H1.53061V4.45408Z" fill="#2D5286"/>
</svg>
