<svg width="36" height="32" viewBox="0 0 36 32" fill="none" xmlns="http://www.w3.org/2000/svg">
<path fill-rule="evenodd" clip-rule="evenodd" d="M4.47725 1C2.5419 1 1 2.59806 1 4.53569V6.25001V18.4643C1 20.4018 2.5419 21.9999 4.47725 21.9999H15.2499C15.6641 21.9999 15.9999 21.664 15.9999 21.2499C15.9999 20.8358 15.6641 20.4999 15.2499 20.4999H4.47725C3.40015 20.4999 2.49999 19.6035 2.49999 18.4643V7.00001H30.9999V12.2499C30.9999 12.6641 31.3357 12.9999 31.7499 12.9999C32.164 12.9999 32.4998 12.6641 32.4998 12.2499V6.25001V4.53569C32.4998 2.59806 30.958 1 29.0226 1H4.47725ZM30.9999 5.50002V4.53569C30.9999 3.39634 30.0997 2.49999 29.0226 2.49999H4.47725C3.40015 2.49999 2.49999 3.39634 2.49999 4.53569V5.50002H30.9999ZM3.99992 13.7497C3.99992 13.3355 4.33571 12.9997 4.74992 12.9997H7.74991C8.16411 12.9997 8.4999 13.3355 8.4999 13.7497C8.4999 14.1638 8.16411 14.4997 7.74991 14.4997H4.74992C4.33571 14.4997 3.99992 14.1638 3.99992 13.7497ZM4.74992 16.7495C4.33571 16.7495 3.99992 17.0854 3.99992 17.4995C3.99992 17.9137 4.33571 18.2495 4.74992 18.2495H10.7499C11.1641 18.2495 11.4999 17.9137 11.4999 17.4995C11.4999 17.0854 11.1641 16.7495 10.7499 16.7495H4.74992ZM27.2495 16.0001C23.5216 16.0001 20.4995 19.0221 20.4995 22.7501C20.4995 26.478 23.5216 29.5 27.2495 29.5C30.9774 29.5 33.9995 26.478 33.9995 22.7501C33.9995 19.0221 30.9774 16.0001 27.2495 16.0001ZM18.9995 22.7501C18.9995 18.1937 22.6931 14.5001 27.2495 14.5001C31.8059 14.5001 35.4995 18.1937 35.4995 22.7501C35.4995 27.3064 31.8059 31 27.2495 31C22.6931 31 18.9995 27.3064 18.9995 22.7501ZM30.7801 21.4692C30.4872 21.1764 30.0123 21.1764 29.7193 21.4692L27.2498 23.9389L25.5302 22.2192C25.2372 21.9264 24.7623 21.9264 24.4694 22.2192C24.1766 22.5121 24.1766 22.987 24.4694 23.28L26.7194 25.53C27.0123 25.8228 27.4872 25.8228 27.7801 25.53L30.7801 22.53C31.0729 22.237 31.0729 21.7621 30.7801 21.4692Z" fill="#EE9338"/>
<path d="M2.49999 7.00001V6.85001H2.34999V7.00001H2.49999ZM30.9999 7.00001H31.1499V6.85001H30.9999V7.00001ZM30.9999 5.50002V5.65002H31.1499V5.50002H30.9999ZM2.49999 5.50002H2.34999V5.65002H2.49999V5.50002ZM29.7193 21.4692L29.6133 21.3631L29.6133 21.3631L29.7193 21.4692ZM30.7801 21.4692L30.8862 21.3631L30.8862 21.3631L30.7801 21.4692ZM27.2498 23.9389L27.1437 24.045L27.2497 24.1511L27.3558 24.045L27.2498 23.9389ZM25.5302 22.2192L25.6362 22.1131L25.6362 22.1131L25.5302 22.2192ZM24.4694 22.2192L24.3633 22.1131L24.3633 22.1131L24.4694 22.2192ZM24.4694 23.28L24.3633 23.386L24.3633 23.386L24.4694 23.28ZM26.7194 25.53L26.6133 25.636L26.6133 25.636L26.7194 25.53ZM27.7801 25.53L27.8862 25.636L27.8862 25.636L27.7801 25.53ZM30.7801 22.53L30.8862 22.636L30.8862 22.636L30.7801 22.53ZM1.15 4.53569C1.15 2.67769 2.62792 1.15 4.47725 1.15V0.85C2.45589 0.85 0.85 2.51843 0.85 4.53569H1.15ZM1.15 6.25001V4.53569H0.85V6.25001H1.15ZM1.15 18.4643V6.25001H0.85V18.4643H1.15ZM4.47725 21.8499C2.62792 21.8499 1.15 20.3222 1.15 18.4643H0.85C0.85 20.4814 2.45589 22.1499 4.47725 22.1499V21.8499ZM15.2499 21.8499H4.47725V22.1499H15.2499V21.8499ZM15.8499 21.2499C15.8499 21.5812 15.5812 21.8499 15.2499 21.8499V22.1499C15.7469 22.1499 16.1499 21.7469 16.1499 21.2499H15.8499ZM15.2499 20.6499C15.5812 20.6499 15.8499 20.9186 15.8499 21.2499H16.1499C16.1499 20.7529 15.7469 20.3499 15.2499 20.3499V20.6499ZM4.47725 20.6499H15.2499V20.3499H4.47725V20.6499ZM2.34999 18.4643C2.34999 19.6837 3.31466 20.6499 4.47725 20.6499V20.3499C3.48564 20.3499 2.64999 19.5233 2.64999 18.4643H2.34999ZM2.34999 7.00001V18.4643H2.64999V7.00001H2.34999ZM30.9999 6.85001H2.49999V7.15001H30.9999V6.85001ZM31.1499 12.2499V7.00001H30.8499V12.2499H31.1499ZM31.7499 12.8499C31.4185 12.8499 31.1499 12.5813 31.1499 12.2499H30.8499C30.8499 12.7469 31.2529 13.1499 31.7499 13.1499V12.8499ZM32.3498 12.2499C32.3498 12.5813 32.0812 12.8499 31.7499 12.8499V13.1499C32.2468 13.1499 32.6498 12.7469 32.6498 12.2499H32.3498ZM32.3498 6.25001V12.2499H32.6498V6.25001H32.3498ZM32.3498 4.53569V6.25001H32.6498V4.53569H32.3498ZM29.0226 1.15C30.872 1.15 32.3498 2.67769 32.3498 4.53569H32.6498C32.6498 2.51843 31.044 0.85 29.0226 0.85V1.15ZM4.47725 1.15H29.0226V0.85H4.47725V1.15ZM30.8499 4.53569V5.50002H31.1499V4.53569H30.8499ZM29.0226 2.64999C30.0142 2.64999 30.8499 3.47651 30.8499 4.53569H31.1499C31.1499 3.31617 30.1852 2.34999 29.0226 2.34999V2.64999ZM4.47725 2.64999H29.0226V2.34999H4.47725V2.64999ZM2.64999 4.53569C2.64999 3.47651 3.48564 2.64999 4.47725 2.64999V2.34999C3.31466 2.34999 2.34999 3.31617 2.34999 4.53569H2.64999ZM2.64999 5.50002V4.53569H2.34999V5.50002H2.64999ZM30.9999 5.35002H2.49999V5.65002H30.9999V5.35002ZM4.74992 12.8497C4.25286 12.8497 3.84992 13.2527 3.84992 13.7497H4.14992C4.14992 13.4184 4.41856 13.1497 4.74992 13.1497V12.8497ZM7.74991 12.8497H4.74992V13.1497H7.74991V12.8497ZM8.6499 13.7497C8.6499 13.2527 8.24696 12.8497 7.74991 12.8497V13.1497C8.08126 13.1497 8.3499 13.4184 8.3499 13.7497H8.6499ZM7.74991 14.6497C8.24696 14.6497 8.6499 14.2467 8.6499 13.7497H8.3499C8.3499 14.081 8.08126 14.3497 7.74991 14.3497V14.6497ZM4.74992 14.6497H7.74991V14.3497H4.74992V14.6497ZM3.84992 13.7497C3.84992 14.2467 4.25286 14.6497 4.74992 14.6497V14.3497C4.41856 14.3497 4.14992 14.081 4.14992 13.7497H3.84992ZM4.14992 17.4995C4.14992 17.1682 4.41856 16.8995 4.74992 16.8995V16.5995C4.25286 16.5995 3.84992 17.0025 3.84992 17.4995H4.14992ZM4.74992 18.0995C4.41856 18.0995 4.14992 17.8308 4.14992 17.4995H3.84992C3.84992 17.9965 4.25286 18.3995 4.74992 18.3995V18.0995ZM10.7499 18.0995H4.74992V18.3995H10.7499V18.0995ZM11.3499 17.4995C11.3499 17.8308 11.0812 18.0995 10.7499 18.0995V18.3995C11.2469 18.3995 11.6499 17.9965 11.6499 17.4995H11.3499ZM10.7499 16.8995C11.0812 16.8995 11.3499 17.1682 11.3499 17.4995H11.6499C11.6499 17.0025 11.2469 16.5995 10.7499 16.5995V16.8995ZM4.74992 16.8995H10.7499V16.5995H4.74992V16.8995ZM20.6495 22.7501C20.6495 19.105 23.6044 16.1501 27.2495 16.1501V15.8501C23.4387 15.8501 20.3495 18.9393 20.3495 22.7501H20.6495ZM27.2495 29.35C23.6044 29.35 20.6495 26.3951 20.6495 22.7501H20.3495C20.3495 26.5608 23.4387 29.65 27.2495 29.65V29.35ZM33.8495 22.7501C33.8495 26.3951 30.8946 29.35 27.2495 29.35V29.65C31.0603 29.65 34.1495 26.5608 34.1495 22.7501H33.8495ZM27.2495 16.1501C30.8946 16.1501 33.8495 19.105 33.8495 22.7501H34.1495C34.1495 18.9393 31.0603 15.8501 27.2495 15.8501V16.1501ZM27.2495 14.3501C22.6103 14.3501 18.8495 18.1108 18.8495 22.7501H19.1495C19.1495 18.2765 22.776 14.6501 27.2495 14.6501V14.3501ZM35.6495 22.7501C35.6495 18.1108 31.8887 14.3501 27.2495 14.3501V14.6501C31.723 14.6501 35.3495 18.2765 35.3495 22.7501H35.6495ZM27.2495 31.15C31.8887 31.15 35.6495 27.3893 35.6495 22.7501H35.3495C35.3495 27.2236 31.723 30.85 27.2495 30.85V31.15ZM18.8495 22.7501C18.8495 27.3893 22.6103 31.15 27.2495 31.15V30.85C22.776 30.85 19.1495 27.2236 19.1495 22.7501H18.8495ZM29.8254 21.5753C30.0598 21.341 30.4397 21.341 30.6741 21.5753L30.8862 21.3631C30.5347 21.0117 29.9648 21.0117 29.6133 21.3631L29.8254 21.5753ZM27.3558 24.045L29.8254 21.5752L29.6133 21.3631L27.1437 23.8329L27.3558 24.045ZM25.4241 22.3252L27.1437 24.045L27.3558 23.8329L25.6362 22.1131L25.4241 22.3252ZM24.5754 22.3253C24.8098 22.091 25.1897 22.091 25.4241 22.3253L25.6362 22.1131C25.2847 21.7617 24.7148 21.7617 24.3633 22.1131L24.5754 22.3253ZM24.5755 23.1739C24.3412 22.9396 24.3412 22.5596 24.5755 22.3252L24.3633 22.1131C24.0119 22.4647 24.0119 23.0345 24.3633 23.386L24.5755 23.1739ZM26.8254 25.4239L24.5754 23.1739L24.3633 23.386L26.6133 25.636L26.8254 25.4239ZM27.6741 25.4239C27.4397 25.6581 27.0598 25.6581 26.8254 25.4239L26.6133 25.636C26.9648 25.9874 27.5347 25.9874 27.8862 25.636L27.6741 25.4239ZM30.6741 22.4239L27.6741 25.4239L27.8862 25.636L30.8862 22.636L30.6741 22.4239ZM30.674 21.5752C30.9083 21.8096 30.9083 22.1896 30.674 22.4239L30.8862 22.636C31.2376 22.2845 31.2376 21.7147 30.8862 21.3631L30.674 21.5752Z" fill="#EE9338"/>
</svg>
