<svg width="32" height="28" viewBox="0 0 32 28" fill="none" xmlns="http://www.w3.org/2000/svg">
<path fill-rule="evenodd" clip-rule="evenodd" d="M4.02371 1C2.34079 1 1 2.38963 1 4.07453V5.56522V16.1864C1 17.8712 2.34079 19.2609 4.02371 19.2609H13.3913C13.7514 19.2609 14.0435 18.9688 14.0435 18.6087C14.0435 18.2486 13.7514 17.9565 13.3913 17.9565H4.02371C3.0871 17.9565 2.30435 17.177 2.30435 16.1864V6.21739H27.087V10.7826C27.087 11.1427 27.379 11.4348 27.7391 11.4348C28.0993 11.4348 28.3913 11.1427 28.3913 10.7826V5.56522V4.07453C28.3913 2.38963 27.0506 1 25.3676 1H4.02371ZM27.087 4.91304V4.07453C27.087 3.08379 26.3042 2.30435 25.3676 2.30435H4.02371C3.0871 2.30435 2.30435 3.08379 2.30435 4.07453V4.91304H27.087ZM3.60869 12.0869C3.60869 11.7268 3.90068 11.4348 4.26086 11.4348H6.86955C7.22974 11.4348 7.52173 11.7268 7.52173 12.0869C7.52173 12.4471 7.22974 12.7391 6.86955 12.7391H4.26086C3.90068 12.7391 3.60869 12.4471 3.60869 12.0869ZM4.26086 14.6957C3.90068 14.6957 3.60869 14.9877 3.60869 15.3478C3.60869 15.708 3.90068 16 4.26086 16H9.47825C9.83843 16 10.1304 15.708 10.1304 15.3478C10.1304 14.9877 9.83843 14.6957 9.47825 14.6957H4.26086ZM23.8261 14.0435C20.5844 14.0435 17.9565 16.6713 17.9565 19.913C17.9565 23.1547 20.5844 25.7826 23.8261 25.7826C27.0678 25.7826 29.6957 23.1547 29.6957 19.913C29.6957 16.6713 27.0678 14.0435 23.8261 14.0435ZM16.6522 19.913C16.6522 15.951 19.864 12.7391 23.8261 12.7391C27.7882 12.7391 31 15.951 31 19.913C31 23.8751 27.7882 27.087 23.8261 27.087C19.864 27.087 16.6522 23.8751 16.6522 19.913ZM26.896 18.7997C26.6413 18.545 26.2283 18.545 25.9736 18.7997L23.8261 20.9473L22.3308 19.4518C22.076 19.1972 21.6631 19.1972 21.4084 19.4518C21.1537 19.7066 21.1537 20.1195 21.4084 20.3743L23.3649 22.3308C23.6196 22.5854 24.0326 22.5854 24.2873 22.3308L26.896 19.7221C27.1506 19.4673 27.1506 19.0544 26.896 18.7997Z" fill="#1D3557"/>
<path d="M2.30435 6.21739V6.06739H2.15435V6.21739H2.30435ZM27.087 6.21739H27.237V6.06739H27.087V6.21739ZM27.087 4.91304V5.06304H27.237V4.91304H27.087ZM2.30435 4.91304H2.15435V5.06304H2.30435V4.91304ZM25.9736 18.7997L25.8675 18.6936L25.8675 18.6936L25.9736 18.7997ZM26.896 18.7997L27.0021 18.6936L27.002 18.6936L26.896 18.7997ZM23.8261 20.9473L23.72 21.0533L23.8261 21.1594L23.9322 21.0533L23.8261 20.9473ZM22.3308 19.4518L22.4369 19.3458L22.4368 19.3457L22.3308 19.4518ZM21.4084 19.4518L21.3023 19.3457L21.3023 19.3458L21.4084 19.4518ZM21.4084 20.3743L21.3023 20.4803L21.3023 20.4803L21.4084 20.3743ZM23.3649 22.3308L23.2588 22.4368L23.2588 22.4369L23.3649 22.3308ZM24.2873 22.3308L24.3933 22.4369L24.3934 22.4368L24.2873 22.3308ZM26.896 19.7221L27.0021 19.8281L27.0021 19.8281L26.896 19.7221ZM1.15 4.07453C1.15 2.46926 2.42681 1.15 4.02371 1.15V0.85C2.25477 0.85 0.85 2.30999 0.85 4.07453H1.15ZM1.15 5.56522V4.07453H0.85V5.56522H1.15ZM1.15 16.1864V5.56522H0.85V16.1864H1.15ZM4.02371 19.1109C2.42681 19.1109 1.15 17.7916 1.15 16.1864H0.85C0.85 17.9509 2.25478 19.4109 4.02371 19.4109V19.1109ZM13.3913 19.1109H4.02371V19.4109H13.3913V19.1109ZM13.8935 18.6087C13.8935 18.886 13.6686 19.1109 13.3913 19.1109V19.4109C13.8343 19.4109 14.1935 19.0517 14.1935 18.6087H13.8935ZM13.3913 18.1065C13.6686 18.1065 13.8935 18.3314 13.8935 18.6087H14.1935C14.1935 18.1657 13.8343 17.8065 13.3913 17.8065V18.1065ZM4.02371 18.1065H13.3913V17.8065H4.02371V18.1065ZM2.15435 16.1864C2.15435 17.2572 3.00161 18.1065 4.02371 18.1065V17.8065C3.17259 17.8065 2.45435 17.0969 2.45435 16.1864H2.15435ZM2.15435 6.21739V16.1864H2.45435V6.21739H2.15435ZM27.087 6.06739H2.30435V6.36739H27.087V6.06739ZM27.237 10.7826V6.21739H26.937V10.7826H27.237ZM27.7391 11.2848C27.4618 11.2848 27.237 11.0599 27.237 10.7826H26.937C26.937 11.2256 27.2962 11.5848 27.7391 11.5848V11.2848ZM28.2413 10.7826C28.2413 11.0599 28.0164 11.2848 27.7391 11.2848V11.5848C28.1821 11.5848 28.5413 11.2256 28.5413 10.7826H28.2413ZM28.2413 5.56522V10.7826H28.5413V5.56522H28.2413ZM28.2413 4.07453V5.56522H28.5413V4.07453H28.2413ZM25.3676 1.15C26.9645 1.15 28.2413 2.46926 28.2413 4.07453H28.5413C28.5413 2.30999 27.1366 0.85 25.3676 0.85V1.15ZM4.02371 1.15H25.3676V0.85H4.02371V1.15ZM26.937 4.07453V4.91304H27.237V4.07453H26.937ZM25.3676 2.45435C26.2187 2.45435 26.937 3.16396 26.937 4.07453H27.237C27.237 3.00362 26.3897 2.15435 25.3676 2.15435V2.45435ZM4.02371 2.45435H25.3676V2.15435H4.02371V2.45435ZM2.45435 4.07453C2.45435 3.16396 3.17259 2.45435 4.02371 2.45435V2.15435C3.00161 2.15435 2.15435 3.00362 2.15435 4.07453H2.45435ZM2.45435 4.91304V4.07453H2.15435V4.91304H2.45435ZM27.087 4.76304H2.30435V5.06304H27.087V4.76304ZM4.26086 11.2848C3.81783 11.2848 3.45869 11.644 3.45869 12.0869H3.75869C3.75869 11.8097 3.98353 11.5848 4.26086 11.5848V11.2848ZM6.86955 11.2848H4.26086V11.5848H6.86955V11.2848ZM7.67173 12.0869C7.67173 11.644 7.31259 11.2848 6.86955 11.2848V11.5848C7.14689 11.5848 7.37173 11.8097 7.37173 12.0869H7.67173ZM6.86955 12.8891C7.31259 12.8891 7.67173 12.5299 7.67173 12.0869H7.37173C7.37173 12.3642 7.14689 12.5891 6.86955 12.5891V12.8891ZM4.26086 12.8891H6.86955V12.5891H4.26086V12.8891ZM3.45869 12.0869C3.45869 12.5299 3.81783 12.8891 4.26086 12.8891V12.5891C3.98353 12.5891 3.75869 12.3642 3.75869 12.0869H3.45869ZM3.75869 15.3478C3.75869 15.0705 3.98353 14.8457 4.26086 14.8457V14.5457C3.81783 14.5457 3.45869 14.9049 3.45869 15.3478H3.75869ZM4.26086 15.85C3.98353 15.85 3.75869 15.6251 3.75869 15.3478H3.45869C3.45869 15.7908 3.81783 16.15 4.26086 16.15V15.85ZM9.47825 15.85H4.26086V16.15H9.47825V15.85ZM9.98042 15.3478C9.98042 15.6251 9.75558 15.85 9.47825 15.85V16.15C9.92128 16.15 10.2804 15.7908 10.2804 15.3478H9.98042ZM9.47825 14.8457C9.75558 14.8457 9.98042 15.0705 9.98042 15.3478H10.2804C10.2804 14.9049 9.92128 14.5457 9.47825 14.5457V14.8457ZM4.26086 14.8457H9.47825V14.5457H4.26086V14.8457ZM18.1065 19.913C18.1065 16.7542 20.6672 14.1935 23.8261 14.1935V13.8935C20.5015 13.8935 17.8065 16.5885 17.8065 19.913H18.1065ZM23.8261 25.6326C20.6672 25.6326 18.1065 23.0719 18.1065 19.913H17.8065C17.8065 23.2376 20.5015 25.9326 23.8261 25.9326V25.6326ZM29.5457 19.913C29.5457 23.0719 26.9849 25.6326 23.8261 25.6326V25.9326C27.1506 25.9326 29.8457 23.2376 29.8457 19.913H29.5457ZM23.8261 14.1935C26.9849 14.1935 29.5457 16.7542 29.5457 19.913H29.8457C29.8457 16.5885 27.1506 13.8935 23.8261 13.8935V14.1935ZM23.8261 12.5891C19.7812 12.5891 16.5022 15.8681 16.5022 19.913H16.8022C16.8022 16.0338 19.9468 12.8891 23.8261 12.8891V12.5891ZM31.15 19.913C31.15 15.8681 27.871 12.5891 23.8261 12.5891V12.8891C27.7053 12.8891 30.85 16.0338 30.85 19.913H31.15ZM23.8261 27.237C27.871 27.237 31.15 23.958 31.15 19.913H30.85C30.85 23.7923 27.7053 26.937 23.8261 26.937V27.237ZM16.5022 19.913C16.5022 23.958 19.7812 27.237 23.8261 27.237V26.937C19.9468 26.937 16.8022 23.7923 16.8022 19.913H16.5022ZM26.0796 18.9057C26.2758 18.7097 26.5938 18.7097 26.79 18.9057L27.002 18.6936C26.6887 18.3804 26.1808 18.3804 25.8675 18.6936L26.0796 18.9057ZM23.9322 21.0533L26.0796 18.9057L25.8675 18.6936L23.72 20.8412L23.9322 21.0533ZM22.2247 19.5579L23.72 21.0533L23.9322 20.8412L22.4369 19.3458L22.2247 19.5579ZM21.5144 19.5579C21.7106 19.3619 22.0286 19.3619 22.2247 19.5579L22.4368 19.3457C22.1235 19.0326 21.6156 19.0326 21.3023 19.3457L21.5144 19.5579ZM21.5144 20.2682C21.3184 20.0721 21.3184 19.754 21.5144 19.5579L21.3023 19.3458C20.9891 19.6591 20.9891 20.167 21.3023 20.4803L21.5144 20.2682ZM23.4709 22.2247L21.5144 20.2682L21.3023 20.4803L23.2588 22.4368L23.4709 22.2247ZM24.1813 22.2247C23.9851 22.4208 23.6671 22.4208 23.4709 22.2247L23.2588 22.4369C23.5721 22.75 24.08 22.75 24.3933 22.4369L24.1813 22.2247ZM26.7899 19.616L24.1812 22.2247L24.3934 22.4368L27.0021 19.8281L26.7899 19.616ZM26.7899 18.9057C26.986 19.1019 26.986 19.4199 26.7899 19.616L27.0021 19.8281C27.3152 19.5148 27.3152 19.0069 27.0021 18.6936L26.7899 18.9057Z" fill="#1D3557"/>
</svg>
