<svg width="14" height="16" viewBox="0 0 14 16" fill="none" xmlns="http://www.w3.org/2000/svg">
<path fill-rule="evenodd" clip-rule="evenodd" d="M11.1514 13.2425C11.1514 13.6272 10.8392 13.9394 10.4544 13.9394H3.48475C3.10072 13.9394 2.78778 13.6272 2.78778 13.2425V4.18185H11.1514V13.2425ZM4.87891 2.09086C4.87891 1.70683 5.19185 1.39389 5.57588 1.39389H8.36375C8.74848 1.39389 9.06072 1.70683 9.06072 2.09086V2.78783H4.87891V2.09086ZM13.2424 2.78788H10.4545V2.09091C10.4545 0.938122 9.51642 0 8.36364 0H5.57576C4.42297 0 3.48485 0.938122 3.48485 2.09091V2.78788H0.69697C0.312242 2.78788 0 3.10012 0 3.48485C0 3.86958 0.312242 4.18182 0.69697 4.18182H1.39394V13.2424C1.39394 14.3952 2.33206 15.3333 3.48485 15.3333H10.4545C11.6073 15.3333 12.5455 14.3952 12.5455 13.2424V4.18182H13.2424C13.6278 4.18182 13.9394 3.86958 13.9394 3.48485C13.9394 3.10012 13.6278 2.78788 13.2424 2.78788ZM5.57588 6.27277C5.19115 6.27277 4.87891 6.58501 4.87891 6.96973V11.1516C4.87891 11.537 5.19115 11.8485 5.57588 11.8485C5.9606 11.8485 6.27285 11.537 6.27285 11.1516V6.96973C6.27285 6.58501 5.9606 6.27277 5.57588 6.27277ZM7.66669 6.96973C7.66669 6.58501 7.97823 6.27277 8.36366 6.27277C8.74908 6.27277 9.06063 6.58501 9.06063 6.96973V11.1516C9.06063 11.537 8.74908 11.8485 8.36366 11.8485C7.97823 11.8485 7.66669 11.537 7.66669 11.1516V6.96973Z" fill="#FA4D56"/>
</svg>
