<svg width="33" height="50" viewBox="0 0 33 50" fill="none" xmlns="http://www.w3.org/2000/svg">
<path d="M30.7617 41.2109C29.9521 41.2109 29.2969 41.8661 29.2969 42.6758V45.6055C29.2969 46.4137 28.6402 47.0703 27.832 47.0703H4.39453C3.58633 47.0703 2.92969 46.4137 2.92969 45.6055V42.6758C2.92969 41.8661 2.27451 41.2109 1.46484 41.2109C0.655176 41.2109 0 41.8661 0 42.6758V45.6055C0 48.0287 1.97129 50 4.39453 50H27.832C30.2553 50 32.2266 48.0287 32.2266 45.6055V42.6758C32.2266 41.8661 31.5714 41.2109 30.7617 41.2109ZM21.9727 0H4.39453C1.9627 0 0 1.96289 0 4.39453V33.6914C0 36.1229 1.9627 38.0859 4.39453 38.0859H13.1836C14.004 38.0859 14.6484 37.4413 14.6484 36.6211V30.7617C14.6484 29.9413 14.004 29.2969 13.1836 29.2969H11.4259L16.1133 21.7969L20.8007 29.2969H19.043C18.2226 29.2969 17.5781 29.9413 17.5781 30.7617V36.6211C17.5781 37.4413 18.2226 38.0859 19.043 38.0859H27.832C30.2639 38.0859 32.2266 36.1229 32.2266 33.6914V10.2539L21.9727 0Z" fill="url(#paint0_linear)"/>
<path d="M31.7872 9.22842L22.9981 0.439355C22.7345 0.146484 22.3537 0 21.9728 0V7.32422C21.9728 8.93555 23.2911 10.2539 24.9025 10.2539H32.2267C32.2267 9.87305 32.0801 9.49219 31.7872 9.22842ZM17.3551 18.2662C16.8201 17.4107 15.4068 17.4107 14.8717 18.2662L7.54752 29.985C7.26432 30.437 7.24996 31.0063 7.50748 31.4713C7.76637 31.9376 8.25709 32.2266 8.78922 32.2266H11.7189V42.4805C11.7189 43.2901 12.3741 43.9453 13.1838 43.9453H19.0431C19.8528 43.9453 20.508 43.2901 20.508 42.4805V32.2266H23.4377C23.9698 32.2266 24.4605 31.9376 24.7194 31.4713C24.9769 31.0063 24.9626 30.437 24.6794 29.985L17.3551 18.2662Z" fill="url(#paint1_linear)"/>
<defs>
<linearGradient id="paint0_linear" x1="16.1133" y1="50" x2="16.1133" y2="0" gradientUnits="userSpaceOnUse">
<stop stop-color="#FF5C65"/>
<stop offset="1" stop-color="#FEC00F"/>
</linearGradient>
<linearGradient id="paint1_linear" x1="19.7755" y1="43.9453" x2="19.7755" y2="0" gradientUnits="userSpaceOnUse">
<stop stop-color="#FFF0A3"/>
<stop offset="1" stop-color="#FFF1E3"/>
</linearGradient>
</defs>
</svg>
