<svg width="20" height="20" viewBox="0 0 20 20" fill="none" xmlns="http://www.w3.org/2000/svg">
<path d="M16.2206 10.448C15.8551 10.448 15.5588 10.7215 15.5588 11.0589V17.1674C15.5588 17.5048 15.2625 17.7783 14.897 17.7783H2.98529C2.6198 17.7783 2.32352 17.5048 2.32352 17.1674V4.95026C2.32352 4.61288 2.6198 4.33938 2.98529 4.33938H9.86765C10.2331 4.33938 10.5294 4.06589 10.5294 3.72851C10.5294 3.39113 10.2331 3.11768 9.86765 3.11768H2.98529C1.88885 3.11768 1 3.93815 1 4.95026V17.1674C1 18.1796 1.88885 19 2.98529 19H14.8971C15.9935 19 16.8824 18.1796 16.8824 17.1674V11.0588C16.8824 10.7215 16.5861 10.448 16.2206 10.448Z" fill="#2D5286" stroke="#2D5286" stroke-width="0.25"/>
<path d="M18.9268 1.67848C18.4924 1.24399 17.9031 0.999939 17.2887 1.00001C16.674 0.998237 16.0841 1.24271 15.6509 1.67887L7.68125 9.64785C7.61513 9.71446 7.56525 9.79544 7.53544 9.88442L6.32536 13.5147C6.21975 13.8317 6.39116 14.1743 6.70821 14.2799C6.76972 14.3004 6.83413 14.3108 6.89894 14.3109C6.96389 14.3108 7.02844 14.3004 7.09013 14.2801L10.7204 13.07C10.8095 13.0402 10.8906 12.9901 10.957 12.9236L18.9266 4.95397C19.8311 4.04953 19.8312 2.58303 18.9268 1.67848ZM18.071 4.09902L10.2055 11.9646L7.8555 12.7493L8.63781 10.4023L16.5064 2.53681C16.939 2.10507 17.6397 2.10578 18.0714 2.53837C18.2776 2.74501 18.3938 3.02476 18.3947 3.31671C18.3955 3.61021 18.2789 3.89184 18.071 4.09902Z" fill="#2D5286" stroke="#2D5286" stroke-width="0.25"/>
</svg>
