<svg width="30" height="30" viewBox="0 0 30 30" fill="none" xmlns="http://www.w3.org/2000/svg">
<path d="M2.76176 6.46482H15.1312C15.5468 9.10939 17.8378 11.1718 20.6484 11.1718H23.4727C23.958 11.1718 24.3516 10.7783 24.3516 10.2929V9.28904H29.1211C29.6065 9.28904 30 8.89553 30 8.41014C30 7.92475 29.6065 7.53123 29.1211 7.53123H24.3516V3.64061H29.1211C29.6065 3.64061 30 3.24709 30 2.7617C30 2.27631 29.6065 1.88279 29.1211 1.88279H24.3516V0.878906C24.3516 0.393516 23.958 0 23.4727 0H20.6484C17.8399 0 15.5471 2.06057 15.1312 4.70701H2.76176C1.24875 4.70701 0 5.9298 0 7.46877V19.7071C0 21.2511 1.25414 22.4688 2.76176 22.4688H3.76564V26.2969C3.76564 26.7823 4.15916 27.1758 4.64455 27.1758H6.69615C7.09184 28.7947 8.55393 30 10.293 30C12.0322 30 13.4942 28.7947 13.8899 27.1758H18.9345C19.3301 28.7947 20.7923 30 22.5313 30C24.2704 30 25.7326 28.7947 26.1282 27.1758H29.1211C29.6065 27.1758 30 26.7823 30 26.2969V23.9433C30 21.1228 27.7054 18.8281 24.8848 18.8281H24.7781L21.4314 15.4813C20.5542 14.6042 19.3879 14.1211 18.1471 14.1211H6.52734C5.01434 14.1211 3.76559 15.3438 3.76559 16.8828V20.7109H2.76176C2.21338 20.711 1.75781 20.2676 1.75781 19.707V7.46877C1.75781 6.92186 2.19996 6.46482 2.76176 6.46482V6.46482ZM20.6484 1.75781H22.5938V9.41408H20.6484C18.501 9.41408 16.8203 7.66564 16.8203 5.58598C16.8203 3.47168 18.531 1.75781 20.6484 1.75781ZM10.293 28.2422C9.22031 28.2422 8.34768 27.3695 8.34768 26.2969C8.34768 25.2243 9.22037 24.3516 10.293 24.3516C11.3656 24.3516 12.2382 25.2242 12.2382 26.2969C12.2382 27.3696 11.3656 28.2422 10.293 28.2422ZM22.5312 28.2422C21.4586 28.2422 20.5859 27.3695 20.5859 26.2969C20.5859 25.2243 21.4586 24.3516 22.5312 24.3516C23.6038 24.3516 24.4765 25.2242 24.4765 26.2969C24.4765 27.3696 23.6039 28.2422 22.5312 28.2422ZM14.9375 15.8789H18.1471C18.9183 15.8789 19.6432 16.1791 20.1884 16.7243L22.2922 18.8281H14.9375V15.8789ZM5.52346 16.8828C5.52346 16.3359 5.96561 15.8789 6.5274 15.8789H13.1797V18.8281H5.52346V16.8828ZM5.52346 20.5859H24.8848C26.7361 20.5859 28.2422 22.0921 28.2422 23.9433V25.418H26.1292C25.734 23.799 24.271 22.5938 22.5312 22.5938C20.792 22.5938 19.3291 23.7989 18.9335 25.418H13.8907C13.4951 23.7989 12.0321 22.5938 10.2921 22.5938C8.55328 22.5938 7.09066 23.7987 6.69516 25.418H5.52346V20.5859Z" fill="#2D5286"/>
</svg>
