<svg width="25" height="20" viewBox="0 0 25 20" fill="none" xmlns="http://www.w3.org/2000/svg">
<path d="M23.6496 11.6343C24.1581 11.6343 24.5703 11.2221 24.5703 10.7136V4.68286C24.5703 2.65213 22.9182 1 20.8875 1H4.68286C2.65213 1 1 2.65213 1 4.68286V15.3171C1 17.3479 2.65213 19 4.68286 19H20.8875C22.9182 19 24.5703 17.3479 24.5703 15.3171C24.5703 14.8086 24.1581 14.3964 23.6496 14.3964C23.1411 14.3964 22.7289 14.8086 22.7289 15.3171C22.7289 16.3325 21.9028 17.1586 20.8875 17.1586H4.68286C3.6675 17.1586 2.84143 16.3325 2.84143 15.3171V4.87796L10.8404 9.8519C11.4402 10.2248 12.1127 10.4113 12.7852 10.4113C13.4577 10.4113 14.1301 10.2248 14.7299 9.8519L22.7289 4.87796V10.7136C22.7289 11.2221 23.1411 11.6343 23.6496 11.6343ZM13.7575 8.28811C13.1578 8.66105 12.4126 8.66109 11.8128 8.28811L3.60972 3.18725C3.91209 2.96969 4.28277 2.84143 4.68286 2.84143H20.8875C21.2876 2.84143 21.6582 2.96973 21.9606 3.1873L13.7575 8.28811Z" fill="#E95228" stroke="#E95228" stroke-width="0.15"/>
</svg>
