<svg width="8" height="13" viewBox="0 0 8 13" fill="none" xmlns="http://www.w3.org/2000/svg">
<path d="M6.76379 0.00270487L5.07798 0C3.18404 0 1.96008 1.25573 1.96008 3.19932V4.67442H0.265077C0.118609 4.67442 0 4.79316 0 4.93963V7.07688C0 7.22335 0.118744 7.34196 0.265077 7.34196H1.96008V12.7349C1.96008 12.8814 2.07869 13 2.22516 13H4.43666C4.58313 13 4.70174 12.8813 4.70174 12.7349V7.34196H6.68359C6.83006 7.34196 6.94867 7.22335 6.94867 7.07688L6.94948 4.93963C6.94948 4.8693 6.92149 4.80195 6.87185 4.75218C6.82222 4.70241 6.7546 4.67442 6.68427 4.67442H4.70174V3.42396C4.70174 2.82294 4.84496 2.51783 5.62788 2.51783L6.76352 2.51742C6.90985 2.51742 7.02846 2.39868 7.02846 2.25234V0.267782C7.02846 0.121584 6.90999 0.00297535 6.76379 0.00270487Z" fill="#132339"/>
</svg>
