<svg width="41" height="32" viewBox="0 0 41 32" fill="none" xmlns="http://www.w3.org/2000/svg">
<path fill-rule="evenodd" clip-rule="evenodd" d="M20.1904 1C27.1962 1 33.7811 3.72773 38.7334 8.68176C39.5949 9.54527 39.5949 10.9449 38.732 11.8084C37.868 12.6703 36.4691 12.6711 35.6062 11.8076C31.4886 7.68874 26.0142 5.42079 20.1904 5.42079C14.3666 5.42079 8.89054 7.68874 4.77313 11.8076C4.34313 12.2393 3.77608 12.455 3.21059 12.455C2.6451 12.455 2.0796 12.2393 1.64734 11.8076C0.784219 10.9449 0.784219 9.54527 1.64734 8.68176C6.59966 3.72773 13.1846 1 20.1904 1ZM20.1908 8.29481C15.1341 8.29481 10.3804 10.2641 6.80557 13.8394C5.94244 14.7029 5.94244 16.1025 6.80557 16.9652C7.66931 17.8287 9.06894 17.8287 9.93128 16.9652C12.6711 14.2246 16.3152 12.7155 20.1907 12.7155C24.0646 12.7155 27.7087 14.2246 30.4486 16.9652C30.8801 17.397 31.4471 17.6129 32.0111 17.6129C32.5781 17.6129 33.1429 17.397 33.5744 16.9652C34.4375 16.1025 34.4375 14.7029 33.5744 13.8394C29.9995 10.2641 25.2474 8.29481 20.1908 8.29481ZM11.9533 18.9863C14.1522 16.7853 17.0792 15.5734 20.1905 15.5734C23.3019 15.5734 26.2289 16.7853 28.4278 18.9863C29.2917 19.8499 29.2917 21.2492 28.4278 22.1121C27.9963 22.5439 27.4323 22.7596 26.8653 22.7596C26.3013 22.7596 25.7343 22.5439 25.3021 22.1121C23.9382 20.7463 22.1222 19.9944 20.1905 19.9944C18.2589 19.9944 16.443 20.7463 15.0791 22.1121C14.2153 22.9756 12.8165 22.9756 11.9533 22.1121C11.0895 21.2492 11.0895 19.8498 11.9533 18.9863ZM17.5201 29.8944C16.0459 28.4199 16.0459 26.0282 17.5201 24.5538C18.9951 23.0793 21.3864 23.0793 22.8614 24.5538C24.3356 26.0282 24.3356 28.4199 22.8614 29.8944C21.3864 31.3685 18.9951 31.3685 17.5201 29.8944Z" fill="#2D5286"/>
<path d="M38.7334 8.68176L39.2643 8.15202L39.2638 8.15152L38.7334 8.68176ZM38.732 11.8084L39.2617 12.3394L39.2625 12.3386L38.732 11.8084ZM35.6062 11.8076L36.1367 11.2774L36.1366 11.2774L35.6062 11.8076ZM4.77313 11.8076L4.24271 11.2774L4.24175 11.2783L4.77313 11.8076ZM1.64734 11.8076L1.11713 12.3381L1.11735 12.3383L1.64734 11.8076ZM1.64734 8.68176L1.11692 8.15152L1.11689 8.15154L1.64734 8.68176ZM6.80557 13.8394L6.2752 13.3091L6.27514 13.3092L6.80557 13.8394ZM6.80557 16.9652L7.3358 16.4348L7.33578 16.4348L6.80557 16.9652ZM9.93128 16.9652L9.40088 16.435L9.40062 16.4352L9.93128 16.9652ZM30.4486 16.9652L30.9791 16.4351L30.979 16.435L30.4486 16.9652ZM33.5744 16.9652L33.0442 16.4348L33.0439 16.4351L33.5744 16.9652ZM33.5744 13.8394L34.1048 13.3092L34.1047 13.3091L33.5744 13.8394ZM11.9533 18.9863L12.4835 19.5168L12.4839 19.5164L11.9533 18.9863ZM28.4278 18.9863L27.8973 19.5164L27.8976 19.5168L28.4278 18.9863ZM28.4278 22.1121L27.8978 21.5815L27.8974 21.5819L28.4278 22.1121ZM25.3021 22.1121L24.7713 22.6421L24.7721 22.6428L25.3021 22.1121ZM15.0791 22.1121L15.6093 22.6426L15.6098 22.6421L15.0791 22.1121ZM11.9533 22.1121L12.4838 21.5819L12.4834 21.5815L11.9533 22.1121ZM17.5201 24.5538L16.9899 24.0234L16.9898 24.0235L17.5201 24.5538ZM17.5201 29.8944L16.9897 30.4247L16.9899 30.4249L17.5201 29.8944ZM22.8614 24.5538L23.3918 24.0235L23.3916 24.0234L22.8614 24.5538ZM22.8614 29.8944L23.3916 30.4249L23.3918 30.4247L22.8614 29.8944ZM39.2638 8.15152C34.1708 3.05675 27.3951 0.25 20.1904 0.25V1.75C26.9973 1.75 33.3913 4.39871 38.203 9.21199L39.2638 8.15152ZM39.2625 12.3386C40.418 11.1823 40.418 9.30836 39.2643 8.15202L38.2024 9.21149C38.7718 9.78217 38.7718 10.7075 38.2015 11.2782L39.2625 12.3386ZM35.0757 12.3378C36.232 13.4948 38.1054 13.4929 39.2617 12.3394L38.2023 11.2774C37.6306 11.8477 36.7063 11.8474 36.1367 11.2774L35.0757 12.3378ZM20.1904 6.17079C25.8152 6.17079 31.0989 8.3597 35.0758 12.3379L36.1366 11.2774C31.8784 7.01779 26.2131 4.67079 20.1904 4.67079V6.17079ZM5.30356 12.3379C9.28025 8.35974 14.5655 6.17079 20.1904 6.17079V4.67079C14.1677 4.67079 8.50083 7.01775 4.24271 11.2774L5.30356 12.3379ZM3.21059 13.205C3.96607 13.205 4.72725 12.9165 5.30452 12.3369L4.24175 11.2783C3.959 11.5622 3.58609 11.705 3.21059 11.705V13.205ZM1.11735 12.3383C1.69568 12.9159 2.45418 13.205 3.21059 13.205V11.705C2.83601 11.705 2.46353 11.5628 2.17734 11.277L1.11735 12.3383ZM1.11689 8.15154C-0.0388325 9.30779 -0.039176 11.1823 1.11713 12.3381L2.17755 11.2772C1.60761 10.7075 1.60727 9.78274 2.17779 9.21197L1.11689 8.15154ZM20.1904 0.25C12.9856 0.25 6.20993 3.05675 1.11692 8.15152L2.17776 9.21199C6.98938 4.39871 13.3835 1.75 20.1904 1.75V0.25ZM7.33593 14.3697C10.7701 10.9351 15.333 9.04481 20.1908 9.04481V7.54481C14.9352 7.54481 9.99071 9.59315 6.2752 13.3091L7.33593 14.3697ZM7.33578 16.4348C6.76583 15.8651 6.76552 14.9403 7.33599 14.3697L6.27514 13.3092C5.11937 14.4654 5.11906 16.3399 6.27536 17.4957L7.33578 16.4348ZM9.40062 16.4352C8.83148 17.0051 7.90692 17.0057 7.3358 16.4348L6.27533 17.4956C7.43171 18.6516 9.30639 18.6522 10.4619 17.4952L9.40062 16.4352ZM20.1907 11.9655C16.1164 11.9655 12.2815 13.5536 9.40088 16.435L10.4617 17.4955C13.0608 14.8956 16.5141 13.4655 20.1907 13.4655V11.9655ZM30.979 16.435C28.0984 13.5536 24.2635 11.9655 20.1907 11.9655V13.4655C23.8656 13.4655 27.3189 14.8956 29.9182 17.4955L30.979 16.435ZM32.0111 16.8629C31.6378 16.8629 31.2641 16.7203 30.9791 16.4351L29.9181 17.4954C30.496 18.0737 31.2565 18.3629 32.0111 18.3629V16.8629ZM33.0439 16.4351C32.7587 16.7205 32.3872 16.8629 32.0111 16.8629V18.3629C32.769 18.3629 33.5271 18.0735 34.1049 17.4954L33.0439 16.4351ZM33.044 14.3697C33.6144 14.9403 33.6141 15.8651 33.0442 16.4348L34.1046 17.4957C35.2609 16.3399 35.2606 14.4654 34.1048 13.3092L33.044 14.3697ZM20.1908 9.04481C25.0484 9.04481 29.6098 10.935 33.044 14.3697L34.1047 13.3091C30.3893 9.59319 25.4464 7.54481 20.1908 7.54481V9.04481ZM20.1905 14.8234C16.8804 14.8234 13.7624 16.1143 11.4227 18.4563L12.4839 19.5164C14.5419 17.4564 17.278 16.3234 20.1905 16.3234V14.8234ZM28.9584 18.4563C26.6187 16.1143 23.5007 14.8234 20.1905 14.8234V16.3234C23.1031 16.3234 25.8392 17.4564 27.8973 19.5164L28.9584 18.4563ZM28.9579 22.6428C30.1151 21.4868 30.1148 19.6122 28.9581 18.4559L27.8976 19.5168C28.4685 20.0875 28.4682 21.0117 27.8978 21.5815L28.9579 22.6428ZM26.8653 23.5096C27.6234 23.5096 28.3806 23.2202 28.9583 22.6424L27.8974 21.5819C27.612 21.8675 27.2411 22.0096 26.8653 22.0096V23.5096ZM24.7721 22.6428C25.3505 23.2205 26.1106 23.5096 26.8653 23.5096V22.0096C26.492 22.0096 26.1181 21.8672 25.832 21.5815L24.7721 22.6428ZM20.1905 20.7444C21.9235 20.7444 23.5484 21.4174 24.7713 22.6421L25.8328 21.5822C24.328 20.0752 22.321 19.2444 20.1905 19.2444V20.7444ZM15.6098 22.6421C16.8328 21.4174 18.4576 20.7444 20.1905 20.7444V19.2444C18.0601 19.2444 16.0532 20.0752 14.5484 21.5822L15.6098 22.6421ZM11.4229 22.6424C12.5791 23.7989 14.4528 23.7986 15.6093 22.6426L14.5489 21.5817C13.9778 22.1525 13.0538 22.1522 12.4838 21.5819L11.4229 22.6424ZM11.4231 18.4559C10.2663 19.6122 10.2661 21.4868 11.4233 22.6428L12.4834 21.5815C11.9129 21.0117 11.9127 20.0874 12.4835 19.5168L11.4231 18.4559ZM16.9898 24.0235C15.2226 25.7908 15.2227 28.6573 16.9897 30.4247L18.0505 29.3641C16.8691 28.1825 16.8691 26.2656 18.0505 25.0841L16.9898 24.0235ZM23.3916 24.0234C21.6238 22.2561 18.7578 22.2561 16.9899 24.0234L18.0503 25.0842C19.2325 23.9025 21.1491 23.9025 22.3311 25.0842L23.3916 24.0234ZM23.3918 30.4247C25.1588 28.6573 25.1588 25.7908 23.3918 24.0235L22.331 25.0841C23.5123 26.2656 23.5124 28.1825 22.331 29.3641L23.3918 30.4247ZM16.9899 30.4249C18.7578 32.1917 21.6238 32.1917 23.3916 30.4249L22.3312 29.3639C21.1491 30.5454 19.2325 30.5454 18.0503 29.3639L16.9899 30.4249Z" fill="white"/>
</svg>
