<svg width="41" height="32" viewBox="0 0 41 32" fill="none" xmlns="http://www.w3.org/2000/svg">
<path fill-rule="evenodd" clip-rule="evenodd" d="M20.1903 1C27.1961 1 33.781 3.72773 38.7333 8.68176C39.5949 9.54527 39.5949 10.9449 38.7319 11.8084C37.8679 12.6703 36.4691 12.6711 35.6061 11.8076C31.4886 7.68874 26.0141 5.42079 20.1903 5.42079C14.3665 5.42079 8.89048 7.68874 4.77307 11.8076C4.34307 12.2393 3.77602 12.455 3.21053 12.455C2.64504 12.455 2.07954 12.2393 1.64728 11.8076C0.784158 10.9449 0.784158 9.54527 1.64728 8.68176C6.59959 3.72773 13.1845 1 20.1903 1ZM20.1907 8.29481C15.1341 8.29481 10.3804 10.2641 6.80551 13.8394C5.94238 14.7029 5.94238 16.1025 6.80551 16.9652C7.66925 17.8287 9.06888 17.8287 9.93122 16.9652C12.6711 14.2246 16.3152 12.7155 20.1906 12.7155C24.0645 12.7155 27.7086 14.2246 30.4485 16.9652C30.88 17.397 31.4471 17.6129 32.0111 17.6129C32.578 17.6129 33.1428 17.397 33.5743 16.9652C34.4374 16.1025 34.4374 14.7029 33.5743 13.8394C29.9995 10.2641 25.2473 8.29481 20.1907 8.29481ZM11.9533 18.9863C14.1521 16.7853 17.0792 15.5734 20.1905 15.5734C23.3018 15.5734 26.2289 16.7853 28.4278 18.9863C29.2916 19.8499 29.2916 21.2492 28.4278 22.1121C27.9962 22.5439 27.4322 22.7596 26.8652 22.7596C26.3012 22.7596 25.7343 22.5439 25.302 22.1121C23.9381 20.7463 22.1222 19.9944 20.1905 19.9944C18.2588 19.9944 16.4429 20.7463 15.0791 22.1121C14.2152 22.9756 12.8164 22.9756 11.9533 22.1121C11.0894 21.2492 11.0894 19.8498 11.9533 18.9863ZM17.5201 29.8944C16.0458 28.4199 16.0458 26.0282 17.5201 24.5538C18.9951 23.0793 21.3864 23.0793 22.8613 24.5538C24.3355 26.0282 24.3355 28.4199 22.8613 29.8944C21.3864 31.3685 18.9951 31.3685 17.5201 29.8944Z" fill="#EE9338"/>
<path d="M38.7333 8.68176L39.2642 8.15202L39.2637 8.15152L38.7333 8.68176ZM38.7319 11.8084L39.2616 12.3394L39.2624 12.3386L38.7319 11.8084ZM35.6061 11.8076L36.1366 11.2774L36.1365 11.2774L35.6061 11.8076ZM4.77307 11.8076L4.24265 11.2774L4.24169 11.2783L4.77307 11.8076ZM1.64728 11.8076L1.11707 12.3381L1.11729 12.3383L1.64728 11.8076ZM1.64728 8.68176L1.11686 8.15152L1.11683 8.15154L1.64728 8.68176ZM6.80551 13.8394L6.27514 13.3091L6.27508 13.3092L6.80551 13.8394ZM6.80551 16.9652L7.33574 16.4348L7.33572 16.4348L6.80551 16.9652ZM9.93122 16.9652L9.40082 16.435L9.40056 16.4352L9.93122 16.9652ZM30.4485 16.9652L30.979 16.4351L30.9789 16.435L30.4485 16.9652ZM33.5743 16.9652L33.0441 16.4348L33.0438 16.4351L33.5743 16.9652ZM33.5743 13.8394L34.1047 13.3092L34.1047 13.3091L33.5743 13.8394ZM11.9533 18.9863L12.4835 19.5168L12.4839 19.5164L11.9533 18.9863ZM28.4278 18.9863L27.8972 19.5164L27.8975 19.5168L28.4278 18.9863ZM28.4278 22.1121L27.8977 21.5815L27.8974 21.5819L28.4278 22.1121ZM25.302 22.1121L24.7713 22.6421L24.772 22.6428L25.302 22.1121ZM15.0791 22.1121L15.6093 22.6426L15.6098 22.6421L15.0791 22.1121ZM11.9533 22.1121L12.4837 21.5819L12.4833 21.5815L11.9533 22.1121ZM17.5201 24.5538L16.9898 24.0234L16.9897 24.0235L17.5201 24.5538ZM17.5201 29.8944L16.9897 30.4247L16.9899 30.4249L17.5201 29.8944ZM22.8613 24.5538L23.3917 24.0235L23.3916 24.0234L22.8613 24.5538ZM22.8613 29.8944L23.3915 30.4249L23.3917 30.4247L22.8613 29.8944ZM39.2637 8.15152C34.1707 3.05675 27.395 0.25 20.1903 0.25V1.75C26.9972 1.75 33.3913 4.39871 38.2029 9.21199L39.2637 8.15152ZM39.2624 12.3386C40.418 11.1823 40.418 9.30836 39.2642 8.15202L38.2024 9.21149C38.7718 9.78217 38.7718 10.7075 38.2014 11.2782L39.2624 12.3386ZM35.0756 12.3378C36.232 13.4948 38.1053 13.4929 39.2616 12.3394L38.2022 11.2774C37.6306 11.8477 36.7062 11.8474 36.1366 11.2774L35.0756 12.3378ZM20.1903 6.17079C25.8152 6.17079 31.0988 8.3597 35.0757 12.3379L36.1365 11.2774C31.8783 7.01779 26.2131 4.67079 20.1903 4.67079V6.17079ZM5.3035 12.3379C9.28019 8.35974 14.5654 6.17079 20.1903 6.17079V4.67079C14.1677 4.67079 8.50077 7.01775 4.24265 11.2774L5.3035 12.3379ZM3.21053 13.205C3.96601 13.205 4.72719 12.9165 5.30446 12.3369L4.24169 11.2783C3.95894 11.5622 3.58603 11.705 3.21053 11.705V13.205ZM1.11729 12.3383C1.69562 12.9159 2.45412 13.205 3.21053 13.205V11.705C2.83595 11.705 2.46347 11.5628 2.17728 11.277L1.11729 12.3383ZM1.11683 8.15154C-0.0388935 9.30779 -0.0392371 11.1823 1.11707 12.3381L2.17749 11.2772C1.60755 10.7075 1.60721 9.78274 2.17773 9.21197L1.11683 8.15154ZM20.1903 0.25C12.9856 0.25 6.20987 3.05675 1.11686 8.15152L2.1777 9.21199C6.98932 4.39871 13.3834 1.75 20.1903 1.75V0.25ZM7.33587 14.3697C10.7701 10.9351 15.333 9.04481 20.1907 9.04481V7.54481C14.9351 7.54481 9.99065 9.59315 6.27514 13.3091L7.33587 14.3697ZM7.33572 16.4348C6.76577 15.8651 6.76546 14.9403 7.33593 14.3697L6.27508 13.3092C5.11931 14.4654 5.119 16.3399 6.2753 17.4957L7.33572 16.4348ZM9.40056 16.4352C8.83142 17.0051 7.90685 17.0057 7.33574 16.4348L6.27527 17.4956C7.43165 18.6516 9.30633 18.6522 10.4619 17.4952L9.40056 16.4352ZM20.1906 11.9655C16.1163 11.9655 12.2814 13.5536 9.40082 16.435L10.4616 17.4955C13.0608 14.8956 16.514 13.4655 20.1906 13.4655V11.9655ZM30.9789 16.435C28.0983 13.5536 24.2634 11.9655 20.1906 11.9655V13.4655C23.8656 13.4655 27.3189 14.8956 29.9181 17.4955L30.9789 16.435ZM32.0111 16.8629C31.6377 16.8629 31.2641 16.7203 30.979 16.4351L29.918 17.4954C30.496 18.0737 31.2564 18.3629 32.0111 18.3629V16.8629ZM33.0438 16.4351C32.7586 16.7205 32.3871 16.8629 32.0111 16.8629V18.3629C32.769 18.3629 33.5271 18.0735 34.1048 17.4954L33.0438 16.4351ZM33.0439 14.3697C33.6144 14.9403 33.6141 15.8651 33.0441 16.4348L34.1045 17.4957C35.2608 16.3399 35.2605 14.4654 34.1047 13.3092L33.0439 14.3697ZM20.1907 9.04481C25.0483 9.04481 29.6097 10.935 33.044 14.3697L34.1047 13.3091C30.3892 9.59319 25.4463 7.54481 20.1907 7.54481V9.04481ZM20.1905 14.8234C16.8803 14.8234 13.7624 16.1143 11.4227 18.4563L12.4839 19.5164C14.5419 17.4564 17.278 16.3234 20.1905 16.3234V14.8234ZM28.9584 18.4563C26.6186 16.1143 23.5006 14.8234 20.1905 14.8234V16.3234C23.103 16.3234 25.8391 17.4564 27.8972 19.5164L28.9584 18.4563ZM28.9578 22.6428C30.115 21.4868 30.1148 19.6122 28.958 18.4559L27.8975 19.5168C28.4685 20.0875 28.4682 21.0117 27.8977 21.5815L28.9578 22.6428ZM26.8652 23.5096C27.6234 23.5096 28.3806 23.2202 28.9582 22.6424L27.8974 21.5819C27.6119 21.8675 27.2411 22.0096 26.8652 22.0096V23.5096ZM24.772 22.6428C25.3505 23.2205 26.1105 23.5096 26.8652 23.5096V22.0096C26.4919 22.0096 26.118 21.8672 25.832 21.5815L24.772 22.6428ZM20.1905 20.7444C21.9234 20.7444 23.5484 21.4174 24.7713 22.6421L25.8327 21.5822C24.3279 20.0752 22.3209 19.2444 20.1905 19.2444V20.7444ZM15.6098 22.6421C16.8327 21.4174 18.4575 20.7444 20.1905 20.7444V19.2444C18.0601 19.2444 16.0532 20.0752 14.5484 21.5822L15.6098 22.6421ZM11.4228 22.6424C12.579 23.7989 14.4527 23.7986 15.6093 22.6426L14.5488 21.5817C13.9778 22.1525 13.0538 22.1522 12.4837 21.5819L11.4228 22.6424ZM11.4231 18.4559C10.2663 19.6122 10.266 21.4868 11.4232 22.6428L12.4833 21.5815C11.9129 21.0117 11.9126 20.0874 12.4835 19.5168L11.4231 18.4559ZM16.9897 24.0235C15.2226 25.7908 15.2226 28.6573 16.9897 30.4247L18.0504 29.3641C16.869 28.1825 16.869 26.2656 18.0504 25.0841L16.9897 24.0235ZM23.3916 24.0234C21.6238 22.2561 18.7577 22.2561 16.9898 24.0234L18.0503 25.0842C19.2324 23.9025 21.149 23.9025 22.3311 25.0842L23.3916 24.0234ZM23.3917 30.4247C25.1587 28.6573 25.1587 25.7908 23.3917 24.0235L22.331 25.0841C23.5123 26.2656 23.5123 28.1825 22.3309 29.3641L23.3917 30.4247ZM16.9899 30.4249C18.7577 32.1917 21.6237 32.1917 23.3915 30.4249L22.3311 29.3639C21.1491 30.5454 19.2324 30.5454 18.0502 29.3639L16.9899 30.4249Z" fill="white"/>
</svg>
