<svg width="25" height="26" viewBox="0 0 25 26" fill="none" xmlns="http://www.w3.org/2000/svg">
<path d="M2.20943 0.202616L17.7847 8.93024C18.0233 9.0604 18.0161 9.13994 17.8353 9.32071C16.6711 10.4632 15.5214 11.6129 14.3717 12.7626C14.2488 12.8855 14.1693 12.9578 14.0029 12.7626C9.87654 8.56388 5.74291 4.36517 1.60204 0.166462C1.56589 0.130308 1.53697 0.0869228 1.4502 0.000152673C1.71711 -0.00372552 1.97989 0.0663493 2.20943 0.202616Z" fill="#1D3557"/>
<path d="M0.611566 25.8578C0.416304 25.7093 0.259316 25.5164 0.153668 25.2951C0.0480204 25.0737 -0.00323246 24.8303 0.00417505 24.5851C0.00417505 22.3364 0.00417505 20.0876 0.00417505 17.846V13.0158V1.67783C-0.0117167 1.45251 0.0178615 1.2263 0.0911509 1.01264C0.16444 0.798987 0.279944 0.602249 0.430795 0.434128C0.553719 0.296741 0.64772 0.260587 0.806799 0.434128C3.35688 3.03723 5.91177 5.63069 8.47149 8.21452C10.1249 9.90171 11.7808 11.5889 13.4391 13.2761C13.6054 13.4424 13.6199 13.5292 13.4391 13.6955C9.38017 17.7255 5.32367 21.7675 1.26957 25.8216C1.23312 25.8735 1.18536 25.9165 1.12989 25.9473C1.07442 25.9781 1.01269 25.9959 0.949344 25.9994C0.885997 26.0029 0.822686 25.9919 0.764178 25.9674C0.70567 25.9429 0.65349 25.9054 0.611566 25.8578Z" fill="#1D3557"/>
<path d="M17.3575 17.6218C12.537 20.2683 7.70194 22.9196 2.85246 25.5757C2.77292 25.6191 2.70061 25.6914 2.65723 25.7131C6.42691 21.9097 10.1942 18.099 13.959 14.2812C14.1904 14.0425 14.2989 14.0787 14.5086 14.2812C15.463 15.279 16.432 16.2552 17.4009 17.2313C17.5455 17.4266 17.56 17.4989 17.3575 17.6218Z" fill="#1D3557"/>
<path d="M23.6343 14.1073C23.4054 14.2714 23.1636 14.4165 22.9112 14.5412C21.465 15.351 19.9827 16.1537 18.5221 16.9707C18.4875 16.9987 18.4475 17.0192 18.4047 17.0311C18.3619 17.043 18.317 17.046 18.273 17.0399C18.2289 17.0338 18.1866 17.0188 18.1486 16.9957C18.1106 16.9726 18.0778 16.942 18.0521 16.9057C17.0108 15.8307 15.9624 14.775 14.9067 13.7386C14.7548 13.5795 14.7476 13.4999 14.9067 13.3409C16.1359 12.1309 17.3579 10.9258 18.5727 9.72544C18.5962 9.69273 18.6262 9.66515 18.6607 9.6444C18.6952 9.62365 18.7336 9.61015 18.7736 9.60474C18.8135 9.59933 18.8541 9.60211 18.8929 9.61291C18.9317 9.62372 18.9679 9.64233 18.9993 9.66759C20.4455 10.4847 21.8916 11.2945 23.3378 12.1044C23.5614 12.1966 23.7553 12.3486 23.8982 12.5438C24.0411 12.7389 24.1274 12.9697 24.1477 13.2107C24.1343 13.389 24.0812 13.562 23.9924 13.7171C23.9036 13.8722 23.7812 14.0055 23.6343 14.1073Z" fill="#1D3557"/>
</svg>
