<svg width="18" height="18" viewBox="0 0 18 18" fill="none" xmlns="http://www.w3.org/2000/svg">
<path fill-rule="evenodd" clip-rule="evenodd" d="M15.7057 8.25H17.25C17.664 8.25 18 8.586 18 9C18 9.414 17.664 9.75 17.25 9.75H15.7057C15.3585 12.8734 12.8734 15.3585 9.75 15.7057V17.25C9.75 17.664 9.414 18 9 18C8.586 18 8.25 17.664 8.25 17.25V15.7057C5.12663 15.3585 2.6415 12.8734 2.29425 9.75H0.75C0.336 9.75 0 9.414 0 9C0 8.586 0.336 8.25 0.75 8.25H2.29425C2.6415 5.12663 5.12663 2.6415 8.25 2.29425V0.75C8.25 0.336 8.586 0 9 0C9.414 0 9.75 0.336 9.75 0.75V2.29425C12.8734 2.6415 15.3585 5.12663 15.7057 8.25ZM3.75 9C3.75 11.895 6.105 14.25 9 14.25C11.895 14.25 14.25 11.895 14.25 9C14.25 6.105 11.895 3.75 9 3.75C6.105 3.75 3.75 6.105 3.75 9ZM6.37502 8.99995C6.37502 7.55245 7.5529 6.37495 9.00002 6.37495C10.4471 6.37495 11.625 7.55245 11.625 8.99995C11.625 10.4475 10.4471 11.625 9.00002 11.625C7.5529 11.625 6.37502 10.4475 6.37502 8.99995ZM7.87502 8.99995C7.87502 9.6202 8.37977 10.125 9.00002 10.125C9.62027 10.125 10.125 9.6202 10.125 8.99995C10.125 8.3797 9.62027 7.87495 9.00002 7.87495C8.37977 7.87495 7.87502 8.3797 7.87502 8.99995Z" fill="#2D5286"/>
</svg>
