<svg width="29" height="28" viewBox="0 0 29 28" fill="none" xmlns="http://www.w3.org/2000/svg">
<path d="M25.4006 16.7786L21.5347 15.5415V14.57C22.9668 13.6799 23.9224 12.0924 23.9224 10.2857V5.5102C23.9224 3.02328 21.8992 1 19.4122 1H13.0449C12.6053 1 12.249 1.35636 12.249 1.79592V3.38776C12.249 4.68691 12.8749 5.84247 13.8408 6.56925V10.2857C13.8408 12.0924 14.7964 13.6799 16.2286 14.57V15.5415L12.3626 16.7786C11.7095 16.9876 11.1236 17.3633 10.6606 17.8614V16.83C11.5638 16.0998 12.1429 14.9839 12.1429 13.7347V11.0816C12.1429 8.88729 10.3576 7.10204 8.16327 7.10204C5.96892 7.10204 4.18367 8.88729 4.18367 11.0816V13.7347C4.18367 14.9839 4.76273 16.0998 5.66594 16.83V17.9408L3.69461 18.6133C2.08287 19.1632 1 20.6768 1 22.3797V26.2041C1 26.6436 1.35636 27 1.79592 27H27.3714C27.811 27 28.1673 26.6436 28.1673 26.2041V20.5688C28.1673 18.8313 27.0555 17.3082 25.4006 16.7786ZM13.8408 3.38776V2.59184H19.4122C21.0214 2.59184 22.3306 3.90102 22.3306 5.5102V5.77551H16.2286C14.912 5.77551 13.8408 4.70436 13.8408 3.38776ZM15.4327 10.2857V7.28728C15.6899 7.3397 15.956 7.36735 16.2286 7.36735H22.3306V10.2857C22.3306 12.1875 20.7834 13.7347 18.8816 13.7347C16.9799 13.7347 15.4327 12.1875 15.4327 10.2857ZM19.9429 15.2138V15.8716L18.8816 17.3876L17.8204 15.8716V15.2138C18.1627 15.2874 18.5176 15.3265 18.8816 15.3265C19.2456 15.3265 19.6006 15.2874 19.9429 15.2138ZM8.16327 8.69388C9.4015 8.69388 10.4227 9.64139 10.5398 10.8494L8.5192 9.8391C8.40719 9.78306 8.2852 9.7551 8.16327 9.7551C8.04133 9.7551 7.91934 9.78312 7.80733 9.8391L5.78671 10.8494C5.90387 9.64139 6.92503 8.69388 8.16327 8.69388ZM5.77551 12.6348L8.16327 11.4409L10.551 12.6348V13.7347C10.551 15.0513 9.47987 16.1224 8.16327 16.1224C6.84666 16.1224 5.77551 15.0513 5.77551 13.7347V12.6348ZM9.06876 17.6091V18.2461L8.16327 19.4604L7.25778 18.2461V17.6091C7.54887 17.6771 7.85174 17.7143 8.16327 17.7143C8.47479 17.7143 8.77766 17.6771 9.06876 17.6091ZM13.7347 25.4082H2.59184V22.3797C2.59184 21.358 3.24157 20.4498 4.20861 20.1199L6.17029 19.4507L7.5252 21.2676C7.84352 21.6945 8.48301 21.6945 8.80127 21.2676L10.1562 19.4507L12.1179 20.1199C13.085 20.4498 13.7347 21.3579 13.7347 22.3797V25.4082ZM26.5755 25.4082H24.4531V23.551C24.4531 23.1115 24.0967 22.7551 23.6571 22.7551C23.2176 22.7551 22.8612 23.1115 22.8612 23.551V25.4082H15.3265V22.3797C15.3265 20.6768 14.2437 19.1632 12.6319 18.6133L12.3536 18.5183C12.5086 18.4257 12.6741 18.3502 12.8478 18.2946L16.7087 17.0591L18.2296 19.2319C18.5464 19.6846 19.2168 19.6846 19.5337 19.2319L21.0546 17.0591L24.9155 18.2946C25.9084 18.6124 26.5755 19.5263 26.5755 20.5688V25.4082Z" fill="#2D5286" stroke="white" stroke-width="0.25"/>
</svg>
