<svg width="107" height="44" viewBox="0 0 107 44" fill="none" xmlns="http://www.w3.org/2000/svg">
<path fill-rule="evenodd" clip-rule="evenodd" d="M25.4971 37.582H88C98.378 37.582 106.791 29.169 106.791 18.791C106.791 8.414 98.378 0 88 0H18.791C8.413 0 0 8.414 0 18.791C0 27.9282 6.52159 35.5423 15.164 37.2323L18.8024 42.3796C19.5359 43.4176 21.3714 43.4176 22.1049 42.3796L25.4971 37.582Z" fill="#E95228"/>
<path fill-rule="evenodd" clip-rule="evenodd" d="M88.5925 12.7672H42.6155C41.9415 12.7672 41.3945 12.2202 41.3945 11.5462C41.3945 10.8722 41.9415 10.3252 42.6155 10.3252H88.5925C89.2665 10.3252 89.8135 10.8722 89.8135 11.5462C89.8135 12.2202 89.2665 12.7672 88.5925 12.7672Z" fill="white"/>
<path fill-rule="evenodd" clip-rule="evenodd" d="M88.5925 20.4645H42.6155C41.9415 20.4645 41.3945 19.9175 41.3945 19.2435C41.3945 18.5695 41.9415 18.0225 42.6155 18.0225H88.5925C89.2665 18.0225 89.8135 18.5695 89.8135 19.2435C89.8135 19.9175 89.2665 20.4645 88.5925 20.4645Z" fill="white"/>
<path fill-rule="evenodd" clip-rule="evenodd" d="M74.4195 27.8141H42.6165C41.9415 27.8141 41.3955 27.2671 41.3955 26.5931C41.3955 25.9191 41.9415 25.3721 42.6165 25.3721H74.4195C75.0935 25.3721 75.6405 25.9191 75.6405 26.5931C75.6405 27.2671 75.0935 27.8141 74.4195 27.8141Z" fill="white"/>
<path d="M20 32C27.1797 32 33 26.1797 33 19C33 11.8203 27.1797 6 20 6C12.8203 6 7 11.8203 7 19C7 26.1797 12.8203 32 20 32Z" fill="white"/>
<path d="M12.9526 21.6875C12.4893 23.2725 12.0255 24.8436 11.648 26.3768C11.5116 26.9373 12.0615 27.4872 12.6219 27.3507C14.1552 26.9732 15.7262 26.5095 17.3112 26.0462C15.8881 24.6485 14.3502 23.1106 12.9526 21.6875Z" fill="url(#paint0_linear)"/>
<path d="M20.8076 8.62012C15.521 8.62012 11.2354 12.9057 11.2354 18.1924C11.2354 23.479 15.521 27.7646 20.8076 27.7646C26.0942 27.7646 30.3799 23.479 30.3799 18.1924C30.3799 12.9057 26.0942 8.62012 20.8076 8.62012Z" fill="url(#paint1_linear)"/>
<path d="M20.8076 27.7635C21.6183 27.7635 22.4052 27.6623 23.157 27.4727C23.157 21.3447 18.1892 16.377 12.0613 16.377C11.8406 16.377 11.6215 16.3842 11.404 16.3969C11.2937 16.9782 11.2354 17.5779 11.2354 18.1913C11.2354 23.4779 15.521 27.7635 20.8076 27.7635Z" fill="url(#paint2_linear)"/>
<path d="M30.2665 16.713C29.6084 12.4717 26.166 9.15159 21.8662 8.67871C22.9185 12.7033 26.1738 15.8364 30.2665 16.713Z" fill="url(#paint3_linear)"/>
<path fill-rule="evenodd" clip-rule="evenodd" d="M16.999 19.335C17.63 19.335 18.1416 18.8234 18.1416 18.1924C18.1416 17.5614 17.63 17.0498 16.999 17.0498C16.368 17.0498 15.8564 17.5614 15.8564 18.1924C15.8564 18.8234 16.368 19.335 16.999 19.335ZM20.8076 19.335C21.4386 19.335 21.9502 18.8234 21.9502 18.1924C21.9502 17.5614 21.4386 17.0498 20.8076 17.0498C20.1766 17.0498 19.665 17.5614 19.665 18.1924C19.665 18.8234 20.1766 19.335 20.8076 19.335ZM25.7588 18.1924C25.7588 18.8234 25.2472 19.335 24.6162 19.335C23.9852 19.335 23.4736 18.8234 23.4736 18.1924C23.4736 17.5614 23.9852 17.0498 24.6162 17.0498C25.2472 17.0498 25.7588 17.5614 25.7588 18.1924Z" fill="url(#paint4_linear)"/>
<defs>
<linearGradient id="paint0_linear" x1="11" y1="28.5" x2="16.5" y2="22.5" gradientUnits="userSpaceOnUse">
<stop stop-color="#E95228"/>
<stop offset="1" stop-color="white"/>
</linearGradient>
<linearGradient id="paint1_linear" x1="6.41144" y1="32.5886" x2="31.8866" y2="7.11344" gradientUnits="userSpaceOnUse">
<stop stop-color="#FEC00F"/>
<stop offset="1" stop-color="white"/>
</linearGradient>
<linearGradient id="paint2_linear" x1="12.7937" y1="26.4215" x2="32.0192" y2="7.19606" gradientUnits="userSpaceOnUse">
<stop stop-color="#EE9338"/>
<stop offset="1" stop-color="white" stop-opacity="0"/>
</linearGradient>
<linearGradient id="paint3_linear" x1="24.5" y1="14" x2="27.3207" y2="11.4415" gradientUnits="userSpaceOnUse">
<stop stop-color="#EE9338"/>
<stop offset="1" stop-color="#FEC00F"/>
</linearGradient>
<linearGradient id="paint4_linear" x1="24.6162" y1="15.7978" x2="24.6162" y2="21.6181" gradientUnits="userSpaceOnUse">
<stop stop-color="white"/>
<stop offset="1" stop-color="#132339"/>
</linearGradient>
</defs>
</svg>
