<svg width="107" height="44" viewBox="0 0 107 44" fill="none" xmlns="http://www.w3.org/2000/svg">
<path fill-rule="evenodd" clip-rule="evenodd" d="M25.4972 37.582H88C98.378 37.582 106.791 29.169 106.791 18.791C106.791 8.414 98.378 0 88 0H18.791C8.413 0 0 8.414 0 18.791C0 27.9283 6.52162 35.5423 15.1641 37.2323L18.8024 42.3796C19.5359 43.4176 21.3715 43.4176 22.105 42.3796L25.4972 37.582Z" fill="#E95228"/>
<path d="M28.5781 7.8125H11.7031C11.3145 7.8125 11 8.12698 11 8.51562V28.2969C11 28.6855 11.3145 29 11.7031 29H28.5781C28.9668 29 29.2812 28.6855 29.2812 28.2969V8.51562C29.2812 8.12698 28.9668 7.8125 28.5781 7.8125Z" fill="url(#paint0_linear)"/>
<path fill-rule="evenodd" clip-rule="evenodd" d="M15.2188 22.5781C15.2188 22.1895 15.5332 21.875 15.9219 21.875H24.3594C24.748 21.875 25.0625 22.1895 25.0625 22.5781C25.0625 22.9668 24.748 23.2812 24.3594 23.2812H15.9219C15.5332 23.2812 15.2188 22.9668 15.2188 22.5781ZM15.2188 25.3906C15.2188 25.002 15.5332 24.6875 15.9219 24.6875H24.3594C24.748 24.6875 25.0625 25.002 25.0625 25.3906C25.0625 25.7793 24.748 26.0938 24.3594 26.0938H15.9219C15.5332 26.0938 15.2188 25.7793 15.2188 25.3906ZM23.6562 9.21875H16.625C15.8491 9.21875 15.2188 8.58772 15.2188 7.8125C15.2188 7.03728 15.8491 6.40625 16.625 6.40625H18.6493L18.8154 5.93797C19.0131 5.37697 19.546 5 20.1406 5C20.7353 5 21.2681 5.37697 21.4658 5.93797L21.632 6.40625H23.6562C24.4322 6.40625 25.0625 7.03728 25.0625 7.8125C25.0625 8.58772 24.4322 9.21875 23.6562 9.21875ZM22.5197 16.8398C22.5197 15.722 21.4428 14.8131 20.1197 14.8131C19.4576 14.8131 18.9197 14.3584 18.9197 13.7998C18.9197 13.2411 19.4576 12.7864 20.1197 12.7864C20.7818 12.7864 21.3197 13.2411 21.3197 13.7998C21.3197 14.0798 21.5881 14.3064 21.9197 14.3064C22.2514 14.3064 22.5197 14.0798 22.5197 13.7998C22.5197 12.858 21.7517 12.0716 20.7197 11.8451V11.2664C20.7197 10.9864 20.4514 10.7598 20.1197 10.7598C19.7881 10.7598 19.5197 10.9864 19.5197 11.2664V11.8451C18.4877 12.0716 17.7197 12.858 17.7197 13.7998C17.7197 14.9175 18.7967 15.8264 20.1197 15.8264C20.7818 15.8264 21.3197 16.2811 21.3197 16.8398C21.3197 17.3984 20.7818 17.8531 20.1197 17.8531C19.4576 17.8531 18.9197 17.3984 18.9197 16.8398C18.9197 16.5597 18.6514 16.3331 18.3197 16.3331C17.9881 16.3331 17.7197 16.5597 17.7197 16.8398C17.7197 17.7815 18.4877 18.5679 19.5197 18.7945V19.3731C19.5197 19.6532 19.7881 19.8798 20.1197 19.8798C20.4514 19.8798 20.7197 19.6532 20.7197 19.3731V18.7945C21.7517 18.5679 22.5197 17.7815 22.5197 16.8398Z" fill="url(#paint1_linear)"/>
<path fill-rule="evenodd" clip-rule="evenodd" d="M88.5925 12.7672H42.6155C41.9415 12.7672 41.3945 12.2202 41.3945 11.5462C41.3945 10.8722 41.9415 10.3252 42.6155 10.3252H88.5925C89.2665 10.3252 89.8135 10.8722 89.8135 11.5462C89.8135 12.2202 89.2665 12.7672 88.5925 12.7672Z" fill="white"/>
<path fill-rule="evenodd" clip-rule="evenodd" d="M88.5925 20.4654H42.6155C41.9415 20.4654 41.3945 19.9184 41.3945 19.2444C41.3945 18.5704 41.9415 18.0234 42.6155 18.0234H88.5925C89.2665 18.0234 89.8135 18.5704 89.8135 19.2444C89.8135 19.9184 89.2665 20.4654 88.5925 20.4654Z" fill="white"/>
<path fill-rule="evenodd" clip-rule="evenodd" d="M74.4195 27.8141H42.6165C41.9415 27.8141 41.3955 27.2671 41.3955 26.5931C41.3955 25.9191 41.9415 25.3721 42.6165 25.3721H74.4195C75.0935 25.3721 75.6405 25.9191 75.6405 26.5931C75.6405 27.2671 75.0935 27.8141 74.4195 27.8141Z" fill="white"/>
<defs>
<linearGradient id="paint0_linear" x1="20.1406" y1="29" x2="20.1406" y2="7.8125" gradientUnits="userSpaceOnUse">
<stop stop-color="#EBBEB1"/>
<stop offset="1" stop-color="white"/>
</linearGradient>
<linearGradient id="paint1_linear" x1="20.1406" y1="26.0938" x2="20.1406" y2="5" gradientUnits="userSpaceOnUse">
<stop stop-color="#E95228"/>
<stop offset="1" stop-color="#FFD96B"/>
</linearGradient>
</defs>
</svg>
