<svg width="107" height="44" viewBox="0 0 107 44" fill="none" xmlns="http://www.w3.org/2000/svg">
<path fill-rule="evenodd" clip-rule="evenodd" d="M25.4972 37.582H88C98.378 37.582 106.791 29.169 106.791 18.791C106.791 8.414 98.378 0 88 0H18.791C8.413 0 0 8.414 0 18.791C0 27.9282 6.52158 35.5422 15.164 37.2323L18.8024 42.3796C19.5359 43.4176 21.3714 43.4176 22.1049 42.3796L25.4972 37.582Z" fill="#E95228"/>
<path fill-rule="evenodd" clip-rule="evenodd" d="M88.5925 12.7672H42.6155C41.9415 12.7672 41.3945 12.2202 41.3945 11.5462C41.3945 10.8722 41.9415 10.3252 42.6155 10.3252H88.5925C89.2665 10.3252 89.8135 10.8722 89.8135 11.5462C89.8135 12.2202 89.2665 12.7672 88.5925 12.7672Z" fill="white"/>
<path fill-rule="evenodd" clip-rule="evenodd" d="M88.5925 20.4645H42.6155C41.9415 20.4645 41.3945 19.9175 41.3945 19.2435C41.3945 18.5695 41.9415 18.0225 42.6155 18.0225H88.5925C89.2665 18.0225 89.8135 18.5695 89.8135 19.2435C89.8135 19.9175 89.2665 20.4645 88.5925 20.4645Z" fill="white"/>
<path fill-rule="evenodd" clip-rule="evenodd" d="M74.4195 27.8141H42.6165C41.9415 27.8141 41.3955 27.2671 41.3955 26.5931C41.3955 25.9191 41.9415 25.3721 42.6165 25.3721H74.4195C75.0935 25.3721 75.6405 25.9191 75.6405 26.5931C75.6405 27.2671 75.0935 27.8141 74.4195 27.8141Z" fill="white"/>
<path d="M19.0006 5C11.2691 5 5 11.2679 5 19C5 26.7321 11.2685 33 19.0006 33C26.7334 33 33.0012 26.7321 33.0012 19C33.0012 11.2679 26.7334 5 19.0006 5ZM19.0006 9.18616C21.5589 9.18616 23.632 11.2599 23.632 13.817C23.632 16.3747 21.5589 18.4477 19.0006 18.4477C16.4435 18.4477 14.3704 16.3747 14.3704 13.817C14.3704 11.2599 16.4435 9.18616 19.0006 9.18616ZM18.9975 29.3396C16.446 29.3396 14.1091 28.4104 12.3066 26.8723C11.8675 26.4978 11.6141 25.9486 11.6141 25.3724C11.6141 22.779 13.713 20.7035 16.307 20.7035H21.6955C24.2901 20.7035 26.381 22.779 26.381 25.3724C26.381 25.9493 26.1288 26.4972 25.6891 26.8717C23.8872 28.4104 21.5497 29.3396 18.9975 29.3396Z" fill="url(#paint0_linear)"/>
<defs>
<linearGradient id="paint0_linear" x1="19.0006" y1="5" x2="19.0006" y2="33" gradientUnits="userSpaceOnUse">
<stop stop-color="#FFDAB6"/>
<stop offset="1" stop-color="#FFE9D2"/>
</linearGradient>
</defs>
</svg>
