<svg width="17" height="22" viewBox="0 0 17 22" fill="none" xmlns="http://www.w3.org/2000/svg">
<path d="M16 6C16 3.24304 13.757 1 11 1C8.24303 1 6 3.24304 6 6C6 6.28564 6.03051 6.58166 6.09338 6.89783L1.1831 11.8081C1.06592 11.9253 1 12.084 1 12.25V15.375C1 15.7205 1.27954 16 1.625 16H4.75C4.91601 16 5.07471 15.9341 5.19189 15.8169L7.24999 13.7588V20.375C7.24999 20.7205 7.52954 21 7.87499 21H15.375C15.7205 21 16 20.7205 16 20.375V12.25C16 11.0732 15.5275 10.008 14.7689 9.22083C15.5449 8.31827 16 7.18668 16 6L16 6ZM4.49121 14.75H2.25V12.5088L7.22192 7.53686C7.37878 7.38 7.44104 7.15173 7.38488 6.9375C7.29272 6.5841 7.25 6.28625 7.25 6C7.25 3.93212 8.93212 2.25 11 2.25C13.0679 2.25 14.75 3.93212 14.75 6C14.75 6.91011 14.3891 7.77833 13.7765 8.46413C13.3122 8.19909 12.7999 8.01789 12.25 7.93816V6.43281C12.6167 6.21461 12.875 5.83154 12.875 5.375C12.875 4.68591 12.3141 4.125 11.625 4.125C10.9359 4.125 10.375 4.68591 10.375 5.375C10.375 5.83154 10.6333 6.21461 11 6.43281V7.93816C8.98027 8.23098 7.41655 9.89663 7.27915 11.9621L4.49121 14.75L4.49121 14.75ZM14.75 19.75H8.5V12.25C8.5 10.741 9.57536 9.47862 11 9.18825V10.375C11 10.7205 11.2795 11 11.625 11C11.9705 11 12.25 10.7205 12.25 10.375V9.18825C13.6746 9.47862 14.75 10.741 14.75 12.25V19.75Z" fill="#EE9338" stroke="#FDF2E7" stroke-width="0.2"/>
</svg>
