<svg width="20" height="26" viewBox="0 0 20 26" fill="none" xmlns="http://www.w3.org/2000/svg">
<path d="M17.8173 10.6904C18.8731 9.37056 19.533 7.91878 19.533 6.46701C19.533 2.90355 16.6294 0 13.066 0C9.50254 0 6.59898 2.90355 6.59898 6.46701C6.59898 6.86294 6.59898 7.25888 6.73096 7.65482V7.7868L0.263959 14.2538C0.13198 14.3858 0 14.5178 0 14.6497V18.7411C0 19.1371 0.263959 19.401 0.659898 19.401H4.75127C4.88325 19.401 5.14721 19.269 5.27919 19.1371L8.18274 16.2335V25.3401C8.18274 25.736 8.4467 26 8.84264 26H18.7411C19.1371 26 19.401 25.736 19.401 25.3401V14.6497C19.533 13.198 19.0051 11.8782 17.8173 10.6904ZM8.31472 14.3858L4.61929 18.2132H1.3198V15.0457L7.91878 8.4467C8.18274 8.18274 8.18274 7.91878 8.18274 7.7868C8.05076 7.25888 7.91878 6.86294 7.91878 6.46701C7.91878 3.69543 10.2944 1.3198 13.066 1.3198C15.8376 1.3198 18.0812 3.56345 18.0812 6.46701C18.0812 7.65482 17.5533 8.84264 16.7614 9.7665L16.6294 9.89848H16.4975C15.8376 9.50254 15.1777 9.37056 14.5178 9.23858H14.3858V6.99492C14.9137 6.73096 15.1777 6.20305 15.1777 5.67513C15.1777 4.88325 14.5178 4.22335 13.5939 4.22335C12.6701 4.22335 12.4061 4.75127 12.4061 5.67513C12.4061 6.20305 12.6701 6.73096 13.198 6.99492V9.1066H13.066C10.4264 9.50254 8.4467 11.7462 8.31472 14.3858ZM18.0812 24.6802H9.63452V14.6497C9.63452 12.6701 11.0863 10.8223 13.066 10.4264L13.198 10.5584V12.2741C13.198 12.6701 13.4619 12.934 13.8579 12.934C14.2538 12.934 14.5178 12.6701 14.5178 12.2741V10.5584H14.6497C16.6294 10.9543 18.0812 12.6701 18.0812 14.7817V24.6802Z" fill="#2D5286"/>
</svg>
