<svg width="29" height="38" viewBox="0 0 29 38" fill="none" xmlns="http://www.w3.org/2000/svg">
<path d="M28 10C28 5.03747 23.9625 1 19 1C14.0375 1 9.99999 5.03747 9.99999 10C9.99999 10.5142 10.0549 11.047 10.1681 11.6161L1.32959 20.4546C1.11865 20.6655 1 20.9512 1 21.25V26.875C1 27.4968 1.50317 28 2.125 28H7.75C8.04883 28 8.33447 27.8813 8.54541 27.6704L12.25 23.9658V35.875C12.25 36.4968 12.7532 37 13.375 37H26.875C27.4968 37 28 36.4968 28 35.875V21.25C28 19.1318 27.1495 17.2145 25.784 15.7975C27.1808 14.1729 28 12.136 28 10L28 10ZM7.28417 25.75H3.24999V21.7158L12.1995 12.7663C12.4818 12.484 12.5939 12.0731 12.4928 11.6875C12.3269 11.0514 12.25 10.5153 12.25 9.99999C12.25 6.27782 15.2778 3.24999 19 3.24999C22.7222 3.24999 25.75 6.27782 25.75 9.99999C25.75 11.6382 25.1004 13.201 23.9977 14.4354C23.162 13.9584 22.2399 13.6322 21.25 13.4887V10.7791C21.91 10.3863 22.375 9.69677 22.375 8.875C22.375 7.63464 21.3654 6.625 20.125 6.625C18.8846 6.625 17.875 7.63464 17.875 8.875C17.875 9.69677 18.34 10.3863 19 10.7791V13.4887C15.3645 14.0158 12.5498 17.0139 12.3025 20.7317L7.28418 25.75L7.28417 25.75ZM25.75 34.75H14.5V21.25C14.5 18.5338 16.4356 16.2615 19 15.7388V17.875C19 18.4968 19.5032 19 20.125 19C20.7468 19 21.25 18.4968 21.25 17.875V15.7388C23.8143 16.2615 25.75 18.5338 25.75 21.25V34.75Z" fill="#EE9338" stroke="white" stroke-width="0.6"/>
</svg>
