<svg width="40" height="38" viewBox="0 0 40 38" fill="none" xmlns="http://www.w3.org/2000/svg">
<path d="M32.9526 36.9999H7.45083C5.5484 36.9999 4.00059 35.4522 4.00059 33.5497V15.3969C4.00059 14.7341 4.53785 14.1968 5.20067 14.1968C5.86349 14.1968 6.40076 14.7341 6.40076 15.3969V33.5497C6.40076 34.1287 6.87179 34.5997 7.45083 34.5997H32.9526C33.5317 34.5997 34.0027 34.1287 34.0027 33.5497V15.3969C34.0027 14.7341 34.54 14.1968 35.2028 14.1968C35.8656 14.1968 36.4029 14.7341 36.4029 15.3969V33.5497C36.4029 35.4521 34.8552 36.9999 32.9526 36.9999Z" fill="#2D5286" stroke="white" stroke-width="0.2"/>
<path d="M38.2026 19.5969C37.8955 19.5969 37.5884 19.4797 37.3541 19.2453L22.4289 4.32026C21.2006 3.09197 19.2021 3.09197 17.9738 4.32026L3.04868 19.2454C2.58004 19.7141 1.82016 19.7141 1.35153 19.2454C0.882823 18.7768 0.882823 18.0169 1.35153 17.5483L16.2767 2.62304C18.4407 0.458987 21.962 0.458987 24.126 2.62304L39.0512 17.5482C39.5199 18.0169 39.5199 18.7767 39.0512 19.2453C38.8169 19.4797 38.5098 19.5969 38.2026 19.5969Z" fill="#2D5286" stroke="white" stroke-width="0.2"/>
<path d="M25.0022 37H15.4015C14.7387 37 14.2014 36.4627 14.2014 35.8V25.1492C14.2014 23.0813 15.8838 21.3989 17.9517 21.3989H22.452C24.5199 21.3989 26.2022 23.0813 26.2022 25.1492V35.8C26.2022 36.4627 25.665 37 25.0022 37ZM16.6016 34.5999H23.8021V25.1492C23.8021 24.4048 23.1964 23.7991 22.452 23.7991H17.9517C17.2072 23.7991 16.6016 24.4048 16.6016 25.1492V34.5999Z" fill="#2D5286" stroke="white" stroke-width="0.2"/>
</svg>
