<svg width="22" height="20" viewBox="0 0 22 20" fill="none" xmlns="http://www.w3.org/2000/svg">
<path d="M17.7513 20H3.58356C2.52665 20 1.66675 19.1401 1.66675 18.0831V7.99825C1.66675 7.63007 1.96524 7.33154 2.33347 7.33154C2.7017 7.33154 3.00018 7.63007 3.00018 7.99825V18.0831C3.00018 18.4048 3.26187 18.6666 3.58356 18.6666H17.7513C18.0729 18.6666 18.3346 18.4048 18.3346 18.0831V7.99825C18.3346 7.63007 18.6331 7.33154 19.0014 7.33154C19.3696 7.33154 19.6681 7.63007 19.6681 7.99825V18.0831C19.6681 19.14 18.8082 20 17.7513 20Z" fill="#2D5286"/>
<path d="M20.6681 10.3316C20.4975 10.3316 20.3269 10.2665 20.1967 10.1363L11.9049 1.84459C11.2226 1.16221 10.1123 1.16221 9.42992 1.84459L1.13816 10.1364C0.877803 10.3968 0.455647 10.3968 0.195296 10.1364C-0.0650986 9.87601 -0.0650986 9.45385 0.195296 9.1935L8.48706 0.90169C9.68932 -0.300563 11.6456 -0.300563 12.8478 0.90169L21.1396 9.19345C21.3999 9.45385 21.3999 9.87597 21.1396 10.1363C21.0095 10.2665 20.8388 10.3316 20.6681 10.3316Z" fill="#2D5286"/>
<path d="M13.3342 19.9998H8.00045C7.63222 19.9998 7.33374 19.7012 7.33374 19.3331V13.416C7.33374 12.2671 8.26839 11.3325 9.41722 11.3325H11.9174C13.0662 11.3325 14.0009 12.2671 14.0009 13.416V19.3331C14.0009 19.7012 13.7024 19.9998 13.3342 19.9998ZM8.66716 18.6663H12.6674V13.416C12.6674 13.0024 12.331 12.6659 11.9174 12.6659H9.41722C9.00365 12.6659 8.66716 13.0024 8.66716 13.416V18.6663Z" fill="#2D5286"/>
</svg>
