<svg width="20" height="18" viewBox="0 0 20 18" fill="none" xmlns="http://www.w3.org/2000/svg">
<path d="M15.976 18.0002H3.22512C2.27391 18.0002 1.5 17.2263 1.5 16.2751V7.19868C1.5 6.8673 1.76863 6.59863 2.10004 6.59863C2.43145 6.59863 2.70009 6.8673 2.70009 7.19868V16.2751C2.70009 16.5646 2.9356 16.8001 3.22512 16.8001H15.976C16.2656 16.8001 16.5011 16.5646 16.5011 16.2751V7.19868C16.5011 6.8673 16.7697 6.59863 17.1011 6.59863C17.4325 6.59863 17.7012 6.8673 17.7012 7.19868V16.2751C17.7012 17.2263 16.9273 18.0002 15.976 18.0002Z" fill="#EE9338"/>
<path d="M18.6013 9.29845C18.4477 9.29845 18.2942 9.23987 18.177 9.12267L10.7144 1.66013C10.1003 1.04599 9.10106 1.04599 8.48692 1.66013L1.02434 9.12271C0.790022 9.35707 0.410082 9.35707 0.175766 9.12271C-0.0585886 8.8884 -0.0585886 8.50846 0.175766 8.27414L7.63835 0.81152C8.72038 -0.270507 10.481 -0.270507 11.563 0.81152L19.0256 8.2741C19.2599 8.50846 19.2599 8.88836 19.0256 9.12267C18.9085 9.23987 18.7549 9.29845 18.6013 9.29845Z" fill="#EE9338"/>
<path d="M12.001 17.9998H7.20063C6.86922 17.9998 6.60059 17.7311 6.60059 17.3997V12.0744C6.60059 11.0404 7.44177 10.1992 8.47572 10.1992H10.7259C11.7598 10.1992 12.601 11.0404 12.601 12.0744V17.3997C12.601 17.7311 12.3324 17.9998 12.001 17.9998ZM7.80067 16.7997H11.4009V12.0744C11.4009 11.7021 11.0981 11.3993 10.7259 11.3993H8.47572C8.10351 11.3993 7.80067 11.7021 7.80067 12.0744V16.7997Z" fill="#EE9338"/>
</svg>
