<svg width="25" height="20" viewBox="0 0 25 20" fill="none" xmlns="http://www.w3.org/2000/svg">
<path fill-rule="evenodd" clip-rule="evenodd" d="M19.7711 1H4.88018C2.66602 1 0.871094 2.8163 0.871094 5.05682V15.4886C0.871094 17.7292 2.66602 19.5455 4.88018 19.5455H19.7711C21.9853 19.5455 23.7802 17.7292 23.7802 15.4886V5.05682C23.7802 2.8163 21.9853 1 19.7711 1ZM2.01655 5.05682C2.01655 3.45645 3.29864 2.15909 4.88018 2.15909H19.7711C21.3526 2.15909 22.6347 3.45645 22.6347 5.05682V14.6831L17.3141 9.2817C17.206 9.17322 17.0597 9.11275 16.9075 9.11364C16.7552 9.11275 16.6089 9.17322 16.5008 9.2817L10.6075 15.251L7.005 11.5999C6.89746 11.4902 6.75108 11.4285 6.59837 11.4285C6.44566 11.4285 6.29927 11.4902 6.19173 11.5999L2.04518 15.7958C2.02997 15.694 2.02041 15.5915 2.01655 15.4886V5.05682ZM19.7711 18.3864H4.88018C3.89374 18.3831 2.97839 17.8664 2.45755 17.0186L6.59837 12.8285L10.2008 16.4797C10.3084 16.5894 10.4547 16.6511 10.6075 16.6511C10.7602 16.6511 10.9066 16.5894 11.0141 16.4797L16.9075 10.5161L22.5316 16.2189C22.2041 17.4915 21.0707 18.3815 19.7711 18.3864Z" fill="#2D5286"/>
<path d="M0.871094 5.05682H0.621094H0.871094ZM0.871094 15.4886H0.621094H0.871094ZM23.7802 5.05682H24.0302H23.7802ZM2.01655 5.05682H1.76655H2.01655ZM19.7711 2.15909V1.90909V2.15909ZM22.6347 14.6831L22.4566 14.8585L22.8847 15.2931V14.6831H22.6347ZM17.3141 9.2817L17.4922 9.10626L17.4912 9.10525L17.3141 9.2817ZM16.9075 9.11364L16.906 9.36365L16.9089 9.36363L16.9075 9.11364ZM16.5008 9.2817L16.3237 9.10525L16.3229 9.10606L16.5008 9.2817ZM10.6075 15.251L10.4295 15.4266L10.6074 15.6069L10.7854 15.4267L10.6075 15.251ZM7.005 11.5999L6.82646 11.7749L6.82704 11.7755L7.005 11.5999ZM6.19173 11.5999L6.36955 11.7756L6.37027 11.7749L6.19173 11.5999ZM2.04518 15.7958L1.79793 15.8328L1.8718 16.3269L2.223 15.9715L2.04518 15.7958ZM2.01655 15.4886H1.76637L1.76672 15.498L2.01655 15.4886ZM4.88018 18.3864L4.87936 18.6364H4.88018V18.3864ZM2.45755 17.0186L2.27973 16.8429L2.14187 16.9824L2.24454 17.1495L2.45755 17.0186ZM6.59837 12.8285L6.77633 12.6529L6.59851 12.4727L6.42055 12.6528L6.59837 12.8285ZM10.2008 16.4797L10.3794 16.3047L10.3788 16.3041L10.2008 16.4797ZM11.0141 16.4797L10.8363 16.3039L10.8356 16.3047L11.0141 16.4797ZM16.9075 10.5161L17.0855 10.3406L16.9076 10.1603L16.7296 10.3404L16.9075 10.5161ZM22.5316 16.2189L22.7738 16.2812L22.809 16.1441L22.7096 16.0433L22.5316 16.2189ZM19.7711 0.75H4.88018V1.25H19.7711V0.75ZM4.88018 0.75C2.52517 0.75 0.621094 2.68103 0.621094 5.05682H1.12109C1.12109 2.95157 2.80688 1.25 4.88018 1.25V0.75ZM0.621094 5.05682V15.4886H1.12109V5.05682H0.621094ZM0.621094 15.4886C0.621094 17.8644 2.52517 19.7955 4.88018 19.7955V19.2955C2.80688 19.2955 1.12109 17.5939 1.12109 15.4886H0.621094ZM4.88018 19.7955H19.7711V19.2955H4.88018V19.7955ZM19.7711 19.7955C22.1261 19.7955 24.0302 17.8644 24.0302 15.4886H23.5302C23.5302 17.5939 21.8444 19.2955 19.7711 19.2955V19.7955ZM24.0302 15.4886V5.05682H23.5302V15.4886H24.0302ZM24.0302 5.05682C24.0302 2.68103 22.1261 0.75 19.7711 0.75V1.25C21.8444 1.25 23.5302 2.95157 23.5302 5.05682H24.0302ZM2.26655 5.05682C2.26655 3.59172 3.43949 2.40909 4.88018 2.40909V1.90909C3.15779 1.90909 1.76655 3.32117 1.76655 5.05682H2.26655ZM4.88018 2.40909H19.7711V1.90909H4.88018V2.40909ZM19.7711 2.40909C21.2118 2.40909 22.3847 3.59172 22.3847 5.05682H22.8847C22.8847 3.32117 21.4935 1.90909 19.7711 1.90909V2.40909ZM22.3847 5.05682V14.6831H22.8847V5.05682H22.3847ZM22.8128 14.5076L17.4922 9.10626L17.136 9.45714L22.4566 14.8585L22.8128 14.5076ZM17.4912 9.10525C17.3362 8.94964 17.1256 8.86236 16.906 8.86364L16.9089 9.36363C16.9937 9.36314 17.0759 9.3968 17.137 9.45816L17.4912 9.10525ZM16.9089 8.86364C16.6893 8.86236 16.4788 8.94964 16.3237 9.10525L16.6779 9.45816C16.7391 9.3968 16.8212 9.36314 16.906 9.36363L16.9089 8.86364ZM16.3229 9.10606L10.4296 15.0754L10.7854 15.4267L16.6787 9.45735L16.3229 9.10606ZM10.7854 15.0754L7.18296 11.4243L6.82704 11.7755L10.4295 15.4266L10.7854 15.0754ZM7.18354 11.4249C7.0293 11.2675 6.8187 11.1785 6.59837 11.1785V11.6785C6.68345 11.6785 6.76563 11.7128 6.82646 11.7749L7.18354 11.4249ZM6.59837 11.1785C6.37803 11.1785 6.16743 11.2675 6.01319 11.4249L6.37027 11.7749C6.43111 11.7128 6.51328 11.6785 6.59837 11.6785V11.1785ZM6.01391 11.4242L1.86737 15.6201L2.223 15.9715L6.36955 11.7756L6.01391 11.4242ZM2.29244 15.7588C2.27859 15.6662 2.26989 15.5729 2.26637 15.4793L1.76672 15.498C1.77093 15.6101 1.78135 15.7219 1.79793 15.8328L2.29244 15.7588ZM2.26655 15.4886V5.05682H1.76655V15.4886H2.26655ZM19.7711 18.1364H4.88018V18.6364H19.7711V18.1364ZM4.88101 18.1364C3.98205 18.1334 3.14655 17.6625 2.67056 16.8878L2.24454 17.1495C2.81023 18.0702 3.80542 18.6328 4.87936 18.6364L4.88101 18.1364ZM2.63537 17.1944L6.77619 13.0042L6.42055 12.6528L2.27973 16.8429L2.63537 17.1944ZM6.42041 13.0041L10.0229 16.6552L10.3788 16.3041L6.77633 12.6529L6.42041 13.0041ZM10.0223 16.6547C10.1765 16.812 10.3871 16.9011 10.6075 16.9011V16.4011C10.5224 16.4011 10.4402 16.3667 10.3794 16.3047L10.0223 16.6547ZM10.6075 16.9011C10.8278 16.9011 11.0384 16.812 11.1926 16.6547L10.8356 16.3047C10.7747 16.3667 10.6925 16.4011 10.6075 16.4011V16.9011ZM11.1919 16.6554L17.0853 10.6919L16.7296 10.3404L10.8363 16.3039L11.1919 16.6554ZM16.7295 10.6917L22.3536 16.3944L22.7096 16.0433L17.0855 10.3406L16.7295 10.6917ZM22.2895 16.1566C21.9899 17.3209 20.9543 18.1319 19.7701 18.1364L19.772 18.6364C21.1872 18.631 22.4184 17.6622 22.7738 16.2812L22.2895 16.1566Z" fill="#2D5286"/>
<path fill-rule="evenodd" clip-rule="evenodd" d="M9.59881 8.63659C10.8038 8.63659 11.7806 7.65975 11.7806 6.45477C11.7806 5.24978 10.8038 4.27295 9.59881 4.27295C8.39383 4.27295 7.41699 5.24978 7.41699 6.45477C7.41699 7.65975 8.39383 8.63659 9.59881 8.63659ZM9.59881 5.36386C10.2013 5.36386 10.6897 5.85228 10.6897 6.45477C10.6897 7.05726 10.2013 7.54568 9.59881 7.54568C8.99632 7.54568 8.5079 7.05726 8.5079 6.45477C8.5079 5.85228 8.99632 5.36386 9.59881 5.36386Z" fill="#2D5286"/>
<path d="M9.59881 8.88659C10.9419 8.88659 12.0306 7.79782 12.0306 6.45477H11.5306C11.5306 7.52168 10.6657 8.38659 9.59881 8.38659V8.88659ZM12.0306 6.45477C12.0306 5.11171 10.9419 4.02295 9.59881 4.02295V4.52295C10.6657 4.52295 11.5306 5.38785 11.5306 6.45477H12.0306ZM9.59881 4.02295C8.25575 4.02295 7.16699 5.11171 7.16699 6.45477H7.66699C7.66699 5.38785 8.5319 4.52295 9.59881 4.52295V4.02295ZM7.16699 6.45477C7.16699 7.79782 8.25575 8.88659 9.59881 8.88659V8.38659C8.5319 8.38659 7.66699 7.52168 7.66699 6.45477H7.16699ZM9.59881 5.61386C10.0632 5.61386 10.4397 5.99035 10.4397 6.45477H10.9397C10.9397 5.7142 10.3394 5.11386 9.59881 5.11386V5.61386ZM10.4397 6.45477C10.4397 6.91919 10.0632 7.29568 9.59881 7.29568V7.79568C10.3394 7.79568 10.9397 7.19533 10.9397 6.45477H10.4397ZM9.59881 7.29568C9.13439 7.29568 8.7579 6.91919 8.7579 6.45477H8.2579C8.2579 7.19533 8.85825 7.79568 9.59881 7.79568V7.29568ZM8.7579 6.45477C8.7579 5.99035 9.13439 5.61386 9.59881 5.61386V5.11386C8.85825 5.11386 8.2579 5.7142 8.2579 6.45477H8.7579Z" fill="#2D5286"/>
</svg>
