<svg width="14" height="14" viewBox="0 0 14 14" fill="none" xmlns="http://www.w3.org/2000/svg">
<path fill-rule="evenodd" clip-rule="evenodd" d="M13.9618 4.11605C13.929 3.37217 13.8087 2.86077 13.6363 2.41762C13.4586 1.94724 13.1851 1.52611 12.8268 1.17601C12.4767 0.820475 12.0528 0.544206 11.5878 0.369214C11.1421 0.196893 10.6334 0.076599 9.8895 0.0438014C9.14007 0.00822611 8.90215 0 7.00139 0C5.10062 0 4.8627 0.00822611 4.11605 0.0410238C3.37217 0.0738214 2.86077 0.194222 2.41773 0.366436C1.94724 0.544206 1.52611 0.817697 1.17601 1.17601C0.820475 1.52611 0.544313 1.95002 0.369214 2.41495C0.196893 2.86077 0.076599 3.3694 0.0438014 4.11327C0.00822611 4.8627 0 5.10062 0 7.00139C0 8.90215 0.00822611 9.14007 0.0410238 9.88673C0.0738214 10.6306 0.194222 11.142 0.366543 11.5852C0.544313 12.0555 0.820475 12.4767 1.17601 12.8268C1.52611 13.1823 1.95002 13.4586 2.41495 13.6336C2.86077 13.8059 3.3694 13.9262 4.11338 13.959C4.85993 13.9919 5.09795 14 6.99872 14C8.89948 14 9.1374 13.9919 9.88405 13.959C10.6279 13.9262 11.1393 13.8059 11.5824 13.6336C12.5232 13.2698 13.2671 12.5259 13.6309 11.5852C13.8031 11.1393 13.9235 10.6306 13.9563 9.88673C13.9891 9.14007 13.9973 8.90215 13.9973 7.00139C13.9973 5.10062 13.9945 4.8627 13.9618 4.11605ZM12.701 9.83203C12.6709 10.5158 12.556 10.885 12.4603 11.1311C12.2251 11.741 11.741 12.2251 11.1311 12.4603C10.885 12.556 10.5131 12.6709 9.83203 12.7009C9.0936 12.7338 8.87214 12.7419 7.00417 12.7419C5.1362 12.7419 4.91195 12.7338 4.1762 12.7009C3.49247 12.6709 3.12325 12.556 2.87711 12.4603C2.5736 12.3482 2.29733 12.1704 2.07309 11.9379C1.84062 11.7109 1.66285 11.4374 1.55068 11.1339C1.45495 10.8877 1.34011 10.5158 1.31009 9.8348C1.27718 9.09638 1.26907 8.87481 1.26907 7.00684C1.26907 5.13887 1.27718 4.91462 1.31009 4.17897C1.34011 3.49525 1.45495 3.12603 1.55068 2.87989C1.66285 2.57627 1.84062 2.30011 2.07587 2.07576C2.30278 1.84329 2.57627 1.66552 2.87989 1.55345C3.12603 1.45773 3.49802 1.34289 4.17897 1.31276C4.9174 1.27996 5.13897 1.27174 7.00684 1.27174C8.87758 1.27174 9.09905 1.27996 9.8348 1.31276C10.5185 1.34289 10.8877 1.45773 11.1339 1.55345C11.4374 1.66552 11.7137 1.84329 11.9379 2.07576C12.1704 2.30278 12.3482 2.57627 12.4603 2.87989C12.556 3.12603 12.6709 3.49792 12.701 4.17897C12.7338 4.9174 12.742 5.13887 12.742 7.00684C12.742 8.87481 12.7338 9.0936 12.701 9.83203ZM7.00176 3.40509C5.01628 3.40509 3.40535 5.01591 3.40535 7.0015C3.40535 8.98709 5.01628 10.5979 7.00176 10.5979C8.98736 10.5979 10.5982 8.98709 10.5982 7.0015C10.5982 5.01591 8.98736 3.40509 7.00176 3.40509ZM7.00176 9.33441C5.71368 9.33441 4.66886 8.28969 4.66886 7.0015C4.66886 5.71331 5.71368 4.6686 7.00176 4.6686C8.28995 4.6686 9.33467 5.71331 9.33467 7.0015C9.33467 8.28969 8.28995 9.33441 7.00176 9.33441ZM10.7401 4.10227C11.2039 4.10227 11.5798 3.72633 11.5798 3.26268C11.5798 2.79891 11.2039 2.42308 10.7401 2.42308C10.2765 2.42308 9.90054 2.79891 9.90054 3.26268C9.90054 3.72633 10.2765 4.10227 10.7401 4.10227Z" fill="#132339"/>
</svg>
