<svg width="29" height="22" viewBox="0 0 29 22" fill="none" xmlns="http://www.w3.org/2000/svg">
<mask id="path-1-inside-1" fill="white">
<path fill-rule="evenodd" clip-rule="evenodd" d="M0.3 7.2C-0.0999995 6.8 -0.0999995 6.2 0.3 5.8C4 2.1 9 0 14.3 0C19.5 0 24.5 2.1 28.3 5.8C28.7 6.2 28.7 6.8 28.3 7.2C27.9 7.6 27.3 7.6 26.9 7.2C23.5 3.9 19.1 2 14.3 2C9.5 2 5 3.8 1.7 7.2C1.5 7.4 1.3 7.5 1 7.5C0.7 7.5 0.5 7.4 0.3 7.2ZM8.4001 13.7999C10.0001 12.2999 12.1001 11.3999 14.3001 11.3999C16.5001 11.3999 18.6001 12.2999 20.2001 13.7999C20.6001 14.1999 20.6001 14.7999 20.2001 15.1999C20.0001 15.3999 19.8001 15.4999 19.5001 15.4999C19.2001 15.4999 19.0001 15.3999 18.8001 15.1999C17.6001 13.9999 16.0001 13.2999 14.3001 13.2999C12.6001 13.2999 11.0001 13.9999 9.8001 15.1999C9.4001 15.5999 8.8001 15.5999 8.4001 15.1999C8.0001 14.7999 8.0001 14.1999 8.4001 13.7999ZM12.6999 18.1999C11.7999 19.0999 11.7999 20.4999 12.6999 21.2999C13.5999 22.1999 14.9999 22.1999 15.7999 21.2999C16.6999 20.3999 16.6999 18.9999 15.7999 18.1999C14.8999 17.2999 13.5999 17.2999 12.6999 18.1999ZM4.4001 9.79995C7.0001 7.19995 10.5001 5.69995 14.3001 5.69995C18.0001 5.69995 21.5001 7.19995 24.2001 9.79995C24.6001 10.2 24.6001 10.8 24.2001 11.2C24.0001 11.4 23.8001 11.5 23.5001 11.5C23.2001 11.5 23.0001 11.4 22.8001 11.2C20.6001 8.99995 17.5001 7.69995 14.3001 7.69995C11.0001 7.69995 8.0001 8.89995 5.8001 11.2C5.4001 11.6 4.8001 11.6 4.4001 11.2C4.0001 10.8 4.0001 10.2 4.4001 9.79995Z"/>
</mask>
<path fill-rule="evenodd" clip-rule="evenodd" d="M0.3 7.2C-0.0999995 6.8 -0.0999995 6.2 0.3 5.8C4 2.1 9 0 14.3 0C19.5 0 24.5 2.1 28.3 5.8C28.7 6.2 28.7 6.8 28.3 7.2C27.9 7.6 27.3 7.6 26.9 7.2C23.5 3.9 19.1 2 14.3 2C9.5 2 5 3.8 1.7 7.2C1.5 7.4 1.3 7.5 1 7.5C0.7 7.5 0.5 7.4 0.3 7.2ZM8.4001 13.7999C10.0001 12.2999 12.1001 11.3999 14.3001 11.3999C16.5001 11.3999 18.6001 12.2999 20.2001 13.7999C20.6001 14.1999 20.6001 14.7999 20.2001 15.1999C20.0001 15.3999 19.8001 15.4999 19.5001 15.4999C19.2001 15.4999 19.0001 15.3999 18.8001 15.1999C17.6001 13.9999 16.0001 13.2999 14.3001 13.2999C12.6001 13.2999 11.0001 13.9999 9.8001 15.1999C9.4001 15.5999 8.8001 15.5999 8.4001 15.1999C8.0001 14.7999 8.0001 14.1999 8.4001 13.7999ZM12.6999 18.1999C11.7999 19.0999 11.7999 20.4999 12.6999 21.2999C13.5999 22.1999 14.9999 22.1999 15.7999 21.2999C16.6999 20.3999 16.6999 18.9999 15.7999 18.1999C14.8999 17.2999 13.5999 17.2999 12.6999 18.1999ZM4.4001 9.79995C7.0001 7.19995 10.5001 5.69995 14.3001 5.69995C18.0001 5.69995 21.5001 7.19995 24.2001 9.79995C24.6001 10.2 24.6001 10.8 24.2001 11.2C24.0001 11.4 23.8001 11.5 23.5001 11.5C23.2001 11.5 23.0001 11.4 22.8001 11.2C20.6001 8.99995 17.5001 7.69995 14.3001 7.69995C11.0001 7.69995 8.0001 8.89995 5.8001 11.2C5.4001 11.6 4.8001 11.6 4.4001 11.2C4.0001 10.8 4.0001 10.2 4.4001 9.79995Z" fill="#1D3557"/>
<path d="M0.3 5.8L-0.407106 5.09289H-0.407106L0.3 5.8ZM0.3 7.2L-0.407106 7.90711L-0.407106 7.90711L0.3 7.2ZM28.3 5.8L29.0072 5.09283L28.9976 5.08353L28.3 5.8ZM26.9 7.2L27.6071 6.49289L27.6018 6.48762L27.5965 6.48242L26.9 7.2ZM1.7 7.2L2.40711 7.90711L2.41238 7.90183L2.41758 7.89648L1.7 7.2ZM8.4001 13.7999L7.71616 13.0704L7.70439 13.0814L7.69299 13.0928L8.4001 13.7999ZM20.2001 13.7999L20.9072 13.0928L20.8958 13.0814L20.884 13.0704L20.2001 13.7999ZM20.2001 15.1999L20.9072 15.907L20.9072 15.907L20.2001 15.1999ZM18.8001 15.1999L19.5072 14.4928L19.5072 14.4928L18.8001 15.1999ZM9.8001 15.1999L10.5072 15.907L10.5072 15.907L9.8001 15.1999ZM8.4001 15.1999L9.1072 14.4928L9.1072 14.4928L8.4001 15.1999ZM12.6999 21.2999L13.407 20.5928L13.3862 20.572L13.3643 20.5525L12.6999 21.2999ZM12.6999 18.1999L11.9928 17.4928L11.9928 17.4928L12.6999 18.1999ZM15.7999 21.2999L15.0928 20.5928L15.072 20.6136L15.0525 20.6355L15.7999 21.2999ZM15.7999 18.1999L15.0928 18.907L15.1136 18.9278L15.1355 18.9473L15.7999 18.1999ZM4.4001 9.79995L5.1072 10.5071V10.5071L4.4001 9.79995ZM24.2001 9.79995L24.9072 9.09284L24.9005 9.08617L24.8937 9.07963L24.2001 9.79995ZM24.2001 11.2L23.493 10.4928V10.4928L24.2001 11.2ZM22.8001 11.2L22.093 11.9071L22.093 11.9071L22.8001 11.2ZM5.8001 11.2L6.50721 11.9071L6.51506 11.8992L6.52274 11.8912L5.8001 11.2ZM4.4001 11.2L5.1072 10.4928V10.4928L4.4001 11.2ZM-0.407106 5.09289C-1.19763 5.88342 -1.19763 7.11658 -0.407106 7.90711L1.00711 6.49289C1.00139 6.48717 0.998428 6.48316 0.997193 6.48133C0.995952 6.4795 0.996025 6.47924 0.996636 6.48069C0.998057 6.48407 1 6.49095 1 6.5C1 6.50905 0.998057 6.51593 0.996636 6.51931C0.996025 6.52076 0.995952 6.5205 0.997193 6.51867C0.998428 6.51684 1.00139 6.51283 1.00711 6.50711L-0.407106 5.09289ZM14.3 -1C8.73285 -1 3.47906 1.20673 -0.407106 5.09289L1.00711 6.50711C4.52095 2.99327 9.26715 1 14.3 1V-1ZM28.9976 5.08353C25.0192 1.20985 19.772 -1 14.3 -1V1C19.228 1 23.9808 2.99015 27.6024 6.51647L28.9976 5.08353ZM29.0071 7.90711C29.7976 7.11658 29.7976 5.88342 29.0071 5.09289L27.5929 6.50711C27.5986 6.51283 27.6016 6.51684 27.6028 6.51867C27.604 6.5205 27.604 6.52076 27.6034 6.51931C27.6019 6.51593 27.6 6.50905 27.6 6.5C27.6 6.49095 27.6019 6.48407 27.6034 6.48069C27.604 6.47924 27.604 6.4795 27.6028 6.48133C27.6016 6.48316 27.5986 6.48717 27.5929 6.49289L29.0071 7.90711ZM26.1929 7.90711C26.9834 8.69763 28.2166 8.69763 29.0071 7.90711L27.5929 6.49289C27.5872 6.49862 27.5832 6.50157 27.5813 6.50281C27.5795 6.50405 27.5792 6.50398 27.5807 6.50336C27.5841 6.50194 27.5909 6.5 27.6 6.5C27.6091 6.5 27.6159 6.50194 27.6193 6.50336C27.6208 6.50398 27.6205 6.50405 27.6187 6.50281C27.6168 6.50157 27.6128 6.49862 27.6071 6.49289L26.1929 7.90711ZM14.3 3C18.8252 3 22.9793 4.78815 26.2035 7.91758L27.5965 6.48242C24.0207 3.01185 19.3748 1 14.3 1V3ZM2.41758 7.89648C5.51771 4.7024 9.75335 3 14.3 3V1C9.24665 1 4.48229 2.8976 0.98242 6.50352L2.41758 7.89648ZM1 8.5C1.26669 8.5 1.53363 8.45437 1.79364 8.33881C2.0493 8.22518 2.24807 8.06614 2.40711 7.90711L0.992894 6.49289C0.972 6.51379 0.961497 6.52162 0.960266 6.52251C0.959805 6.52285 0.961577 6.52153 0.965464 6.51926C0.969408 6.51696 0.974779 6.51411 0.981362 6.51119C0.987968 6.50825 0.994716 6.50571 1.00125 6.50367C1.00775 6.50163 1.01293 6.50042 1.0163 6.49976C1.02322 6.49841 1.01929 6.5 1 6.5V8.5ZM-0.407106 7.90711C-0.248072 8.06614 -0.049303 8.22518 0.206362 8.33881C0.46637 8.45437 0.733315 8.5 1 8.5V6.5C0.980713 6.5 0.976778 6.49841 0.983699 6.49976C0.987072 6.50042 0.992253 6.50163 0.998755 6.50367C1.00529 6.50571 1.01203 6.50825 1.01864 6.51119C1.02522 6.51411 1.03059 6.51696 1.03454 6.51926C1.03842 6.52153 1.0402 6.52285 1.03973 6.52251C1.0385 6.52162 1.028 6.51379 1.00711 6.49289L-0.407106 7.90711ZM14.3001 10.3999C11.8254 10.3999 9.48588 11.4112 7.71616 13.0704L9.08404 14.5294C10.5143 13.1886 12.3748 12.3999 14.3001 12.3999V10.3999ZM20.884 13.0704C19.1143 11.4112 16.7748 10.3999 14.3001 10.3999V12.3999C16.2254 12.3999 18.0859 13.1886 19.5162 14.5294L20.884 13.0704ZM20.9072 15.907C21.6977 15.1165 21.6977 13.8833 20.9072 13.0928L19.493 14.507C19.4987 14.5127 19.5017 14.5167 19.5029 14.5186C19.5041 14.5204 19.5041 14.5207 19.5035 14.5192C19.502 14.5158 19.5001 14.509 19.5001 14.4999C19.5001 14.4909 19.502 14.484 19.5035 14.4806C19.5041 14.4791 19.5041 14.4794 19.5029 14.4812C19.5017 14.4831 19.4987 14.4871 19.493 14.4928L20.9072 15.907ZM19.5001 16.4999C19.7668 16.4999 20.0337 16.4543 20.2937 16.3387C20.5494 16.2251 20.7482 16.066 20.9072 15.907L19.493 14.4928C19.4721 14.5137 19.4616 14.5215 19.4604 14.5224C19.4599 14.5228 19.4617 14.5214 19.4656 14.5192C19.4695 14.5169 19.4749 14.514 19.4815 14.5111C19.4881 14.5082 19.4948 14.5056 19.5013 14.5036C19.5078 14.5015 19.513 14.5003 19.5164 14.4997C19.5233 14.4983 19.5194 14.4999 19.5001 14.4999V16.4999ZM18.093 15.907C18.252 16.066 18.4508 16.2251 18.7065 16.3387C18.9665 16.4543 19.2334 16.4999 19.5001 16.4999V14.4999C19.4808 14.4999 19.4769 14.4983 19.4838 14.4997C19.4872 14.5003 19.4923 14.5015 19.4989 14.5036C19.5054 14.5056 19.5121 14.5082 19.5187 14.5111C19.5253 14.514 19.5307 14.5169 19.5346 14.5192C19.5385 14.5214 19.5403 14.5228 19.5398 14.5224C19.5386 14.5215 19.5281 14.5137 19.5072 14.4928L18.093 15.907ZM14.3001 14.2999C15.7203 14.2999 17.07 14.884 18.093 15.907L19.5072 14.4928C18.1302 13.1158 16.2799 12.2999 14.3001 12.2999V14.2999ZM10.5072 15.907C11.5302 14.884 12.8799 14.2999 14.3001 14.2999V12.2999C12.3203 12.2999 10.47 13.1158 9.09299 14.4928L10.5072 15.907ZM7.69299 15.907C8.48352 16.6975 9.71668 16.6975 10.5072 15.907L9.09299 14.4928C9.08727 14.4985 9.08326 14.5015 9.08143 14.5027C9.07959 14.504 9.07934 14.5039 9.08079 14.5033C9.08417 14.5018 9.09105 14.4999 9.1001 14.4999C9.10915 14.4999 9.11603 14.5018 9.1194 14.5033C9.12086 14.5039 9.1206 14.504 9.11876 14.5027C9.11694 14.5015 9.11293 14.4985 9.1072 14.4928L7.69299 15.907ZM7.69299 13.0928C6.90247 13.8833 6.90247 15.1165 7.69299 15.907L9.1072 14.4928C9.10148 14.4871 9.09852 14.4831 9.09729 14.4812C9.09605 14.4794 9.09612 14.4791 9.09673 14.4806C9.09815 14.484 9.1001 14.4908 9.1001 14.4999C9.1001 14.509 9.09815 14.5158 9.09673 14.5192C9.09612 14.5207 9.09605 14.5204 9.09729 14.5186C9.09852 14.5167 9.10148 14.5127 9.1072 14.507L7.69299 13.0928ZM13.3643 20.5525C12.9364 20.1722 12.8729 19.4411 13.407 18.907L11.9928 17.4928C10.7269 18.7587 10.6634 20.8277 12.0355 22.0473L13.3643 20.5525ZM15.0525 20.6355C14.6722 21.0634 13.9411 21.1269 13.407 20.5928L11.9928 22.007C13.2587 23.2729 15.3277 23.3364 16.5473 21.9643L15.0525 20.6355ZM15.1355 18.9473C15.5634 19.3277 15.6269 20.0587 15.0928 20.5928L16.507 22.007C17.7729 20.7411 17.8364 18.6722 16.4643 17.4525L15.1355 18.9473ZM13.407 18.907C13.9165 18.3975 14.5833 18.3975 15.0928 18.907L16.507 17.4928C15.2165 16.2023 13.2833 16.2023 11.9928 17.4928L13.407 18.907ZM14.3001 4.69995C10.2304 4.69995 6.4773 6.30854 3.69299 9.09284L5.1072 10.5071C7.5229 8.09137 10.7698 6.69995 14.3001 6.69995V4.69995ZM24.8937 9.07963C22.0206 6.31294 18.2766 4.69995 14.3001 4.69995V6.69995C17.7236 6.69995 20.9796 8.08696 23.5065 10.5203L24.8937 9.07963ZM24.9072 11.9071C25.6977 11.1165 25.6977 9.88337 24.9072 9.09284L23.493 10.5071C23.4987 10.5128 23.5017 10.5168 23.5029 10.5186C23.5041 10.5205 23.5041 10.5207 23.5035 10.5193C23.502 10.5159 23.5001 10.509 23.5001 10.5C23.5001 10.4909 23.502 10.484 23.5035 10.4806C23.5041 10.4792 23.5041 10.4794 23.5029 10.4813C23.5017 10.4831 23.4987 10.4871 23.493 10.4928L24.9072 11.9071ZM23.5001 12.5C23.7668 12.5 24.0337 12.4543 24.2937 12.3388C24.5494 12.2251 24.7482 12.0661 24.9072 11.9071L23.493 10.4928C23.4721 10.5137 23.4616 10.5216 23.4604 10.5225C23.4599 10.5228 23.4617 10.5215 23.4656 10.5192C23.4695 10.5169 23.4749 10.5141 23.4815 10.5111C23.4881 10.5082 23.4948 10.5057 23.5013 10.5036C23.5078 10.5016 23.513 10.5004 23.5164 10.4997C23.5233 10.4984 23.5194 10.5 23.5001 10.5V12.5ZM22.093 11.9071C22.252 12.0661 22.4508 12.2251 22.7065 12.3388C22.9665 12.4543 23.2334 12.5 23.5001 12.5V10.5C23.4808 10.5 23.4769 10.4984 23.4838 10.4997C23.4872 10.5004 23.4923 10.5016 23.4989 10.5036C23.5054 10.5057 23.5121 10.5082 23.5187 10.5111C23.5253 10.5141 23.5307 10.5169 23.5346 10.5192C23.5385 10.5215 23.5403 10.5228 23.5398 10.5225C23.5386 10.5216 23.5281 10.5137 23.5072 10.4928L22.093 11.9071ZM14.3001 8.69995C17.2354 8.69995 20.0809 9.89496 22.093 11.9071L23.5072 10.4928C21.1193 8.10494 17.7648 6.69995 14.3001 6.69995V8.69995ZM6.52274 11.8912C8.51852 9.80468 11.2496 8.69995 14.3001 8.69995V6.69995C10.7505 6.69995 7.48168 7.99522 5.07746 10.5087L6.52274 11.8912ZM3.69299 11.9071C4.48352 12.6976 5.71668 12.6976 6.50721 11.9071L5.09299 10.4928C5.08727 10.4986 5.08326 10.5015 5.08143 10.5028C5.07959 10.504 5.07934 10.5039 5.08079 10.5033C5.08417 10.5019 5.09105 10.5 5.1001 10.5C5.10915 10.5 5.11603 10.5019 5.1194 10.5033C5.12086 10.5039 5.1206 10.504 5.11877 10.5028C5.11694 10.5015 5.11293 10.4986 5.1072 10.4928L3.69299 11.9071ZM3.69299 9.09284C2.90247 9.88337 2.90247 11.1165 3.69299 11.9071L5.1072 10.4928C5.10148 10.4871 5.09853 10.4831 5.09729 10.4813C5.09605 10.4794 5.09612 10.4792 5.09673 10.4806C5.09815 10.484 5.1001 10.4909 5.1001 10.5C5.1001 10.509 5.09815 10.5159 5.09673 10.5193C5.09612 10.5207 5.09605 10.5205 5.09729 10.5186C5.09853 10.5168 5.10148 10.5128 5.1072 10.5071L3.69299 9.09284Z" fill="#1D3557" mask="url(#path-1-inside-1)"/>
</svg>
