<svg width="30" height="30" viewBox="0 0 30 30" fill="none" xmlns="http://www.w3.org/2000/svg">
<path d="M29.1211 4.80469H17.4023C16.917 4.80469 16.5234 5.1982 16.5234 5.68359V14.1797H0.878906C0.393516 14.1797 0 14.5732 0 15.0586V29.1211C0 29.6065 0.393516 30 0.878906 30H29.1211C29.6065 30 30 29.6065 30 29.1211V5.68359C30 5.1982 29.6065 4.80469 29.1211 4.80469ZM18.2812 6.5625H28.2422V14.1797H18.2812V6.5625ZM1.75781 15.9375H16.5234V17.6953H1.75781V15.9375ZM1.75781 19.4531H11.8359V28.2422H1.75781V19.4531ZM13.5938 19.4531H16.5234V28.2422H13.5938V19.4531ZM18.2812 28.2422V15.9375H28.2422V28.2422H18.2812Z" fill="#EE9338"/>
<path d="M0.878906 11.7188H13.7695C14.2549 11.7188 14.6484 11.3252 14.6484 10.8398V8.49609C14.6484 8.23951 14.5363 7.99576 14.3415 7.82877L10.5469 4.57623V0.878906C10.5469 0.393516 10.1534 0 9.66797 0H4.98047C4.49508 0 4.10156 0.393516 4.10156 0.878906V4.57623L0.306914 7.82877C0.112148 7.99576 0 8.23951 0 8.49609V10.8398C0 11.3252 0.393516 11.7188 0.878906 11.7188ZM5.85938 1.75781H8.78906V4.10156H5.85938V1.75781ZM1.75781 8.90033L5.30561 5.85938H9.34283L12.8906 8.90033V9.96094H1.75781V8.90033Z" fill="#EE9338"/>
<path d="M20.918 8.90625C20.4326 8.90625 20.0391 9.29977 20.0391 9.78516V11.543C20.0391 12.0284 20.4326 12.4219 20.918 12.4219C21.4034 12.4219 21.7969 12.0284 21.7969 11.543V9.78516C21.7969 9.29977 21.4034 8.90625 20.918 8.90625Z" fill="#EE9338"/>
<path d="M20.918 17.6953C20.4326 17.6953 20.0391 18.0888 20.0391 18.5742V20.332C20.0391 20.8174 20.4326 21.2109 20.918 21.2109C21.4034 21.2109 21.7969 20.8174 21.7969 20.332V18.5742C21.7969 18.0888 21.4034 17.6953 20.918 17.6953Z" fill="#EE9338"/>
<path d="M9.19922 22.0898C8.71383 22.0898 8.32031 22.4834 8.32031 22.9688V24.7266C8.32031 25.212 8.71383 25.6055 9.19922 25.6055C9.68461 25.6055 10.0781 25.212 10.0781 24.7266V22.9688C10.0781 22.4834 9.68461 22.0898 9.19922 22.0898Z" fill="#EE9338"/>
</svg>
