<svg width="32" height="32" viewBox="0 0 32 32" fill="none" xmlns="http://www.w3.org/2000/svg">
<path d="M17.4106 15.5997C17.5981 15.3109 17.7071 14.9667 17.7071 14.5975C17.7071 13.5799 16.8792 12.752 15.8615 12.752H14.3518C13.9929 12.752 13.7021 13.0428 13.7021 13.4016V18.5989C13.7021 18.7717 13.771 18.9374 13.8934 19.0593C14.0152 19.1806 14.18 19.2486 14.3518 19.2486C14.3547 19.2486 15.7426 19.2424 16.1251 19.2424C17.2548 19.2424 18.1737 18.3235 18.1737 17.1938C18.1738 16.5506 17.8758 15.9756 17.4106 15.5997ZM15.0016 14.0513H15.8616C16.1628 14.0513 16.4079 14.2963 16.4079 14.5975C16.4079 14.8987 16.1628 15.1438 15.8616 15.1438C15.8473 15.1438 15.8329 15.1442 15.8188 15.1451H15.0016V14.0513ZM16.1251 17.943C15.9183 17.943 15.4185 17.9448 15.0015 17.9465V16.4445H16.1251C16.5383 16.4445 16.8744 16.7806 16.8744 17.1937C16.8745 17.6069 16.5383 17.943 16.1251 17.943Z" fill="#2D5286" stroke="#2D5286" stroke-width="0.25"/>
<path d="M10.4636 13.2436C10.4618 13.2388 10.4599 13.2339 10.4579 13.2291C10.3397 12.9397 10.0602 12.7524 9.74754 12.752C9.43484 12.7523 9.1554 12.9397 9.03716 13.2291C9.03516 13.2339 9.03326 13.2388 9.03144 13.2436L7.07985 18.3677C6.95208 18.703 7.12047 19.0784 7.4557 19.2061C7.79093 19.3336 8.16635 19.1656 8.29411 18.8302L8.62128 17.9725H10.874L11.2011 18.8302C11.3289 19.1656 11.7043 19.3337 12.0396 19.2061C12.3748 19.0784 12.5431 18.703 12.4154 18.3677L10.4636 13.2436ZM9.11676 16.6731L9.74745 15.0198L10.3781 16.6731H9.11676Z" fill="#2D5286" stroke="#2D5286" stroke-width="0.25"/>
<path d="M24.731 17.3679C24.456 17.1372 24.0463 17.173 23.8157 17.4479C23.7704 17.5019 23.7215 17.5524 23.6703 17.5979C23.4085 17.8311 23.074 17.9494 22.6761 17.9494C21.6015 17.9494 20.7271 17.0751 20.7271 16.0004C20.7271 14.9256 21.6015 14.0514 22.6761 14.0514C23.0668 14.0514 23.4434 14.1663 23.7654 14.3838C24.0628 14.5847 24.4666 14.5065 24.6674 14.2092C24.8682 13.9119 24.7901 13.508 24.4927 13.3071C23.9552 12.944 23.3269 12.752 22.6761 12.752C20.8849 12.752 19.4277 14.2091 19.4277 16.0003C19.4277 17.7914 20.8849 19.2486 22.6761 19.2486C23.392 19.2486 24.0346 19.0132 24.5344 18.568C24.6324 18.4808 24.7254 18.3848 24.8108 18.2829C25.0417 18.0083 25.0058 17.5984 24.731 17.3679Z" fill="#2D5286" stroke="#2D5286" stroke-width="0.25"/>
<path d="M16 1C7.72904 1 1 7.72896 1 16C1 19.6949 2.3435 23.2181 4.79187 25.968C4.1332 27.4502 2.91703 28.6321 1.40582 29.2439C1.1606 29.3433 1 29.5814 1 29.8461C1 30.1107 1.1606 30.3489 1.40591 30.4483C2.31007 30.8144 3.26646 31 4.24832 31C6.00631 31 7.69102 30.3963 9.04249 29.2909C11.1787 30.4103 13.5742 31 16 31C24.271 31 31 24.271 31 16C31 7.72896 24.271 1 16 1V1ZM16 29.7007C13.6429 29.7007 11.3176 29.0915 9.27585 27.939C9.17606 27.8826 9.06597 27.855 8.95665 27.855C8.79666 27.855 8.63805 27.9141 8.51496 28.0282C7.35077 29.1067 5.83549 29.7007 4.24832 29.7007C3.95606 29.7007 3.66657 29.6808 3.38089 29.6414C4.63829 28.7644 5.61582 27.5165 6.15738 26.0585C6.24339 25.827 6.19073 25.5668 6.02155 25.3871C3.62126 22.8365 2.29933 19.5028 2.29933 16C2.29933 8.44541 8.44541 2.29924 16 2.29924C23.5546 2.29924 29.7007 8.44532 29.7007 16C29.7007 23.5546 23.5546 29.7007 16 29.7007V29.7007Z" fill="#2D5286" stroke="#2D5286" stroke-width="0.25"/>
</svg>
