<svg width="19" height="19" viewBox="0 0 19 19" fill="none" xmlns="http://www.w3.org/2000/svg">
<path d="M5.12438 18C4.03837 18 3.0128 17.5697 2.22153 16.7785C1.39301 15.9499 0.960242 14.8643 1.00287 13.7216C1.04694 12.5415 1.58008 11.4078 2.5447 10.4432L4.28149 8.69936C4.54027 8.43948 4.96073 8.43862 5.22061 8.69744C5.48045 8.95622 5.48135 9.37671 5.22253 9.63655L3.48481 11.3814C2.07663 12.7896 1.94375 14.6224 3.16072 15.8393C4.37771 17.0564 6.21049 16.9235 7.61764 15.5162L10.0045 13.1293C10.728 12.4059 11.127 11.5798 11.1583 10.7405C11.187 9.97121 10.892 9.23672 10.3277 8.6724C10.1386 8.48334 9.92938 8.3229 9.70582 8.19557C9.38714 8.01405 9.27594 7.60854 9.45746 7.28989C9.63902 6.9712 10.0445 6.86004 10.3631 7.04153C10.6898 7.2276 10.9938 7.46035 11.2668 7.73331C12.0954 8.56183 12.5281 9.64741 12.4855 10.7901C12.4414 11.9702 11.9083 13.1039 10.9437 14.0685L8.5568 16.4554C7.59214 17.42 6.45852 17.9531 5.27838 17.9972C5.22698 17.999 5.17555 18 5.12438 18ZM9.54266 11.7101C9.72418 11.3914 9.61296 10.9859 9.2943 10.8044C9.07075 10.6771 8.8615 10.5167 8.67244 10.3276C7.45548 9.11065 7.58836 7.27787 8.99557 5.87065L11.3825 3.48381C12.7897 2.07662 14.6224 1.94371 15.8394 3.16067C17.0563 4.37764 16.9235 6.21042 15.5153 7.6186L13.7776 9.36346C13.5187 9.62331 13.5196 10.0438 13.7795 10.3026C14.0393 10.5614 14.4598 10.5605 14.7186 10.3006L16.4554 8.55675C17.42 7.59214 17.9531 6.45848 17.9972 5.27837C18.0399 4.13569 17.6071 3.05007 16.7786 2.22156C15.95 1.393 14.8639 0.9603 13.7217 1.00287C12.5416 1.04693 11.408 1.58007 10.4434 2.54469L8.05646 4.93153C7.09184 5.89615 6.55873 7.02981 6.51463 8.20991C6.472 9.3526 6.90477 10.4382 7.73329 11.2668C8.00625 11.5397 8.31029 11.7724 8.63698 11.9585C8.74071 12.0176 8.8536 12.0457 8.96503 12.0457C9.19589 12.0456 9.42021 11.925 9.54266 11.7101Z" fill="#132339" stroke="#132339" stroke-width="0.25"/>
</svg>
