<svg width="39" height="50" viewBox="0 0 39 50" fill="none" xmlns="http://www.w3.org/2000/svg">
<path d="M36.6211 5.85938H1.46484C0.655176 5.85938 0 6.51455 0 7.32422V48.5352C0 49.3448 0.655176 50 1.46484 50H36.6211C37.4308 50 38.0859 49.3448 38.0859 48.5352V7.32422C38.0859 6.51455 37.4308 5.85938 36.6211 5.85938Z" fill="url(#paint0_linear)"/>
<path d="M27.832 35.1562H10.2539C9.44424 35.1562 8.78906 35.8114 8.78906 36.6211C8.78906 37.4308 9.44424 38.0859 10.2539 38.0859H27.832C28.6417 38.0859 29.2969 37.4308 29.2969 36.6211C29.2969 35.8114 28.6417 35.1562 27.832 35.1562ZM27.832 41.0156H10.2539C9.44424 41.0156 8.78906 41.6708 8.78906 42.4805C8.78906 43.2901 9.44424 43.9453 10.2539 43.9453H27.832C28.6417 43.9453 29.2969 43.2901 29.2969 42.4805C29.2969 41.6708 28.6417 41.0156 27.832 41.0156ZM11.7188 8.78906H26.3672C27.9837 8.78906 29.2969 7.47441 29.2969 5.85938C29.2969 4.24434 27.9837 2.92969 26.3672 2.92969H22.15L21.8038 1.9541C21.3919 0.785352 20.2818 0 19.043 0C17.8041 0 16.694 0.785352 16.2821 1.9541L15.9359 2.92969H11.7188C10.1022 2.92969 8.78906 4.24434 8.78906 5.85938C8.78906 7.47441 10.1022 8.78906 11.7188 8.78906Z" fill="url(#paint1_linear)"/>
<path d="M19 20.4444C21.7563 20.4444 24 22.338 24 24.6667C24 26.6286 22.4 28.267 20.25 28.7389V29.9444C20.25 30.5279 19.6909 31 19 31C18.3091 31 17.75 30.5279 17.75 29.9444V28.7389C15.6 28.267 14 26.6286 14 24.6667C14 24.0832 14.5591 23.6111 15.25 23.6111C15.9409 23.6111 16.5 24.0832 16.5 24.6667C16.5 25.8305 17.6206 26.7778 19 26.7778C20.3794 26.7778 21.5 25.8305 21.5 24.6667C21.5 23.5029 20.3794 22.5556 19 22.5556C16.2437 22.5556 14 20.662 14 18.3333C14 16.3714 15.6 14.733 17.75 14.2611V13.0556C17.75 12.4721 18.3091 12 19 12C19.6909 12 20.25 12.4721 20.25 13.0556V14.2611C22.4 14.733 24 16.3714 24 18.3333C24 18.9168 23.4409 19.3889 22.75 19.3889C22.0591 19.3889 21.5 18.9168 21.5 18.3333C21.5 17.1695 20.3794 16.2222 19 16.2222C17.6206 16.2222 16.5 17.1695 16.5 18.3333C16.5 19.4971 17.6206 20.4444 19 20.4444Z" fill="url(#paint2_linear)"/>
<defs>
<linearGradient id="paint0_linear" x1="19.043" y1="50" x2="19.043" y2="5.85938" gradientUnits="userSpaceOnUse">
<stop stop-color="#E95228"/>
<stop offset="1" stop-color="#FEC00F"/>
</linearGradient>
<linearGradient id="paint1_linear" x1="19.043" y1="43.9453" x2="19.043" y2="0" gradientUnits="userSpaceOnUse">
<stop stop-color="#FFF5D7"/>
<stop offset="1" stop-color="#FFF59F"/>
</linearGradient>
<linearGradient id="paint2_linear" x1="19" y1="35.2222" x2="19" y2="7.77778" gradientUnits="userSpaceOnUse">
<stop stop-color="#FFE59A"/>
<stop offset="1" stop-color="#FFFFD5"/>
</linearGradient>
</defs>
</svg>
