<svg width="18" height="24" viewBox="0 0 18 24" fill="none" xmlns="http://www.w3.org/2000/svg">
<g opacity="0.5">
<path fill-rule="evenodd" clip-rule="evenodd" d="M1 9.37891C1 4.75878 4.75878 1 9.37891 1C13.999 1 17.7578 4.75878 17.7578 9.37891C17.7578 12.3563 16.8483 13.5559 12.478 19.3201L12.478 19.3202C11.7244 20.3141 10.8703 21.4406 9.89457 22.7421C9.77284 22.9044 9.58185 23 9.37895 23C9.17605 23 8.98501 22.9045 8.86328 22.7422C7.88546 21.4385 7.03038 20.3113 6.27565 19.3163L6.26715 19.3051C1.90728 13.5575 1 12.3615 1 9.37891ZM9.37878 21.2823C10.1453 20.2633 10.8319 19.3577 11.4508 18.5413L11.4509 18.5413C15.7026 12.9334 16.4688 11.9229 16.4688 9.37891C16.4688 5.46957 13.2882 2.28906 9.37891 2.28906C5.46957 2.28906 2.28906 5.46957 2.28906 9.37891C2.28906 11.9279 3.05322 12.9353 7.29415 18.526C7.91651 19.3465 8.60702 20.2567 9.37878 21.2823ZM4.86719 9.37891C4.86719 6.89114 6.89114 4.86719 9.37891 4.86719C11.8667 4.86719 13.8906 6.89114 13.8906 9.37891C13.8906 11.8667 11.8667 13.8906 9.37891 13.8906C6.89114 13.8906 4.86719 11.8667 4.86719 9.37891ZM6.15625 9.37891C6.15625 11.1559 7.60193 12.6016 9.37891 12.6016C11.1559 12.6016 12.6016 11.1559 12.6016 9.37891C12.6016 7.60193 11.1559 6.15625 9.37891 6.15625C7.60193 6.15625 6.15625 7.60193 6.15625 9.37891Z" fill="#2D5286"/>
<path d="M12.478 19.3201L12.6194 19.4616L12.6291 19.4519L12.6374 19.441L12.478 19.3201ZM12.478 19.3202L12.3366 19.1787L12.3269 19.1884L12.3186 19.1993L12.478 19.3202ZM9.89457 22.7421L10.0546 22.8621L10.0546 22.8621L9.89457 22.7421ZM8.86328 22.7422L8.70329 22.8622L8.70329 22.8622L8.86328 22.7422ZM6.27565 19.3163L6.43499 19.1954L6.43499 19.1954L6.27565 19.3163ZM6.26715 19.3051L6.10781 19.426L6.10781 19.426L6.26715 19.3051ZM11.4508 18.5413L11.6102 18.6622L11.6108 18.6613L11.4508 18.5413ZM9.37878 21.2823L9.21897 21.4025L9.37881 21.6149L9.53861 21.4025L9.37878 21.2823ZM11.4509 18.5413L11.2915 18.4205L11.2909 18.4213L11.4509 18.5413ZM7.29415 18.526L7.13481 18.6469L7.29415 18.526ZM9.37891 0.8C4.64832 0.8 0.8 4.64832 0.8 9.37891H1.2C1.2 4.86923 4.86923 1.2 9.37891 1.2V0.8ZM17.9578 9.37891C17.9578 4.64832 14.1095 0.8 9.37891 0.8V1.2C13.8886 1.2 17.5578 4.86923 17.5578 9.37891H17.9578ZM12.6374 19.441C14.8181 16.5647 16.1493 14.8098 16.9316 13.4016C17.7233 11.9766 17.9578 10.8984 17.9578 9.37891H17.5578C17.5578 10.8368 17.3376 11.8471 16.582 13.2073C15.817 14.5843 14.5083 16.3113 12.3186 19.1993L12.6374 19.441ZM12.6194 19.4616L12.6194 19.4616L12.3366 19.1787L12.3366 19.1787L12.6194 19.4616ZM10.0546 22.8621C11.03 21.561 11.8838 20.4349 12.6374 19.441L12.3186 19.1993C11.565 20.1932 10.7106 21.3201 9.73455 22.6221L10.0546 22.8621ZM9.37895 23.2C9.64484 23.2 9.89511 23.0748 10.0546 22.8621L9.73456 22.6221C9.65058 22.7341 9.51885 22.8 9.37895 22.8V23.2ZM8.70329 22.8622C8.86279 23.0748 9.1131 23.2 9.37895 23.2V22.8C9.239 22.8 9.10723 22.7341 9.02328 22.6222L8.70329 22.8622ZM6.11631 19.4372C6.87105 20.4322 7.72583 21.559 8.70329 22.8622L9.02328 22.6222C8.04509 21.318 7.18971 20.1904 6.43499 19.1954L6.11631 19.4372ZM6.10781 19.426L6.11631 19.4372L6.43499 19.1954L6.42649 19.1842L6.10781 19.426ZM0.8 9.37891C0.8 10.9009 1.03395 11.9795 1.82376 13.4022C2.60427 14.8082 3.93237 16.5581 6.10781 19.426L6.4265 19.1842C4.24207 16.3045 2.93659 14.5827 2.17349 13.208C1.4197 11.8502 1.2 10.8395 1.2 9.37891H0.8ZM11.2914 18.4205C10.6725 19.2368 9.98572 20.1427 9.21895 21.1621L9.53861 21.4025C10.3049 20.3838 10.9913 19.4785 11.6102 18.6622L11.2914 18.4205ZM11.2909 18.4213L11.2908 18.4213L11.6108 18.6613L11.6109 18.6613L11.2909 18.4213ZM16.2688 9.37891C16.2688 10.6184 16.0852 11.4726 15.3804 12.7123C14.6656 13.9694 13.4217 15.6107 11.2915 18.4205L11.6102 18.6621C13.7317 15.8639 14.9968 14.1961 15.7281 12.91C16.4693 11.6064 16.6687 10.6833 16.6687 9.37891H16.2688ZM9.37891 2.48906C13.1778 2.48906 16.2688 5.58002 16.2688 9.37891H16.6687C16.6687 5.35911 13.3987 2.08906 9.37891 2.08906V2.48906ZM2.48906 9.37891C2.48906 5.58002 5.58002 2.48906 9.37891 2.48906V2.08906C5.35911 2.08906 2.08906 5.35911 2.08906 9.37891H2.48906ZM7.45349 18.4051C5.32863 15.604 4.08803 13.9677 3.37515 12.713C2.67223 11.4758 2.48906 10.6211 2.48906 9.37891H2.08906C2.08906 10.6857 2.28797 11.6092 3.02736 12.9106C3.7568 14.1945 5.01874 15.8573 7.13481 18.6469L7.45349 18.4051ZM9.53858 21.162C8.76656 20.1361 8.07584 19.2256 7.45349 18.4051L7.13481 18.6469C7.75718 19.4673 8.44747 20.3773 9.21897 21.4025L9.53858 21.162ZM9.37891 4.66719C6.78069 4.66719 4.66719 6.78069 4.66719 9.37891H5.06719C5.06719 7.0016 7.0016 5.06719 9.37891 5.06719V4.66719ZM14.0906 9.37891C14.0906 6.78069 11.9771 4.66719 9.37891 4.66719V5.06719C11.7562 5.06719 13.6906 7.0016 13.6906 9.37891H14.0906ZM9.37891 14.0906C11.9771 14.0906 14.0906 11.9771 14.0906 9.37891H13.6906C13.6906 11.7562 11.7562 13.6906 9.37891 13.6906V14.0906ZM4.66719 9.37891C4.66719 11.9771 6.78069 14.0906 9.37891 14.0906V13.6906C7.0016 13.6906 5.06719 11.7562 5.06719 9.37891H4.66719ZM9.37891 12.4016C7.71239 12.4016 6.35625 11.0454 6.35625 9.37891H5.95625C5.95625 11.2663 7.49148 12.8016 9.37891 12.8016V12.4016ZM12.4016 9.37891C12.4016 11.0454 11.0454 12.4016 9.37891 12.4016V12.8016C11.2663 12.8016 12.8016 11.2663 12.8016 9.37891H12.4016ZM9.37891 6.35625C11.0454 6.35625 12.4016 7.71239 12.4016 9.37891H12.8016C12.8016 7.49148 11.2663 5.95625 9.37891 5.95625V6.35625ZM6.35625 9.37891C6.35625 7.71239 7.71239 6.35625 9.37891 6.35625V5.95625C7.49148 5.95625 5.95625 7.49148 5.95625 9.37891H6.35625Z" fill="#2D5286"/>
</g>
</svg>
