<svg width="28" height="36" viewBox="0 0 28 36" fill="none" xmlns="http://www.w3.org/2000/svg">
<path d="M14 1C6.8318 1 1 6.8318 1 14C1 18.6275 2.40767 20.4832 9.17207 29.4007C10.3463 30.9486 11.6772 32.7031 13.2 34.7333C13.3889 34.9851 13.6853 35.1333 14.0001 35.1333C14.3149 35.1333 14.6112 34.9851 14.8001 34.7332C16.3139 32.7139 17.6391 30.9661 18.8083 29.424C25.5889 20.4806 27 18.6195 27 14C27 6.8318 21.1682 1 14 1ZM17.2146 28.2157C16.2543 29.4822 15.1891 30.8873 13.9998 32.4683C12.8024 30.8771 11.7311 29.4648 10.7655 28.1919C4.1856 19.5177 3 17.9547 3 14C3 7.9346 7.9346 3 14 3C20.0654 3 25 7.9346 25 14C25 17.947 23.8113 19.5148 17.2146 28.2157Z" fill="#2D5286" stroke="white" stroke-width="0.15"/>
<path d="M14 7C10.1402 7 7 10.1402 7 14C7 17.8598 10.1402 21 14 21C17.8598 21 21 17.8598 21 14C21 10.1402 17.8598 7 14 7ZM14 19C11.243 19 9 16.757 9 14C9 11.243 11.243 9 14 9C16.757 9 19 11.243 19 14C19 16.757 16.757 19 14 19Z" fill="#2D5286" stroke="white" stroke-width="0.15"/>
</svg>
