<svg width="260" height="36" viewBox="0 0 260 36" fill="none" xmlns="http://www.w3.org/2000/svg">
<path d="M50.8227 28.3438C48.9222 27.3121 47.4561 25.9003 46.3702 24.1085C45.2842 22.3166 44.7412 20.2533 44.7412 18.027C44.7412 15.8008 45.2842 13.7375 46.3702 11.9456C47.4561 10.1537 48.9222 8.68768 50.8227 7.7103C52.7231 6.67863 54.8408 6.18994 57.1756 6.18994C59.5104 6.18994 61.6281 6.67863 63.5285 7.7103C65.429 8.74198 66.8951 10.1537 67.981 11.9456C69.067 13.7375 69.61 15.8008 69.61 18.0813C69.61 20.3619 69.067 22.3709 67.981 24.1628C66.8951 25.9546 65.429 27.3664 63.5285 28.3981C61.6281 29.4298 59.5104 29.9184 57.1756 29.9184C54.8408 29.8641 52.6688 29.3755 50.8227 28.3438ZM61.3566 25.0859C62.6055 24.38 63.5828 23.4026 64.2887 22.1537C64.9946 20.9049 65.3204 19.4931 65.3204 17.9727C65.3204 16.4524 64.9403 15.0406 64.2887 13.7918C63.5828 12.5429 62.6055 11.5655 61.3566 10.8596C60.1077 10.1537 58.7503 9.82795 57.1756 9.82795C55.6552 9.82795 54.2435 10.1537 52.9946 10.8596C51.7457 11.5655 50.7684 12.5429 50.0625 13.7918C49.3566 15.0406 49.0308 16.4524 49.0308 17.9727C49.0308 19.4931 49.3566 20.9049 50.0625 22.1537C50.7684 23.4026 51.7457 24.38 52.9946 25.0859C54.2435 25.7918 55.6009 26.1175 57.1756 26.1175C58.696 26.1175 60.1077 25.7918 61.3566 25.0859Z" fill="#FF6438"/>
<path d="M94.6968 6.40723V29.5385H91.1673L78.4615 13.9004V29.5385H74.1719V6.40723H77.7013L90.4615 22.0995V6.40723H94.6968Z" fill="#FF6438"/>
<path d="M118.263 25.9547V29.5385H100.941V6.40723H117.774V10.0452H105.231V16.0181H116.362V19.6018H105.231V25.9547H118.263Z" fill="#FF6438"/>
<path d="M147.258 29.5385L142.534 22.7511C142.317 22.7511 142.045 22.8054 141.665 22.8054H136.453V29.5385H132.163V6.40723H141.665C143.674 6.40723 145.412 6.73302 146.878 7.3846C148.344 8.03619 149.484 9.01356 150.299 10.2081C151.113 11.457 151.493 12.9231 151.493 14.6063C151.493 16.3439 151.059 17.8642 150.245 19.1131C149.376 20.362 148.181 21.2851 146.607 21.9366L151.928 29.5385H147.258ZM145.738 11.2398C144.76 10.4253 143.349 10.0452 141.502 10.0452H136.507V19.276H141.502C143.349 19.276 144.815 18.8959 145.738 18.0814C146.715 17.267 147.204 16.1267 147.204 14.6606C147.204 13.1946 146.715 12.0543 145.738 11.2398Z" fill="#FF6438"/>
<path d="M160.724 28.3438C158.824 27.3121 157.358 25.9003 156.272 24.1085C155.186 22.3166 154.643 20.2533 154.643 18.027C154.643 15.8008 155.186 13.7375 156.272 11.9456C157.358 10.1537 158.824 8.68768 160.724 7.7103C162.624 6.67863 164.742 6.18994 167.077 6.18994C169.412 6.18994 171.529 6.67863 173.43 7.7103C175.33 8.74198 176.796 10.1537 177.882 11.9456C178.968 13.7375 179.511 15.8008 179.511 18.0813C179.511 20.3619 178.968 22.3709 177.882 24.1628C176.796 25.9546 175.33 27.3664 173.43 28.3981C171.529 29.4298 169.412 29.9184 167.077 29.9184C164.742 29.8641 162.624 29.3755 160.724 28.3438ZM171.258 25.0859C172.507 24.38 173.484 23.4026 174.19 22.1537C174.896 20.9049 175.222 19.4931 175.222 17.9727C175.222 16.4524 174.842 15.0406 174.19 13.7918C173.484 12.5429 172.507 11.5655 171.258 10.8596C170.009 10.1537 168.652 9.82795 167.077 9.82795C165.557 9.82795 164.145 10.1537 162.896 10.8596C161.647 11.5655 160.67 12.5429 159.964 13.7918C159.258 15.0406 158.932 16.4524 158.932 17.9727C158.932 19.4931 159.258 20.9049 159.964 22.1537C160.67 23.4026 161.647 24.38 162.896 25.0859C164.145 25.7918 165.502 26.1175 167.077 26.1175C168.652 26.1175 170.009 25.7918 171.258 25.0859Z" fill="#FF6438"/>
<path d="M188.526 28.3438C186.625 27.3121 185.159 25.9003 184.073 24.1085C182.987 22.3166 182.444 20.2533 182.444 18.027C182.444 15.8008 182.987 13.7375 184.073 11.9456C185.159 10.1537 186.625 8.68768 188.526 7.7103C190.426 6.67863 192.544 6.18994 194.879 6.18994C197.214 6.18994 199.331 6.67863 201.232 7.7103C203.132 8.74198 204.598 10.1537 205.684 11.9456C206.77 13.7375 207.313 15.8008 207.313 18.0813C207.313 20.3619 206.77 22.3709 205.684 24.1628C204.598 25.9546 203.132 27.3664 201.232 28.3981C199.331 29.4298 197.214 29.9184 194.879 29.9184C192.544 29.8641 190.426 29.3755 188.526 28.3438ZM199.06 25.0859C200.309 24.38 201.286 23.4026 201.992 22.1537C202.698 20.9049 203.024 19.4931 203.024 17.9727C203.024 16.4524 202.643 15.0406 201.992 13.7918C201.286 12.5429 200.309 11.5655 199.06 10.8596C197.811 10.1537 196.453 9.82795 194.879 9.82795C193.358 9.82795 191.947 10.1537 190.698 10.8596C189.449 11.5655 188.471 12.5429 187.766 13.7918C187.06 15.0406 186.734 16.4524 186.734 17.9727C186.734 19.4931 187.06 20.9049 187.766 22.1537C188.471 23.4026 189.449 24.38 190.698 25.0859C191.947 25.7918 193.304 26.1175 194.879 26.1175C196.453 26.1175 197.811 25.7918 199.06 25.0859Z" fill="#FF6438"/>
<path d="M233.158 29.5385L233.103 14.2262L225.501 26.9321H223.601L215.999 14.4434V29.5385H211.927V6.40723H215.456L224.633 21.7737L233.646 6.40723H237.176V29.5385H233.158Z" fill="#FF6438"/>
<path d="M245.43 29.1041C243.746 28.6154 242.443 27.9095 241.466 27.095L242.932 23.7828C243.855 24.543 245.05 25.1403 246.407 25.629C247.764 26.1176 249.176 26.3348 250.534 26.3348C252.271 26.3348 253.52 26.0633 254.389 25.5204C255.258 24.9774 255.638 24.2715 255.638 23.3484C255.638 22.6968 255.421 22.1538 254.932 21.7195C254.443 21.2851 253.846 20.9593 253.14 20.6878C252.434 20.4706 251.402 20.1448 250.154 19.8733C248.416 19.4389 246.95 19.0588 245.864 18.6244C244.778 18.19 243.855 17.5385 243.04 16.6697C242.28 15.8009 241.846 14.552 241.846 13.0317C241.846 11.7285 242.172 10.5882 242.878 9.55656C243.583 8.52488 244.615 7.6561 246.027 7.05882C247.439 6.46153 249.122 6.13574 251.185 6.13574C252.597 6.13574 253.954 6.29864 255.366 6.67873C256.724 7.00452 257.918 7.54751 258.896 8.19909L257.538 11.5113C256.507 10.914 255.475 10.4796 254.389 10.1538C253.303 9.82805 252.217 9.66515 251.185 9.66515C249.502 9.66515 248.253 9.93665 247.384 10.5339C246.57 11.1312 246.135 11.8914 246.135 12.8145C246.135 13.4661 246.353 14.009 246.841 14.4434C247.33 14.8778 247.927 15.2036 248.633 15.4208C249.339 15.638 250.371 15.9638 251.62 16.2353C253.357 16.6154 254.769 17.0498 255.855 17.4842C256.941 17.9185 257.918 18.5701 258.678 19.4389C259.439 20.3077 259.873 21.5023 259.873 23.0226C259.873 24.3258 259.547 25.4661 258.841 26.4977C258.136 27.5294 257.104 28.3439 255.692 28.9955C254.28 29.5928 252.543 29.9185 250.534 29.9185C248.796 29.8642 247.113 29.6471 245.43 29.1041Z" fill="#FF6438"/>
<rect x="4.73242" y="3.52588" width="26.6795" height="27.8283" fill="#060C13"/>
<path fill-rule="evenodd" clip-rule="evenodd" d="M5.42986 0H30.5701C33.5566 0 36 2.44344 36 5.42986V30.5701C36 33.5566 33.5566 36 30.5701 36H5.42986C2.44344 36 0 33.5566 0 30.5701V5.42986C0 2.44344 2.44344 0 5.42986 0ZM8.41629 6.40724C7.60181 6.84163 6.95023 7.43891 6.46154 8.25339C5.97285 9.01357 5.75566 9.93665 5.75566 10.914C5.75566 11.8914 5.97285 12.7602 6.46154 13.5747C6.95023 14.3348 7.60181 14.9864 8.41629 15.4208C9.23077 15.8552 10.1538 16.0724 11.1855 16.0724C12.2172 16.0724 13.1403 15.8552 13.9548 15.4208C14.7692 14.9864 15.4208 14.3348 15.9095 13.5747C16.3982 12.7602 16.6154 11.8914 16.6154 10.914C16.6154 9.93665 16.3982 9.01357 15.9095 8.25339C15.4208 7.49321 14.7692 6.84163 13.9548 6.40724C13.1403 5.97285 12.2172 5.75566 11.1855 5.75566C10.1538 5.75566 9.23077 5.97285 8.41629 6.40724ZM26.1719 27.3122L28.2353 30.2443H30.2986L27.9638 26.9321C28.6154 26.7149 29.1584 26.2805 29.5385 25.7376C29.9186 25.1946 30.0814 24.543 30.0814 23.7828C30.0814 23.0769 29.8643 22.4253 29.5385 21.8824C29.2127 21.3394 28.724 20.905 28.0724 20.6335C27.4208 20.362 26.6606 20.1991 25.7919 20.1991H21.6652V30.2443H23.5113V27.3122H25.7919H26.1719ZM7.00452 30.2443L30.2443 7.05882V5.70136H28.9412L5.70136 28.9412V30.2443H7.00452ZM9.33853 13.9549C9.88152 14.2807 10.4788 14.3893 11.1304 14.3893C11.782 14.3893 12.3793 14.2264 12.9222 13.9549C13.4652 13.6291 13.8996 13.249 14.1711 12.706C14.4969 12.163 14.6055 11.5658 14.6055 10.9142C14.6055 10.2626 14.4426 9.66531 14.1711 9.12232C13.8453 8.57933 13.4652 8.14495 12.9222 7.87345C12.3793 7.54766 11.782 7.43906 11.1304 7.43906C10.4788 7.43906 9.88152 7.60196 9.33853 7.87345C8.79554 8.19924 8.36116 8.57933 8.08966 9.12232C7.76387 9.66531 7.65527 10.2626 7.65527 10.9142C7.65527 11.5658 7.81817 12.163 8.08966 12.706C8.36116 13.249 8.79554 13.6834 9.33853 13.9549ZM27.5842 22.3166C27.1498 21.9908 26.5525 21.7736 25.7381 21.7736H23.5661V25.7917H25.7381C26.5525 25.7917 27.1498 25.6288 27.5842 25.2487C28.0186 24.9229 28.2358 24.3799 28.2358 23.7826C28.1815 23.1311 27.9643 22.6424 27.5842 22.3166Z" fill="#FF6438"/>
</svg>
