<svg width="60" height="60" viewBox="0 0 60 60" fill="none" xmlns="http://www.w3.org/2000/svg">
<path d="M50.9502 0H9.04977C4.0724 0 0 4.0724 0 9.04977V50.9502C0 55.9276 4.0724 60 9.04977 60H50.9502C55.9276 60 60 55.9276 60 50.9502V9.04977C60 4.0724 55.9276 0 50.9502 0Z" fill="#FF6438"/>
<path d="M45.9722 37.1945C45.2482 36.6515 44.2528 36.2896 42.8953 36.2896H39.2754V42.9864H42.8953C44.2528 42.9864 45.2482 42.7149 45.9722 42.0814C46.6962 41.5384 47.0582 40.6334 47.0582 39.638C46.9677 38.552 46.6057 37.7375 45.9722 37.1945Z" fill="#FF6438"/>
<path d="M15.5652 23.2582C16.4702 23.8012 17.4656 23.9821 18.5516 23.9821C19.6376 23.9821 20.6331 23.7107 21.538 23.2582C22.443 22.7152 23.167 22.0817 23.6195 21.1767C24.1625 20.2717 24.3435 19.2763 24.3435 18.1903C24.3435 17.1043 24.072 16.1088 23.6195 15.2039C23.0765 14.2989 22.443 13.5749 21.538 13.1224C20.6331 12.5794 19.6376 12.3984 18.5516 12.3984C17.4656 12.3984 16.4702 12.6699 15.5652 13.1224C14.6602 13.6654 13.9362 14.2989 13.4837 15.2039C12.9408 16.1088 12.7598 17.1043 12.7598 18.1903C12.7598 19.2763 13.0313 20.2717 13.4837 21.1767C13.9362 22.0817 14.6602 22.8057 15.5652 23.2582Z" fill="#FF6438"/>
<path d="M49.2306 42.8958C49.8641 41.9908 50.1355 40.9049 50.1355 39.6379C50.1355 38.3709 49.8641 37.3754 49.2306 36.4705C48.6876 35.5655 47.8731 34.932 46.7871 34.389C45.7012 33.9365 44.4342 33.665 42.9862 33.665H36.1084V50.4071H39.1853V45.5202H42.9862C43.2577 45.5202 43.5292 45.5202 43.6197 45.5202L47.0586 50.4071H50.407L46.5156 44.8868C47.6921 44.4343 48.5971 43.8008 49.2306 42.8958ZM42.8957 42.9863H39.2758V36.2895H42.8957C44.2532 36.2895 45.2487 36.561 45.9726 37.1944C46.6966 37.7374 47.0586 38.5519 47.0586 39.6379C47.0586 40.7239 46.6966 41.5383 45.9726 42.0813C45.2487 42.7148 44.2532 42.9863 42.8957 42.9863Z" fill="#060C13"/>
<path d="M13.9363 25.611C15.2938 26.335 16.8323 26.697 18.5517 26.697C20.2712 26.697 21.8096 26.335 23.1671 25.611C24.5246 24.8871 25.6105 23.8011 26.425 22.5341C27.2395 21.2671 27.6015 19.7287 27.6015 18.0997C27.6015 16.4708 27.2395 15.0228 26.425 13.6653C25.6105 12.3984 24.5246 11.3124 23.1671 10.5884C21.8096 9.86443 20.2712 9.50244 18.5517 9.50244C16.8323 9.50244 15.2938 9.86443 13.9363 10.5884C12.5789 11.3124 11.4929 12.3984 10.6784 13.6653C9.86394 15.0228 9.50195 16.4708 9.50195 18.0997C9.50195 19.7287 9.86394 21.1766 10.6784 22.5341C11.4929 23.8916 12.5789 24.8871 13.9363 25.611ZM13.4839 15.1133C14.0268 14.2083 14.6603 13.4843 15.5653 13.0319C16.4703 12.4889 17.4658 12.3079 18.5517 12.3079C19.6377 12.3079 20.6332 12.5794 21.5382 13.0319C22.4431 13.5748 23.1671 14.2083 23.6196 15.1133C24.1626 16.0183 24.3436 17.0138 24.3436 18.0997C24.3436 19.1857 24.0721 20.1812 23.6196 21.0862C23.0766 21.9911 22.4431 22.7151 21.5382 23.1676C20.6332 23.6201 19.6377 23.8916 18.5517 23.8916C17.4658 23.8916 16.4703 23.6201 15.5653 23.1676C14.6603 22.6246 13.9363 21.9911 13.4839 21.0862C12.9409 20.1812 12.7599 19.1857 12.7599 18.0997C12.6694 17.0138 12.9409 16.0183 13.4839 15.1133Z" fill="#060C13"/>
<path d="M50.4072 11.6742V9.59277H48.2353L9.59277 48.2353V50.4072H11.6742L50.4072 11.6742Z" fill="#060C13"/>
</svg>
