<svg width="16" height="34" viewBox="0 0 16 34" fill="none" xmlns="http://www.w3.org/2000/svg">
<path d="M7.55556 15.1111C11.7207 15.1111 15.1111 18.4997 15.1111 22.6667C15.1111 26.1775 12.6933 29.1093 9.44444 29.9539V32.1111C9.44444 33.1552 8.59961 34 7.55556 34C6.5115 34 5.66667 33.1552 5.66667 32.1111V29.9539C2.41778 29.1093 0 26.1775 0 22.6667C0 21.6226 0.844837 20.7778 1.88889 20.7778C2.93294 20.7778 3.77778 21.6226 3.77778 22.6667C3.77778 24.7492 5.4711 26.4444 7.55556 26.4444C9.64001 26.4444 11.3333 24.7492 11.3333 22.6667C11.3333 20.5841 9.64001 18.8889 7.55556 18.8889C3.39043 18.8889 0 15.5003 0 11.3333C0 7.82252 2.41778 4.89071 5.66667 4.04613V1.88889C5.66667 0.844837 6.5115 0 7.55556 0C8.59961 0 9.44444 0.844837 9.44444 1.88889V4.04613C12.6933 4.89071 15.1111 7.82252 15.1111 11.3333C15.1111 12.3774 14.2663 13.2222 13.2222 13.2222C12.1782 13.2222 11.3333 12.3774 11.3333 11.3333C11.3333 9.25077 9.64001 7.55556 7.55556 7.55556C5.4711 7.55556 3.77778 9.25077 3.77778 11.3333C3.77778 13.4159 5.4711 15.1111 7.55556 15.1111Z" fill="url(#paint0_linear)"/>
<defs>
<linearGradient id="paint0_linear" x1="-2.11816" y1="2.22247e-07" x2="24.3661" y2="10.3379" gradientUnits="userSpaceOnUse">
<stop stop-color="#E95228"/>
<stop offset="1" stop-color="#EE9338"/>
</linearGradient>
</defs>
</svg>
