<svg width="29" height="30" viewBox="0 0 29 30" fill="none" xmlns="http://www.w3.org/2000/svg">
<path d="M25.0652 0H3.85763C1.73056 0 0 1.7305 0 3.85763V26.1424C0 28.2694 1.7305 30 3.85763 30H25.0652C27.1923 30 28.9229 28.2695 28.9229 26.1424V3.85763C28.9229 1.7305 27.1923 0 25.0652 0ZM10.7014 15.5666C11.1834 16.0878 11.449 16.7657 11.449 17.4757V18.1742H6.25821V17.4757C6.25821 16.7658 6.5237 16.0877 7.00581 15.5666C7.78997 14.7189 8.2218 13.6161 8.2218 12.4613V8.89715H9.48537V12.4613C9.48537 13.6162 9.91721 14.7189 10.7014 15.5666ZM11.449 19.9356V23.7465H6.25821V19.9356H11.449ZM11.449 28.2386H6.25827V25.5079H11.449V28.2386ZM22.6646 28.2386H17.4739V25.5079H22.6646V28.2386ZM21.9169 15.5666C22.3991 16.0878 22.6646 16.7658 22.6646 17.4757V18.1742H17.4739V17.4757C17.4739 16.7657 17.7393 16.0877 18.2215 15.5666C19.0056 14.7189 19.4374 13.616 19.4374 12.4613V8.89715H20.701V12.4613C20.7011 13.6162 21.1329 14.7189 21.9169 15.5666ZM22.6646 19.9356V23.7465H17.4739V19.9356H22.6646ZM27.1615 26.1423C27.1615 27.2982 26.2211 28.2386 25.0652 28.2386H24.4259V17.4758C24.4259 16.321 23.9941 15.2183 23.2099 14.3706C22.7279 13.8494 22.4623 13.1714 22.4623 12.4614V8.01655C22.4623 7.53016 22.0681 7.13589 21.5817 7.13589H18.5567C18.0703 7.13589 17.6761 7.53016 17.6761 8.01655V12.4614C17.6761 13.1714 17.4106 13.8494 16.9285 14.3706C16.1444 15.2183 15.7125 16.3211 15.7125 17.4758V28.2386H13.2103V17.4758C13.2103 16.321 12.7785 15.2182 11.9944 14.3706C11.5122 13.8494 11.2468 13.1714 11.2468 12.4614V8.01655C11.2468 7.53016 10.8524 7.13589 10.3661 7.13589H7.34114C6.85475 7.13589 6.46048 7.53016 6.46048 8.01655V12.4614C6.46048 13.1714 6.19499 13.8494 5.71288 14.3706C4.92878 15.2183 4.49689 16.3211 4.49689 17.4758V28.2386H3.85763C2.70169 28.2386 1.76132 27.2982 1.76132 26.1423V3.85763C1.76138 2.70175 2.70175 1.76132 3.85763 1.76132H25.0652C26.2212 1.76132 27.1615 2.70169 27.1615 3.85763V26.1423H27.1615Z" fill="#2D5286"/>
</svg>
