<svg width="24" height="24" viewBox="0 0 24 24" fill="none" xmlns="http://www.w3.org/2000/svg">
<path fill-rule="evenodd" clip-rule="evenodd" d="M0 12C0 5.39535 5.39535 0 12 0C18.6046 0 24 5.39535 24 12C24 18.6046 18.6046 24 12 24C5.39535 24 0 18.6046 0 12ZM1.67442 12C1.67442 17.6744 6.32558 22.3256 12 22.3256C17.6744 22.3256 22.3256 17.6744 22.3256 12C22.3256 6.32558 17.6744 1.67442 12 1.67442C6.32558 1.67442 1.67442 6.32558 1.67442 12ZM10.5114 7.34865C10.5114 6.51145 11.1626 5.86028 11.9998 5.86028C12.837 5.86028 13.4882 6.51145 13.4882 7.34865C13.4882 8.18586 12.837 8.83703 11.9998 8.83703C11.1626 8.83703 10.5114 8.18586 10.5114 7.34865ZM10.5114 11.9998C10.5114 11.1626 11.1626 10.5114 11.9998 10.5114C12.837 10.5114 13.4882 11.1626 13.4882 11.9998C13.4882 12.837 12.837 13.4882 11.9998 13.4882C11.1626 13.4882 10.5114 12.837 10.5114 11.9998ZM11.9998 15.1626C11.1626 15.1626 10.5114 15.8138 10.5114 16.651C10.5114 17.4882 11.1626 18.1394 11.9998 18.1394C12.837 18.1394 13.4882 17.4882 13.4882 16.651C13.4882 15.8138 12.837 15.1626 11.9998 15.1626Z" fill="#2D5286"/>
</svg>
