<svg width="22" height="26" viewBox="0 0 22 26" fill="none" xmlns="http://www.w3.org/2000/svg">
<path fill-rule="evenodd" clip-rule="evenodd" d="M10.9135 2.91992C7.241 2.91992 4.24602 5.91494 4.24602 9.63102V15.4329C4.24602 16.9525 3.49789 17.9571 2.54147 19.2413C2.49097 19.3091 2.4399 19.3777 2.38832 19.4472C2.35084 19.4998 2.31553 19.5501 2.2824 19.5982C2.29743 19.5983 2.31278 19.5984 2.32845 19.5984H2.33961H2.35098H2.36255H2.37433H2.38631H2.39849H2.41087H2.42346H2.43624H2.44922H2.4624H2.47578H2.48935H2.50312H2.51708H2.53124H2.54559H2.56013H2.57487H2.5898H2.60491H2.62022H2.63572H2.6514H2.66727H2.68333H2.69957H2.716H2.73261H2.74941H2.76639H2.78355H2.80089H2.81841H2.83611H2.85399H2.87205H2.89029H2.9087H2.92729H2.94606H2.96499H2.98411H3.00339H3.02285H3.04247H3.06227H3.08224H3.10238H3.12268H3.14315H3.16379H3.1846H3.20557H3.2267H3.248H3.26946H3.29108H3.31287H3.33481H3.35692H3.37918H3.4016H3.42418H3.44692H3.46981H3.49285H3.51606H3.53941H3.56292H3.58658H3.61039H3.63435H3.65846H3.68272H3.70713H3.73169H3.75639H3.78124H3.80624H3.83137H3.85666H3.88208H3.90765H3.93336H3.95921H3.9852H4.01133H4.03759H4.064H4.09054H4.11722H4.14403H4.17098H4.19806H4.22527H4.25262H4.28009H4.3077H4.33544H4.36331H4.3913H4.41943H4.44768H4.47605H4.50455H4.53318H4.56193H4.5908H4.6198H4.64891H4.67815H4.70751H4.73699H4.76658H4.79629H4.82612H4.85607H4.88613H4.91631H4.94659H4.977H5.00751H5.03814H5.06888H5.09972H5.13068H5.16174H5.19292H5.2242H5.25558H5.28707H5.31867H5.35037H5.38217H5.41408H5.44609H5.47819H5.5104H5.54271H5.57511H5.60762H5.64022H5.67291H5.70571H5.73859H5.77157H5.80465H5.83781H5.87107H5.90442H5.93786H5.97139H6.00501H6.03871H6.0725H6.10638H6.14035H6.17439H6.20853H6.24274H6.27704H6.31142H6.34588H6.38042H6.41504H6.44974H6.48452H6.51937H6.5543H6.58931H6.62439H6.65955H6.69478H6.73008H6.76545H6.80089H6.83641H6.87199H6.90764H6.94336H6.97915H7.015H7.05092H7.0869H7.12295H7.15906H7.19524H7.23147H7.26777H7.30413H7.34054H7.37702H7.41355H7.45014H7.48679H7.52349H7.56025H7.59706H7.63393H7.67085H7.70782H7.74484H7.78191H7.81903H7.8562H7.89341H7.93068H7.96799H8.00535H8.04275H8.0802H8.11769H8.15522H8.19279H8.23041H8.26806H8.30576H8.34349H8.38127H8.41908H8.45692H8.4948H8.53272H8.57067H8.60866H8.64667H8.68472H8.7228H8.76092H8.79906H8.83723H8.87542H8.91365H8.9519H8.99018H9.02848H9.06681H9.10516H9.14353H9.18193H9.22035H9.25878H9.29724H9.33572H9.37421H9.41272H9.45125H9.48979H9.52835H9.56693H9.60551H9.64411H9.68273H9.72135H9.75998H9.79863H9.83728H9.87594H9.91461H9.95328H9.99197H10.0307H10.0693H10.108H10.1467H10.1854H10.2241H10.2628H10.3015H10.3402H10.3789H10.4176H10.4563H10.495H10.5337H10.5724H10.611H10.6497H10.6884H10.727H10.7657H10.8043H10.8429H10.8815H10.9201H10.9587H10.9973H11.0358H11.0743H11.1129H11.1514H11.1899H11.2283H11.2668H11.3052H11.3436H11.382H11.4204H11.4587H11.497H11.5353H11.5736H11.6118H11.65H11.6882H11.7264H11.7645H11.8026H11.8407H11.8787H11.9167H11.9547H11.9926H12.0305H12.0684H12.1062H12.144H12.1818H12.2195H12.2571H12.2948H12.3324H12.3699H12.4074H12.4449H12.4823H12.5197H12.5571H12.5944H12.6316H12.6688H12.7059H12.743H12.7801H12.8171H12.854H12.8909H12.9278H12.9646H13.0013H13.038H13.0746H13.1112H13.1477H13.1841H13.2205H13.2568H13.2931H13.3293H13.3655H13.4015H13.4376H13.4735H13.5094H13.5452H13.581H13.6167H13.6523H13.6878H13.7233H13.7587H13.7941H13.8294H13.8645H13.8997H13.9347H13.9697H14.0046H14.0394H14.0741H14.1088H14.1434H14.1779H14.2123H14.2467H14.2809H14.3151H14.3492H14.3832H14.4171H14.451H14.4847H14.5184H14.552H14.5855H14.6189H14.6522H14.6854H14.7185H14.7516H14.7845H14.8173H14.8501H14.8827H14.9153H14.9478H14.9801H15.0124H15.0445H15.0766H15.1086H15.1404H15.1722H15.2038H15.2354H15.2668H15.2982H15.3294H15.3605H15.3915H15.4224H15.4532H15.4839H15.5145H15.545H15.5753H15.6056H15.6357H15.6657H15.6956H15.7254H15.755H15.7846H15.814H15.8433H15.8725H15.9015H15.9305H15.9593H15.988H16.0166H16.045H16.0733H16.1015H16.1296H16.1575H16.1853H16.213H16.2406H16.268H16.2953H16.3224H16.3495H16.3763H16.4031H16.4297H16.4562H16.4825H16.5087H16.5348H16.5607H16.5865H16.6122H16.6377H16.663H16.6882H16.7133H16.7383H16.763H16.7877H16.8122H16.8365H16.8607H16.8847H16.9086H16.9324H16.956H16.9794H17.0027H17.0258H17.0488H17.0716H17.0943H17.1168H17.1392H17.1614H17.1834H17.2053H17.227H17.2485H17.2699H17.2911H17.3122H17.3331H17.3538H17.3744H17.3948H17.415H17.4351H17.455H17.4747H17.4942H17.5136H17.5328H17.5519H17.5707H17.5894H17.6079H17.6262H17.6444H17.6624H17.6802H17.6978H17.7153H17.7325H17.7496H17.7665H17.7832H17.7997H17.8161H17.8322C18.0437 19.5984 18.2354 19.5992 18.4113 19.5999C18.715 19.6012 18.9714 19.6023 19.2007 19.5987C19.3669 19.5961 19.4989 19.591 19.6042 19.584C19.5828 19.5474 19.5567 19.505 19.5249 19.4565C19.3939 19.2559 19.2363 19.0477 19.0466 18.7971C18.9681 18.6934 18.8841 18.5825 18.7942 18.4619C18.5087 18.0786 18.1865 17.6248 17.9362 17.136C17.6864 16.6481 17.4756 16.0639 17.4756 15.4223V15.4123V15.4022V15.392V15.3818V15.3716V15.3613V15.3509V15.3405V15.3301V15.3196V15.309V15.2984V15.2877V15.277V15.2663V15.2554V15.2446V15.2337V15.2227V15.2117V15.2006V15.1895V15.1784V15.1672V15.1559V15.1446V15.1333V15.1219V15.1104V15.099V15.0874V15.0758V15.0642V15.0526V15.0409V15.0291V15.0173V15.0055V14.9936V14.9816V14.9697V14.9577V14.9456V14.9335V14.9214V14.9092V14.897V14.8847V14.8724V14.86V14.8477V14.8352V14.8228V14.8103V14.7977V14.7852V14.7725V14.7599V14.7472V14.7345V14.7217V14.7089V14.696V14.6832V14.6703V14.6573V14.6443V14.6313V14.6182V14.6052V14.592V14.5789V14.5657V14.5525V14.5392V14.5259V14.5126V14.4993V14.4859V14.4725V14.459V14.4455V14.432V14.4185V14.4049V14.3913V14.3777V14.364V14.3503V14.3366V14.3229V14.3091V14.2953V14.2815V14.2676V14.2537V14.2398V14.2259V14.2119V14.1979V14.1839V14.1699V14.1558V14.1417V14.1276V14.1135V14.0993V14.0851V14.0709V14.0567V14.0425V14.0282V14.0139V13.9996V13.9852V13.9709V13.9565V13.9421V13.9277V13.9132V13.8988V13.8843V13.8698V13.8552V13.8407V13.8262V13.8116V13.797V13.7824V13.7677V13.7531V13.7384V13.7238V13.7091V13.6944V13.6796V13.6649V13.6502V13.6354V13.6206V13.6058V13.591V13.5762V13.5613V13.5465V13.5316V13.5168V13.5019V13.487V13.4721V13.4571V13.4422V13.4273V13.4123V13.3974V13.3824V13.3674V13.3524V13.3374V13.3224V13.3074V13.2924V13.2773V13.2623V13.2473V13.2322V13.2172V13.2021V13.187V13.1719V13.1569V13.1418V13.1267V13.1116V13.0965V13.0814V13.0663V13.0512V13.0361V13.0209V13.0058V12.9907V12.9756V12.9605V12.9453V12.9302V12.9151V12.9V12.8848V12.8697V12.8546V12.8395V12.8243V12.8092V12.7941V12.779V12.7639V12.7487V12.7336V12.7185V12.7034V12.6883V12.6732V12.6581V12.643V12.628V12.6129V12.5978V12.5827V12.5677V12.5526V12.5376V12.5225V12.5075V12.4925V12.4774V12.4624V12.4474V12.4324V12.4174V12.4025V12.3875V12.3725V12.3576V12.3427V12.3277V12.3128V12.2979V12.283V12.2681V12.2533V12.2384V12.2236V12.2087V12.1939V12.1791V12.1643V12.1495V12.1348V12.12V12.1053V12.0906V12.0759V12.0612V12.0465V12.0319V12.0172V12.0026V11.988V11.9734V11.9588V11.9443V11.9298V11.9152V11.9008V11.8863V11.8718V11.8574V11.843V11.8286V11.8142V11.7999V11.7855V11.7712V11.7569V11.7427V11.7284V11.7142V11.7V11.6858V11.6717V11.6575V11.6434V11.6294V11.6153V11.6013V11.5873V11.5733V11.5593V11.5454V11.5315V11.5176V11.5038V11.49V11.4762V11.4624V11.4487V11.435V11.4213V11.4077V11.394V11.3804V11.3669V11.3534V11.3399V11.3264V11.313V11.2995V11.2862V11.2728V11.2595V11.2462V11.233V11.2198V11.2066V11.1935V11.1804V11.1673V11.1542V11.1412V11.1283V11.1153V11.1024V11.0896V11.0767V11.0639V11.0512V11.0385V11.0258V11.0132V11.0005V10.988V10.9755V10.963V10.9505V10.9381V10.9257V10.9134V10.9011V10.8889V10.8767V10.8645V10.8524V10.8403V10.8282V10.8162V10.8043V10.7924V10.7805V10.7687V10.7569V10.7452V10.7335V10.7218V10.7102V10.6987V10.6871V10.6757V10.6642V10.6529V10.6415V10.6303V10.619V10.6078V10.5967V10.5856V10.5746V10.5636V10.5526V10.5417V10.5309V10.5201V10.5093V10.4986V10.488V10.4774V10.4669V10.4564V10.4459V10.4355V10.4252V10.4149V10.4047V10.3945V10.3844V10.3743V10.3643V10.3544V10.3445V10.3346V10.3248V10.3151V10.3054V10.2958V10.2862V10.2767V10.2672V10.2578V10.2485V10.2392V10.23V10.2208V10.2117V10.2027V10.1937V10.1847V10.1759V10.1671V10.1583V10.1496V10.141V10.1324V10.1239V10.1155V10.1071V10.0988V10.0905V10.0824V10.0742V10.0662V10.0582V10.0502V10.0424V10.0345V10.0268V10.0191V10.0115V10.004V9.9965V9.98909V9.98175V9.97448V9.96727V9.96013V9.95305V9.94605V9.93911V9.93225V9.92545V9.91872V9.91206V9.90547V9.89895V9.89251V9.88613V9.87983V9.87359V9.86743V9.86134V9.85532V9.84938V9.84351V9.83771V9.83198V9.82633V9.82076V9.81525V9.80982V9.80447V9.79919V9.79399V9.78887V9.78382V9.77884V9.77395V9.76913V9.76438V9.75972V9.75513V9.75062V9.74619V9.74184V9.73757V9.73337V9.72926V9.72522V9.72127V9.7174V9.71361V9.70989V9.70626V9.70271V9.69925V9.69586V9.69256V9.68934V9.68621V9.68315V9.68019V9.6773V9.6745V9.67178V9.66915V9.6666V9.66414V9.66177V9.65948V9.65728V9.65516V9.65313V9.65119V9.64933V9.64756V9.64588V9.64429V9.64279V9.64138V9.64005V9.63881V9.63767V9.63661V9.63565V9.63477V9.63399V9.6333V9.63269V9.63218V9.63177V9.63144V9.63121V9.63107L18.4756 9.63102L19.4756 9.63107V9.63121V9.63144V9.63177V9.63218V9.63269V9.6333V9.63399V9.63477V9.63565V9.63661V9.63767V9.63881V9.64005V9.64138V9.64279V9.64429V9.64588V9.64756V9.64933V9.65119V9.65313V9.65516V9.65728V9.65948V9.66177V9.66414V9.6666V9.66915V9.67178V9.6745V9.6773V9.68019V9.68315V9.68621V9.68934V9.69256V9.69586V9.69925V9.70271V9.70626V9.70989V9.71361V9.7174V9.72127V9.72522V9.72926V9.73337V9.73757V9.74184V9.74619V9.75062V9.75513V9.75972V9.76438V9.76913V9.77395V9.77884V9.78382V9.78887V9.79399V9.79919V9.80447V9.80982V9.81525V9.82076V9.82633V9.83198V9.83771V9.84351V9.84938V9.85532V9.86134V9.86743V9.87359V9.87983V9.88613V9.89251V9.89895V9.90547V9.91206V9.91872V9.92545V9.93225V9.93911V9.94605V9.95305V9.96013V9.96727V9.97448V9.98175V9.98909V9.9965V10.004V10.0115V10.0191V10.0268V10.0345V10.0424V10.0502V10.0582V10.0662V10.0742V10.0824V10.0905V10.0988V10.1071V10.1155V10.1239V10.1324V10.141V10.1496V10.1583V10.1671V10.1759V10.1847V10.1937V10.2027V10.2117V10.2208V10.23V10.2392V10.2485V10.2578V10.2672V10.2767V10.2862V10.2958V10.3054V10.3151V10.3248V10.3346V10.3445V10.3544V10.3643V10.3743V10.3844V10.3945V10.4047V10.4149V10.4252V10.4355V10.4459V10.4564V10.4669V10.4774V10.488V10.4986V10.5093V10.5201V10.5309V10.5417V10.5526V10.5636V10.5746V10.5856V10.5967V10.6078V10.619V10.6303V10.6415V10.6529V10.6642V10.6757V10.6871V10.6987V10.7102V10.7218V10.7335V10.7452V10.7569V10.7687V10.7805V10.7924V10.8043V10.8162V10.8282V10.8403V10.8524V10.8645V10.8767V10.8889V10.9011V10.9134V10.9257V10.9381V10.9505V10.963V10.9755V10.988V11.0005V11.0132V11.0258V11.0385V11.0512V11.0639V11.0767V11.0896V11.1024V11.1153V11.1283V11.1412V11.1542V11.1673V11.1804V11.1935V11.2066V11.2198V11.233V11.2462V11.2595V11.2728V11.2862V11.2995V11.313V11.3264V11.3399V11.3534V11.3669V11.3804V11.394V11.4077V11.4213V11.435V11.4487V11.4624V11.4762V11.49V11.5038V11.5176V11.5315V11.5454V11.5593V11.5733V11.5873V11.6013V11.6153V11.6294V11.6434V11.6575V11.6717V11.6858V11.7V11.7142V11.7284V11.7427V11.7569V11.7712V11.7855V11.7999V11.8142V11.8286V11.843V11.8574V11.8718V11.8863V11.9008V11.9152V11.9298V11.9443V11.9588V11.9734V11.988V12.0026V12.0172V12.0319V12.0465V12.0612V12.0759V12.0906V12.1053V12.12V12.1348V12.1495V12.1643V12.1791V12.1939V12.2087V12.2236V12.2384V12.2533V12.2681V12.283V12.2979V12.3128V12.3277V12.3427V12.3576V12.3725V12.3875V12.4025V12.4174V12.4324V12.4474V12.4624V12.4774V12.4925V12.5075V12.5225V12.5376V12.5526V12.5677V12.5827V12.5978V12.6129V12.628V12.643V12.6581V12.6732V12.6883V12.7034V12.7185V12.7336V12.7487V12.7639V12.779V12.7941V12.8092V12.8243V12.8395V12.8546V12.8697V12.8848V12.9V12.9151V12.9302V12.9453V12.9605V12.9756V12.9907V13.0058V13.0209V13.0361V13.0512V13.0663V13.0814V13.0965V13.1116V13.1267V13.1418V13.1569V13.1719V13.187V13.2021V13.2172V13.2322V13.2473V13.2623V13.2773V13.2924V13.3074V13.3224V13.3374V13.3524V13.3674V13.3824V13.3974V13.4123V13.4273V13.4422V13.4571V13.4721V13.487V13.5019V13.5168V13.5316V13.5465V13.5613V13.5762V13.591V13.6058V13.6206V13.6354V13.6502V13.6649V13.6796V13.6944V13.7091V13.7238V13.7384V13.7531V13.7677V13.7824V13.797V13.8116V13.8262V13.8407V13.8552V13.8698V13.8843V13.8988V13.9132V13.9277V13.9421V13.9565V13.9709V13.9852V13.9996V14.0139V14.0282V14.0425V14.0567V14.0709V14.0851V14.0993V14.1135V14.1276V14.1417V14.1558V14.1699V14.1839V14.1979V14.2119V14.2259V14.2398V14.2537V14.2676V14.2815V14.2953V14.3091V14.3229V14.3366V14.3503V14.364V14.3777V14.3913V14.4049V14.4185V14.432V14.4455V14.459V14.4725V14.4859V14.4993V14.5126V14.5259V14.5392V14.5525V14.5657V14.5789V14.592V14.6052V14.6182V14.6313V14.6443V14.6573V14.6703V14.6832V14.696V14.7089V14.7217V14.7345V14.7472V14.7599V14.7725V14.7852V14.7977V14.8103V14.8228V14.8352V14.8477V14.86V14.8724V14.8847V14.897V14.9092V14.9214V14.9335V14.9456V14.9577V14.9697V14.9816V14.9936V15.0055V15.0173V15.0291V15.0409V15.0526V15.0642V15.0758V15.0874V15.099V15.1104V15.1219V15.1333V15.1446V15.1559V15.1672V15.1784V15.1895V15.2006V15.2117V15.2227V15.2337V15.2446V15.2554V15.2663V15.277V15.2877V15.2984V15.309V15.3196V15.3301V15.3405V15.3509V15.3613V15.3716V15.3818V15.392V15.4022V15.4123V15.4223C19.4756 15.6292 19.5456 15.8909 19.7164 16.2244C19.8866 16.557 20.1247 16.9 20.3982 17.2671C20.4618 17.3526 20.5297 17.4423 20.5995 17.5344C20.8057 17.8067 21.0274 18.0995 21.1994 18.3627C21.4064 18.6796 21.7135 19.1954 21.7007 19.7719L21.7007 19.7722C21.6935 20.0955 21.6352 20.5221 21.3468 20.8938C21.0478 21.279 20.637 21.4338 20.3041 21.5056C19.9811 21.5753 19.6075 21.5926 19.2319 21.5984C18.9843 21.6023 18.6937 21.6011 18.3735 21.5998C18.201 21.5991 18.0199 21.5984 17.8322 21.5984H17.8161H17.7997H17.7832H17.7665H17.7496H17.7325H17.7153H17.6978H17.6802H17.6624H17.6444H17.6262H17.6079H17.5894H17.5707H17.5519H17.5328H17.5136H17.4942H17.4747H17.455H17.4351H17.415H17.3948H17.3744H17.3538H17.3331H17.3122H17.2911H17.2699H17.2485H17.227H17.2053H17.1834H17.1614H17.1392H17.1168H17.0943H17.0716H17.0488H17.0258H17.0027H16.9794H16.956H16.9324H16.9086H16.8847H16.8607H16.8365H16.8122H16.7877H16.763H16.7383H16.7133H16.6882H16.663H16.6377H16.6122H16.5865H16.5607H16.5348H16.5087H16.4825H16.4562H16.4297H16.4031H16.3763H16.3495H16.3224H16.2953H16.268H16.2406H16.213H16.1853H16.1575H16.1296H16.1015H16.0733H16.045H16.0166H15.988H15.9593H15.9305H15.9015H15.8725H15.8433H15.814H15.7846H15.755H15.7254H15.6956H15.6657H15.6357H15.6056H15.5753H15.545H15.5145H15.4839H15.4532H15.4224H15.3915H15.3605H15.3294H15.2982H15.2668H15.2354H15.2038H15.1722H15.1404H15.1086H15.0766H15.0445H15.0124H14.9801H14.9478H14.9153H14.8827H14.8501H14.8173H14.7845H14.7516H14.7185H14.6854H14.6522H14.6189H14.5855H14.552H14.5184H14.4847H14.451H14.4171H14.3832H14.3492H14.3151H14.2809H14.2467H14.2123H14.1779H14.1434H14.1088H14.0741H14.0394H14.0046H13.9697H13.9347H13.8997H13.8645H13.8294H13.7941H13.7587H13.7233H13.6878H13.6523H13.6167H13.581H13.5452H13.5094H13.4735H13.4376H13.4015H13.3655H13.3293H13.2931H13.2568H13.2205H13.1841H13.1477H13.1112H13.0746H13.038H13.0013H12.9646H12.9278H12.8909H12.854H12.8171H12.7801H12.743H12.7059H12.6688H12.6316H12.5944H12.5571H12.5197H12.4823H12.4449H12.4074H12.3699H12.3324H12.2948H12.2571H12.2195H12.1818H12.144H12.1062H12.0684H12.0305H11.9926H11.9547H11.9167H11.8787H11.8407H11.8026H11.7645H11.7264H11.6882H11.65H11.6118H11.5736H11.5353H11.497H11.4587H11.4204H11.382H11.3436H11.3052H11.2668H11.2283H11.1899H11.1514H11.1129H11.0743H11.0358H10.9973H10.9587H10.9201H10.8815H10.8429H10.8043H10.7657H10.727H10.6884H10.6497H10.611H10.5724H10.5337H10.495H10.4563H10.4176H10.3789H10.3402H10.3015H10.2628H10.2241H10.1854H10.1467H10.108H10.0693H10.0307H9.99197H9.95328H9.91461H9.87594H9.83728H9.79863H9.75998H9.72135H9.68273H9.64411H9.60551H9.56693H9.52835H9.48979H9.45125H9.41272H9.37421H9.33572H9.29724H9.25878H9.22035H9.18193H9.14353H9.10516H9.06681H9.02848H8.99018H8.9519H8.91365H8.87542H8.83723H8.79906H8.76092H8.7228H8.68472H8.64667H8.60866H8.57067H8.53272H8.4948H8.45692H8.41908H8.38127H8.34349H8.30576H8.26806H8.23041H8.19279H8.15522H8.11769H8.0802H8.04275H8.00535H7.96799H7.93068H7.89341H7.8562H7.81903H7.78191H7.74484H7.70782H7.67085H7.63393H7.59706H7.56025H7.52349H7.48679H7.45014H7.41355H7.37702H7.34054H7.30413H7.26777H7.23147H7.19524H7.15906H7.12295H7.0869H7.05092H7.015H6.97915H6.94336H6.90764H6.87199H6.83641H6.80089H6.76545H6.73008H6.69478H6.65955H6.62439H6.58931H6.5543H6.51937H6.48452H6.44974H6.41504H6.38042H6.34588H6.31142H6.27704H6.24274H6.20853H6.17439H6.14035H6.10638H6.0725H6.03871H6.00501H5.97139H5.93786H5.90442H5.87107H5.83781H5.80465H5.77157H5.73859H5.70571H5.67291H5.64022H5.60762H5.57511H5.54271H5.5104H5.47819H5.44609H5.41408H5.38217H5.35037H5.31867H5.28707H5.25558H5.2242H5.19292H5.16174H5.13068H5.09972H5.06888H5.03814H5.00751H4.977H4.94659H4.91631H4.88613H4.85607H4.82612H4.79629H4.76658H4.73699H4.70751H4.67815H4.64891H4.6198H4.5908H4.56193H4.53318H4.50455H4.47605H4.44768H4.41943H4.3913H4.36331H4.33544H4.3077H4.28009H4.25262H4.22527H4.19806H4.17098H4.14403H4.11722H4.09054H4.064H4.03759H4.01133H3.9852H3.95921H3.93336H3.90765H3.88208H3.85666H3.83137H3.80624H3.78124H3.75639H3.73169H3.70713H3.68272H3.65846H3.63435H3.61039H3.58658H3.56292H3.53941H3.51606H3.49285H3.46981H3.44692H3.42418H3.4016H3.37918H3.35692H3.33481H3.31287H3.29108H3.26946H3.248H3.2267H3.20557H3.1846H3.16379H3.14315H3.12268H3.10238H3.08224H3.06227H3.04247H3.02285H3.00339H2.98411H2.96499H2.94606H2.92729H2.9087H2.89029H2.87205H2.85399H2.83611H2.81841H2.80089H2.78355H2.76639H2.74941H2.73261H2.716H2.69957H2.68333H2.66727H2.6514H2.63572H2.62022H2.60491H2.5898H2.57487H2.56013H2.54559H2.53124H2.51708H2.50312H2.48935H2.47578H2.4624H2.44922H2.43624H2.42346H2.41087H2.39849H2.38631H2.37433H2.36255H2.35098H2.33961H2.32845C1.82772 21.5984 1.35108 21.5503 0.958145 21.3883C0.511584 21.2042 0.100064 20.8307 0.0149289 20.2364C-0.052827 19.7634 0.124726 19.3433 0.252854 19.0904C0.395354 18.8091 0.588694 18.5261 0.765525 18.2782L0.776612 18.2629C1.91814 16.7248 2.24602 16.2485 2.24602 15.4329V9.63102C2.24602 4.81928 6.12755 0.919922 10.9135 0.919922C15.7298 0.919922 19.4756 4.84992 19.4756 9.63102H18.4756H17.4756C17.4756 5.90551 14.5769 2.91992 10.9135 2.91992ZM19.6957 19.8035C19.6954 19.8056 19.6951 19.8067 19.6951 19.8066C19.6951 19.8066 19.6953 19.8055 19.6957 19.8035Z" fill="#1D3557"/>
<path d="M7.36963 21.5288C7.65439 23.4592 9.0993 24.923 10.829 24.923C12.5587 24.923 14.0036 23.4592 14.2883 21.5288" stroke="#203A60" stroke-width="2" stroke-miterlimit="10" stroke-linecap="round" stroke-linejoin="round"/>
</svg>
