<svg width="26" height="30" viewBox="0 0 26 30" fill="none" xmlns="http://www.w3.org/2000/svg">
<path fill-rule="evenodd" clip-rule="evenodd" d="M3.6 0H22.1C24.1 0 25.7 1.6 25.7 3.6V26.2C25.7 28.2 24.1 29.8 22.1 29.8H3.6C1.6 29.8 0 28.2 0 26.2V3.6C0 1.6 1.6 0 3.6 0ZM22 28.1C23.1 28.1 23.9 27.2 23.9 26.2H24V3.6C24 2.5 23.1 1.7 22.1 1.7H3.6C2.5 1.7 1.7 2.6 1.7 3.6V26.2C1.7 27.3 2.6 28.1 3.6 28.1H22ZM6.2 9.0998H13.6C14.1 9.0998 14.5 8.6998 14.5 8.1998C14.5 7.6998 14.1 7.2998 13.6 7.2998H6.2C5.7 7.2998 5.3 7.6998 5.3 8.1998C5.3 8.6998 5.7 9.0998 6.2 9.0998ZM6.2 14.1001H20C20.5 14.1001 20.9 14.5001 20.9 15.0001C20.9 15.5001 20.5 15.9001 20 15.9001H6.2C5.7 15.9001 5.3 15.5001 5.3 15.0001C5.3 14.5001 5.7 14.1001 6.2 14.1001ZM6.2 20.7998H20C20.5 20.7998 20.9 21.1998 20.9 21.6998C20.9 22.1998 20.5 22.5998 20 22.5998H6.2C5.7 22.5998 5.3 22.1998 5.3 21.6998C5.3 21.1998 5.7 20.7998 6.2 20.7998Z" fill="#2D5286"/>
</svg>
