<svg width="20" height="26" viewBox="0 0 20 26" fill="none" xmlns="http://www.w3.org/2000/svg">
<path fill-rule="evenodd" clip-rule="evenodd" d="M1 10.1406C1 5.10048 5.10048 1 10.1406 1C15.1808 1 19.2812 5.10048 19.2812 10.1406C19.2812 13.3887 18.2891 14.6973 13.5214 20.9856L13.5214 20.9856C12.6993 22.0699 11.7676 23.2988 10.7032 24.7186C10.5704 24.8957 10.362 25 10.1407 25C9.91932 25 9.71091 24.8958 9.57812 24.7187C8.51135 23.2965 7.5785 22.0667 6.75513 20.9813L6.74598 20.9692C1.98976 14.6991 1 13.3943 1 10.1406ZM10.1405 23.1261C10.9767 22.0145 11.7257 21.0265 12.4009 20.136L12.4009 20.1359C17.0392 14.0182 17.875 12.9158 17.875 10.1406C17.875 5.87589 14.4053 2.40625 10.1406 2.40625C5.87589 2.40625 2.40625 5.87589 2.40625 10.1406C2.40625 12.9213 3.23987 14.0203 7.86634 20.1193C8.54527 21.0143 9.29856 22.0073 10.1405 23.1261ZM5.21875 10.1406C5.21875 7.4267 7.4267 5.21875 10.1406 5.21875C12.8545 5.21875 15.0625 7.4267 15.0625 10.1406C15.0625 12.8545 12.8545 15.0625 10.1406 15.0625C7.4267 15.0625 5.21875 12.8545 5.21875 10.1406ZM6.625 10.1406C6.625 12.0791 8.20211 13.6562 10.1406 13.6562C12.0791 13.6562 13.6562 12.0791 13.6562 10.1406C13.6562 8.20211 12.0791 6.625 10.1406 6.625C8.20211 6.625 6.625 8.20211 6.625 10.1406Z" fill="#E95228"/>
<path d="M13.5214 20.9856L13.3222 20.8345L13.3154 20.8435L13.3094 20.8531L13.5214 20.9856ZM13.5214 20.9856L13.7206 21.1367L13.7275 21.1277L13.7334 21.1181L13.5214 20.9856ZM10.7032 24.7186L10.9032 24.8686L10.9032 24.8686L10.7032 24.7186ZM9.57812 24.7187L9.37812 24.8687L9.37812 24.8687L9.57812 24.7187ZM6.75513 20.9813L6.95431 20.8302L6.9543 20.8302L6.75513 20.9813ZM6.74598 20.9692L6.5468 21.1203L6.54681 21.1203L6.74598 20.9692ZM12.4009 20.136L12.6001 20.2871L12.6031 20.283L12.4009 20.136ZM10.1405 23.1261L9.94072 23.2764L10.1405 23.5419L10.3403 23.2764L10.1405 23.1261ZM12.4009 20.1359L12.2017 19.9849L12.1987 19.9889L12.4009 20.1359ZM7.86634 20.1193L7.66716 20.2704H7.66716L7.86634 20.1193ZM10.1406 0.75C4.96241 0.75 0.75 4.96241 0.75 10.1406H1.25C1.25 5.23855 5.23855 1.25 10.1406 1.25V0.75ZM19.5312 10.1406C19.5312 4.96241 15.3188 0.75 10.1406 0.75V1.25C15.0427 1.25 19.0312 5.23855 19.0312 10.1406H19.5312ZM13.7207 21.1366C16.0989 17.9999 17.5529 16.0831 18.4077 14.5444C19.2742 12.9848 19.5312 11.8032 19.5312 10.1406H19.0312C19.0312 11.7261 18.7922 12.8228 17.9707 14.3016C17.1375 15.8013 15.7116 17.683 13.3222 20.8345L13.7207 21.1366ZM13.7334 21.1181L13.7334 21.1181L13.3094 20.8531L13.3094 20.8531L13.7334 21.1181ZM10.9032 24.8686C11.9672 23.4494 12.8985 22.2209 13.7206 21.1367L13.3222 20.8346C12.5001 21.9188 11.568 23.1482 10.5031 24.5687L10.9032 24.8686ZM10.1407 25.25C10.4408 25.25 10.7232 25.1086 10.9032 24.8686L10.5032 24.5687C10.4175 24.6828 10.2833 24.75 10.1407 24.75V25.25ZM9.37812 24.8687C9.55814 25.1087 9.84064 25.25 10.1407 25.25V24.75C9.998 24.75 9.86369 24.6828 9.77811 24.5687L9.37812 24.8687ZM6.55595 21.1324C7.37933 22.2178 8.31181 23.4471 9.37812 24.8687L9.77811 24.5687C8.71089 23.1459 7.77767 21.9156 6.95431 20.8302L6.55595 21.1324ZM6.54681 21.1203L6.55596 21.1324L6.9543 20.8302L6.94515 20.8181L6.54681 21.1203ZM0.75 10.1406C0.75 11.8058 1.00635 12.9879 1.87083 14.5451C2.72368 16.0814 4.17431 17.9927 6.5468 21.1203L6.94516 20.8181C4.56144 17.6757 3.13907 15.7995 2.30799 14.3024C1.48854 12.8263 1.25 11.7291 1.25 10.1406H0.75ZM12.2017 19.985C11.5265 20.8755 10.7772 21.8638 9.94069 22.9758L10.3403 23.2764C11.1761 22.1652 11.9249 21.1776 12.6001 20.287L12.2017 19.985ZM12.1987 19.9889L12.1987 19.989L12.6031 20.283L12.6031 20.283L12.1987 19.9889ZM17.625 10.1406C17.625 11.4877 17.426 12.4141 16.66 13.7613C15.8816 15.1303 14.5263 16.9188 12.2017 19.9849L12.6001 20.287C14.9138 17.2353 16.2956 15.4137 17.0946 14.0084C17.9061 12.5812 18.125 11.5688 18.125 10.1406H17.625ZM10.1406 2.65625C14.2673 2.65625 17.625 6.01396 17.625 10.1406H18.125C18.125 5.73782 14.5434 2.15625 10.1406 2.15625V2.65625ZM2.65625 10.1406C2.65625 6.01396 6.01396 2.65625 10.1406 2.65625V2.15625C5.73782 2.15625 2.15625 5.73782 2.15625 10.1406H2.65625ZM8.06552 19.9682C5.74679 16.9114 4.3951 15.1286 3.61874 13.7621C2.85482 12.4175 2.65625 11.4906 2.65625 10.1406H2.15625C2.15625 11.5713 2.37449 12.5842 3.184 14.0091C3.98106 15.412 5.35942 17.2281 7.66716 20.2704L8.06552 19.9682ZM10.3402 22.9758C9.49799 21.8566 8.74444 20.8632 8.06552 19.9682L7.66716 20.2704C8.34611 21.1654 9.09912 22.1581 9.94072 23.2764L10.3402 22.9758ZM10.1406 4.96875C7.28863 4.96875 4.96875 7.28863 4.96875 10.1406H5.46875C5.46875 7.56477 7.56477 5.46875 10.1406 5.46875V4.96875ZM15.3125 10.1406C15.3125 7.28863 12.9926 4.96875 10.1406 4.96875V5.46875C12.7165 5.46875 14.8125 7.56477 14.8125 10.1406H15.3125ZM10.1406 15.3125C12.9926 15.3125 15.3125 12.9926 15.3125 10.1406H14.8125C14.8125 12.7165 12.7165 14.8125 10.1406 14.8125V15.3125ZM4.96875 10.1406C4.96875 12.9926 7.28863 15.3125 10.1406 15.3125V14.8125C7.56477 14.8125 5.46875 12.7165 5.46875 10.1406H4.96875ZM10.1406 13.4062C8.34018 13.4062 6.875 11.9411 6.875 10.1406H6.375C6.375 12.2172 8.06404 13.9062 10.1406 13.9062V13.4062ZM13.4062 10.1406C13.4062 11.9411 11.9411 13.4062 10.1406 13.4062V13.9062C12.2172 13.9062 13.9062 12.2172 13.9062 10.1406H13.4062ZM10.1406 6.875C11.9411 6.875 13.4062 8.34018 13.4062 10.1406H13.9062C13.9062 8.06404 12.2172 6.375 10.1406 6.375V6.875ZM6.875 10.1406C6.875 8.34018 8.34018 6.875 10.1406 6.875V6.375C8.06404 6.375 6.375 8.06404 6.375 10.1406H6.875Z" fill="#E95228"/>
</svg>
