<svg width="40" height="32" viewBox="0 0 40 32" fill="none" xmlns="http://www.w3.org/2000/svg">
<path d="M38.3011 12.1464L37.4558 11.2514L34.489 3.25414C33.9834 1.90331 32.6906 1.00829 31.2486 1H10.058C8.61602 1 7.3232 1.90331 6.81768 3.25414L3.89227 11.1519L2.67403 12.279C1.61326 13.1823 1 14.5083 1 15.9006V27.5525C1.00829 29.4586 2.55801 31 4.46409 31H6.65193C8.55801 31 10.1077 29.4586 10.116 27.5525V25.8619H30.6685V27.5525C30.6768 29.4586 32.2265 31 34.1326 31H36.3204C38.2265 31 39.7762 29.4586 39.7845 27.5525V15.5939C39.7762 14.2928 39.2459 13.0497 38.3011 12.1464ZM8.37569 3.81768C8.64088 3.11326 9.31215 2.65746 10.058 2.65746H31.2569C32.0028 2.65746 32.674 3.12155 32.9392 3.81768L35.5249 10.779H33.5939C33.1381 7.67127 30.2459 5.52486 27.1381 5.98895C24.6602 6.35359 22.7127 8.3011 22.3481 10.779H5.79006L8.37569 3.81768ZM31.9033 10.779H24.0221C24.4779 8.59945 26.616 7.20718 28.7956 7.66298C30.3536 7.99447 31.5718 9.21271 31.9033 10.779ZM8.45856 27.5525C8.45028 28.547 7.64641 29.3425 6.65193 29.3425H4.46409C3.46961 29.3425 2.66575 28.547 2.65746 27.5525V25.3812C3.1547 25.7044 3.80939 25.8619 4.46409 25.8619H8.45856V27.5525ZM38.1271 27.5525C38.1188 28.547 37.3149 29.3425 36.3204 29.3425H34.1326C33.1381 29.3425 32.3343 28.5387 32.326 27.5525V25.8619H36.3204C36.9751 25.8619 37.6298 25.7044 38.1271 25.3812V27.5525ZM36.3204 24.2044H4.46409C3.4779 24.2127 2.66575 23.4254 2.65746 22.4309V15.9006C2.65746 14.989 3.06354 14.1188 3.75967 13.5304C3.76796 13.5221 3.78453 13.5055 3.79282 13.4972L4.91989 12.4365H36.3039L37.0994 13.2901C37.1077 13.3066 37.1326 13.3149 37.1409 13.3315C37.7624 13.9199 38.1188 14.7403 38.1188 15.5939V22.4309H38.1271C38.1188 23.4171 37.3066 24.2127 36.3204 24.2044Z" fill="#EE9338" stroke="#EE9338" stroke-width="0.25"/>
<path d="M11.9387 15.7512H5.72326C5.26746 15.7512 4.89453 16.1241 4.89453 16.5799V20.8893C4.89453 21.3451 5.26746 21.7181 5.72326 21.7181H11.9387C12.3945 21.7181 12.7675 21.3451 12.7675 20.8893V16.5799C12.7675 16.1241 12.3945 15.7512 11.9387 15.7512ZM11.11 20.0606H6.55199V17.4087H11.11V20.0606Z" fill="#EE9338" stroke="#EE9338" stroke-width="0.25"/>
<path d="M35.0608 15.7512H28.8453C28.3895 15.7512 28.0166 16.1241 28.0166 16.5799V20.8893C28.0166 21.3451 28.3895 21.7181 28.8453 21.7181H35.0608C35.5166 21.7181 35.8895 21.3451 35.8895 20.8893V16.5799C35.8895 16.1241 35.5166 15.7512 35.0608 15.7512ZM34.2321 20.0606H29.6741V17.4087H34.2321V20.0606Z" fill="#EE9338" stroke="#EE9338" stroke-width="0.25"/>
<path d="M24.3948 19.5894H16.3893C15.9335 19.5894 15.5605 19.9623 15.5605 20.4181C15.5605 20.8739 15.9335 21.2468 16.3893 21.2468H24.3948C24.8506 21.2468 25.2235 20.8739 25.2235 20.4181C25.2235 19.9623 24.8506 19.5894 24.3948 19.5894Z" fill="#EE9338" stroke="#EE9338" stroke-width="0.25"/>
<path d="M24.3948 16H16.3893C15.9335 16 15.5605 16.3729 15.5605 16.8287C15.5605 17.2845 15.9335 17.6575 16.3893 17.6575H24.3948C24.8506 17.6575 25.2235 17.2845 25.2235 16.8287C25.2235 16.3729 24.8506 16 24.3948 16Z" fill="#EE9338" stroke="#EE9338" stroke-width="0.25"/>
</svg>
