<svg width="32" height="25" viewBox="0 0 32 25" fill="none" xmlns="http://www.w3.org/2000/svg">
<path d="M29.8526 9.62179L29.1987 8.92949L26.9038 2.74359C26.5128 1.69872 25.5128 1.00641 24.3974 1H8.00641C6.89103 1 5.89103 1.69872 5.5 2.74359L3.23718 8.85256L2.29487 9.72436C1.47436 10.4231 1 11.4487 1 12.5256V21.5385C1.00641 23.0128 2.20513 24.2051 3.67949 24.2051H5.37179C6.84615 24.2051 8.04487 23.0128 8.05128 21.5385V20.2308H23.9487V21.5385C23.9551 23.0128 25.1538 24.2051 26.6282 24.2051H28.3205C29.7949 24.2051 30.9936 23.0128 31 21.5385V12.2885C30.9936 11.2821 30.5833 10.3205 29.8526 9.62179ZM6.70513 3.17949C6.91026 2.63462 7.42949 2.28205 8.00641 2.28205H24.4038C24.9808 2.28205 25.5 2.64103 25.7051 3.17949L27.7051 8.5641H26.2115C25.859 6.16026 23.6218 4.5 21.2179 4.85897C19.3013 5.14103 17.7949 6.64744 17.5128 8.5641H4.70513L6.70513 3.17949ZM24.9038 8.5641H18.8077C19.1603 6.8782 20.8141 5.80128 22.5 6.15385C23.7051 6.41026 24.6474 7.35256 24.9038 8.5641ZM6.76923 21.5385C6.76282 22.3077 6.14103 22.9231 5.37179 22.9231H3.67949C2.91026 22.9231 2.28846 22.3077 2.28205 21.5385V19.859C2.66667 20.109 3.17308 20.2308 3.67949 20.2308H6.76923V21.5385ZM29.718 21.5385C29.7115 22.3077 29.0897 22.9231 28.3205 22.9231H26.6282C25.859 22.9231 25.2372 22.3013 25.2308 21.5385V20.2308H28.3205C28.8269 20.2308 29.3333 20.109 29.718 19.859V21.5385ZM28.3205 18.9487H3.67949C2.91667 18.9551 2.28846 18.3462 2.28205 17.5769V12.5256C2.28205 11.8205 2.59615 11.1474 3.13462 10.6923C3.14103 10.6859 3.15385 10.6731 3.16026 10.6667L4.03205 9.84615H28.3077L28.9231 10.5064C28.9295 10.5192 28.9487 10.5256 28.9551 10.5385C29.4359 10.9936 29.7115 11.6282 29.7115 12.2885V17.5769H29.718C29.7115 18.3397 29.0833 18.9551 28.3205 18.9487Z" fill="#1D3557" stroke="#1D3557" stroke-width="0.25"/>
<path d="M9.46154 12.4102H4.65384C4.30128 12.4102 4.01282 12.6986 4.01282 13.0512V16.3845C4.01282 16.7371 4.30128 17.0255 4.65384 17.0255H9.46154C9.8141 17.0255 10.1026 16.7371 10.1026 16.3845V13.0512C10.1026 12.6986 9.8141 12.4102 9.46154 12.4102ZM8.82051 15.7435H5.29487V13.6922H8.82051V15.7435Z" fill="#1D3557" stroke="#1D3557" stroke-width="0.25"/>
<path d="M27.3462 12.4102H22.5385C22.1859 12.4102 21.8975 12.6986 21.8975 13.0512V16.3845C21.8975 16.7371 22.1859 17.0255 22.5385 17.0255H27.3462C27.6987 17.0255 27.9872 16.7371 27.9872 16.3845V13.0512C27.9872 12.6986 27.6987 12.4102 27.3462 12.4102ZM26.7052 15.7435H23.1795V13.6922H26.7052V15.7435Z" fill="#1D3557" stroke="#1D3557" stroke-width="0.25"/>
<path d="M19.0963 15.3789H12.904C12.5514 15.3789 12.2629 15.6674 12.2629 16.0199C12.2629 16.3725 12.5514 16.661 12.904 16.661H19.0963C19.4488 16.661 19.7373 16.3725 19.7373 16.0199C19.7373 15.6674 19.4488 15.3789 19.0963 15.3789Z" fill="#1D3557" stroke="#1D3557" stroke-width="0.25"/>
<path d="M19.0962 12.6025H12.9038C12.5513 12.6025 12.2628 12.891 12.2628 13.2436C12.2628 13.5961 12.5513 13.8846 12.9038 13.8846H19.0962C19.4487 13.8846 19.7372 13.5961 19.7372 13.2436C19.7372 12.891 19.4487 12.6025 19.0962 12.6025Z" fill="#1D3557" stroke="#1D3557" stroke-width="0.25"/>
</svg>
