<svg width="59" height="16" viewBox="0 0 59 16" fill="none" xmlns="http://www.w3.org/2000/svg">
<path fill-rule="evenodd" clip-rule="evenodd" d="M34.994 0.309488H39.5419L39.5425 0.308902C41.0641 0.308902 42.2105 0.711156 42.8573 1.4711C43.4454 2.16244 43.6407 3.1499 43.4372 4.40591C42.9857 7.27975 41.257 8.72868 38.2607 8.72868H36.8217C36.5109 8.72868 36.2459 8.95561 36.1978 9.26228L35.6759 12.5694C35.6419 12.7841 35.4566 12.9424 35.2391 12.9424H32.9053C32.7945 12.9422 32.6894 12.8936 32.6175 12.8094C32.5456 12.7252 32.5141 12.6138 32.5312 12.5044L34.3689 0.843091C34.4179 0.535816 34.6828 0.309643 34.994 0.309488ZM37.3658 6.2014C38.5714 6.2014 39.8181 6.2014 40.0667 4.56893C40.157 3.99604 40.0849 3.58088 39.8462 3.30118C39.4463 2.83384 38.6711 2.83384 37.8502 2.83384H37.5353C37.3488 2.83384 37.1905 2.96929 37.1612 3.15341L36.6798 6.2014H37.3658Z" fill="#009CDE"/>
<path fill-rule="evenodd" clip-rule="evenodd" d="M18.5197 4.51542H20.6975L20.6969 4.516C20.8078 4.51587 20.9133 4.5643 20.9855 4.64855C21.0576 4.7328 21.0893 4.84442 21.0722 4.95402L19.8947 12.4086C19.8461 12.7165 19.581 12.9422 19.2702 12.9422H17.3094C17.1985 12.9424 17.0931 12.8939 17.021 12.8097C16.9489 12.7254 16.9174 12.6138 16.9347 12.5042L17.032 11.8991C17.032 11.8991 15.9566 13.1445 14.0169 13.1445C12.8869 13.1445 11.9388 12.8191 11.2744 12.0375C10.5508 11.1866 10.2553 9.96754 10.4635 8.691C10.8634 6.1344 12.9186 4.31077 15.3245 4.31077C16.3741 4.31077 17.4255 4.54004 17.8969 5.22434L18.0494 5.44482L18.1444 4.83616C18.1733 4.65135 18.3326 4.51519 18.5197 4.51542ZM2.55558 0.30875H7.10351L7.1041 0.308164C8.62575 0.308164 9.77211 0.710418 10.4189 1.47036C11.007 2.1617 11.2023 3.14916 10.9988 4.40518C10.5473 7.27901 8.81866 8.72853 5.82228 8.72853H4.38331C4.07253 8.72853 3.80749 8.95487 3.75941 9.26213L3.26275 12.408C3.21408 12.7153 2.94962 12.9416 2.63884 12.9416H0.466904C0.356101 12.9416 0.250857 12.8931 0.178896 12.8089C0.106935 12.7246 0.0754722 12.6131 0.0927959 12.5036L1.93109 0.842353C1.97976 0.535092 2.2448 0.30875 2.55558 0.30875ZM4.92688 6.20066C6.13306 6.20066 7.3797 6.20066 7.62832 4.56819C7.71862 3.9953 7.6465 3.58014 7.40726 3.30044C7.00735 2.8331 6.23216 2.8331 5.41123 2.8331H5.09635C4.90988 2.8331 4.75156 2.96855 4.72224 3.15268L4.24082 6.20066H4.92688ZM17.6624 8.75492C17.4513 9.99921 16.4644 10.8348 15.2043 10.8348C14.5728 10.8348 14.0667 10.6313 13.7419 10.2467C13.4194 9.86551 13.2986 9.32194 13.4006 8.71739C13.5965 7.48365 14.6003 6.62168 15.8411 6.62168C16.4597 6.62168 16.9611 6.82691 17.293 7.21509C17.6266 7.60621 17.758 8.15271 17.6624 8.75492Z" fill="#003087"/>
<path fill-rule="evenodd" clip-rule="evenodd" d="M50.958 4.51542H53.1358L53.1353 4.516C53.2462 4.51587 53.3516 4.5643 53.4238 4.64855C53.496 4.7328 53.5277 4.84442 53.5105 4.95402L52.3331 12.4086C52.2838 12.7165 52.0188 12.9422 51.708 12.9422L49.7478 12.9422C49.6369 12.9425 49.5316 12.894 49.4597 12.8096C49.3877 12.7253 49.3565 12.6136 49.3742 12.5042L49.4716 11.8991C49.4716 11.8991 48.3962 13.1445 46.4558 13.1445C45.3259 13.1445 44.3777 12.8191 43.7134 12.0375C42.9898 11.1866 42.6936 9.96754 42.9018 8.691C43.3023 6.1344 45.3576 4.31077 47.7629 4.31077C48.8125 4.31077 49.8639 4.54004 50.3353 5.22434L50.4878 5.44482L50.5828 4.83616C50.6117 4.65135 50.771 4.51519 50.958 4.51542ZM47.6427 10.8348C48.9028 10.8348 49.8897 9.99921 50.1008 8.75492C50.1963 8.15271 50.065 7.60621 49.7313 7.21509C49.3994 6.82691 48.8981 6.62168 48.2795 6.62168C47.0381 6.62168 46.0348 7.48365 45.839 8.71739C45.7369 9.32194 45.8577 9.86551 46.1802 10.2467C46.5051 10.6313 47.0111 10.8348 47.6427 10.8348Z" fill="#009CDE"/>
<path fill-rule="evenodd" clip-rule="evenodd" d="M32.2966 4.51629H30.107C29.8977 4.51629 29.7024 4.62008 29.5852 4.79365L26.5653 9.24073L25.2853 4.96721C25.2051 4.69957 24.9589 4.51611 24.6795 4.5157H22.5281C22.4057 4.51576 22.2909 4.57487 22.2197 4.67444C22.1485 4.77401 22.1297 4.9018 22.1693 5.01764L24.5793 12.0929L22.3123 15.2915C22.2307 15.4073 22.2203 15.5589 22.2854 15.6847C22.3505 15.8105 22.4803 15.8895 22.622 15.8896H24.8091C25.0155 15.8896 25.2096 15.7882 25.3281 15.6182L32.6074 5.11146C32.6879 4.9957 32.6975 4.84477 32.6322 4.71976C32.5669 4.59474 32.4376 4.51634 32.2966 4.51629Z" fill="#003087"/>
<path fill-rule="evenodd" clip-rule="evenodd" d="M55.7024 0.62965L53.8354 12.5044C53.8182 12.6139 53.8499 12.7254 53.9219 12.8096C53.994 12.8938 54.0992 12.9423 54.2101 12.9424H56.0871C56.3978 12.9424 56.6629 12.716 56.7115 12.4088L58.5522 0.746925C58.5695 0.637383 58.538 0.525744 58.4659 0.441467C58.3938 0.35719 58.2884 0.30874 58.1775 0.308902H56.0771C55.8903 0.308426 55.7311 0.444445 55.7024 0.629064" fill="#009CDE"/>
</svg>
