<svg width="36" height="32" viewBox="0 0 36 32" fill="none" xmlns="http://www.w3.org/2000/svg">
<path fill-rule="evenodd" clip-rule="evenodd" d="M19.4247 6.74571C19.4247 9.91319 17.1628 12.4901 14.3827 12.4901C11.6028 12.4901 9.34116 9.91319 9.34116 6.74571C9.34116 3.57745 11.6028 1 14.3827 1C17.1628 1 19.4247 3.57745 19.4247 6.74571ZM17.4127 6.74571C17.4127 4.68705 16.0532 3.01205 14.3827 3.01205C12.7121 3.01205 11.3532 4.68705 11.3532 6.74571C11.3532 8.80359 12.7121 10.4781 14.3827 10.4781C16.0532 10.4781 17.4127 8.80359 17.4127 6.74571ZM7.16082 17.0394C8.26806 16.6141 9.10923 15.7218 9.52956 14.5269C9.92919 13.3898 9.89645 12.106 9.43685 10.9118C8.97698 9.71842 8.14053 8.74422 7.08174 8.16834C5.969 7.56365 4.74679 7.46518 3.64138 7.89127C1.41747 8.74631 0.396912 11.4945 1.36666 14.0188C2.14131 16.028 3.94804 17.2963 5.77468 17.2963C6.24109 17.2963 6.70881 17.2135 7.16082 17.0394ZM3.24436 13.296C2.67294 11.8085 3.17497 10.2262 4.36418 9.76897C4.57892 9.68621 4.80597 9.6451 5.03774 9.6451C5.39547 9.6451 5.76499 9.74278 6.12063 9.93631C6.76014 10.2838 7.27108 10.8872 7.55915 11.6349C7.84696 12.3831 7.87262 13.1729 7.63117 13.8593C7.40987 14.4884 6.98641 14.9508 6.43907 15.1611L6.43803 15.1617C5.25039 15.6194 3.81763 14.7822 3.24436 13.296ZM23.954 17.0467C22.4094 14.6371 19.7788 13.1983 16.9169 13.1983C14.0553 13.1983 11.4245 14.6371 9.88015 17.0467L6.15827 22.8529C5.54075 23.8164 5.25582 24.9291 5.33412 26.0706C5.41243 27.2125 5.84689 28.2757 6.59038 29.1459C7.33439 30.0159 8.31749 30.6104 9.43338 30.8655C10.5493 31.1203 11.6932 31.0116 12.7412 30.5509L12.8096 30.5206C15.447 29.3837 18.4615 29.3939 21.0924 30.5509C21.7709 30.8492 22.4898 31.0001 23.2152 31.0001C23.6096 31.0001 24.0064 30.9553 24.3995 30.8657C25.5153 30.6109 26.4985 30.0164 27.2427 29.1465C27.9865 28.2765 28.4212 27.213 28.4998 26.0712C28.5783 24.9291 28.2934 23.8164 27.6759 22.8526L23.954 17.0467ZM25.7136 27.8386C24.7669 28.9453 23.2354 29.2952 21.9024 28.7091C20.318 28.0122 18.6173 27.6639 16.9162 27.6639C15.2165 27.6639 13.5161 28.012 11.9328 28.7081L11.8877 28.728C10.565 29.2873 9.056 28.933 8.11977 27.8386C7.17411 26.7316 7.06648 25.1645 7.85213 23.9387L11.5743 18.1324C12.747 16.3029 14.7441 15.2106 16.9169 15.2106C19.0898 15.2106 21.0872 16.3029 22.2601 18.1324L25.9818 23.9384C26.7677 25.1648 26.6598 26.7322 25.7136 27.8386ZM23.0903 13.9011H23.0906C23.5183 14.0431 23.9546 14.1109 24.389 14.1109C26.4165 14.1109 28.3924 12.6352 29.1464 10.3673C29.5806 9.06181 29.552 7.68142 29.066 6.48069C28.5574 5.22391 27.6149 4.31151 26.4118 3.91136C25.2087 3.51172 23.9069 3.67828 22.747 4.38065C21.639 5.05186 20.79 6.14024 20.3566 7.44573C19.4413 10.1997 20.6677 13.0956 23.0903 13.9011ZM22.2659 8.08027C22.549 7.22784 23.0901 6.52547 23.7896 6.10174C24.4367 5.70971 25.1427 5.60993 25.7773 5.82074C26.4115 6.03182 26.917 6.53411 27.2009 7.23544C27.5075 7.99332 27.5206 8.88006 27.237 9.73249C26.6716 11.4337 25.0961 12.4472 23.7252 11.9918C22.3552 11.5361 21.7005 9.78146 22.2659 8.08027ZM33.707 13.23L33.7078 13.2308C35.6224 14.6486 35.8733 17.5694 34.2672 19.7419C33.244 21.1231 31.713 21.8742 30.2415 21.8742C29.3972 21.8742 28.5722 21.627 27.8741 21.1098C25.9597 19.6924 25.7086 16.7717 27.3147 14.5991C28.9224 12.4276 31.7897 11.8137 33.707 13.23ZM29.0714 19.4926C30.0956 20.2513 31.7007 19.8263 32.65 18.5449C33.5959 17.2651 33.5339 15.6068 32.5112 14.8484C32.1666 14.5936 31.7565 14.4726 31.328 14.4726C30.4808 14.4726 29.5616 14.9456 28.9323 15.7956C27.9856 17.0762 28.048 18.735 29.0714 19.4926Z" fill="#2D5286"/>
<path d="M9.52956 14.5269L9.62389 14.56L9.6239 14.56L9.52956 14.5269ZM7.16082 17.0394L7.12497 16.946L7.12487 16.946L7.16082 17.0394ZM9.43685 10.9118L9.53018 10.8759L9.53016 10.8759L9.43685 10.9118ZM7.08174 8.16834L7.12952 8.08049L7.12948 8.08047L7.08174 8.16834ZM3.64138 7.89127L3.67727 7.98461L3.67735 7.98457L3.64138 7.89127ZM1.36666 14.0188L1.27332 14.0547L1.27336 14.0548L1.36666 14.0188ZM4.36418 9.76897L4.40006 9.8623L4.40013 9.86228L4.36418 9.76897ZM3.24436 13.296L3.15102 13.3319L3.15106 13.332L3.24436 13.296ZM6.12063 9.93631L6.07283 10.0241L6.07288 10.0242L6.12063 9.93631ZM7.55915 11.6349L7.65248 11.599L7.65246 11.5989L7.55915 11.6349ZM7.63117 13.8593L7.7255 13.8925L7.7255 13.8925L7.63117 13.8593ZM6.43907 15.1611L6.40304 15.0674L6.39435 15.0717L6.43907 15.1611ZM6.43803 15.1617L6.47416 15.2554L6.48275 15.2511L6.43803 15.1617ZM23.954 17.0467L23.8698 17.1006L23.8698 17.1006L23.954 17.0467ZM9.88015 17.0467L9.96434 17.1006L9.96434 17.1006L9.88015 17.0467ZM6.15827 22.8529L6.07408 22.7989L6.07408 22.7989L6.15827 22.8529ZM5.33412 26.0706L5.43389 26.0638L5.43389 26.0638L5.33412 26.0706ZM6.59038 29.1459L6.51435 29.2109L6.51438 29.2109L6.59038 29.1459ZM9.43338 30.8655L9.41109 30.9629L9.41112 30.9629L9.43338 30.8655ZM12.7412 30.5509L12.7815 30.6425L12.7818 30.6423L12.7412 30.5509ZM12.8096 30.5206L12.77 30.4287L12.769 30.4292L12.8096 30.5206ZM21.0924 30.5509L21.0521 30.6425L21.0522 30.6425L21.0924 30.5509ZM24.3995 30.8657L24.4217 30.9632L24.4217 30.9632L24.3995 30.8657ZM27.2427 29.1465L27.3187 29.2115L27.3187 29.2114L27.2427 29.1465ZM28.4998 26.0712L28.5995 26.078L28.5995 26.078L28.4998 26.0712ZM27.6759 22.8526L27.7601 22.7987L27.7601 22.7987L27.6759 22.8526ZM21.9024 28.7091L21.8621 28.8006L21.8622 28.8007L21.9024 28.7091ZM25.7136 27.8386L25.7896 27.9036L25.7896 27.9036L25.7136 27.8386ZM11.9328 28.7081L11.8925 28.6165L11.8924 28.6166L11.9328 28.7081ZM11.8877 28.728L11.9267 28.8201L11.9282 28.8194L11.8877 28.728ZM8.11977 27.8386L8.04374 27.9036L8.04378 27.9036L8.11977 27.8386ZM7.85213 23.9387L7.76794 23.8847L7.76793 23.8847L7.85213 23.9387ZM11.5743 18.1324L11.6585 18.1864L11.6585 18.1864L11.5743 18.1324ZM22.2601 18.1324L22.3443 18.0785L22.3443 18.0785L22.2601 18.1324ZM25.9818 23.9384L26.066 23.8844L26.0659 23.8844L25.9818 23.9384ZM23.0906 13.9011L23.1221 13.8062L23.1068 13.8011H23.0906V13.9011ZM23.0903 13.9011L23.0588 13.996L23.0742 14.0011H23.0903V13.9011ZM29.1464 10.3673L29.0515 10.3357L29.0515 10.3357L29.1464 10.3673ZM29.066 6.48069L28.9733 6.5182L28.9733 6.51821L29.066 6.48069ZM26.4118 3.91136L26.4434 3.81647L26.4433 3.81645L26.4118 3.91136ZM22.747 4.38065L22.6952 4.29511L22.6952 4.29512L22.747 4.38065ZM20.3566 7.44573L20.4515 7.47727L20.4515 7.47724L20.3566 7.44573ZM23.7896 6.10174L23.8414 6.18728L23.8414 6.18727L23.7896 6.10174ZM22.2659 8.08027L22.3608 8.11181L22.3608 8.11179L22.2659 8.08027ZM25.7773 5.82074L25.8088 5.72586L25.8088 5.72584L25.7773 5.82074ZM27.2009 7.23544L27.2936 7.19793L27.2936 7.19791L27.2009 7.23544ZM27.237 9.73249L27.1421 9.70092L27.1421 9.70095L27.237 9.73249ZM23.7252 11.9918L23.6936 12.0866L23.6936 12.0867L23.7252 11.9918ZM33.7078 13.2308L33.6371 13.3015L33.6423 13.3067L33.6483 13.3111L33.7078 13.2308ZM33.707 13.23L33.7776 13.1592L33.7724 13.154L33.7664 13.1495L33.707 13.23ZM34.2672 19.7419L34.3475 19.8015L34.3476 19.8014L34.2672 19.7419ZM27.8741 21.1098L27.9336 21.0294L27.9336 21.0294L27.8741 21.1098ZM27.3147 14.5991L27.2343 14.5396L27.2343 14.5396L27.3147 14.5991ZM32.65 18.5449L32.7304 18.6044L32.7304 18.6043L32.65 18.5449ZM29.0714 19.4926L29.1309 19.4123L29.1309 19.4123L29.0714 19.4926ZM32.5112 14.8484L32.5708 14.7681L32.5707 14.768L32.5112 14.8484ZM28.9323 15.7956L28.852 15.7361L28.8519 15.7362L28.9323 15.7956ZM14.3827 12.5901C17.2299 12.5901 19.5247 9.95576 19.5247 6.74571H19.3247C19.3247 9.87061 17.0957 12.3901 14.3827 12.3901V12.5901ZM9.24116 6.74571C9.24116 9.95575 11.5357 12.5901 14.3827 12.5901V12.3901C11.6699 12.3901 9.44116 9.87062 9.44116 6.74571H9.24116ZM14.3827 0.9C11.5357 0.9 9.24116 3.53491 9.24116 6.74571H9.44116C9.44116 3.62 11.6699 1.1 14.3827 1.1V0.9ZM19.5247 6.74571C19.5247 3.5349 17.2299 0.9 14.3827 0.9V1.1C17.0957 1.1 19.3247 3.62001 19.3247 6.74571H19.5247ZM14.3827 3.11205C15.9795 3.11205 17.3127 4.72176 17.3127 6.74571H17.5127C17.5127 4.65234 16.1269 2.91205 14.3827 2.91205V3.11205ZM11.4532 6.74571C11.4532 4.72173 12.7859 3.11205 14.3827 3.11205V2.91205C12.6384 2.91205 11.2532 4.65237 11.2532 6.74571H11.4532ZM14.3827 10.3781C12.7858 10.3781 11.4532 8.76887 11.4532 6.74571H11.2532C11.2532 8.8383 12.6384 10.5781 14.3827 10.5781V10.3781ZM17.3127 6.74571C17.3127 8.76885 15.9795 10.3781 14.3827 10.3781V10.5781C16.1269 10.5781 17.5127 8.83833 17.5127 6.74571H17.3127ZM9.43522 14.4937C9.02387 15.6631 8.20279 16.532 7.12497 16.946L7.19668 17.1327C8.33334 16.6961 9.19459 15.7805 9.62389 14.56L9.43522 14.4937ZM9.34352 10.9477C9.79516 12.1212 9.82646 13.3805 9.43521 14.4937L9.6239 14.56C10.0319 13.3991 9.99775 12.0908 9.53018 10.8759L9.34352 10.9477ZM7.03396 8.25619C8.07056 8.82 8.89165 9.77508 9.34354 10.9478L9.53016 10.8759C9.06232 9.66177 8.2105 8.66844 7.12952 8.08049L7.03396 8.25619ZM3.67735 7.98457C4.75332 7.56984 5.94498 7.66441 7.03399 8.2562L7.12948 8.08047C5.99301 7.46289 4.74025 7.36053 3.60541 7.79796L3.67735 7.98457ZM1.46001 13.9829C0.505672 11.4988 1.51562 8.81571 3.67727 7.98461L3.60549 7.79793C1.31932 8.67692 0.288151 11.4903 1.27332 14.0547L1.46001 13.9829ZM5.77468 17.1963C3.99415 17.1963 2.22153 15.9581 1.45997 13.9828L1.27336 14.0548C2.06109 16.0979 3.90193 17.3963 5.77468 17.3963V17.1963ZM7.12487 16.946C6.68467 17.1156 6.22916 17.1963 5.77468 17.1963V17.3963C6.25302 17.3963 6.73296 17.3114 7.19678 17.1327L7.12487 16.946ZM4.32829 9.67563C3.06911 10.1598 2.5677 11.8134 3.15102 13.3319L3.33771 13.2601C2.77817 11.8036 3.28082 10.2927 4.40006 9.8623L4.32829 9.67563ZM5.03774 9.5451C4.79405 9.5451 4.55478 9.58835 4.32822 9.67566L4.40013 9.86228C4.60306 9.78408 4.8179 9.7451 5.03774 9.7451V9.5451ZM6.16842 9.84847C5.79966 9.6478 5.41384 9.5451 5.03774 9.5451V9.7451C5.3771 9.7451 5.73032 9.83776 6.07283 10.0241L6.16842 9.84847ZM7.65246 11.5989C7.35678 10.8315 6.83092 10.2085 6.16837 9.84844L6.07288 10.0242C6.68937 10.3592 7.18538 10.9429 7.46583 11.6708L7.65246 11.5989ZM7.7255 13.8925C7.97566 13.1813 7.94789 12.3669 7.65248 11.599L7.46581 11.6708C7.74603 12.3992 7.76958 13.1645 7.53683 13.8261L7.7255 13.8925ZM6.47494 15.2545C7.05358 15.0322 7.49597 14.545 7.7255 13.8925L7.53683 13.8261C7.32378 14.4318 6.91924 14.8695 6.40321 15.0678L6.47494 15.2545ZM6.48275 15.2511L6.4838 15.2506L6.39435 15.0717L6.39331 15.0722L6.48275 15.2511ZM3.15106 13.332C3.73624 14.8491 5.21637 15.7397 6.47399 15.255L6.40206 15.0684C5.28441 15.4991 3.89902 14.7153 3.33766 13.26L3.15106 13.332ZM16.9169 13.2983C19.7447 13.2983 22.3436 14.7197 23.8698 17.1006L24.0382 16.9927C22.4752 14.5545 19.8129 13.0983 16.9169 13.0983V13.2983ZM9.96434 17.1006C11.4903 14.7197 14.0894 13.2983 16.9169 13.2983V13.0983C14.0213 13.0983 11.3587 14.5544 9.79596 16.9927L9.96434 17.1006ZM6.24246 22.9069L9.96434 17.1006L9.79596 16.9927L6.07408 22.7989L6.24246 22.9069ZM5.43389 26.0638C5.35705 24.9437 5.63653 23.8522 6.24246 22.9068L6.07408 22.7989C5.44497 23.7805 5.15459 24.9145 5.23436 26.0775L5.43389 26.0638ZM6.66641 29.081C5.93686 28.2271 5.51072 27.1842 5.43389 26.0638L5.23436 26.0775C5.31413 27.2407 5.75692 28.3243 6.51435 29.2109L6.66641 29.081ZM9.45566 30.768C8.3607 30.5177 7.39642 29.9346 6.66637 29.0809L6.51438 29.2109C7.27235 30.0972 8.27429 30.7031 9.41109 30.9629L9.45566 30.768ZM12.701 30.4594C11.6726 30.9114 10.5506 31.018 9.45564 30.768L9.41112 30.9629C10.5479 31.2225 11.7137 31.1118 12.7815 30.6425L12.701 30.4594ZM12.769 30.4292L12.7006 30.4596L12.7818 30.6423L12.8502 30.6119L12.769 30.4292ZM21.1327 30.4594C18.4764 29.2912 15.4329 29.2809 12.77 30.4287L12.8492 30.6124C15.4611 29.4865 18.4467 29.4967 21.0521 30.6425L21.1327 30.4594ZM23.2152 30.9001C22.5038 30.9001 21.7986 30.7522 21.1326 30.4594L21.0522 30.6425C21.7433 30.9463 22.4758 31.1001 23.2152 31.1001V30.9001ZM24.3772 30.7682C23.9913 30.8561 23.602 30.9001 23.2152 30.9001V31.1001C23.6172 31.1001 24.0214 31.0544 24.4217 30.9632L24.3772 30.7682ZM27.1667 29.0814C26.4364 29.9351 25.4721 30.5182 24.3772 30.7682L24.4217 30.9632C25.5585 30.7036 26.5605 30.0977 27.3187 29.2115L27.1667 29.0814ZM28.4 26.0643C28.3229 27.1847 27.8965 28.2278 27.1667 29.0815L27.3187 29.2114C28.0764 28.3251 28.5195 27.2413 28.5995 26.078L28.4 26.0643ZM27.5917 22.9066C28.1976 23.8522 28.4771 24.9437 28.4 26.0643L28.5995 26.078C28.6796 24.9145 28.3892 23.7805 27.7601 22.7987L27.5917 22.9066ZM23.8698 17.1006L27.5917 22.9066L27.7601 22.7987L24.0382 16.9927L23.8698 17.1006ZM21.8622 28.8007C23.2355 29.4045 24.8142 29.0438 25.7896 27.9036L25.6376 27.7736C24.7195 28.8468 23.2353 29.1859 21.9427 28.6176L21.8622 28.8007ZM16.9162 27.7639C18.6037 27.7639 20.2907 28.1095 21.8621 28.8006L21.9427 28.6176C20.3454 27.915 18.631 27.5639 16.9162 27.5639V27.7639ZM11.973 28.7996C13.5435 28.1092 15.2302 27.7639 16.9162 27.7639V27.5639C15.2029 27.5639 13.4888 27.9148 11.8925 28.6165L11.973 28.7996ZM11.9282 28.8194L11.9732 28.7995L11.8924 28.6166L11.8473 28.6365L11.9282 28.8194ZM8.04378 27.9036C9.00834 29.0311 10.5638 29.3964 11.9267 28.8201L11.8488 28.6359C10.5661 29.1783 9.10366 28.8349 8.19576 27.7736L8.04378 27.9036ZM7.76793 23.8847C6.9585 25.1477 7.06946 26.7631 8.04374 27.9036L8.19581 27.7737C7.27877 26.7002 7.17445 25.1814 7.93632 23.9926L7.76793 23.8847ZM11.4901 18.0785L7.76794 23.8847L7.93631 23.9926L11.6585 18.1864L11.4901 18.0785ZM16.9169 15.1106C14.71 15.1106 12.6812 16.2203 11.4901 18.0785L11.6585 18.1864C12.8128 16.3856 14.7782 15.3106 16.9169 15.3106V15.1106ZM22.3443 18.0785C21.153 16.2203 19.1239 15.1106 16.9169 15.1106V15.3106C19.0557 15.3106 21.0214 16.3856 22.176 18.1864L22.3443 18.0785ZM26.0659 23.8844L22.3443 18.0785L22.176 18.1864L25.8976 23.9924L26.0659 23.8844ZM25.7896 27.9036C26.7644 26.7636 26.8756 25.1479 26.066 23.8844L25.8976 23.9923C26.6597 25.1816 26.5551 26.7007 25.6376 27.7736L25.7896 27.9036ZM23.0906 13.8011H23.0903V14.0011H23.0906V13.8011ZM24.389 14.0109C23.9651 14.0109 23.5394 13.9447 23.1221 13.8062L23.0591 13.9961C23.4971 14.1414 23.9441 14.2109 24.389 14.2109V14.0109ZM29.0515 10.3357C28.3093 12.5683 26.3679 14.0109 24.389 14.0109V14.2109C26.4651 14.2109 28.4756 12.7021 29.2413 10.3988L29.0515 10.3357ZM28.9733 6.51821C29.4499 7.69547 29.4787 9.05129 29.0515 10.3357L29.2413 10.3989C29.6825 9.07233 29.6542 7.66737 29.1587 6.44317L28.9733 6.51821ZM26.3802 4.00624C27.5534 4.39645 28.4748 5.28644 28.9733 6.5182L29.1587 6.44318C28.64 5.16138 27.6764 4.22657 26.4434 3.81647L26.3802 4.00624ZM22.7988 4.46619C23.9356 3.7778 25.2071 3.61656 26.3803 4.00626L26.4433 3.81645C25.2103 3.40688 23.8782 3.57876 22.6952 4.29511L22.7988 4.46619ZM20.4515 7.47724C20.8779 6.19281 21.7124 5.12428 22.7988 4.46618L22.6952 4.29512C21.5655 4.97943 20.7021 6.08767 20.2616 7.41422L20.4515 7.47724ZM23.1219 13.8062C20.7627 13.0218 19.5497 10.1906 20.4515 7.47727L20.2617 7.41419C19.3329 10.2088 20.5727 13.1694 23.0588 13.996L23.1219 13.8062ZM23.7378 6.01621C23.0159 6.45348 22.4608 7.17613 22.171 8.04875L22.3608 8.11179C22.6372 7.27955 23.1643 6.59746 23.8414 6.18728L23.7378 6.01621ZM25.8088 5.72584C25.1426 5.50451 24.4063 5.61122 23.7378 6.01622L23.8414 6.18727C24.4671 5.80819 25.1429 5.71534 25.7457 5.91564L25.8088 5.72584ZM27.2936 7.19791C27.0003 6.47345 26.4748 5.94747 25.8088 5.72586L25.7457 5.91563C26.3483 6.11617 26.8337 6.59478 27.1082 7.27296L27.2936 7.19791ZM27.3319 9.76406C27.6222 8.89143 27.61 7.98005 27.2936 7.19793L27.1082 7.27294C27.405 8.0066 27.419 8.86869 27.1421 9.70092L27.3319 9.76406ZM23.6936 12.0867C25.1351 12.5655 26.7558 11.4975 27.3319 9.76403L27.1421 9.70095C26.5874 11.3699 25.0571 12.3288 23.7567 11.8969L23.6936 12.0867ZM22.171 8.04873C21.5949 9.78213 22.2532 11.6075 23.6936 12.0866L23.7567 11.8969C22.4573 11.4646 21.8061 9.78079 22.3608 8.11181L22.171 8.04873ZM33.7784 13.16L33.7776 13.1592L33.6363 13.3007L33.6371 13.3015L33.7784 13.16ZM34.3476 19.8014C35.9793 17.5942 35.7355 14.6079 33.7673 13.1504L33.6483 13.3111C35.5093 14.6893 35.7673 17.5445 34.1867 19.6825L34.3476 19.8014ZM30.2415 21.9742C31.7465 21.9742 33.3065 21.2066 34.3475 19.8015L34.1868 19.6824C33.1814 21.0396 31.6795 21.7742 30.2415 21.7742V21.9742ZM27.8145 21.1901C28.5313 21.7211 29.3774 21.9742 30.2415 21.9742V21.7742C29.4169 21.7742 28.6132 21.5329 27.9336 21.0294L27.8145 21.1901ZM27.2343 14.5396C25.6026 16.7468 25.8466 19.7332 27.8146 21.1901L27.9336 21.0294C26.0728 19.6517 25.8145 16.7965 27.3951 14.6585L27.2343 14.5396ZM33.7664 13.1495C31.7956 11.6937 28.8676 12.3334 27.2343 14.5396L27.3951 14.6586C28.9771 12.5217 31.7839 11.9337 33.6476 13.3104L33.7664 13.1495ZM32.5697 18.4853C31.6401 19.7401 30.0949 20.1263 29.1309 19.4123L29.0119 19.573C30.0963 20.3763 31.7613 19.9124 32.7304 18.6044L32.5697 18.4853ZM32.4517 14.9287C33.4142 15.6426 33.4958 17.2323 32.5696 18.4854L32.7304 18.6043C33.6961 17.2978 33.6535 15.5711 32.5708 14.7681L32.4517 14.9287ZM31.328 14.5726C31.7374 14.5726 32.1261 14.688 32.4518 14.9288L32.5707 14.768C32.2071 14.4991 31.7756 14.3726 31.328 14.3726V14.5726ZM29.0127 15.8551C29.6259 15.0269 30.5169 14.5726 31.328 14.5726V14.3726C30.4448 14.3726 29.4974 14.8643 28.852 15.7361L29.0127 15.8551ZM29.1309 19.4123C28.1677 18.6992 28.0858 17.109 29.0127 15.8551L28.8519 15.7362C27.8855 17.0435 27.9283 18.7708 29.0119 19.573L29.1309 19.4123Z" fill="white"/>
</svg>
