<svg width="30" height="27" viewBox="0 0 30 27" fill="none" xmlns="http://www.w3.org/2000/svg">
<mask id="path-1-inside-1" fill="white">
<path fill-rule="evenodd" clip-rule="evenodd" d="M11.6511 0C9.25107 0 7.35107 2.2 7.35107 4.9C7.35107 7.6 9.25107 9.8 11.6511 9.8C14.0511 9.8 15.9511 7.6 15.9511 4.9C15.9511 2.2 14.0511 0 11.6511 0ZM11.6511 8.3C10.1511 8.3 8.85107 6.8 8.85107 4.9C8.85107 3 10.1511 1.5 11.6511 1.5C13.1511 1.5 14.4511 3 14.4511 4.9C14.4511 6.8 13.1511 8.3 11.6511 8.3ZM10.2511 25.6C12.5511 24.6 15.2511 24.6 17.5511 25.6C18.1511 25.9 18.7511 26 19.3511 26C19.6511 26 20.0511 26 20.3511 25.9C21.3511 25.7 22.1511 25.2 22.7511 24.4C23.3511 23.7 23.7511 22.7 23.8511 21.7999C23.9511 20.7999 23.6511 19.9 23.1511 19L19.9511 14C18.6511 11.9 16.3511 10.7 13.8511 10.7C11.3511 10.7 9.15109 11.9 7.75109 14L4.45109 19.1C3.95109 19.9 3.65109 20.9 3.75109 21.9C3.85109 22.9 4.15109 23.8 4.85109 24.5C5.45109 25.2 6.35109 25.8 7.25109 26C8.25109 26.1 9.25109 26 10.2511 25.6ZM9.55109 24.2C8.35109 24.7 6.95109 24.4 6.15109 23.4C5.25109 22.4 5.15109 21 5.95109 19.9L9.25109 14.8C10.2511 13.2 12.0511 12.2 14.0511 12.2C16.0511 12.2 17.7511 13.2 18.8511 14.8L22.1511 19.9C22.8511 21 22.7511 22.4 21.9511 23.4C21.0511 24.4 19.7511 24.7 18.5511 24.2C17.1511 23.6 15.7511 23.2999 14.2511 23.2999C12.3511 23.2999 10.9511 23.6 9.55109 24.2ZM7.25117 8.60003C7.65118 9.60003 7.65118 10.7 7.35118 11.7C6.95118 12.7 6.25118 13.5 5.35118 13.8C4.95118 13.9 4.55118 14 4.15118 14C2.55118 14 1.05117 13 0.351175 11.2C-0.548825 9.10003 0.351175 6.70003 2.25117 6.00003C3.25117 5.70003 4.25117 5.70004 5.25117 6.30003C6.15118 6.70004 6.85117 7.60004 7.25117 8.60003ZM1.85117 10.7C2.35117 12 3.65118 12.8 4.75117 12.4C5.25117 12.2 5.65118 11.7 5.85118 11.2C6.05118 10.6 6.05118 9.90003 5.75117 9.20004C5.45117 8.60003 5.05118 8.00003 4.45118 7.70003C4.15118 7.50003 3.75117 7.40003 3.45117 7.40003C3.25117 7.40003 3.05117 7.40003 2.85117 7.50003C1.75117 7.90003 1.35117 9.40003 1.85117 10.7ZM28.4513 10.7C27.8513 10.3 27.1513 10 26.4513 10C25.1513 10 23.8513 10.6 23.0513 11.8C21.6513 13.7 21.8513 16.1 23.5513 17.3C24.1513 17.7 24.8513 17.9 25.5513 17.9C26.7513 17.9 28.1513 17.3 28.9513 16.1C29.5513 15.3 29.8513 14.3 29.8513 13.4C29.8513 12.4 29.3513 11.3 28.4513 10.7ZM27.6513 15.3C26.7513 16.5 25.3513 16.8 24.4513 16.2C23.9513 15.9 23.7513 15.3 23.7513 14.6C23.7513 14 23.9513 13.4 24.3513 12.8C24.9513 12 25.7513 11.6 26.5513 11.6C26.9513 11.6 27.3513 11.7 27.6513 11.9C28.1513 12.2 28.3513 12.8 28.3513 13.5C28.2513 14.1 28.0513 14.7 27.6513 15.3ZM22.0514 2.5C23.1514 2.8 23.9514 3.6 24.3514 4.7C24.8514 5.8 24.8514 6.9 24.4514 8C23.7514 9.9 22.0514 11.2 20.3514 11.2C20.02 11.2 19.7573 11.1314 19.4494 11.051C19.3857 11.0343 19.32 11.0172 19.2514 11C17.6514 10.5 16.6514 8.9 16.6514 7.1C16.6514 6.6 16.7514 6 16.9514 5.5C17.2514 4.4 17.9514 3.5 18.9514 2.9C19.9514 2.3 21.0514 2.2 22.0514 2.5ZM20.3514 9.8C21.4514 9.8 22.5514 9 23.0514 7.6C23.3514 6.8 23.2514 5.9 22.9514 5.1C22.7514 4.5 22.2514 4 21.6514 3.8C21.1514 3.6 20.4514 3.7 19.8514 4.1C19.2514 4.5 18.7514 5.2 18.4514 6C17.8514 7.6 18.4514 9.3 19.7514 9.7C19.9514 9.8 20.1514 9.8 20.3514 9.8Z"/>
</mask>
<path fill-rule="evenodd" clip-rule="evenodd" d="M11.6511 0C9.25107 0 7.35107 2.2 7.35107 4.9C7.35107 7.6 9.25107 9.8 11.6511 9.8C14.0511 9.8 15.9511 7.6 15.9511 4.9C15.9511 2.2 14.0511 0 11.6511 0ZM11.6511 8.3C10.1511 8.3 8.85107 6.8 8.85107 4.9C8.85107 3 10.1511 1.5 11.6511 1.5C13.1511 1.5 14.4511 3 14.4511 4.9C14.4511 6.8 13.1511 8.3 11.6511 8.3ZM10.2511 25.6C12.5511 24.6 15.2511 24.6 17.5511 25.6C18.1511 25.9 18.7511 26 19.3511 26C19.6511 26 20.0511 26 20.3511 25.9C21.3511 25.7 22.1511 25.2 22.7511 24.4C23.3511 23.7 23.7511 22.7 23.8511 21.7999C23.9511 20.7999 23.6511 19.9 23.1511 19L19.9511 14C18.6511 11.9 16.3511 10.7 13.8511 10.7C11.3511 10.7 9.15109 11.9 7.75109 14L4.45109 19.1C3.95109 19.9 3.65109 20.9 3.75109 21.9C3.85109 22.9 4.15109 23.8 4.85109 24.5C5.45109 25.2 6.35109 25.8 7.25109 26C8.25109 26.1 9.25109 26 10.2511 25.6ZM9.55109 24.2C8.35109 24.7 6.95109 24.4 6.15109 23.4C5.25109 22.4 5.15109 21 5.95109 19.9L9.25109 14.8C10.2511 13.2 12.0511 12.2 14.0511 12.2C16.0511 12.2 17.7511 13.2 18.8511 14.8L22.1511 19.9C22.8511 21 22.7511 22.4 21.9511 23.4C21.0511 24.4 19.7511 24.7 18.5511 24.2C17.1511 23.6 15.7511 23.2999 14.2511 23.2999C12.3511 23.2999 10.9511 23.6 9.55109 24.2ZM7.25117 8.60003C7.65118 9.60003 7.65118 10.7 7.35118 11.7C6.95118 12.7 6.25118 13.5 5.35118 13.8C4.95118 13.9 4.55118 14 4.15118 14C2.55118 14 1.05117 13 0.351175 11.2C-0.548825 9.10003 0.351175 6.70003 2.25117 6.00003C3.25117 5.70003 4.25117 5.70004 5.25117 6.30003C6.15118 6.70004 6.85117 7.60004 7.25117 8.60003ZM1.85117 10.7C2.35117 12 3.65118 12.8 4.75117 12.4C5.25117 12.2 5.65118 11.7 5.85118 11.2C6.05118 10.6 6.05118 9.90003 5.75117 9.20004C5.45117 8.60003 5.05118 8.00003 4.45118 7.70003C4.15118 7.50003 3.75117 7.40003 3.45117 7.40003C3.25117 7.40003 3.05117 7.40003 2.85117 7.50003C1.75117 7.90003 1.35117 9.40003 1.85117 10.7ZM28.4513 10.7C27.8513 10.3 27.1513 10 26.4513 10C25.1513 10 23.8513 10.6 23.0513 11.8C21.6513 13.7 21.8513 16.1 23.5513 17.3C24.1513 17.7 24.8513 17.9 25.5513 17.9C26.7513 17.9 28.1513 17.3 28.9513 16.1C29.5513 15.3 29.8513 14.3 29.8513 13.4C29.8513 12.4 29.3513 11.3 28.4513 10.7ZM27.6513 15.3C26.7513 16.5 25.3513 16.8 24.4513 16.2C23.9513 15.9 23.7513 15.3 23.7513 14.6C23.7513 14 23.9513 13.4 24.3513 12.8C24.9513 12 25.7513 11.6 26.5513 11.6C26.9513 11.6 27.3513 11.7 27.6513 11.9C28.1513 12.2 28.3513 12.8 28.3513 13.5C28.2513 14.1 28.0513 14.7 27.6513 15.3ZM22.0514 2.5C23.1514 2.8 23.9514 3.6 24.3514 4.7C24.8514 5.8 24.8514 6.9 24.4514 8C23.7514 9.9 22.0514 11.2 20.3514 11.2C20.02 11.2 19.7573 11.1314 19.4494 11.051C19.3857 11.0343 19.32 11.0172 19.2514 11C17.6514 10.5 16.6514 8.9 16.6514 7.1C16.6514 6.6 16.7514 6 16.9514 5.5C17.2514 4.4 17.9514 3.5 18.9514 2.9C19.9514 2.3 21.0514 2.2 22.0514 2.5ZM20.3514 9.8C21.4514 9.8 22.5514 9 23.0514 7.6C23.3514 6.8 23.2514 5.9 22.9514 5.1C22.7514 4.5 22.2514 4 21.6514 3.8C21.1514 3.6 20.4514 3.7 19.8514 4.1C19.2514 4.5 18.7514 5.2 18.4514 6C17.8514 7.6 18.4514 9.3 19.7514 9.7C19.9514 9.8 20.1514 9.8 20.3514 9.8Z" fill="#1D3557"/>
<path d="M17.5511 25.6L17.9983 24.7055L17.9744 24.6936L17.9498 24.6829L17.5511 25.6ZM10.2511 25.6L10.6225 26.5284L10.6362 26.5229L10.6498 26.517L10.2511 25.6ZM20.3511 25.9L20.155 24.9194L20.0939 24.9316L20.0349 24.9513L20.3511 25.9ZM22.7511 24.4L21.9918 23.7492L21.9706 23.7739L21.9511 23.8L22.7511 24.4ZM23.8511 21.7999L24.845 21.9104L24.8461 21.8995L23.8511 21.7999ZM23.1511 19L24.0253 18.5143L24.0101 18.4871L23.9934 18.4609L23.1511 19ZM19.9511 14L19.1008 14.5263L19.1048 14.5327L19.1088 14.539L19.9511 14ZM7.75109 14L6.91897 13.4452L6.91152 13.4567L7.75109 14ZM4.45109 19.1L3.61152 18.5567L3.60726 18.5633L3.6031 18.57L4.45109 19.1ZM3.75109 21.9L4.74613 21.8004L3.75109 21.9ZM4.85109 24.5L5.61035 23.8492L5.58536 23.82L5.5582 23.7928L4.85109 24.5ZM7.25109 26L7.03416 26.9761L7.09232 26.9891L7.15159 26.995L7.25109 26ZM6.15109 23.4L6.93196 22.7753L6.91382 22.7526L6.89439 22.731L6.15109 23.4ZM9.55109 24.2L9.93573 25.1231L9.94501 25.1191L9.55109 24.2ZM5.95109 19.9L6.75983 20.4881L6.77586 20.4661L6.79066 20.4432L5.95109 19.9ZM9.25109 14.8L10.0907 15.3432L10.0949 15.3366L10.0991 15.33L9.25109 14.8ZM18.8511 14.8L19.6907 14.2567L19.6831 14.245L19.6751 14.2334L18.8511 14.8ZM22.1511 19.9L22.9948 19.3631L22.9907 19.3567L22.1511 19.9ZM21.9511 23.4L22.6944 24.0689L22.7138 24.0473L22.732 24.0246L21.9511 23.4ZM18.5511 24.2L18.1572 25.1191L18.1665 25.123L18.5511 24.2ZM7.35118 11.7L8.27965 12.0714L8.2962 12.0301L8.309 11.9874L7.35118 11.7ZM7.25117 8.60003L8.17965 8.22864V8.22864L7.25117 8.60003ZM5.35118 13.8L5.59371 14.7702L5.63097 14.7609L5.6674 14.7487L5.35118 13.8ZM0.351175 11.2L1.28318 10.8376L1.27702 10.8217L1.27032 10.8061L0.351175 11.2ZM2.25117 6.00003L1.96383 5.04221L1.93435 5.05105L1.90547 5.06169L2.25117 6.00003ZM5.25117 6.30003L4.73668 7.15753L4.78913 7.189L4.84504 7.21385L5.25117 6.30003ZM4.75117 12.4L5.09292 13.3398L5.10783 13.3344L5.12257 13.3285L4.75117 12.4ZM1.85117 10.7L0.917829 11.059H0.917829L1.85117 10.7ZM5.85118 11.2L6.77965 11.5714L6.79057 11.5441L6.79986 11.5163L5.85118 11.2ZM5.75117 9.20004L6.67032 8.80612L6.65874 8.77911L6.6456 8.75282L5.75117 9.20004ZM4.45118 7.70003L3.89647 8.53208L3.94828 8.56662L4.00396 8.59446L4.45118 7.70003ZM2.85117 7.50003L3.19292 8.43983L3.24696 8.42018L3.29839 8.39446L2.85117 7.50003ZM28.4513 10.7L29.006 9.86795H29.006L28.4513 10.7ZM23.0513 11.8L23.8564 12.3932L23.8703 12.3743L23.8834 12.3547L23.0513 11.8ZM23.5513 17.3L22.9746 18.117L22.9855 18.1247L22.9966 18.132L23.5513 17.3ZM28.9513 16.1L28.1513 15.5L28.1347 15.5222L28.1193 15.5453L28.9513 16.1ZM29.8513 13.4L28.8513 13.4V13.4H29.8513ZM24.4513 16.2L25.006 15.368L24.9862 15.3548L24.9658 15.3425L24.4513 16.2ZM27.6513 15.3L28.4513 15.9L28.468 15.8778L28.4834 15.8547L27.6513 15.3ZM24.3513 12.8L23.5513 12.2L23.5347 12.2222L23.5193 12.2453L24.3513 12.8ZM27.6513 11.9L27.0966 12.7321L27.1164 12.7452L27.1368 12.7575L27.6513 11.9ZM28.3513 13.5L29.3377 13.6644L29.3513 13.5828V13.5H28.3513ZM24.3514 4.7L23.4116 5.04174L23.4249 5.07834L23.441 5.1138L24.3514 4.7ZM22.0514 2.5L21.764 3.45782L21.7761 3.46145L21.7882 3.46476L22.0514 2.5ZM24.4514 8L25.3897 8.34571L25.3912 8.34174L24.4514 8ZM19.4494 11.051L19.7022 10.0834L19.7022 10.0834L19.4494 11.051ZM19.2514 11L18.9531 11.9545L18.9807 11.9631L19.0088 11.9701L19.2514 11ZM16.9514 5.5L17.8798 5.87139L17.9011 5.81829L17.9161 5.76311L16.9514 5.5ZM23.0514 7.6L22.115 7.24888L22.1123 7.25625L22.1096 7.26366L23.0514 7.6ZM22.9514 5.1L22.0027 5.41623L22.0085 5.43379L22.015 5.45112L22.9514 5.1ZM21.6514 3.8L21.28 4.72847L21.3073 4.73939L21.3351 4.74868L21.6514 3.8ZM18.4514 6L19.3877 6.35112V6.35112L18.4514 6ZM19.7514 9.7L20.1986 8.80557L20.1246 8.76856L20.0455 8.74422L19.7514 9.7ZM8.35107 4.9C8.35107 2.62068 9.92636 1 11.6511 1V-1C8.57578 -1 6.35107 1.77932 6.35107 4.9H8.35107ZM11.6511 8.8C9.92636 8.8 8.35107 7.17933 8.35107 4.9H6.35107C6.35107 8.02068 8.57578 10.8 11.6511 10.8V8.8ZM14.9511 4.9C14.9511 7.17933 13.3758 8.8 11.6511 8.8V10.8C14.7264 10.8 16.9511 8.02068 16.9511 4.9H14.9511ZM11.6511 1C13.3758 1 14.9511 2.62067 14.9511 4.9H16.9511C16.9511 1.77933 14.7264 -1 11.6511 -1V1ZM7.85107 4.9C7.85107 7.17793 9.43924 9.3 11.6511 9.3V7.3C10.8629 7.3 9.85107 6.42207 9.85107 4.9H7.85107ZM11.6511 0.5C9.43924 0.5 7.85107 2.62207 7.85107 4.9H9.85107C9.85107 3.37793 10.8629 2.5 11.6511 2.5V0.5ZM15.4511 4.9C15.4511 2.62207 13.8629 0.5 11.6511 0.5V2.5C12.4392 2.5 13.4511 3.37793 13.4511 4.9H15.4511ZM11.6511 9.3C13.8629 9.3 15.4511 7.17793 15.4511 4.9H13.4511C13.4511 6.42207 12.4392 7.3 11.6511 7.3V9.3ZM17.9498 24.6829C15.3955 23.5723 12.4067 23.5723 9.85237 24.6829L10.6498 26.517C12.6955 25.6276 15.1067 25.6276 17.1524 26.517L17.9498 24.6829ZM19.3511 25C18.8681 25 18.4289 24.9208 17.9983 24.7055L17.1039 26.4944C17.8733 26.8791 18.6341 27 19.3511 27V25ZM20.0349 24.9513C19.9198 24.9896 19.6978 25 19.3511 25V27C19.6044 27 20.1824 27.0103 20.6673 26.8486L20.0349 24.9513ZM21.9511 23.8C21.5019 24.3989 20.919 24.7666 20.155 24.9194L20.5472 26.8805C21.7832 26.6333 22.8003 26.001 23.5511 25L21.9511 23.8ZM22.8572 21.6895C22.777 22.411 22.448 23.217 21.9918 23.7492L23.5104 25.0507C24.2542 24.1829 24.7251 22.9889 24.845 21.9104L22.8572 21.6895ZM22.2769 19.4856C22.7227 20.288 22.9282 20.9789 22.8561 21.7004L24.8461 21.8995C24.974 20.621 24.5794 19.5119 24.0253 18.5143L22.2769 19.4856ZM19.1088 14.539L22.3088 19.539L23.9934 18.4609L20.7934 13.4609L19.1088 14.539ZM13.8511 11.7C16.0302 11.7 17.9961 12.7418 19.1008 14.5263L20.8014 13.4736C19.3061 11.0581 16.672 9.69995 13.8511 9.69995V11.7ZM8.58314 14.5547C9.80224 12.726 11.6936 11.7 13.8511 11.7V9.69995C11.0086 9.69995 8.49994 11.0739 6.91904 13.4453L8.58314 14.5547ZM5.29066 19.6432L8.59066 14.5432L6.91152 13.4567L3.61152 18.5567L5.29066 19.6432ZM4.74613 21.8004C4.67191 21.0582 4.8948 20.2768 5.29909 19.63L3.6031 18.57C3.00739 19.5231 2.63028 20.7417 2.75606 21.9995L4.74613 21.8004ZM5.5582 23.7928C5.07809 23.3127 4.83265 22.6657 4.74613 21.8004L2.75606 21.9995C2.86954 23.1342 3.2241 24.2872 4.14399 25.2071L5.5582 23.7928ZM7.46802 25.0238C6.81391 24.8784 6.09455 24.4141 5.61035 23.8492L4.09184 25.1507C4.80764 25.9858 5.88828 26.7215 7.03416 26.9761L7.46802 25.0238ZM9.8797 24.6715C9.04883 25.0038 8.21323 25.0912 7.3506 25.0049L7.15159 26.995C8.28896 27.1087 9.45335 26.9961 10.6225 26.5284L9.8797 24.6715ZM5.37022 24.0246C6.47475 25.4053 8.36386 25.778 9.93571 25.123L9.16648 23.2769C8.33833 23.6219 7.42744 23.3946 6.93196 22.7753L5.37022 24.0246ZM5.14236 19.3118C4.05542 20.8063 4.20243 22.7296 5.4078 24.0689L6.89439 22.731C6.29976 22.0703 6.24677 21.1936 6.75983 20.4881L5.14236 19.3118ZM8.41152 14.2567L5.11152 19.3567L6.79066 20.4432L10.0907 15.3432L8.41152 14.2567ZM14.0511 11.2C11.7167 11.2 9.59126 12.3689 8.40309 14.27L10.0991 15.33C10.9109 14.031 12.3855 13.2 14.0511 13.2V11.2ZM19.6751 14.2334C18.4073 12.3894 16.4122 11.2 14.0511 11.2V13.2C15.69 13.2 17.0949 14.0106 18.0271 15.3665L19.6751 14.2334ZM22.9907 19.3567L19.6907 14.2567L18.0115 15.3432L21.3115 20.4432L22.9907 19.3567ZM22.732 24.0246C23.7918 22.6999 23.9306 20.8337 22.9948 19.3631L21.3074 20.4368C21.7716 21.1662 21.7104 22.1 21.1702 22.7753L22.732 24.0246ZM18.1665 25.123C19.7707 25.7915 21.5196 25.3743 22.6944 24.0689L21.2078 22.731C20.5826 23.4256 19.7315 23.6084 18.9357 23.2769L18.1665 25.123ZM14.2511 24.2999C15.6089 24.2999 16.8753 24.5697 18.1572 25.1191L18.945 23.2808C17.4269 22.6302 15.8933 22.2999 14.2511 22.2999V24.2999ZM9.94501 25.1191C11.2105 24.5768 12.4751 24.2999 14.2511 24.2999V22.2999C12.2271 22.2999 10.6917 22.6231 9.15718 23.2808L9.94501 25.1191ZM8.309 11.9874C8.66532 10.7997 8.67417 9.46495 8.17965 8.22864L6.3227 8.97143C6.62818 9.73512 6.63703 10.6004 6.39335 11.4127L8.309 11.9874ZM5.6674 14.7487C6.93077 14.3276 7.8084 13.2496 8.27965 12.0714L6.4227 11.3286C6.09395 12.1505 5.57158 12.6725 5.03495 12.8514L5.6674 14.7487ZM4.15118 15C4.69577 15 5.21717 14.8643 5.59371 14.7702L5.10864 12.8299C4.68518 12.9358 4.40658 13 4.15118 13V15ZM-0.58083 11.5625C0.255513 13.7131 2.10367 15 4.15118 15V13C2.99868 13 1.84684 12.287 1.28318 10.8376L-0.58083 11.5625ZM1.90547 5.06169C-0.62653 5.99453 -1.65175 9.06513 -0.56797 11.594L1.27032 10.8061C0.554102 9.13494 1.32888 7.40554 2.59688 6.93838L1.90547 5.06169ZM5.76567 5.44254C4.46589 4.66268 3.16018 4.6833 1.96383 5.04221L2.53852 6.95786C3.34217 6.71677 4.03646 6.73739 4.73668 7.15753L5.76567 5.44254ZM8.17965 8.22864C7.72079 7.08149 6.8748 5.92733 5.65731 5.38622L4.84504 7.21385C5.42755 7.47274 5.98156 8.11858 6.3227 8.97143L8.17965 8.22864ZM4.40943 11.4602C4.00289 11.6081 3.16622 11.3335 2.78452 10.3411L0.917829 11.059C1.53613 12.6666 3.29946 13.992 5.09292 13.3398L4.40943 11.4602ZM4.9227 10.8286C4.78829 11.1647 4.54779 11.4044 4.37978 11.4716L5.12257 13.3285C5.95456 12.9957 6.51406 12.2354 6.77965 11.5714L4.9227 10.8286ZM4.83203 9.59396C5.03301 10.0629 5.02711 10.51 4.90249 10.8838L6.79986 11.5163C7.07524 10.6901 7.06934 9.73716 6.67032 8.80612L4.83203 9.59396ZM4.00396 8.59446C4.29956 8.74226 4.57735 9.08846 4.85675 9.64725L6.6456 8.75282C6.325 8.11161 5.80279 7.25781 4.89839 6.80561L4.00396 8.59446ZM3.45117 8.40003C3.49789 8.40003 3.58024 8.40907 3.67645 8.43656C3.77229 8.46394 3.8485 8.5001 3.89647 8.53208L5.00588 6.86798C4.52388 6.54665 3.92616 6.40003 3.45117 6.40003V8.40003ZM3.29839 8.39446C3.27438 8.40647 3.25954 8.40677 3.27521 8.40481C3.28516 8.40357 3.30247 8.40205 3.33241 8.40111C3.3642 8.40012 3.39858 8.40003 3.45117 8.40003V6.40003C3.27636 6.40003 2.8443 6.38544 2.40396 6.60561L3.29839 8.39446ZM2.78452 10.3411C2.60945 9.88587 2.601 9.41246 2.70956 9.04801C2.81742 8.6859 3.00947 8.50654 3.19292 8.43983L2.50943 6.56024C1.59288 6.89353 1.03493 7.66417 0.792789 8.47706C0.551349 9.28761 0.592901 10.2142 0.917829 11.059L2.78452 10.3411ZM26.4513 11C26.8779 11 27.3835 11.19 27.8966 11.5321L29.006 9.86795C28.3191 9.41002 27.4248 9 26.4513 9V11ZM23.8834 12.3547C24.482 11.4567 25.456 11 26.4513 11V9C24.8466 9 23.2206 9.74329 22.2193 11.2453L23.8834 12.3547ZM24.128 16.483C22.994 15.6825 22.7043 13.9567 23.8564 12.3932L22.2463 11.2068C20.5983 13.4433 20.7087 16.5175 22.9746 18.117L24.128 16.483ZM25.5513 16.9C25.0404 16.9 24.5349 16.7539 24.106 16.4679L22.9966 18.132C23.7677 18.6461 24.6623 18.9 25.5513 18.9V16.9ZM28.1193 15.5453C27.5274 16.4331 26.46 16.9 25.5513 16.9V18.9C27.0426 18.9 28.7752 18.1669 29.7834 16.6547L28.1193 15.5453ZM28.8513 13.4C28.8513 14.0952 28.6147 14.8821 28.1513 15.5L29.7513 16.7C30.4879 15.7179 30.8513 14.5048 30.8513 13.4H28.8513ZM27.8966 11.5321C28.4844 11.9239 28.8513 12.6913 28.8513 13.4L30.8513 13.4C30.8513 12.1087 30.2182 10.6761 29.006 9.86795L27.8966 11.5321ZM23.8966 17.0321C25.3628 18.0095 27.3312 17.3935 28.4513 15.9L26.8513 14.7C26.1714 15.6065 25.3399 15.5905 25.006 15.368L23.8966 17.0321ZM22.7513 14.6C22.7513 15.4356 22.988 16.4882 23.9368 17.0575L24.9658 15.3425C24.931 15.3216 24.8845 15.2816 24.8394 15.1714C24.7899 15.0503 24.7513 14.8625 24.7513 14.6H22.7513ZM23.5193 12.2453C23.0322 12.9759 22.7513 13.7657 22.7513 14.6H24.7513C24.7513 14.2343 24.8705 13.8241 25.1834 13.3547L23.5193 12.2453ZM26.5513 10.6C25.3984 10.6 24.316 11.1804 23.5513 12.2L25.1513 13.4C25.5866 12.8196 26.1043 12.6 26.5513 12.6V10.6ZM28.206 11.0679C27.7052 10.7341 27.0997 10.6 26.5513 10.6V12.6C26.803 12.6 26.9975 12.6659 27.0966 12.7321L28.206 11.0679ZM29.3513 13.5C29.3513 12.6644 29.1146 11.6118 28.1658 11.0425L27.1368 12.7575C27.1717 12.7784 27.2182 12.8184 27.2633 12.9286C27.3128 13.0497 27.3513 13.2375 27.3513 13.5H29.3513ZM28.4834 15.8547C28.9748 15.1176 29.2186 14.379 29.3377 13.6644L27.3649 13.3356C27.284 13.821 27.1279 14.2824 26.8193 14.7453L28.4834 15.8547ZM25.2912 4.35825C24.7932 2.98894 23.763 1.93028 22.3145 1.53523L21.7882 3.46476C22.5397 3.66971 23.1095 4.21105 23.4116 5.04174L25.2912 4.35825ZM25.3912 8.34174C25.8725 7.01811 25.8795 5.64531 25.2617 4.28619L23.441 5.1138C23.8232 5.95468 23.8303 6.78188 23.5116 7.65825L25.3912 8.34174ZM20.3514 12.2C22.5501 12.2 24.5745 10.5583 25.3897 8.3457L23.513 7.65429C22.9282 9.24167 21.5527 10.2 20.3514 10.2V12.2ZM19.1967 12.0185C19.4965 12.0968 19.8751 12.2 20.3514 12.2V10.2C20.1649 10.2 20.018 10.1659 19.7022 10.0834L19.1967 12.0185ZM19.0088 11.9701C19.0716 11.9858 19.1323 12.0017 19.1967 12.0185L19.7022 10.0834C19.6391 10.0669 19.5684 10.0485 19.4939 10.0299L19.0088 11.9701ZM15.6514 7.1C15.6514 9.24409 16.8529 11.2982 18.9531 11.9545L19.5496 10.0455C18.4498 9.70182 17.6514 8.55591 17.6514 7.1H15.6514ZM16.0229 5.12861C15.7705 5.75949 15.6514 6.48728 15.6514 7.1H17.6514C17.6514 6.71271 17.7322 6.24051 17.8798 5.87139L16.0229 5.12861ZM18.4369 2.0425C17.2267 2.76862 16.3577 3.8761 15.9866 5.23688L17.9161 5.76311C18.145 4.92389 18.6761 4.23137 19.4659 3.75749L18.4369 2.0425ZM22.3387 1.54217C21.0776 1.16385 19.6856 1.29328 18.4369 2.0425L19.4659 3.75749C20.2172 3.30671 21.0251 3.23615 21.764 3.45782L22.3387 1.54217ZM22.1096 7.26366C21.7208 8.35242 20.9435 8.8 20.3514 8.8V10.8C21.9593 10.8 23.382 9.64757 23.9931 7.93633L22.1096 7.26366ZM22.015 5.45112C22.2618 6.10917 22.3031 6.74742 22.115 7.24888L23.9877 7.95112C24.3997 6.85257 24.2409 5.69083 23.8877 4.74888L22.015 5.45112ZM21.3351 4.74868C21.6365 4.84915 21.9022 5.11483 22.0027 5.41623L23.9 4.78377C23.6005 3.88517 22.8662 3.15085 21.9676 2.85131L21.3351 4.74868ZM20.4061 4.93205C20.8045 4.66645 21.1585 4.67988 21.28 4.72847L22.0228 2.87152C21.1443 2.52012 20.0983 2.73354 19.2967 3.26795L20.4061 4.93205ZM19.3877 6.35112C19.6348 5.69221 20.024 5.18677 20.4061 4.93205L19.2967 3.26795C18.4788 3.81322 17.8679 4.70779 17.515 5.64888L19.3877 6.35112ZM20.0455 8.74422C19.5034 8.57742 18.9047 7.63904 19.3877 6.35112L17.515 5.64887C16.798 7.56096 17.3994 10.0226 19.4573 10.6558L20.0455 8.74422ZM20.3514 8.8C20.2988 8.8 20.2644 8.79992 20.2326 8.79892C20.2027 8.79799 20.1854 8.79646 20.1754 8.79522C20.1597 8.79326 20.1746 8.79357 20.1986 8.80557L19.3042 10.5944C19.7445 10.8146 20.1765 10.8 20.3514 10.8V8.8Z" fill="#1D3557" mask="url(#path-1-inside-1)"/>
</svg>
