<svg width="36" height="46" viewBox="0 0 36 46" fill="none" xmlns="http://www.w3.org/2000/svg">
<path fill-rule="evenodd" clip-rule="evenodd" d="M17.5195 0C7.85926 0 0 7.85926 0 17.5195C0 23.7558 1.89705 26.2567 11.0131 38.2743L11.0316 38.2987L11.0324 38.2998C12.6101 40.3796 14.3975 42.7359 16.4414 45.4609C16.6959 45.8003 17.0954 46 17.5196 46C17.9439 46 18.3432 45.8002 18.5977 45.4608C20.6379 42.7394 22.4237 40.384 23.9994 38.3058L23.9994 38.3058L23.9995 38.3057C33.1374 26.2531 35.0391 23.745 35.0391 17.5195C35.0391 7.85926 27.1798 0 17.5195 0ZM10.7812 17.5195C10.7812 21.235 13.804 24.2578 17.5195 24.2578C21.235 24.2578 24.2578 21.235 24.2578 17.5195C24.2578 13.804 21.235 10.7812 17.5195 10.7812C13.804 10.7812 10.7812 13.804 10.7812 17.5195Z" fill="#E95228"/>
</svg>
