<svg width="18" height="18" viewBox="0 0 18 18" fill="none" xmlns="http://www.w3.org/2000/svg">
<path fill-rule="evenodd" clip-rule="evenodd" d="M16.875 7.875H10.125V1.125C10.125 0.503719 9.62135 0 9 0C8.37872 0 7.875 0.503719 7.875 1.125V7.875H1.125C0.503719 7.875 0 8.37872 0 9C0 9.62135 0.503719 10.125 1.125 10.125H7.875V16.875C7.875 17.4964 8.37872 18 9 18C9.62135 18 10.125 17.4964 10.125 16.875V10.125H16.875C17.4964 10.125 18 9.62135 18 9C18 8.37872 17.4964 7.875 16.875 7.875Z" fill="white"/>
</svg>
