<svg width="18" height="18" viewBox="0 0 18 18" fill="none" xmlns="http://www.w3.org/2000/svg">
<path fill-rule="evenodd" clip-rule="evenodd" d="M7.7998 2.20001C7.7998 1.5372 8.337 1 8.9998 1C9.6626 1 10.1998 1.5372 10.1998 2.20001V7.7998H15.7999C16.4628 7.7998 17 8.337 17 8.9998C17 9.6626 16.4628 10.1998 15.7999 10.1998H10.1998V15.7999C10.1998 16.4628 9.6626 17 8.9998 17C8.337 17 7.7998 16.4628 7.7998 15.7999V10.1998H2.20001C1.5372 10.1998 1 9.6626 1 8.9998C1 8.337 1.5372 7.7998 2.20001 7.7998H7.7998V2.20001Z" fill="#2D5286"/>
<path d="M10.1998 7.7998H10.0498V7.9498H10.1998V7.7998ZM10.1998 10.1998V10.0498H10.0498V10.1998H10.1998ZM7.7998 10.1998H7.9498V10.0498H7.7998V10.1998ZM7.7998 7.7998V7.9498H7.9498V7.7998H7.7998ZM8.9998 0.85C8.25416 0.85 7.6498 1.45436 7.6498 2.20001H7.9498C7.9498 1.62004 8.41985 1.15 8.9998 1.15V0.85ZM10.3498 2.20001C10.3498 1.45436 9.74545 0.85 8.9998 0.85V1.15C9.57976 1.15 10.0498 1.62004 10.0498 2.20001H10.3498ZM10.3498 7.7998V2.20001H10.0498V7.7998H10.3498ZM15.7999 7.6498H10.1998V7.9498H15.7999V7.6498ZM17.15 8.9998C17.15 8.25416 16.5456 7.6498 15.7999 7.6498V7.9498C16.3799 7.9498 16.85 8.41985 16.85 8.9998H17.15ZM15.7999 10.3498C16.5456 10.3498 17.15 9.74545 17.15 8.9998H16.85C16.85 9.57976 16.3799 10.0498 15.7999 10.0498V10.3498ZM10.1998 10.3498H15.7999V10.0498H10.1998V10.3498ZM10.3498 15.7999V10.1998H10.0498V15.7999H10.3498ZM8.9998 17.15C9.74545 17.15 10.3498 16.5456 10.3498 15.7999H10.0498C10.0498 16.3799 9.57976 16.85 8.9998 16.85V17.15ZM7.6498 15.7999C7.6498 16.5456 8.25416 17.15 8.9998 17.15V16.85C8.41985 16.85 7.9498 16.3799 7.9498 15.7999H7.6498ZM7.6498 10.1998V15.7999H7.9498V10.1998H7.6498ZM2.20001 10.3498H7.7998V10.0498H2.20001V10.3498ZM0.85 8.9998C0.85 9.74545 1.45436 10.3498 2.20001 10.3498V10.0498C1.62004 10.0498 1.15 9.57976 1.15 8.9998H0.85ZM2.20001 7.6498C1.45436 7.6498 0.85 8.25416 0.85 8.9998H1.15C1.15 8.41985 1.62004 7.9498 2.20001 7.9498V7.6498ZM7.7998 7.6498H2.20001V7.9498H7.7998V7.6498ZM7.6498 2.20001V7.7998H7.9498V2.20001H7.6498Z" fill="white"/>
</svg>
