<svg width="27" height="26" viewBox="0 0 27 26" fill="none" xmlns="http://www.w3.org/2000/svg">
<path d="M13.0006 0C5.82131 0 0 5.82016 0 13C0 20.1798 5.82073 26 13.0006 26C20.181 26 26.0011 20.1798 26.0011 13C26.0011 5.82016 20.181 0 13.0006 0ZM13.0006 3.88715C15.3761 3.88715 17.3012 5.81274 17.3012 8.18717C17.3012 10.5622 15.3761 12.4872 13.0006 12.4872C10.6261 12.4872 8.70112 10.5622 8.70112 8.18717C8.70112 5.81274 10.6261 3.88715 13.0006 3.88715ZM12.9977 22.6011C10.6284 22.6011 8.45842 21.7382 6.78467 20.31C6.37694 19.9623 6.14166 19.4523 6.14166 18.9172C6.14166 16.5091 8.09067 14.5818 10.4994 14.5818H15.5029C17.9122 14.5818 19.8538 16.5091 19.8538 18.9172C19.8538 19.4529 19.6196 19.9617 19.2113 20.3095C17.5382 21.7382 15.3676 22.6011 12.9977 22.6011Z" fill="#203A60"/>
</svg>
