<svg width="33" height="50" viewBox="0 0 33 50" fill="none" xmlns="http://www.w3.org/2000/svg">
<path fill-rule="evenodd" clip-rule="evenodd" d="M0 16.6667C0 7.5 7.425 0 16.5 0C25.575 0 33 7.5 33 16.6667V33.3333C33 42.5 25.575 50 16.5 50C7.425 50 0 42.5 0 33.3333V16.6667ZM16.5 45.8333C23.3062 45.8333 28.875 40.2083 28.875 33.3333V16.6667C28.875 9.79167 23.3062 4.16667 16.5 4.16667C9.69375 4.16667 4.125 9.79167 4.125 16.6667V33.3333C4.125 40.2083 9.69375 45.8333 16.5 45.8333ZM14.4381 13.5413C14.4381 12.2913 15.2631 11.458 16.5006 11.458C17.7381 11.458 18.5631 12.2913 18.5631 13.5413V19.7913C18.5631 21.0413 17.7381 21.8747 16.5006 21.8747C15.2631 21.8747 14.4381 21.0413 14.4381 19.7913V13.5413Z" fill="#D9D9D9"/>
</svg>
