<svg width="28" height="28" viewBox="0 0 28 28" fill="none" xmlns="http://www.w3.org/2000/svg">
<path fill-rule="evenodd" clip-rule="evenodd" d="M20.4039 19.0049L26.7118 25.337C27.0961 25.6568 27.0961 26.2964 26.7118 26.7122C26.5197 26.9041 26.2635 27 26.0394 27C25.8153 27 25.5591 26.9041 25.367 26.7122L19.0271 20.3801C17.1379 21.9791 14.6724 22.9385 11.9828 22.9385C5.93104 22.9385 1 17.9816 1 11.9693C1 5.92497 5.93104 1 11.9828 1C18.0345 1 22.9655 5.92497 22.9655 11.9693C22.9655 14.6556 22.0049 17.0861 20.4039 19.0049ZM18.3867 18.3653L18.4507 18.3014C20.0517 16.6384 21.0443 14.3998 21.0443 11.9693C21.0443 6.94834 16.9778 2.88684 11.9828 2.91882C6.98769 2.91882 2.92118 6.98032 2.92118 11.9693C2.92118 16.9582 6.98769 21.0197 11.9828 21.0197C14.4483 21.0197 16.6897 20.0283 18.3227 18.4293L18.3867 18.3653ZM5.93859 12.1934C5.74648 10.2106 6.45091 8.25978 7.82776 6.88463C8.21199 6.53284 8.78835 6.56482 9.17258 6.88463C9.55682 7.23641 9.55682 7.84404 9.17258 8.2278C8.21199 9.21919 7.7317 10.5943 7.85978 12.0015C7.92382 12.5451 7.50756 12.9929 6.99524 13.0568H6.89918C6.41889 13.0568 6.00263 12.6731 5.93859 12.1934Z" fill="url(#paint0_linear)"/>
<path d="M26.7118 25.337L26.3576 25.6899L26.374 25.7064L26.392 25.7213L26.7118 25.337ZM20.4039 19.0049L20.02 18.6846L19.7279 19.0347L20.0497 19.3578L20.4039 19.0049ZM26.7118 26.7122L27.0652 27.066L27.0722 27.0589L27.079 27.0515L26.7118 26.7122ZM25.367 26.7122L25.0137 27.066L25.367 26.7122ZM19.0271 20.3801L19.3804 20.0263L19.0551 19.7013L18.7041 19.9984L19.0271 20.3801ZM18.4507 18.3014L18.8041 18.6552L18.8109 18.6481L18.4507 18.3014ZM18.3867 18.3653L18.0334 18.0115L18.0334 18.0115L18.3867 18.3653ZM11.9828 2.91882V3.41883L11.986 3.41881L11.9828 2.91882ZM18.3227 18.4293L18.6725 18.7865L18.676 18.783L18.3227 18.4293ZM7.82776 6.88463L7.49012 6.51584L7.48211 6.52318L7.47442 6.53085L7.82776 6.88463ZM5.93859 12.1934L5.44092 12.2416L5.44179 12.2506L5.44299 12.2595L5.93859 12.1934ZM9.17258 6.88463L9.51022 6.51584L9.50151 6.50787L9.49244 6.50032L9.17258 6.88463ZM9.17258 8.2278L8.8192 7.87398L8.8135 7.87987L9.17258 8.2278ZM7.85978 12.0015L7.36166 12.0468L7.36321 12.06L7.85978 12.0015ZM6.99524 13.0568V13.5568H7.02633L7.05719 13.553L6.99524 13.0568ZM27.0661 24.9841L20.7582 18.652L20.0497 19.3578L26.3576 25.6899L27.0661 24.9841ZM27.079 27.0515C27.6134 26.4734 27.6831 25.4949 27.0317 24.9527L26.392 25.7213C26.5091 25.8188 26.5787 26.1195 26.3446 26.3728L27.079 27.0515ZM26.0394 27.5C26.3957 27.5 26.779 27.3517 27.0652 27.066L26.3585 26.3584C26.2604 26.4564 26.1314 26.5 26.0394 26.5V27.5ZM25.0137 27.066C25.2998 27.3517 25.6831 27.5 26.0394 27.5V26.5C25.9474 26.5 25.8184 26.4564 25.7203 26.3584L25.0137 27.066ZM18.6738 20.7338L25.0137 27.066L25.7203 26.3584L19.3804 20.0263L18.6738 20.7338ZM11.9828 23.4385C14.7929 23.4385 17.3724 22.4357 19.3501 20.7617L18.7041 19.9984C16.9035 21.5225 14.5519 22.4385 11.9828 22.4385V23.4385ZM0.5 11.9693C0.5 18.2573 5.65453 23.4385 11.9828 23.4385V22.4385C6.20755 22.4385 1.5 17.7058 1.5 11.9693H0.5ZM11.9828 0.5C5.65547 0.5 0.5 5.64825 0.5 11.9693H1.5C1.5 6.20169 6.2066 1.5 11.9828 1.5V0.5ZM23.4655 11.9693C23.4655 5.64825 18.31 0.5 11.9828 0.5V1.5C17.7589 1.5 22.4655 6.20169 22.4655 11.9693H23.4655ZM20.7879 19.3252C22.4599 17.3212 23.4655 14.7787 23.4655 11.9693H22.4655C22.4655 14.5325 21.5499 16.851 20.02 18.6846L20.7879 19.3252ZM18.0974 17.9476L18.0334 18.0115L18.74 18.7191L18.8041 18.6551L18.0974 17.9476ZM20.5443 11.9693C20.5443 14.2612 19.6085 16.3779 18.0905 17.9546L18.8109 18.6481C20.495 16.8989 21.5443 14.5383 21.5443 11.9693H20.5443ZM11.986 3.41881C16.7012 3.38862 20.5443 7.22329 20.5443 11.9693H21.5443C21.5443 6.6734 17.2545 2.38506 11.9796 2.41883L11.986 3.41881ZM3.42118 11.9693C3.42118 7.25704 7.26325 3.41882 11.9828 3.41882V2.41882C6.71212 2.41882 2.42118 6.7036 2.42118 11.9693H3.42118ZM11.9828 20.5197C7.26325 20.5197 3.42118 16.6815 3.42118 11.9693H2.42118C2.42118 17.2349 6.71212 21.5197 11.9828 21.5197V20.5197ZM17.9728 18.072C16.4291 19.5836 14.3118 20.5197 11.9828 20.5197V21.5197C14.5847 21.5197 16.9502 20.473 18.6725 18.7865L17.9728 18.072ZM18.0334 18.0115L17.9693 18.0755L18.676 18.783L18.74 18.7191L18.0334 18.0115ZM7.47442 6.53085C5.99095 8.0125 5.2345 10.1111 5.44092 12.2416L6.43626 12.1451C6.25845 10.31 6.91087 8.50706 8.18109 7.2384L7.47442 6.53085ZM9.49244 6.50032C8.944 6.04384 8.08446 5.9717 7.49012 6.51584L8.16539 7.25341C8.33953 7.09398 8.6327 7.0858 8.85272 7.26893L9.49244 6.50032ZM9.52592 8.58157C10.0968 8.01143 10.1199 7.07402 9.51022 6.51584L8.83495 7.25341C8.99375 7.3988 9.01688 7.67664 8.81925 7.87403L9.52592 8.58157ZM8.35772 11.9562C8.24255 10.6909 8.67462 9.46026 9.53167 8.57573L8.8135 7.87987C7.74936 8.97812 7.22084 10.4978 7.36183 12.0468L8.35772 11.9562ZM7.05719 13.553C7.80312 13.4598 8.45694 12.7971 8.35634 11.943L7.36321 12.06C7.39069 12.2932 7.212 12.5259 6.9333 12.5607L7.05719 13.553ZM6.89918 13.5568H6.99524V12.5568H6.89918V13.5568ZM5.44299 12.2595C5.53817 12.9725 6.1534 13.5568 6.89918 13.5568V12.5568C6.68438 12.5568 6.46709 12.3736 6.4342 12.1272L5.44299 12.2595Z" fill="url(#paint1_linear)"/>
<defs>
<linearGradient id="paint0_linear" x1="-2.64448" y1="1" x2="27.0002" y2="27.0362" gradientUnits="userSpaceOnUse">
<stop stop-color="#E95228"/>
<stop offset="1" stop-color="#EE9338"/>
</linearGradient>
<linearGradient id="paint1_linear" x1="-2.54546" y1="1" x2="27" y2="27" gradientUnits="userSpaceOnUse">
<stop stop-color="#E95228"/>
<stop offset="1" stop-color="#EE9338"/>
</linearGradient>
</defs>
</svg>
