<svg width="60" height="45" viewBox="0 0 60 45" fill="none" xmlns="http://www.w3.org/2000/svg">
<path d="M59.2555 12.4139L48.736 21.7616C47.6053 22.7663 45.818 21.9639 45.818 20.4516V16.948H21.185V5.25973H45.818V1.75616C45.818 0.243815 47.6054 -0.558585 48.736 0.44614L59.2555 9.79384C60.0401 10.4911 60.0401 11.7167 59.2555 12.4139ZM6.40785 17.0649L0.0476704 23.7723C0.0137743 24.2601 -0.00258925 24.7524 0.00033282 25.2489C0.0619301 35.6951 8.22619 44.2551 18.5128 44.9524L18.6389 33.2188C14.6964 32.6212 11.668 29.2 11.6884 25.0887C11.6904 24.6857 11.7241 24.2897 11.785 23.9021L6.40785 17.0649Z" fill="url(#paint0_linear)"/>
<path d="M15.0157 37.5748L18.639 33.2188C19.0521 33.2815 19.4749 33.3134 19.9057 33.3115C24.4317 33.2922 28.0519 29.5266 28.0519 25.0006C28.0519 24.0383 28.832 23.2582 29.7943 23.2582H38.0474C38.9822 23.2582 39.7402 24.0161 39.7402 24.9509C39.7402 35.945 30.7449 45.0644 19.751 44.9996C19.335 44.9971 18.9226 44.9803 18.5129 44.9525L14.9158 39.6847C14.4741 39.0381 14.5149 38.1769 15.0157 37.5748ZM24.7792 10.052L21.1851 5.25977H20.0491C9.55148 5.25977 0.763759 13.461 0.0478516 23.7724L5.31529 20.1754C5.962 19.7338 6.82308 19.7746 7.42514 20.2753L11.7852 23.902C12.402 19.9813 15.9185 16.9479 19.9939 16.9479H21.1852L24.7793 12.1557C25.2467 11.5325 25.2467 10.6753 24.7792 10.052Z" fill="url(#paint1_linear)"/>
<defs>
<linearGradient id="paint0_linear" x1="59.7273" y1="10.6364" x2="-1.25226e-06" y2="34.3637" gradientUnits="userSpaceOnUse">
<stop stop-color="#FEE45C"/>
<stop offset="1" stop-color="#FFFBD7"/>
</linearGradient>
<linearGradient id="paint1_linear" x1="19.894" y1="44.9999" x2="19.894" y2="5.25977" gradientUnits="userSpaceOnUse">
<stop stop-color="#E95228"/>
<stop offset="1" stop-color="#FEC00F"/>
</linearGradient>
</defs>
</svg>
