<svg width="134" height="134" viewBox="0 0 134 134" fill="none" xmlns="http://www.w3.org/2000/svg">
<circle cx="67" cy="67" r="63.5" stroke="#6CC070" stroke-width="7"/>
<mask id="path-2-outside-1" maskUnits="userSpaceOnUse" x="36" y="43" width="61" height="48" fill="black">
<rect fill="white" x="36" y="43" width="61" height="48"/>
<path fill-rule="evenodd" clip-rule="evenodd" d="M51.7412 88.5511C52.375 89.1865 53.2071 89.5034 54.0391 89.5034C54.8712 89.5034 55.7033 89.1849 56.3371 88.5511L95.3403 49.5478C96.6096 48.2786 96.6096 46.2212 95.3403 44.9519C94.0727 43.6827 92.0121 43.6827 90.7444 44.9519L54.0391 81.6572L42.5478 70.1659C41.2802 68.8967 39.2195 68.8967 37.9519 70.1659C36.6827 71.4351 36.6827 73.4926 37.9519 74.7618L51.7412 88.5511Z"/>
</mask>
<path fill-rule="evenodd" clip-rule="evenodd" d="M51.7412 88.5511C52.375 89.1865 53.2071 89.5034 54.0391 89.5034C54.8712 89.5034 55.7033 89.1849 56.3371 88.5511L95.3403 49.5478C96.6096 48.2786 96.6096 46.2212 95.3403 44.9519C94.0727 43.6827 92.0121 43.6827 90.7444 44.9519L54.0391 81.6572L42.5478 70.1659C41.2802 68.8967 39.2195 68.8967 37.9519 70.1659C36.6827 71.4351 36.6827 73.4926 37.9519 74.7618L51.7412 88.5511Z" fill="#6CC070"/>
<path d="M51.7412 88.5511L52.0952 88.198L52.0948 88.1975L51.7412 88.5511ZM56.3371 88.5511L55.9835 88.1975L56.3371 88.5511ZM95.3403 49.5478L95.6939 49.9014L95.3403 49.5478ZM95.3403 44.9519L94.9866 45.3053L94.9868 45.3055L95.3403 44.9519ZM90.7444 44.9519L91.098 45.3055L91.0982 45.3053L90.7444 44.9519ZM54.0391 81.6572L53.6856 82.0108L54.0391 82.3643L54.3927 82.0108L54.0391 81.6572ZM42.5478 70.1659L42.194 70.5192L42.1943 70.5195L42.5478 70.1659ZM37.9519 70.1659L38.3055 70.5195L38.3057 70.5192L37.9519 70.1659ZM37.9519 74.7618L38.3055 74.4082H38.3055L37.9519 74.7618ZM54.0391 89.0034C53.334 89.0034 52.6311 88.7352 52.0952 88.198L51.3872 88.9042C52.1189 89.6377 53.0801 90.0034 54.0391 90.0034V89.0034ZM55.9835 88.1975C55.447 88.734 54.7437 89.0034 54.0391 89.0034V90.0034C54.9987 90.0034 55.9595 89.6357 56.6906 88.9046L55.9835 88.1975ZM94.9868 49.1943L55.9835 88.1975L56.6906 88.9046L95.6939 49.9014L94.9868 49.1943ZM94.9868 45.3055C96.0607 46.3794 96.0607 48.1203 94.9868 49.1943L95.6939 49.9014C97.1584 48.4369 97.1584 46.0629 95.6939 44.5984L94.9868 45.3055ZM91.0982 45.3053C92.1705 44.2316 93.9143 44.2316 94.9866 45.3053L95.6941 44.5986C94.2312 43.1338 91.8536 43.1338 90.3907 44.5986L91.0982 45.3053ZM54.3927 82.0108L91.098 45.3055L90.3909 44.5984L53.6856 81.3037L54.3927 82.0108ZM42.1943 70.5195L53.6856 82.0108L54.3927 81.3037L42.9014 69.8123L42.1943 70.5195ZM38.3057 70.5192C39.378 69.4456 41.1217 69.4456 42.194 70.5192L42.9016 69.8126C41.4387 68.3478 39.0611 68.3478 37.5981 69.8126L38.3057 70.5192ZM38.3055 74.4082C37.2315 73.3343 37.2315 71.5934 38.3055 70.5195L37.5984 69.8123C36.1339 71.2768 36.1339 73.6508 37.5984 75.1153L38.3055 74.4082ZM52.0948 88.1975L38.3055 74.4082L37.5984 75.1153L51.3876 88.9046L52.0948 88.1975Z" fill="#6CC070" mask="url(#path-2-outside-1)"/>
</svg>
