<svg width="40" height="30" viewBox="0 0 40 30" fill="none" xmlns="http://www.w3.org/2000/svg">
<path d="M1.45976 23.393C16.3282 19.1664 21.7627 27.7076 38.2669 23.3995C38.8794 23.2397 39.2463 22.6134 39.0864 22.001C38.9265 21.3885 38.3003 21.0217 37.6879 21.1814C34.4477 22.0273 31.6392 22.3403 29.0959 22.3437L25.7729 16.9878C27.7372 19.4286 31.3878 19.5693 33.5268 17.2947C34.4672 16.2948 34.962 14.9884 34.9199 13.6163C34.7789 9.01664 29.1433 6.95277 26.0395 10.253C24.5444 11.8429 24.2732 14.1034 25.115 15.9274L20.5681 8.59904L27.3156 6.65193C29.4111 6.04727 30.4014 3.64863 29.3367 1.7408C28.5637 0.355572 26.9591 -0.304798 25.4351 0.135041L15.2199 3.08286C12.5713 3.84723 11.3852 6.92611 12.8395 9.27018L15.9271 14.2465C13.7014 15.6281 6.64201 20.0057 6.56705 20.0576C4.79508 20.2449 2.89742 20.6011 0.833093 21.1879C0.224227 21.361 -0.129112 21.9949 0.043966 22.6039C0.216967 23.2129 0.851127 23.5661 1.45976 23.393V23.393ZM27.7094 11.8236C28.7884 10.6764 30.5895 10.6243 31.7335 11.7001C32.8795 12.778 32.9349 14.578 31.8569 15.7243C30.7793 16.8702 28.9791 16.9257 27.8329 15.8477C26.6868 14.7698 26.6315 12.9698 27.7094 11.8236V11.8236ZM18.4791 14.012L14.7874 8.06169C14.1353 7.01077 14.6662 5.62867 15.8553 5.2855L26.0706 2.33767C26.5647 2.19493 27.0844 2.40912 27.3349 2.85798C27.6806 3.47747 27.3575 4.25383 26.68 4.44938L18.4784 6.81615C17.7484 7.02682 17.4223 7.87731 17.8222 8.52171L26.326 22.2275C20.978 21.7785 16.6326 20.1656 11.1303 19.9206L18.1095 15.5902C18.6474 15.2565 18.8129 14.5499 18.4791 14.012V14.012Z" fill="#EE9338"/>
<path d="M37.688 26.5304C21.8976 30.6523 16.3567 22.1239 0.833093 26.5369C0.224227 26.71 -0.129112 27.3439 0.043966 27.9528C0.217044 28.5618 0.851203 28.9151 1.45992 28.742C16.3283 24.5153 21.7629 33.0565 38.267 28.7485C38.8795 28.5886 39.2464 27.9624 39.0866 27.3499C38.9267 26.7374 38.3005 26.3706 37.688 26.5304V26.5304Z" fill="#EE9338"/>
</svg>
