<svg width="14" height="11" viewBox="0 0 14 11" fill="none" xmlns="http://www.w3.org/2000/svg">
<path d="M13.131 1.26948C12.9199 1.36309 12.7029 1.4421 12.4812 1.50624C12.7437 1.20936 12.9439 0.860043 13.066 0.477782C13.0934 0.392099 13.065 0.298311 12.9946 0.242272C12.9243 0.186189 12.8265 0.179472 12.7491 0.225369C12.2782 0.504653 11.7702 0.705362 11.2375 0.822727C10.7009 0.298397 9.97207 0 9.21864 0C7.62827 0 6.33439 1.29383 6.33439 2.88416C6.33439 3.00941 6.34233 3.13397 6.35801 3.2568C4.38452 3.08352 2.5498 2.11353 1.2899 0.56806C1.245 0.512974 1.17583 0.483286 1.10501 0.488964C1.03415 0.494512 0.970483 0.534471 0.934684 0.595884C0.67915 1.03436 0.544059 1.53585 0.544059 2.04609C0.544059 2.74105 0.792181 3.40043 1.23048 3.91566C1.09721 3.8695 0.967882 3.81181 0.844449 3.74329C0.778182 3.70641 0.697309 3.70697 0.631476 3.74472C0.565599 3.78247 0.524295 3.8519 0.522562 3.92779C0.522258 3.94058 0.522258 3.95336 0.522258 3.96632C0.522258 5.00367 1.08057 5.93761 1.93415 6.44664C1.86082 6.43931 1.78753 6.42869 1.71472 6.41478C1.63966 6.40044 1.56247 6.42674 1.51184 6.484C1.46114 6.5412 1.44436 6.62095 1.46772 6.69376C1.78367 7.68018 2.59713 8.40574 3.58052 8.62695C2.7649 9.1378 1.83217 9.40538 0.853031 9.40538C0.648725 9.40538 0.443249 9.39338 0.242151 9.36959C0.142252 9.35771 0.0467299 9.4167 0.0127079 9.5117C-0.0213142 9.60674 0.0147449 9.71271 0.099735 9.76719C1.3576 10.5737 2.81205 11 4.30577 11C7.24224 11 9.07922 9.61528 10.1031 8.45363C11.3799 7.00516 12.1122 5.08792 12.1122 3.19356C12.1122 3.11443 12.111 3.03451 12.1086 2.95485C12.6123 2.57532 13.046 2.116 13.3989 1.58807C13.4525 1.50789 13.4467 1.40193 13.3846 1.32812C13.3226 1.25427 13.2192 1.23038 13.131 1.26948Z" fill="#132339"/>
</svg>
