<svg width="20" height="20" viewBox="0 0 20 20" fill="none" xmlns="http://www.w3.org/2000/svg">
<path fill-rule="evenodd" clip-rule="evenodd" d="M15.8334 15.25L15.8334 9.99999C15.8334 9.67741 16.0941 9.41666 16.4167 9.41666C16.7393 9.41666 17 9.67741 17 9.99999L17 15.25C17 16.2148 16.2148 17 15.25 17L4.75002 17C3.78519 17 3 16.2148 3 15.25L3 9.99999C3 9.67741 3.2608 9.41667 3.58338 9.41667C3.90595 9.41667 4.1667 9.67741 4.1667 9.99999L4.1667 15.25C4.1667 15.572 4.42801 15.8333 4.75002 15.8333L15.25 15.8333C15.572 15.8333 15.8334 15.572 15.8334 15.25ZM6.08517 6.67327L9.58518 3.1266C9.69544 3.01519 9.84419 2.95277 10.0005 2.95277C10.1568 2.95277 10.3061 3.01576 10.4158 3.1266L13.9158 6.67327C14.0278 6.78644 14.0838 6.93459 14.0838 7.08277C14.0838 7.23327 14.0255 7.38378 13.91 7.4981C13.6807 7.72384 13.3115 7.72208 13.0852 7.49226L10.5838 4.95769L10.5838 11.7494C10.5838 12.072 10.3231 12.3328 10.0005 12.3328C9.67791 12.3328 9.41717 12.072 9.41717 11.7494L9.41717 4.95769L6.91585 7.49226C6.68951 7.72211 6.32026 7.72444 6.09102 7.4981C5.86177 7.27177 5.85884 6.90194 6.08517 6.67327Z" fill="white"/>
<path d="M9.58518 3.1266L9.40749 2.95074L9.40724 2.951L9.58518 3.1266ZM6.08517 6.67327L6.26285 6.84914L6.26312 6.84887L6.08517 6.67327ZM10.4158 3.1266L10.5937 2.951L10.5935 2.95077L10.4158 3.1266ZM13.9158 6.67327L13.7379 6.84887L13.7381 6.84914L13.9158 6.67327ZM13.91 7.4981L14.0854 7.67624L14.0859 7.67578L13.91 7.4981ZM13.0852 7.49226L13.2633 7.31684L13.2631 7.31665L13.0852 7.49226ZM10.5838 4.95769L10.7618 4.78208L10.3338 4.34845L10.3338 4.95769L10.5838 4.95769ZM9.41717 4.95769L9.66717 4.95769L9.66717 4.34845L9.23923 4.78208L9.41717 4.95769ZM6.91585 7.49226L6.73791 7.31665L6.73772 7.31685L6.91585 7.49226ZM6.09102 7.4981L5.91537 7.67601L5.91537 7.67601L6.09102 7.4981ZM15.5834 9.99999L15.5834 15.25L16.0834 15.25L16.0834 9.99999L15.5834 9.99999ZM16.4167 9.16666C15.956 9.16666 15.5834 9.53934 15.5834 9.99999L16.0834 9.99999C16.0834 9.81548 16.2322 9.66666 16.4167 9.66666L16.4167 9.16666ZM17.25 9.99999C17.25 9.53934 16.8773 9.16666 16.4167 9.16666L16.4167 9.66666C16.6012 9.66666 16.75 9.81548 16.75 9.99999L17.25 9.99999ZM17.25 15.25L17.25 9.99999L16.75 9.99999L16.75 15.25L17.25 15.25ZM15.25 17.25C16.3529 17.25 17.25 16.3529 17.25 15.25L16.75 15.25C16.75 16.0768 16.0768 16.75 15.25 16.75L15.25 17.25ZM4.75002 17.25L15.25 17.25L15.25 16.75L4.75002 16.75L4.75002 17.25ZM2.75 15.25C2.75 16.3529 3.64712 17.25 4.75002 17.25L4.75002 16.75C3.92325 16.75 3.25 16.0768 3.25 15.25L2.75 15.25ZM2.75 9.99999L2.75 15.25L3.25 15.25L3.25 9.99999L2.75 9.99999ZM3.58338 9.16667C3.12276 9.16667 2.75 9.5393 2.75 9.99999L3.25 9.99999C3.25 9.81551 3.39884 9.66667 3.58338 9.66667L3.58338 9.16667ZM4.4167 9.99999C4.4167 9.53934 4.04403 9.16667 3.58338 9.16667L3.58338 9.66667C3.76788 9.66667 3.9167 9.81548 3.9167 9.99999L4.4167 9.99999ZM4.4167 15.25L4.4167 9.99999L3.9167 9.99999L3.9167 15.25L4.4167 15.25ZM4.75002 15.5833C4.56609 15.5833 4.4167 15.4339 4.4167 15.25L3.9167 15.25C3.9167 15.71 4.28993 16.0833 4.75002 16.0833L4.75002 15.5833ZM15.25 15.5833L4.75002 15.5833L4.75002 16.0833L15.25 16.0833L15.25 15.5833ZM15.5834 15.25C15.5834 15.4339 15.434 15.5833 15.25 15.5833L15.25 16.0833C15.7101 16.0833 16.0834 15.7101 16.0834 15.25L15.5834 15.25ZM9.40724 2.951L5.90723 6.49767L6.26312 6.84887L9.76312 3.3022L9.40724 2.951ZM10.0005 2.70277C9.77695 2.70277 9.56436 2.79223 9.40749 2.95074L9.76287 3.30245C9.82652 3.23814 9.91143 3.20277 10.0005 3.20277L10.0005 2.70277ZM10.5935 2.95077C10.4373 2.79291 10.2242 2.70277 10.0005 2.70277L10.0005 3.20277C10.0894 3.20277 10.1749 3.23861 10.2381 3.30243L10.5935 2.95077ZM14.0938 6.49767L10.5937 2.951L10.2379 3.3022L13.7379 6.84887L14.0938 6.49767ZM14.3338 7.08277C14.3338 6.8717 14.2539 6.65945 14.0935 6.4974L13.7381 6.84914C13.8018 6.91343 13.8338 6.99748 13.8338 7.08277L14.3338 7.08277ZM14.0859 7.67578C14.2503 7.51301 14.3338 7.29787 14.3338 7.08277L13.8338 7.08277C13.8338 7.16868 13.8007 7.25455 13.7341 7.32042L14.0859 7.67578ZM12.907 7.66768C13.2307 7.99631 13.7582 7.99841 14.0854 7.67624L13.7346 7.31997C13.6033 7.44927 13.3923 7.44785 13.2633 7.31684L12.907 7.66768ZM10.4059 5.13329L12.9072 7.66787L13.2631 7.31665L10.7618 4.78208L10.4059 5.13329ZM10.8338 11.7494L10.8338 4.95769L10.3338 4.95769L10.3338 11.7494L10.8338 11.7494ZM10.0005 12.5828C10.4611 12.5828 10.8338 12.2101 10.8338 11.7494L10.3338 11.7494C10.3338 11.9339 10.185 12.0828 10.0005 12.0828L10.0005 12.5828ZM9.16717 11.7494C9.16717 12.2101 9.53984 12.5828 10.0005 12.5828L10.0005 12.0828C9.81598 12.0828 9.66717 11.934 9.66717 11.7494L9.16717 11.7494ZM9.16717 4.95769L9.16717 11.7494L9.66717 11.7494L9.66717 4.95769L9.16717 4.95769ZM7.09379 7.66787L9.59511 5.13329L9.23923 4.78208L6.73791 7.31665L7.09379 7.66787ZM5.91537 7.67601C6.2429 7.99937 6.77061 7.99606 7.09398 7.66767L6.73772 7.31685C6.60841 7.44816 6.39763 7.44951 6.26666 7.3202L5.91537 7.67601ZM5.90749 6.4974C5.58341 6.82483 5.58832 7.3531 5.91537 7.67601L6.26666 7.3202C6.13522 7.19043 6.13426 6.97906 6.26285 6.84914L5.90749 6.4974Z" fill="white"/>
</svg>
