<svg width="17" height="22" viewBox="0 0 17 22" fill="none" xmlns="http://www.w3.org/2000/svg">
<g opacity="0.5">
<path fill-rule="evenodd" clip-rule="evenodd" d="M3.55683 6.27332C3.55683 9.18102 5.92244 11.5466 8.83015 11.5466C11.7379 11.5466 14.1035 9.18102 14.1035 6.27332C14.1035 3.36561 11.7379 1 8.83015 1C5.92244 1 3.55683 3.36561 3.55683 6.27332ZM5.1193 6.27332C5.1193 4.22715 6.78399 2.56246 8.83015 2.56246C10.8763 2.56246 12.541 4.22715 12.541 6.27332C12.541 8.31948 10.8763 9.98417 8.83015 9.98417C6.78399 9.98417 5.1193 8.31948 5.1193 6.27332ZM15.2098 20.3146C15.2098 20.6931 15.5692 20.9999 16.0126 20.9999C16.456 20.9999 16.8154 20.6931 16.8154 20.3146C16.8154 16.876 13.5381 14.0785 9.50982 14.0785H8.3056C4.27728 14.0785 1 16.876 1 20.3146C1 20.6931 1.35942 20.9999 1.80281 20.9999C2.24621 20.9999 2.60563 20.6931 2.60563 20.3146C2.60563 17.6318 5.16263 15.4491 8.3056 15.4491H9.46939C12.6124 15.4491 15.2098 17.6318 15.2098 20.3146Z" fill="#203A60"/>
<path d="M8.83015 11.3966C6.00529 11.3966 3.70684 9.09818 3.70684 6.27332H3.40683C3.40683 9.26387 5.8396 11.6966 8.83015 11.6966V11.3966ZM13.9535 6.27332C13.9535 9.09818 11.655 11.3966 8.83015 11.3966V11.6966C11.8207 11.6966 14.2535 9.26387 14.2535 6.27332H13.9535ZM8.83015 1.15C11.655 1.15 13.9535 3.44845 13.9535 6.27332H14.2535C14.2535 3.28277 11.8207 0.85 8.83015 0.85V1.15ZM3.70684 6.27332C3.70684 3.44845 6.00529 1.15 8.83015 1.15V0.85C5.8396 0.85 3.40683 3.28277 3.40683 6.27332H3.70684ZM8.83015 2.41246C6.70114 2.41246 4.9693 4.14431 4.9693 6.27332H5.2693C5.2693 4.31 6.86683 2.71246 8.83015 2.71246V2.41246ZM12.691 6.27332C12.691 4.14431 10.9592 2.41246 8.83015 2.41246V2.71246C10.7935 2.71246 12.391 4.31 12.391 6.27332H12.691ZM8.83015 10.1342C10.9592 10.1342 12.691 8.40232 12.691 6.27332H12.391C12.391 8.23664 10.7935 9.83417 8.83015 9.83417V10.1342ZM4.9693 6.27332C4.9693 8.40232 6.70114 10.1342 8.83015 10.1342V9.83417C6.86683 9.83417 5.2693 8.23664 5.2693 6.27332H4.9693ZM16.0126 20.8499C15.6289 20.8499 15.3598 20.5889 15.3598 20.3146H15.0598C15.0598 20.7974 15.5095 21.1499 16.0126 21.1499V20.8499ZM16.6654 20.3146C16.6654 20.5889 16.3963 20.8499 16.0126 20.8499V21.1499C16.5157 21.1499 16.9654 20.7974 16.9654 20.3146H16.6654ZM9.50982 14.2285C13.4784 14.2285 16.6654 16.9802 16.6654 20.3146H16.9654C16.9654 16.7718 13.5978 13.9285 9.50982 13.9285V14.2285ZM8.3056 14.2285H9.50982V13.9285H8.3056V14.2285ZM1.15 20.3146C1.15 16.9802 4.33698 14.2285 8.3056 14.2285V13.9285C4.21759 13.9285 0.85 16.7718 0.85 20.3146H1.15ZM1.80281 20.8499C1.41912 20.8499 1.15 20.5889 1.15 20.3146H0.85C0.85 20.7974 1.29972 21.1499 1.80281 21.1499V20.8499ZM2.45563 20.3146C2.45563 20.5889 2.18651 20.8499 1.80281 20.8499V21.1499C2.3059 21.1499 2.75563 20.7974 2.75563 20.3146H2.45563ZM8.3056 15.2991C5.10293 15.2991 2.45563 17.5275 2.45563 20.3146H2.75563C2.75563 17.736 5.22232 15.5991 8.3056 15.5991V15.2991ZM9.46939 15.2991H8.3056V15.5991H9.46939V15.2991ZM15.3598 20.3146C15.3598 17.5263 12.6706 15.2991 9.46939 15.2991V15.5991C12.5541 15.5991 15.0598 17.7372 15.0598 20.3146H15.3598Z" fill="#203A60"/>
</g>
</svg>
