<svg width="49" height="16" viewBox="0 0 49 16" fill="none" xmlns="http://www.w3.org/2000/svg">
<path fill-rule="evenodd" clip-rule="evenodd" d="M35.6223 0.695303L35.054 3.9803C33.3497 3.0412 29.4709 2.81901 29.4705 4.54866C29.4705 5.2358 30.3481 5.70837 31.4059 6.27794C33.0101 7.14175 35.0286 8.22868 35.0286 10.6256C35.0286 14.4556 30.9285 15.8628 28.2106 15.8628C25.4936 15.8628 23.7153 14.999 23.7153 14.999L24.3074 11.5643C25.938 12.8733 30.879 13.2452 30.879 11.1694C30.879 10.2971 29.9063 9.7827 28.7784 9.1862C27.2222 8.36315 25.3704 7.38381 25.3704 5.09248C25.3704 0.892125 30.0639 0.0283203 32.0403 0.0283203C33.8685 0.0283203 35.6223 0.695303 35.6223 0.695303ZM48.9108 15.5989H45.2539L44.7874 13.3267H39.7245L38.8942 15.5989H34.7426L40.6824 1.44126C40.6824 1.44126 41.0425 0.301251 42.5209 0.301251H45.7224L48.9108 15.5989ZM13.9282 0.301661L10.1313 10.8232L9.68201 8.55752L9.68242 8.55834L8.34232 1.679C8.34232 1.679 8.18028 0.301661 6.45308 0.301661H0.176072L0.102417 0.560679C0.102417 0.560679 2.02194 0.96005 4.2684 2.30916L7.72853 15.5993H11.8781L18.2145 0.301661H13.9282ZM21.2613 15.5989H17.2787L19.7678 0.301661H23.7509L21.2613 15.5989ZM40.8714 10.1877L42.9641 4.46314L44.1413 10.1877H40.8714Z" fill="#2566AF"/>
<path fill-rule="evenodd" clip-rule="evenodd" d="M9.68242 8.55746L8.34232 1.67812C8.34232 1.67812 8.18028 0.300781 6.45308 0.300781H0.176072L0.102417 0.5598C0.102417 0.5598 3.11939 1.18505 6.0132 3.52767C8.78015 5.76677 9.68242 8.55746 9.68242 8.55746Z" fill="#E6A540"/>
</svg>
